<svg xmlns="http://www.w3.org/2000/svg" viewBox="0 0 506.3 472.18"><defs><style>.cls-1{fill:#f8951e;}</style></defs><title>Asset 15</title><g id="Layer_2" data-name="Layer 2"><g id="Layer_1-2" data-name="Layer 1"><path class="cls-1" d="M0,6C0,4.11.13,2.17.2.24L57.13,0a31.61,31.61,0,0,1,5,2.81c24.52,20.27,53.48,26.59,84.36,27.12,14.21.25,28.44.49,42.62,1.32,26.14,1.52,40.4,15.86,44,42,3.11,23-1.56,45-5.68,67.25A171.25,171.25,0,0,0,224,168.65c-.21,12.28,5.65,22,16.3,28.29,15.94,9.48,33.68,13.68,51.85,13.88,31.83.34,63.69-1.18,95.53-1,11.29,0,22.74,1.82,33.83,4.19,12.87,2.76,23.62,10,33.21,19.07,13.51,12.77,16.36,28.65,14.39,46.2-3.79,33.94,8.1,62.63,30.21,87.57,4.86,5.49,7.09,10.89,7,18.34-.45,26.52-.18,53-.18,79.57v7.47H.31C.2,470,0,467.88,0,465.74"/></g></g></svg>