<?xml version="1.0" encoding="utf-8"?>
<!-- Generator: Adobe Illustrator 22.0.1, SVG Export Plug-In . SVG Version: 6.00 Build 0)  -->
<svg version="1.1" id="Layer_1" xmlns="http://www.w3.org/2000/svg" xmlns:xlink="http://www.w3.org/1999/xlink" x="0px" y="0px"
	 viewBox="0 0 506.3 472.2" style="enable-background:new 0 0 506.3 472.2;" xml:space="preserve">
<style type="text/css">
	.st0{fill:#F8951E;}
</style>
<title>Asset 15</title>
<g id="Layer_2_1_">
	<g id="Layer_1-2">
		<path class="st0" d="M0,6c0-1.9,0.1-3.8,0.2-5.8L57.1,0c1.7,0.8,3.4,1.7,5,2.8c24.5,20.3,53.5,26.6,84.4,27.1
			c14.2,0.2,28.4,0.5,42.6,1.3c26.1,1.5,40.4,15.9,44,42c3.1,23-1.6,45-5.7,67.2c-1.9,9.3-3.1,18.7-3.4,28.1
			c-0.2,12.3,5.6,22,16.3,28.3c15.9,9.5,33.7,13.7,51.8,13.9c31.8,0.3,63.7-1.2,95.5-1c11.3,0,22.7,1.8,33.8,4.2
			c12.9,2.8,23.6,10,33.2,19.1c13.5,12.8,16.4,28.6,14.4,46.2c-3.8,33.9,8.1,62.6,30.2,87.6c4.9,5.5,19.8,12.7,19.7,20.1
			c-0.5,26.5,0,47.4,0,74v11.2L0.3,472.2C0.2,470,0,467.9,0,465.7"/>
	</g>
</g>
</svg>
