<svg xmlns="http://www.w3.org/2000/svg" viewBox="0 0 506.34 530.9"><defs><style>.cls-1{fill:#fdd803;}.cls-2{fill:#fff2c8;}</style></defs><title>Asset 12</title><g id="Layer_2" data-name="Layer 2"><g id="Layer_1-2" data-name="Layer 1"><path class="cls-1" d="M505,530.9H0V0L2.8,4.46c7.35,11.72,13.26,24.72,22.33,34.89,24,26.92,55.58,38.35,91.08,39.77,17,.68,34.09.56,51.1,1.48,23.72,1.29,37.17,12.67,42.74,35.7,3.8,15.69,3.44,31.54.84,47.4-2.8,17-6,34-8.17,51.1-1.9,14.72,3.28,27,16.25,34.92A86.52,86.52,0,0,0,237.52,258c30.11,9.61,61.08,7.59,92,6.06,22.68-1.12,45.37-3.25,67.89,1.75,28.24,6.27,59.72,27.85,54.49,67.43-4.46,33.68,6.79,62.69,28.47,88,7.81,9.12,16.38,17.61,24.6,26.39Q504.95,489.3,505,530.9Z"/><path class="cls-2" d="M504.93,447.67l1.4,0c0,26.16,0,52.32-.05,78.47,0,1.6-.86,3.19-1.31,4.78Q505,489.29,504.93,447.67Z"/></g></g></svg>