<?xml version="1.0" encoding="utf-8"?>
<!-- Generator: Adobe Illustrator 22.0.1, SVG Export Plug-In . SVG Version: 6.00 Build 0)  -->
<svg version="1.1" id="Layer_1" xmlns="http://www.w3.org/2000/svg" xmlns:xlink="http://www.w3.org/1999/xlink" x="0px" y="0px"
	 viewBox="0 0 506.3 530.9" style="enable-background:new 0 0 506.3 530.9;" xml:space="preserve">
<style type="text/css">
	.st0{fill:#FDD803;}
</style>
<title>Asset 12</title>
<g id="Layer_2_1_">
	<g id="Layer_1-2">
		<path class="st0" d="M514,530.9H0V0l2.8,4.5c7.3,11.7,13.3,24.7,22.3,34.9c24,26.9,55.6,38.3,91.1,39.8c17,0.7,34.1,0.6,51.1,1.5
			c23.7,1.3,37.2,12.7,42.7,35.7c3.8,15.7,3.4,31.5,0.8,47.4c-2.8,17-6,34-8.2,51.1c-1.9,14.7,3.3,27,16.2,34.9
			c5.8,3.5,12.1,6.3,18.6,8.3c30.1,9.6,61.1,7.6,92,6.1c22.7-1.1,45.4-3.2,67.9,1.8c28.2,6.3,59.7,27.9,54.5,67.4
			c-4.5,33.7,6.8,62.7,28.5,88c7.8,9.1,25.4,25,33.6,33.8C514,482.8,514,503.2,514,530.9z"/>
	</g>
</g>
</svg>
