<?xml version="1.0" encoding="utf-8"?>
<!-- Generator: Adobe Illustrator 22.0.1, SVG Export Plug-In . SVG Version: 6.00 Build 0)  -->
<svg version="1.1" id="Layer_1" xmlns="http://www.w3.org/2000/svg" xmlns:xlink="http://www.w3.org/1999/xlink" x="0px" y="0px"
	 viewBox="0 0 506.8 479.7" style="enable-background:new 0 0 506.8 479.7;" xml:space="preserve">
<style type="text/css">
	.st0{fill:#ED1B6A;}
</style>
<title>Asset 16</title>
<g id="Layer_2_1_">
	<g id="Layer_1-2">
		<path class="st0" d="M522,428v52.3H-16c0-156.3,4-307,4-463.3c0-2.1-0.4-20.9,0-23c4.8,2.4,25.8,16.3,30.9,18
			c18,6.3,36.9,6.8,55.7,7.5c13.1,0.5,26.2,0.5,39.3,1.3c24.5,1.5,38.5,13.8,43.7,37.6c3.3,15.7,3.6,31.8,0.8,47.6
			c-2.7,16.2-6.1,32.3-8.2,48.6c-2.5,19.4,4.6,34,19.5,40.8c8,3.6,16.4,6.5,24.9,8.7c28.6,7.4,57.7,5.6,86.7,3.8
			c22.8-1.4,45.7-3.1,68.4,1.9c38.3,8.3,57.2,32.8,55.5,71.5c0,0.5-0.1,1-0.1,1.4c-1,20,0.7,39.6,10.7,57.6
			c11.9,21.8,27.7,41.2,46.7,57.3C476.5,409.2,504.2,423.4,522,428z"/>
	</g>
</g>
</svg>
