<svg xmlns="http://www.w3.org/2000/svg" viewBox="0 0 506.84 475.34"><defs><style>.cls-1{fill:#ed1b6a;}</style></defs><title>Asset 16</title><g id="Layer_2" data-name="Layer 2"><g id="Layer_1-2" data-name="Layer 1"><path class="cls-1" d="M506.84,418.07v57.27H0Q0,240.89.06,6.44C.06,4.3,1,2.15,1.43,0c4.8,2.38,9.41,5.29,14.43,7,18,6.31,36.92,6.75,55.74,7.49,13.09.51,26.22.46,39.29,1.27,24.51,1.51,38.52,13.75,43.7,37.58a126,126,0,0,1,.81,47.6c-2.67,16.21-6.09,32.32-8.21,48.59-2.53,19.36,4.57,34,19.51,40.78A152.22,152.22,0,0,0,191.58,199c28.6,7.39,57.67,5.59,86.73,3.82,22.84-1.38,45.74-3.05,68.4,1.89,38.26,8.33,57.18,32.78,55.52,71.46,0,.48-.09,1-.11,1.43-1,20,.7,39.59,10.68,57.56a201.34,201.34,0,0,0,46.71,57.3C473.52,404.2,489,413.43,506.84,418.07Z"/></g></g></svg>