<svg xmlns="http://www.w3.org/2000/svg" viewBox="0 0 506.34 913.68"><defs><style>.cls-1{fill:#aa3a8c;}.cls-2{fill:#fbfadb;}</style></defs><title>Asset 19</title><g id="Layer_2" data-name="Layer 2"><g id="Layer_1-2" data-name="Layer 1"><path class="cls-1" d="M0,468.45V0C24.29,1.11,48.66,1.29,72.83,3.59c24.52,2.33,39.32,16.57,42.73,39.48A140.09,140.09,0,0,1,116.41,73c-1.41,20.73-4.83,41.37-5.41,62.1-.76,27.31,12.36,45,38.92,51.73,15.35,3.86,31.65,5,47.56,5.34,26.05.52,52.15-1,78.22-1,18.61,0,37,2.32,54.59,9.13,18.68,7.25,32,19.79,36.56,39.77,1.72,7.48,1.8,15.39,2.14,23.13,2.52,58,26,103.72,77.78,132.92,15.35,8.66,32.26,12.08,49.31,15.17,6.91,1.25,10.28,4.25,10.26,12.56q-.48,221.36-.23,442.7v8.84c-9.54-.68-16.05-6-22.23-11.22C471.83,854,461,842.26,448.36,832.87,394.05,792.45,339.72,752,284.55,712.8c-45.29-32.2-87.75-67.72-129.13-104.65C110,567.59,61,531,19.56,485.92,13.67,479.52,6.55,474.25,0,468.45Z"/><path class="cls-2" d="M387.66,796.1c-1.5,55.45-75.75,81.11-119,96C181.61,922.24,94,915.51,4.34,903.62c-2.15-.29-2.75-1.16-2.69-3,.07-2.33-.23-4.67-.37-7,0-147.9-1.28-298.06-1.28-446,13.61,3.94,25.54,8.51,37.07,13.1,9.6,3.83,19,8.17,28.15,12.85,7.21,3.69,14,8.12,20.79,12.45a89.8,89.8,0,0,1,9,7c2.6,2.18,5,4.52,7.51,6.81a89,89,0,0,1,20,26.35c3.22,6.6,6.06,13.37,8.76,20.17q5.88,14.78,11.27,29.71c2.45,6.81,4.5,13.73,6.73,20.6.06.18,0,.48.11.55,3.38,2,165,138.63,172.7,142.33a10.41,10.41,0,0,0,2.36.51l0,.07.61.58c5.66,4.21,11.44,8.29,16.91,12.69,3,2.43,17.53,12.71,19.16,13.78,8.73,5.75,17.75,14.9,26.46,20.67C387.88,787.93,387.66,796.07,387.66,796.1Z"/></g></g></svg>