<?xml version="1.0" encoding="utf-8"?>
<!-- Generator: Adobe Illustrator 22.1.0, SVG Export Plug-In . SVG Version: 6.00 Build 0)  -->
<svg version="1.1" id="Layer_1" xmlns="http://www.w3.org/2000/svg" xmlns:xlink="http://www.w3.org/1999/xlink" x="0px" y="0px"
	 viewBox="0 0 506.3 913.7" style="enable-background:new 0 0 506.3 913.7;" xml:space="preserve">
<style type="text/css">
	.st0{fill:#AA3A8C;}
	.st1{fill:#FDFCDA;}
</style>
<title>Asset 19</title>
<path class="st0" d="M117.2,561.6c5.6-2.4,12.6-0.3,15.6,5.1c8.4,14.8,14.6,31.5,26.1,44.3c0.3,0.4,0.7,0.7,1,1.1
	c6.4,5.7,12.9,11.4,19.4,17c5.5,4.1,11.3,7.9,17,11.7c12.3,8.1,24.6,15.7,38.1,21.7c12.5,5.6,26,9.9,39.4,13.4
	c28,7.3,57.5,61.5,86.3,63.1c29.1,1.6,57.5-48.5,86.6-50.2c20.6-1.2,52.5-9.5,71.3-17.3c0-84.1,3.8-162.4,4-246.5
	c0-8.3-18.8-12.5-25.8-13.8c-17-3.1-34-6.5-49.3-15.2c-51.8-29.2-75.3-74.9-77.8-132.9c-0.3-7.7-0.4-15.7-2.1-23.1
	c-4.6-20-17.9-32.5-36.6-39.8c-17.6-6.8-36-9.1-54.6-9.1c-26.1,0-52.2,1.5-78.2,1c-15.9-0.3-32.2-1.5-47.6-5.3
	c-26.6-6.7-39.7-24.4-38.9-51.7c0.6-20.7,4-41.4,5.4-62.1c0.8-10,0.5-20-0.9-29.9C112.2,20.2,97.4,5.9,72.8,3.6
	C48.7,1.3,24.3,1.1,0,0v468.5c6.5,5.8,13.7,11.1,19.6,17.5c27.9,30.4,59.3,56.9,90.7,83.4C111.2,566,113.4,563.2,117.2,561.6z"/>
<path class="st1" d="M0.2,447.6c0,0,95.3,6.9,137.2,115.2S341.2,722.1,506.2,676v237.6H0.2V447.6z"/>
</svg>
