<?xml version="1.0" encoding="utf-8"?>
<!-- Generator: Adobe Illustrator 22.0.1, SVG Export Plug-In . SVG Version: 6.00 Build 0)  -->
<svg version="1.1" id="Layer_1" xmlns="http://www.w3.org/2000/svg" xmlns:xlink="http://www.w3.org/1999/xlink" x="0px" y="0px"
	 viewBox="0 0 506.1 1631.4" style="enable-background:new 0 0 506.1 1631.4;" xml:space="preserve">
<style type="text/css">
	.st0{fill:#ED1869;}
	.st1{fill:#FDFADA;}
</style>
<title>Asset 14</title>
<g id="Layer_2_1_">
	<g id="Layer_1-2">
		<path class="st0" d="M333.8,24.8c26.4-4.9,53.4,1,78.9,8.7c31.3,9.4,60.8,24,89.1,40.2c1.6,0.9,2.8,2.6,4.2,3.9
			c-0.1,4-0.3,8-0.3,12.1c0,185.9,0.4,1376.9,0.4,1562.7c0,12-30-1.1-41.7-1.1l-428.6-5.4c-24.4,5.4-35.8,23.5-35.8,11.6
			c0-171,0-1536.1,0-1537.1c29.3,1.9,58.6,4.2,88,5.7s58.8-0.1,87.7-6.3c28.6-6.1,55.3-19.3,77.6-38.4c11-9.5,19-21.4,29.8-31.1
			c11.2-10.1,24.4-17.7,38.7-22.4C325.7,26.6,329.7,25.6,333.8,24.8z"/>
	</g>
</g>
<g>
	<g id="Shape_21_2_">
		<path class="st1" d="M352,90.9c-1,4.3-1.7,8.8-2.5,13.2c-0.2,1.1-0.3,2.5,0.6,3.3c0.8,0.7,2.1,0.5,2.9-0.2s1.2-1.7,1.6-2.6
			c2.3-6.2,3.2-12.9,5.4-19.2c2.2-6.3,6.2-12.4,12.3-14.9c4-1.6,8.6-1.4,12.8-0.4c1.9,0.5,3.9,1.1,5.1,2.7c2,2.6,0.9,6.4-0.7,9.3
			c-0.4,0.7-1,1.5-1.8,1.2c-0.9-0.4-0.5-1.7-0.2-2.6c0.8-2.4-0.1-5.1-1.9-6.8s-4.3-2.5-6.8-2.5c-4.7,0.1-9.1,2.9-12,6.7
			c-2.9,3.8-4.5,8.3-5.8,12.9s-2.3,9.2-4.3,13.6c-0.8,1.9-1.9,3.8-3.7,4.9c-1.7,1.2-4.3,1.3-5.8-0.1c-1.3-1.2-1.6-3.2-1.5-5
			c0.4-6.8,4.4-13,4.2-19.8c-6.1,5-7.9,13.6-13.6,19c-2.2,2.1-5.3,3.7-8.2,2.7c-3.3-1.1-4.6-5.1-4.5-8.6c0.2-8.9,6.4-16.6,7.5-25.4
			c0.1-1.1,0.1-2.5-0.9-3.1c-0.5-0.3-1-0.3-1.5-0.2c-3.2,0.2-6.1,2.2-7.6,5c-0.5,1.1-0.6,2.8,0.5,3.1c0.8,0.2,1.6-0.5,2.3-0.9
			c0.7-0.4,2.1-0.2,2,0.7c-0.1,0.4-0.5,0.7-0.9,0.9c-1,0.5-2.1,1-3.2,1.1s-2.4-0.2-3.1-1.1c-1.4-1.7-0.1-4.3,1.5-5.9
			c3.5-3.5,8.5-5.5,13.4-5.4c0.4,0,0.9,0,1.2,0.3c0.3,0.3,0.4,0.9,0.4,1.3c-0.2,5.6-2.7,10.7-5,15.8c-2.2,5.1-4.3,10.6-3.4,16.1
			c0.3,2,1.4,4.3,3.4,4.6c1.7,0.3,3.3-1.1,4.4-2.5c4-5.1,5.2-11.9,9.3-16.9c1.3-1.6,3.1-3,5.1-3.1s4.2,1.7,3.8,3.7"/>
		<path class="st1" d="M445.4,141C445.4,141,445.4,140.9,445.4,141c0-0.1,0-0.2,0.1-0.2c0.6-0.4,1.3-0.7,2-0.9
			c0.8-0.2,1.7-0.5,2.3-1.1c1.4-1,2.5-2.4,3.4-3.8c4.3-6.7,5.6-14.9,6.6-22.8c0-0.4,0.1-0.8,0-1.2c-0.2-0.6-0.8-1-1.5-1.1
			c-0.6-0.1-1.3-0.1-1.9-0.1c-2.5-0.1-4.9-1.9-5.7-4.3c-0.3-1-0.4-2.1,0.2-2.9c0.3-0.4,0.6-0.6,1.1-0.7c1-0.2,1.8,0.6,2.1,1.4
			c0.3,0.7,0.3,1.4,0.6,2c0.5,1.6,2.2,3,3.9,2.5c2-0.7,2.2-3.4,3.6-5c0.4-0.4,0.9-0.8,1.4-0.5c0.3,0.1,0.5,0.3,0.6,0.6
			c0.3,0.6,0.1,1.3-0.1,1.9c-1.4,5.5-2.5,11.2-3.6,16.8c-1,5.7-1.9,11.6-4.9,16.6c-0.8,1.4-1.9,2.6-3.2,3.5c-0.9,0.6-1.9,0.9-2.9,1
			C447.9,142.6,446.4,142.1,445.4,141L445.4,141z M441.7,125.3c-2.3,0.1-4.4-2.1-5.1-4.1c-0.6-1.7-0.5-3.6,0.3-5.2
			c0.5-1.1,1.4-2,2.5-2.5s2.5-0.4,3.5,0.3c1,0.7,1.6,2,1.2,3.2c-0.2,0.6-0.7,1.2-1.4,1.2c-0.3,0-0.6-0.2-0.8-0.4
			c-0.7-1,0.3-1.1,0.2-1.7c0-0.3-0.3-0.5-0.5-0.5c-0.4-0.1-0.8,0.1-1.1,0.3c-1.3,1-1.4,3.2-0.2,4.4c1.1,1.2,3.2,1.3,4.5,0.3
			s1.8-2.9,1.6-4.6c-0.2-1.7-1-3.2-1.8-4.7c-2.4-4.7-4.6-9.7-4.3-14.9c0.1-1.7,0.5-3.5,1.8-4.8c1.5-1.5,4-1.7,5.9-0.7
			c1.8,1,3.1,3,2.9,5s-1.8,3.9-3.8,4.2c-0.8,0.1-1.6,0-2.2-0.6s-0.7-1.5-0.2-2.1s1.7-0.4,1.9,0.3c1-0.6,1.4-2.1,0.9-3.2
			s-1.8-1.7-3-1.4c-0.9,0.3-1.6,1-2,1.9s-0.4,1.9-0.4,2.8c0.2,3.6,1.7,6.9,3.4,10c1.1,1.9,2.3,3.8,3,5.8c0.7,2.1,0.9,4.4,0,6.4
			c-0.8,1.7-2.3,2.8-3.8,3.8c-0.9,0.5-1.8,1.2-2.9,1.3C441.8,125.3,441.7,125.3,441.7,125.3z"/>
		<path class="st1" d="M361.3,106.5c3.3-0.3-0.3,4.4,2.8,4c0.8-0.1,1.4-0.8,1.9-1.4c1.4-1.6,2.7-3.2,4.1-4.8
			c3.7-4.3,5.1-9.7,6.9-15.1c0.9-2.6,2.2-5.7,2.2-8.5c0-0.6,0-1.2-0.4-1.6c-0.6-0.7-1.8-0.4-2.6,0c-0.9,0.6-1.8,1.3-2.4,2.2
			c-0.3,0.5-0.6,1-1.1,1.4c-0.4,0.4-1.1,0.5-1.6,0.2c-0.4-0.3-0.6-0.9-0.5-1.4s0.4-1,0.7-1.4c1-1.4,2.3-2.6,3.8-3.2
			c1.6-0.6,3.5-0.6,4.8,0.4c1.6,1.2,2,3.4,1.9,5.4c-0.2,2-0.9,3.9-1.1,5.8c0,0.3-0.1,0.6,0,0.8c0.2,0.5,0.8,0.7,1.3,0.8
			c1.4,0.3,2.8,0.5,4,1.3c2,1.2,3,3.7,2.9,6.1s-1,4.6-2.1,6.7s-2.3,4.2-3,6.4c-0.4,1.2-0.6,2.5-0.2,3.6c0.4,1.2,1.5,2.1,2.8,2
			c0.5-0.1,1.3-0.3,1.5,0.2c0.2,0.4-0.2,0.7-0.5,1c-1.5,1-3.7,0.5-4.9-0.8c-1.3-1.3-1.7-3.2-1.6-5c0.2-1.8,0.9-3.5,1.8-5.1
			s1.9-3.1,2.6-4.7c0.7-1.5,1.2-3.2,1-4.9c-0.2-1.3-0.7-2.5-1.7-3.3s-2.3-1.2-3.5-0.9c-0.8,0.2-1.5,0.7-2.1,1.3
			c-1.3,1.3-2.1,3.1-3,4.8c-1.5,3.1-3.2,6.2-5.5,8.9c-1.6,1.9-5.7,6.5-8.4,4.9c-0.7-0.4-1.4-1.1-1.9-1.7
			C359.1,109.7,360,107.6,361.3,106.5"/>
		<path class="st1" d="M394.8,111.1c-0.1,1.5,0,3,0.3,4.4c0.4,1.4,0.9,2.8,2.4,3.3c0.6,0.2,1.2,0.2,1.8,0.2c0.7,0,1.4,0,2-0.1
			c1.3-0.2,2.2-0.9,2.8-2.1c0.2-0.4,0.3-0.9,0-1.3s-0.9-0.5-1.4-0.6s-1.1-0.2-1.4-0.7c0.8-0.8,1.6-1.6,2.7-1.7
			c0.9-0.1,1.9,0.4,2.4,1.2c0.5,0.8,0.5,1.9,0.1,2.8c-1.2,3.1-4.7,5.3-8,5c-0.5,0-0.9-0.1-1.3-0.3c-1.6-0.5-4-1.6-4.2-3.5
			c-0.3-3.4-0.8-6.7-0.4-10.1c0.4-3.5,1.6-6.9,3.3-9.9c1-1.6,2.1-3.2,3.7-4.3c0.4-0.3,0.9-0.5,1.4-0.6c0.5,0,1,0.3,1.2,0.7
			c0.2,0.7-0.4,1.2-1,1.6c-2.5,2.1-3.9,4.9-4.8,8C395.8,105.4,395,108.3,394.8,111.1z"/>
		<path class="st1" d="M418.9,96.1c0.6,0.9,0.7,1.3,0.5,2.7c-0.1,0.5-0.3,1.9-0.3,2.4c0.1,1,0.9,0.6,1.2,1.6
			c0.2,0.5-0.2,1.1-0.5,1.5c-1.2,1.8-2.5,3.6-3.7,5.4c-0.4,0.5-0.9,1.1-1.5,0.9c-0.4-0.1-0.6-0.6-0.7-1c-0.1-0.3,0-0.5,0.1-0.8
			c0.3-0.5,1.3-6.6,1.6-7.2c0.3-0.9,0.7-1.8,0.7-2.7c0-0.9-0.3-2-1.1-2.5c-0.6-0.4-1.4-0.4-2.2-0.3c-1.3,0.2-2.6,0.9-3.7,1.7
			c-3.1,2.4-5.1,6.2-6.1,10c-0.1,0.3-0.2,0.7-0.4,1c-0.2,0.3-0.6,0.5-0.9,0.3c-0.3-0.1-0.5-0.5-0.5-0.9c-0.1-0.7-0.1-1.3,0-2
			c0.3-2.5,1.4-5,3.1-6.9c1.1-1.3,2.5-2.4,3.9-3.4c0.7-0.5,1.4-1,2.1-1.6C410.7,94.5,415.7,91.1,418.9,96.1z"/>
		<path class="st1" d="M402.2,85.6c0-0.5,0.1-1.1,0.2-1.6c0-0.3,0.2-0.7,0.5-0.8c0.3,0,0.5,0.2,0.8,0.2s0.4-0.2,0.7-0.3
			c0.4-0.2,1,0,1.3,0.4c1.1,1.3,0.9,3.8-0.2,5.1c-0.8,0.9-2.5,1.3-3.2,0c-0.2-0.3-0.2-0.7-0.2-1.1C402.1,86.9,402.1,86.3,402.2,85.6
			z"/>
	</g>
	<path class="st1" d="M418,101.5c0,0,8-7.2,13.5-3.8c5.6,3.3-3.9,18.4-5,20.3c-1.2,1.9-3.8,6.7-0.5,9.5c0,0,3.3-0.4,2-3.6
		c0,0,4-1.7,2.5,2.7c-1.5,4.3-4.3,4.9-6.3,4.7s-3.8-3.2-1.7-10.4c2.1-7.2,5.6-10,8.5-17.7c2.8-7.6-11.5,1.4-11.5,1.4L418,101.5z"/>
</g>
</svg>
