<?xml version="1.0" encoding="utf-8"?>
<!-- Generator: Adobe Illustrator 22.0.1, SVG Export Plug-In . SVG Version: 6.00 Build 0)  -->
<svg version="1.1" id="Layer_1" xmlns="http://www.w3.org/2000/svg" xmlns:xlink="http://www.w3.org/1999/xlink" x="0px" y="0px"
	 viewBox="0 0 506.1 703.3" style="enable-background:new 0 0 506.1 703.3;" xml:space="preserve">
<style type="text/css">
	.st0{fill:#ED1869;}
</style>
<title>Asset 14</title>
<g id="Layer_2_1_">
	<g id="Layer_1-2">
		<path class="st0" d="M333.8,4.8c26.4-4.9,53.4,1,78.9,8.7c31.3,9.4,60.8,24,89.1,40.2c1.6,0.9,2.8,2.6,4.2,3.9
			c-0.1,4-0.3,8-0.3,12.1c0,185.9,0,450.5,0,636.3c0,12,0,0-11.7,0H13.4c-24.4,5.4-15.1,18.6-15.1,6.7c0-171,1.7-611.3,1.7-612.3
			c29.3,1.9,58.6,4.2,88,5.7s58.8-0.1,87.7-6.3c28.6-6.1,55.3-19.3,77.6-38.4c11-9.5,19-21.4,29.8-31.1
			c11.2-10.1,24.4-17.7,38.7-22.4C325.7,6.6,329.7,5.6,333.8,4.8z"/>
	</g>
</g>
</svg>
