<?xml version="1.0" encoding="utf-8"?>
<!-- Generator: Adobe Illustrator 22.0.1, SVG Export Plug-In . SVG Version: 6.00 Build 0)  -->
<svg version="1.1" id="Layer_1" xmlns="http://www.w3.org/2000/svg" xmlns:xlink="http://www.w3.org/1999/xlink" x="0px" y="0px"
	 viewBox="0 0 506.1 2660.4" style="enable-background:new 0 0 506.1 2660.4;" xml:space="preserve">
<style type="text/css">
	.st0{fill:#ED1869;}
	.st1{fill:#FDFADA;}
	.st2{fill:#273375;}
	.st3{fill:none;stroke:#1FBED4;stroke-width:3.8619;stroke-miterlimit:10;}
	.st4{fill:#1FBED4;}
	.st5{fill:#FFFFFF;}
	.st6{fill:#801517;}
	.st7{fill:#E31E26;}
</style>
<title>Asset 14</title>
<g id="Layer_2_1_">
	<g id="Layer_1-2">
		<path class="st0" d="M333.8,7.8c26.4-4.9,53.4,1,78.9,8.7c31.3,9.4,60.8,24,89.1,40.2c1.6,0.9,2.8,2.6,4.2,3.9
			c-0.1,4-0.3,8-0.3,12.1c0,185.9,0,2433.3,0,2619.1c0,12,0,0.1-11.7,0.1l-480.6-6.7c-24.4,5.4-15.1,11.8-15.1-0.1
			c0-171,1.7-2580.7,1.7-2581.7c29.3,1.9,58.6,4.2,88,5.7s58.8-0.1,87.7-6.3c28.6-6.1,55.3-19.3,77.6-38.4c11-9.5,19-21.4,29.8-31.1
			c11.2-10.1,24.4-17.7,38.7-22.4C325.7,9.6,329.7,8.6,333.8,7.8z"/>
	</g>
</g>
<g>
	<g id="Shape_21_2_">
		<path class="st1" d="M352,73.9c-1,4.3-1.7,8.8-2.5,13.2c-0.2,1.1-0.3,2.5,0.6,3.3c0.8,0.7,2.1,0.5,2.9-0.2s1.2-1.7,1.6-2.6
			c2.3-6.2,3.2-12.9,5.4-19.2c2.2-6.3,6.2-12.4,12.3-14.9c4-1.6,8.6-1.4,12.8-0.4c1.9,0.5,3.9,1.1,5.1,2.7c2,2.6,0.9,6.4-0.7,9.3
			c-0.4,0.7-1,1.5-1.8,1.2c-0.9-0.4-0.5-1.7-0.2-2.6c0.8-2.4-0.1-5.1-1.9-6.8s-4.3-2.5-6.8-2.5c-4.7,0.1-9.1,2.9-12,6.7
			s-4.5,8.3-5.8,12.9s-2.3,9.2-4.3,13.6c-0.8,1.9-1.9,3.8-3.7,4.9c-1.7,1.2-4.3,1.3-5.8-0.1c-1.3-1.2-1.6-3.2-1.5-5
			c0.4-6.8,4.4-13,4.2-19.8c-6.1,5-7.9,13.6-13.6,19c-2.2,2.1-5.3,3.7-8.2,2.7c-3.3-1.1-4.6-5.1-4.5-8.6c0.2-8.9,6.4-16.6,7.5-25.4
			c0.1-1.1,0.1-2.5-0.9-3.1c-0.5-0.3-1-0.3-1.5-0.2c-3.2,0.2-6.1,2.2-7.6,5c-0.5,1.1-0.6,2.8,0.5,3.1c0.8,0.2,1.6-0.5,2.3-0.9
			s2.1-0.2,2,0.7c-0.1,0.4-0.5,0.7-0.9,0.9c-1,0.5-2.1,1-3.2,1.1s-2.4-0.2-3.1-1.1c-1.4-1.7-0.1-4.3,1.5-5.9
			c3.5-3.5,8.5-5.5,13.4-5.4c0.4,0,0.9,0,1.2,0.3c0.3,0.3,0.4,0.9,0.4,1.3c-0.2,5.6-2.7,10.7-5,15.8c-2.2,5.1-4.3,10.6-3.4,16.1
			c0.3,2,1.4,4.3,3.4,4.6c1.7,0.3,3.3-1.1,4.4-2.5c4-5.1,5.2-11.9,9.3-16.9c1.3-1.6,3.1-3,5.1-3.1s4.2,1.7,3.8,3.7"/>
		<path class="st1" d="M445.4,124C445.4,124,445.4,123.9,445.4,124c0-0.1,0-0.2,0.1-0.2c0.6-0.4,1.3-0.7,2-0.9
			c0.8-0.2,1.7-0.5,2.3-1.1c1.4-1,2.5-2.4,3.4-3.8c4.3-6.7,5.6-14.9,6.6-22.8c0-0.4,0.1-0.8,0-1.2c-0.2-0.6-0.8-1-1.5-1.1
			c-0.6-0.1-1.3-0.1-1.9-0.1c-2.5-0.1-4.9-1.9-5.7-4.3c-0.3-1-0.4-2.1,0.2-2.9c0.3-0.4,0.6-0.6,1.1-0.7c1-0.2,1.8,0.6,2.1,1.4
			c0.3,0.7,0.3,1.4,0.6,2c0.5,1.6,2.2,3,3.9,2.5c2-0.7,2.2-3.4,3.6-5c0.4-0.4,0.9-0.8,1.4-0.5c0.3,0.1,0.5,0.3,0.6,0.6
			c0.3,0.6,0.1,1.3-0.1,1.9c-1.4,5.5-2.5,11.2-3.6,16.8c-1,5.7-1.9,11.6-4.9,16.6c-0.8,1.4-1.9,2.6-3.2,3.5c-0.9,0.6-1.9,0.9-2.9,1
			C447.9,125.6,446.4,125.1,445.4,124L445.4,124z M441.7,108.3c-2.3,0.1-4.4-2.1-5.1-4.1c-0.6-1.7-0.5-3.6,0.3-5.2
			c0.5-1.1,1.4-2,2.5-2.5s2.5-0.4,3.5,0.3c1,0.7,1.6,2,1.2,3.2c-0.2,0.6-0.7,1.2-1.4,1.2c-0.3,0-0.6-0.2-0.8-0.4
			c-0.7-1,0.3-1.1,0.2-1.7c0-0.3-0.3-0.5-0.5-0.5c-0.4-0.1-0.8,0.1-1.1,0.3c-1.3,1-1.4,3.2-0.2,4.4c1.1,1.2,3.2,1.3,4.5,0.3
			s1.8-2.9,1.6-4.6c-0.2-1.7-1-3.2-1.8-4.7c-2.4-4.7-4.6-9.7-4.3-14.9c0.1-1.7,0.5-3.5,1.8-4.8c1.5-1.5,4-1.7,5.9-0.7
			c1.8,1,3.1,3,2.9,5s-1.8,3.9-3.8,4.2c-0.8,0.1-1.6,0-2.2-0.6s-0.7-1.5-0.2-2.1s1.7-0.4,1.9,0.3c1-0.6,1.4-2.1,0.9-3.2
			s-1.8-1.7-3-1.4c-0.9,0.3-1.6,1-2,1.9s-0.4,1.9-0.4,2.8c0.2,3.6,1.7,6.9,3.4,10c1.1,1.9,2.3,3.8,3,5.8c0.7,2.1,0.9,4.4,0,6.4
			c-0.8,1.7-2.3,2.8-3.8,3.8c-0.9,0.5-1.8,1.2-2.9,1.3C441.8,108.3,441.7,108.3,441.7,108.3z"/>
		<path class="st1" d="M361.3,89.5c3.3-0.3-0.3,4.4,2.8,4c0.8-0.1,1.4-0.8,1.9-1.4c1.4-1.6,2.7-3.2,4.1-4.8
			c3.7-4.3,5.1-9.7,6.9-15.1c0.9-2.6,2.2-5.7,2.2-8.5c0-0.6,0-1.2-0.4-1.6c-0.6-0.7-1.8-0.4-2.6,0c-0.9,0.6-1.8,1.3-2.4,2.2
			c-0.3,0.5-0.6,1-1.1,1.4c-0.4,0.4-1.1,0.5-1.6,0.2c-0.4-0.3-0.6-0.9-0.5-1.4s0.4-1,0.7-1.4c1-1.4,2.3-2.6,3.8-3.2
			c1.6-0.6,3.5-0.6,4.8,0.4c1.6,1.2,2,3.4,1.9,5.4c-0.2,2-0.9,3.9-1.1,5.8c0,0.3-0.1,0.6,0,0.8c0.2,0.5,0.8,0.7,1.3,0.8
			c1.4,0.3,2.8,0.5,4,1.3c2,1.2,3,3.7,2.9,6.1s-1,4.6-2.1,6.7s-2.3,4.2-3,6.4c-0.4,1.2-0.6,2.5-0.2,3.6c0.4,1.2,1.5,2.1,2.8,2
			c0.5-0.1,1.3-0.3,1.5,0.2c0.2,0.4-0.2,0.7-0.5,1c-1.5,1-3.7,0.5-4.9-0.8c-1.3-1.3-1.7-3.2-1.6-5c0.2-1.8,0.9-3.5,1.8-5.1
			s1.9-3.1,2.6-4.7c0.7-1.5,1.2-3.2,1-4.9c-0.2-1.3-0.7-2.5-1.7-3.3s-2.3-1.2-3.5-0.9c-0.8,0.2-1.5,0.7-2.1,1.3
			c-1.3,1.3-2.1,3.1-3,4.8c-1.5,3.1-3.2,6.2-5.5,8.9c-1.6,1.9-5.7,6.5-8.4,4.9c-0.7-0.4-1.4-1.1-1.9-1.7
			C359.1,92.7,360,90.6,361.3,89.5"/>
		<path class="st1" d="M394.8,94.1c-0.1,1.5,0,3,0.3,4.4c0.4,1.4,0.9,2.8,2.4,3.3c0.6,0.2,1.2,0.2,1.8,0.2c0.7,0,1.4,0,2-0.1
			c1.3-0.2,2.2-0.9,2.8-2.1c0.2-0.4,0.3-0.9,0-1.3s-0.9-0.5-1.4-0.6s-1.1-0.2-1.4-0.7c0.8-0.8,1.6-1.6,2.7-1.7
			c0.9-0.1,1.9,0.4,2.4,1.2c0.5,0.8,0.5,1.9,0.1,2.8c-1.2,3.1-4.7,5.3-8,5c-0.5,0-0.9-0.1-1.3-0.3c-1.6-0.5-4-1.6-4.2-3.5
			c-0.3-3.4-0.8-6.7-0.4-10.1c0.4-3.5,1.6-6.9,3.3-9.9c1-1.6,2.1-3.2,3.7-4.3c0.4-0.3,0.9-0.5,1.4-0.6c0.5,0,1,0.3,1.2,0.7
			c0.2,0.7-0.4,1.2-1,1.6c-2.5,2.1-3.9,4.9-4.8,8C395.8,88.4,395,91.3,394.8,94.1z"/>
		<path class="st1" d="M418.9,79.1c0.6,0.9,0.7,1.3,0.5,2.7c-0.1,0.5-0.3,1.9-0.3,2.4c0.1,1,0.9,0.6,1.2,1.6
			c0.2,0.5-0.2,1.1-0.5,1.5c-1.2,1.8-2.5,3.6-3.7,5.4c-0.4,0.5-0.9,1.1-1.5,0.9c-0.4-0.1-0.6-0.6-0.7-1c-0.1-0.3,0-0.5,0.1-0.8
			c0.3-0.5,1.3-6.6,1.6-7.2c0.3-0.9,0.7-1.8,0.7-2.7c0-0.9-0.3-2-1.1-2.5c-0.6-0.4-1.4-0.4-2.2-0.3c-1.3,0.2-2.6,0.9-3.7,1.7
			c-3.1,2.4-5.1,6.2-6.1,10c-0.1,0.3-0.2,0.7-0.4,1c-0.2,0.3-0.6,0.5-0.9,0.3c-0.3-0.1-0.5-0.5-0.5-0.9c-0.1-0.7-0.1-1.3,0-2
			c0.3-2.5,1.4-5,3.1-6.9c1.1-1.3,2.5-2.4,3.9-3.4c0.7-0.5,1.4-1,2.1-1.6C410.7,77.5,415.7,74.1,418.9,79.1z"/>
		<path class="st1" d="M402.2,68.6c0-0.5,0.1-1.1,0.2-1.6c0-0.3,0.2-0.7,0.5-0.8c0.3,0,0.5,0.2,0.8,0.2s0.4-0.2,0.7-0.3
			c0.4-0.2,1,0,1.3,0.4c1.1,1.3,0.9,3.8-0.2,5.1c-0.8,0.9-2.5,1.3-3.2,0c-0.2-0.3-0.2-0.7-0.2-1.1C402.1,69.9,402.1,69.3,402.2,68.6
			z"/>
	</g>
	<path class="st1" d="M418,84.5c0,0,8-7.2,13.5-3.8c5.6,3.3-3.9,18.4-5,20.3c-1.2,1.9-3.8,6.7-0.5,9.5c0,0,3.3-0.4,2-3.6
		c0,0,4-1.7,2.5,2.7c-1.5,4.3-4.3,4.9-6.3,4.7c-2-0.2-3.8-3.2-1.7-10.4c2.1-7.2,5.6-10,8.5-17.7c2.8-7.6-11.5,1.4-11.5,1.4L418,84.5
		z"/>
</g>
<g>
	<g id="_x33_SNhnT.tif_1_">
	</g>
	<g>
		<g>
			<path class="st2" d="M249.9,109c-0.3,0-0.6-0.1-0.8-0.3l0,0c-0.2-0.2-6-5-13.6-1l-1.6,0.8v-1.8c0-0.5-0.2-2.1-1-2.6
				c-0.6-0.4-1.5-0.1-2.1,0.2c-0.5,0.2-1.2,0-1.4-0.5s0-1.2,0.5-1.4c1.7-0.7,3.1-0.8,4.2,0c1,0.7,1.5,1.8,1.8,2.8
				c8.3-3.4,14.4,1.7,14.7,1.9c0.5,0.4,0.5,1.1,0.1,1.5C250.4,108.9,250.2,109,249.9,109z"/>
		</g>
		<g>
			<path class="st2" d="M234.1,112.6c-0.5,0-1.1,0-1.7-0.1c-0.6-0.1-1-0.7-0.9-1.2c0.1-0.6,0.7-1,1.2-0.9c1.1,0.2,1.6,0,1.7-0.1
				c0.2-0.3,0-1.3-0.4-2.2c-0.4,0-1.2,0-2.5,0.5c-0.6,0.2-1.2-0.1-1.4-0.6c-0.2-0.6,0.1-1.2,0.6-1.4c2.9-1.1,4.2-0.5,4.5-0.3
				l0.3,0.1l0.1,0.3c0.3,0.5,1.7,3.2,0.5,4.9C235.8,112.2,235.1,112.6,234.1,112.6z"/>
		</g>
	</g>
	<g>
		<g>
			<path class="st2" d="M309.2,105.6l-1.4-1c-5.2-3.5-9.8-0.6-10-0.5c-0.5,0.3-1.2,0.2-1.5-0.3s-0.2-1.2,0.3-1.5
				c0.2-0.1,5.3-3.4,11.1-0.3c0.3-0.7,0.8-1.4,1.6-1.8c0.7-0.3,1.8-0.5,3.4,0.4c0.5,0.3,0.7,1,0.4,1.5c-0.3,0.5-1,0.7-1.5,0.4
				c-0.3-0.2-0.9-0.5-1.3-0.3s-0.8,1.1-0.8,1.6L309.2,105.6z"/>
		</g>
		<g>
			<path class="st2" d="M309.9,108.5C309.9,108.5,309.8,108.5,309.9,108.5c-1.6,0.1-2.6-0.3-3.1-1.2c-0.7-1.4,0.7-3.2,0.9-3.5
				l0.1-0.1c0.1-0.1,1.4-1.3,3.9,0c0.5,0.3,0.7,0.9,0.5,1.5c-0.3,0.5-0.9,0.7-1.5,0.5c-0.8-0.4-1.2-0.4-1.4-0.3
				c-0.3,0.3-0.5,0.8-0.5,1c0.1,0,0.4,0.1,1,0.1s1.1,0.4,1.1,1C310.9,107.9,310.4,108.4,309.9,108.5z"/>
		</g>
	</g>
	<g>
		<path class="st3" d="M267.8,145.2"/>
	</g>
	<g>
		<g>
			<path class="st2" d="M268.2,164c-0.1,0-0.1,0-0.2,0c-0.6-0.1-1-0.6-1-1.2c0.2-1.4,1.2-2.1,2.1-2.5l-0.5-14.6c0-0.6,0.4-1.1,1-1.1
				s1.1,0.4,1.1,1l0.5,16.5l-1,0.1c0,0-1.1,0.1-1.2,0.8C269.1,163.6,268.7,164,268.2,164z"/>
		</g>
		<g>
			<path class="st2" d="M270.8,164.6c-0.4,0-0.9-0.2-1.1-0.6c-0.5-1-0.5-2.5-0.6-2.8v-1l1-0.1c1.7-0.1,3.7,0.3,4,2.1
				c0.1,0.6-0.3,1.1-0.9,1.3c-0.6,0.1-1.1-0.3-1.3-0.9l0,0c-0.1-0.1-0.3-0.2-0.6-0.2c0.1,0.3,0.1,0.6,0.2,0.8c0.3,0.5,0,1.2-0.5,1.4
				C271,164.6,270.9,164.6,270.8,164.6z"/>
		</g>
	</g>
	<g>
		<g>
			<path class="st2" d="M284.8,164.8c-0.5,0-1-0.3-1.1-0.8c-0.2-0.8-1.3-0.8-1.3-0.8l-1,0.1l-2.7-18.3c-0.1-0.6,0.3-1.1,0.9-1.2
				c0.6-0.1,1.1,0.3,1.2,0.9l2.4,16.5c1,0.2,2.1,0.8,2.6,2.3c0.2,0.6-0.2,1.2-0.8,1.3C284.9,164.8,284.8,164.8,284.8,164.8z"/>
		</g>
		<g>
			<path class="st2" d="M282.3,166c-0.1,0-0.2,0-0.4,0c-0.6-0.1-0.9-0.7-0.8-1.3c0.1-0.3,0.1-0.7,0.1-1.1c-0.3,0.1-0.6,0.3-0.6,0.5
				c0,0.6-0.5,1.1-1.1,1.1s-1.1-0.5-1.1-1.1c0-2,2.2-2.8,3.6-3l1-0.1l0.2,1c0,0.2,0.3,2,0,3.1C283.2,165.6,282.8,165.9,282.3,166z"
				/>
		</g>
	</g>
	<g>
		<path class="st4" d="M298.9,109.1c1.3,14.5,2.5,13.8-7,28.5c-3.6,5.6-9,6.8-15.1,7.3c-19.8,1.8-23.3-4.2-26.9-19.8
			c-1.2-5.2-0.1-7.9-0.5-11.9c-0.9-9.5,2-16.1,5.8-22.8c4.1-7.3,11.6-10,17.2-11.9c6.9-2.3,18.7,6.9,20.3,11.1
			C295.3,96.8,298.7,106.6,298.9,109.1z"/>
	</g>
	<g>
		<circle class="st5" cx="272.3" cy="96.3" r="5.8"/>
	</g>
	<g>
		<path class="st6" d="M256.8,110.3l33-3.9c0,0,8.2,25.9-11.7,30.7C258.2,141.9,256.8,110.3,256.8,110.3z"/>
	</g>
	<g>
		<path d="M256.9,110.4c0,0,1.9,13.7,6.9,5.8c0,0,6,6.1,8-1c0,0,4.3,7.3,8.2-0.9c0,0,3.5,6.6,5.8-0.6c0,0,4.3,6.3,5.2-0.3
			c0,0,0.5-1.1-1.2-7L256.9,110.4z"/>
	</g>
	<g>
		<path class="st5" d="M256.7,110.3c0,0,1.8,12.8,7,5.4c0,0,6,5.7,8.1-1c0,0,4.3,6.8,8.2-0.9c0,0,3.5,6.2,5.8-0.6
			c0,0,4.3,5.9,5.2-0.3c0,0,0.5-1-1.2-6.6L256.7,110.3z"/>
	</g>
	<g>
		<path class="st7" d="M261,127.2c2.1-1.7,14.3-10.3,29.4-2.5c0.3,0.2,0.5,0.5,0.3,0.9c-0.8,2.4-4.4,11.1-14.1,12.1
			c-10.9,1.1-13.8-6.7-15.7-9.9C260.7,127.6,260.8,127.3,261,127.2z"/>
	</g>
	<g>
		<path d="M276.5,137.2c0.1-1,0.2-1.9,0.3-2.7c0-0.9,0-1.8,0-2.6c-0.1-0.9-0.2-1.7-0.4-2.6c-0.2-0.9-0.5-1.7-0.9-2.6
			c0.4,0.3,0.7,0.6,1,1c0.3,0.4,0.6,0.8,0.8,1.2c0.4,0.9,0.7,1.9,0.8,2.8c0.1,1,0,2-0.3,2.9c-0.1,0.5-0.3,0.9-0.5,1.4
			C277.1,136.4,276.9,136.8,276.5,137.2z"/>
	</g>
	<g>
		<circle cx="272.2" cy="96.4" r="2.8"/>
	</g>
	<g>
		<path class="st2" d="M273,105.1c-4.8,0.4-9.1-3.1-9.5-7.9s3.1-9.1,7.9-9.5s9.1,3.1,9.5,7.9S277.8,104.7,273,105.1z M271.6,89.8
			c-3.6,0.3-6.3,3.5-6,7.2c0.3,3.6,3.5,6.3,7.2,6c3.6-0.3,6.3-3.5,6-7.2C278.4,92.2,275.2,89.5,271.6,89.8z"/>
	</g>
	<g>
		<path class="st1" d="M257.2,87.2c0,0-0.3-6.1-3.9-3.3c0,0,0.8-4.1,6.9-1c0,0-1.5-7.8-3.6-6.5c0,0,2.7-2.7,5.9,3.7
			c0,0-0.8-9,1.7-11.7c0,0,1.6,8.6,2.7,9c0,0,1.3-3.2,4.1-3.7c0,0-1,4,0.7,4.3c0,0,1.3-6.2,7.9-7.8c0,0-2.6,5.4-1.4,8.5
			c0,0,2.1-2.4,3.4-2.4c0,0-0.9,1.1,0.9,2.3c0,0,1.6-4.2,6.4-6.2c0,0-4.3,6.1-2.5,9.7c0,0,1.6-2.8,4-2.2c0,0-1.1,5.1,1.5,8.1
			l0.2,0.8c0,0-7-8.8-16.7-9.8C267.4,78,257.2,87.2,257.2,87.2z"/>
	</g>
</g>
</svg>
