<?xml version="1.0" encoding="utf-8"?>
<!-- Generator: Adobe Illustrator 22.0.1, SVG Export Plug-In . SVG Version: 6.00 Build 0)  -->
<svg version="1.1" id="Layer_1" xmlns="http://www.w3.org/2000/svg" xmlns:xlink="http://www.w3.org/1999/xlink" x="0px" y="0px"
	 viewBox="0 0 509.1 498" style="enable-background:new 0 0 509.1 498;" xml:space="preserve">
<style type="text/css">
	.st0{fill:#F7941E;}
</style>
<title>Asset 22</title>
<g id="Layer_2_1_">
	<g id="Layer_1-2">
		<path class="st0" d="M358.2,2.7c28.5-7,61.4,0.5,86.8,14.2c19.8,10.7,59.7,35.6,63.5,58.9c2,12.2,0.6,517.3,0.6,599.3
			c0,6.8-2.1,5.2-12.7,5.2L10.1,680C0,680,0,681.6,0,675C0,546.9,0,219.8,0,91.7c0-4.9,64.3,6.5,69.5,7.7
			c31.7,7.6,67.2,30.1,100.3,27c45.6-4.3,85.4-51.9,117.8-79.7c15.9-13.6,32.5-26.6,51-36.4C344.7,7,351.3,4.4,358.2,2.7z"/>
	</g>
</g>
</svg>
