<?xml version="1.0" encoding="utf-8"?>
<!-- Generator: Adobe Illustrator 22.0.1, SVG Export Plug-In . SVG Version: 6.00 Build 0)  -->
<svg version="1.1" id="Layer_1" xmlns="http://www.w3.org/2000/svg" xmlns:xlink="http://www.w3.org/1999/xlink" x="0px" y="0px"
	 viewBox="0 0 510.1 801.5" style="enable-background:new 0 0 510.1 801.5;" xml:space="preserve">
<style type="text/css">
	.st0{fill:#F7941E;}
</style>
<title>Asset 22</title>
<g id="Layer_2_1_">
	<g id="Layer_1-2">
		<path class="st0" d="M359.2,11.2c28.5-7,61.4,0.5,86.8,14.2c19.8,10.7,67.2,42.3,71,65.6c2,12.2,0.3,638,0.3,720
			c0,6.8,0,0-19.9,1.1H11.1C-5,813-5,824.2-5,817.6C-5,689.5-5,226.1-5,98c0-4.9,70.3,8.7,75.5,9.9c31.7,7.6,67.2,30.1,100.3,27
			c45.6-4.3,85.4-51.9,117.8-79.7c15.9-13.6,32.5-26.6,51-36.4C345.7,15.5,352.3,12.9,359.2,11.2z"/>
	</g>
</g>
</svg>
