<?xml version="1.0" encoding="utf-8"?>
<!-- Generator: Adobe Illustrator 22.0.1, SVG Export Plug-In . SVG Version: 6.00 Build 0)  -->
<svg version="1.1" id="Layer_1" xmlns="http://www.w3.org/2000/svg" xmlns:xlink="http://www.w3.org/1999/xlink" x="0px" y="0px"
	 viewBox="0 0 510.1 801.5" style="enable-background:new 0 0 510.1 801.5;" xml:space="preserve">
<style type="text/css">
	.st0{fill:#F7941E;}
	.st1{fill:#FDFADA;}
</style>
<title>Asset 22</title>
<g id="Layer_2_1_">
	<g id="Layer_1-2">
		<path class="st0" d="M359.2,11.2c28.5-7,61.4,0.5,86.8,14.2c19.8,10.7,67.2,42.3,71,65.6c2,12.2,0.3,638,0.3,720
			c0,6.8,0,0-19.9,1.1H11.1C-5,813-5,824.2-5,817.6C-5,689.5-5,226.1-5,98c0-4.9,70.3,8.7,75.5,9.9c31.7,7.6,67.2,30.1,100.3,27
			c45.6-4.3,85.4-51.9,117.8-79.7c15.9-13.6,32.5-26.6,51-36.4C345.7,15.5,352.3,12.9,359.2,11.2z"/>
	</g>
</g>
<g>
	<path class="st1" d="M51.9,177.3c1.4-1.1,2.5-2.6,3.3-4.2c1.7-3.1,2.8-6.5,3-10c0.1-0.8,0-1.7-0.7-2c-0.7-0.3-1.5,0.2-1.8,0.9
		s-0.3,1.5-0.5,2.2c-0.2,0.7-0.6,1.5-1.3,1.7c-0.7,0.1-1.4-0.4-1.7-1s-0.3-1.4-0.1-2.1c0.2-1.4,0.8-2.8,1.8-3.8c1-1,2.5-1.7,3.9-1.5
		c1.8,0.2,3.3,1.8,3.9,3.6s0.4,3.7,0,5.5c-1.6,6.9-6.4,12-12.5,15.1c-0.7,0.4-1.4,1-1.4,1.7c0,0.4,0.2,0.8,0.3,1.1
		c0.6,1.4,1.5,2.6,2.2,4c0.6,1.5,0.9,3.2,2.2,4.3c2,1.5,4.7,1.5,7,1c2.2-0.5,5.1-2.5,7.3-2.5c0.6,0,1.2,0.5,1.1,1.1
		c-0.1,0.3-0.3,0.6-0.6,0.8c-2.1,1.7-4.8,2.1-7.4,2.2c-1.4,0.1-6-0.5-6.3,1.4c-0.1,0.7,0.2,1.3,0.5,1.9c3.2,6.1,4.8,13.4,4.2,20.3
		c-0.1,1.4-0.4,2.8-1.1,4c-0.9,1.4-2.5,2.3-4.1,2.3c-1.6,0.1-3.3-0.7-4.3-2.1c-0.5-0.7-0.9-1.6-0.6-2.5c0.3-0.8,1.4-1.4,2.1-0.9
		c0.9,0.6,0.7,2,1.9,2.4c0.8,0.3,1.6-0.3,2-1c1.3-2.4,0.7-7,0.4-9.6c-0.3-3.4-1.1-6.7-2.6-9.7c-0.8-1.5-2.2-3.6-4.3-3.4
		c-0.6,0.1-1.4,0.3-1.7-0.2c-0.5-0.7,0.5-1.5,1-2.2c0.6-1,0.2-2.2-0.1-3.3c-0.7-2-1.5-4.1-2.2-6.1c-1.8,0-2.2,3.4-4,3.1
		c-1-0.2-1.3-1.5-1-2.4c0.6-2.1,3.1-3.6,2.9-5.8c-0.1-1.3-1.5-2.6-1.3-3.8c0.3-1.8,1.6-0.5,2.5,0.3c1.8,1.5,4.6,1.5,6.7,0.4
		C50.9,178,51.4,177.7,51.9,177.3z"/>
	<path class="st1" d="M80.4,157.9c1.5,1.6,1.7,3.7,2.1,5.7c0.8,4.3,2.6,8.5,3.5,12.9c0.6,3.3,1.2,6.7,2,10c0.5,1.8,0.9,3.7,1.9,5.3
		c1.2,1.9,3.6,6.6,6.4,5.8c0.4-0.1,0.8-0.3,1.2-0.4c1.9-0.6,0.9,1.5,0.2,2.2c-1.4,1.5-3.3,1-4.8,0c-1-0.6-2.2-2.4-3.4-2.4
		c-1.9,0.1-1.8,3.3-2.2,4.5c-0.9,2.6-3.4,3.8-5.8,4.7c-1.7,0.6-3.5,1.2-5.2,0.2c-3.3-2.1-3.6-7.4-3.4-10.9c0.2-2.6,0.7-5.6,2.3-7.7
		c1.1-1.5,2.5-2,4.3-2.2c1.6-0.3,4.3-0.2,3.6-2.6c-1-3.5-2-7-3.3-10.4c-0.9-2.3-1.9-4.5-2.3-6.9c-0.3-1.7-0.3-3.5,0.2-5.2
		C77.9,159.6,79.2,156.4,80.4,157.9 M77.4,197.8c0.5,1.7,1.5,3.3,2.9,4.4c0.4,0.3,0.8,0.6,1.3,0.6c0.5,0,0.9-0.2,1.3-0.5
		c0.8-0.7,1.2-1.6,1.5-2.6c0.5-1.6,0.7-3.3,0.8-5c0.1-1.9,0.1-3.8-0.2-5.7c-0.1-0.7-0.4-1.5-1-1.9c-0.4-0.2-0.9-0.3-1.4-0.2
		c-1.8,0.1-3.5,1-4.5,2.4c-1.5,2.2-1.1,5-0.9,7.4"/>
	<path class="st1" d="M129.9,173c0.4,2.6,1.6,5.2,2.3,7.7c1,3.3,3,7.9,7.3,6.6c2.3-0.7,3.6-2.8,3.3-5.2c-0.1-1.1-1.3-4.4,0.6-4.6
		c2.4-0.2,2.5,3.8,2.5,5.3c0,5.7-5.2,9.2-10.4,8c-6.8-1.6-6.7-11.8-8.3-17.1c-0.7-2.2-1.7-3.6-4.2-3.2c-0.9,0.2-4.7,1-4.3-1.1
		c0.3-1.8,3.4-2,4.6-1.8c2.9,0.5,1.2-4.5,1-5.9c-0.5-3.7-0.9-7.3-1.3-11c-0.1-1.5,1.3-3.2,2.8-1.8c0.5,0.5,0.8,1.3,0.9,2.1
		c0.4,3,0.4,6,0.7,9c0.1,1.1,0.1,3.5,0.9,4.4c1.2,1.4,2.3-0.8,2.7-2c0.3-0.9,0.5-1.9,0.9-2.9c0.2-0.5,0.5-1,0.9-1.3
		c1.6-1.1,2.3,0.7,2.3,2c0,2.1-1.3,4.3-2.5,5.9c-1.1,1.7-2.8,2.9-2.8,5.1C129.8,171.9,129.8,172.5,129.9,173z"/>
	<path class="st1" d="M120.4,189c0.8-3.3,0.7-6.7,1.8-10c0.2-0.6,0.4-1.2,0.9-1.6c0.4-0.4,1.2-0.6,1.7-0.3c0.6,0.4,0.7,1.3,0.6,2.1
		c-0.2,3.1-0.8,6.3-1.7,9.3c-0.6,1.8-1.3,3.6-2.7,4.8c-1.4,1.3-3.5,1.9-5.4,1.6s-3.7-1.4-4.8-2.9c-1.9-2.6-2.1-6.3-4.4-8.5
		c-0.6-0.6-1.2-1-1.7-1.6c-0.5-0.6-0.9-1.4-0.6-2.2c0.3-1,1.4-1.4,2-2.2c1-1.3,0.7-3.1,0.7-4.7c0-1.5,0.2-3.1,1.1-4.4
		c0.9-1.3,2.4-2.1,3.9-1.9c1.8,0.2,3,1.8,3.8,3.4c0.7,1.4,1.1,3,1,4.6c-0.1,1.6-0.6,3.2-1.7,4.3c-0.8,0.8-1.9,1.5-2.2,2.6
		c-0.2,0.5-0.1,1.1,0,1.7c0.4,2.7,1.4,5.4,3,7.7c0.6,0.9,1.6,1.9,2.7,1.6C119.6,192,119.9,190.1,120.4,189 M112.5,170.9
		c-0.7-1-1.7-1.4-2.5-0.7c-0.5,0.5-0.6,1.2-0.6,1.8c-0.1,1.8,0.5,3.7,1.5,5.1c0.2,0.2,0.4,0.5,0.6,0.5c0.3,0,0.6-0.2,0.8-0.5
		c0.6-0.9,1-1.9,1.1-3C113.5,173.1,113.1,171.8,112.5,170.9"/>
	<path class="st1" d="M77.7,215.6c-0.1,2.1-4.6,4.4-6.4,3.4c-2.1-1.2-3.5-3.3-4.6-5.5c-2.1-4.3-4.2-11.2-0.2-15.2
		c0.7-0.7,2.8-1,2.6,0.6c0,0.2-0.1,0.5-0.2,0.7c-1,2.3-1.8,4.9-1,7.5c0.6,2.3,1.2,4.9,3.2,6.4c1,0.8,2.2,1.2,3.5,1.1
		c0.8,0,2.1-0.8,2.8-0.1C77.6,214.9,77.7,215.2,77.7,215.6z"/>
	<path class="st1" d="M70.7,186.3c-0.6,0.4-1.3,0.8-1.9,1.2c-0.2,0.1-0.3,0.3-0.4,0.5c-1.2,1.3-4.1,1.4-4.9-0.5
		c-0.9-2.2-1.9-4.1-0.4-6.4c0.6-0.9,1.4-1.6,2.4-1.7c1-0.1,2,0.2,2.8,0.7C70.8,181.4,72.6,183.6,70.7,186.3"/>
	<path class="st1" d="M104.3,187.9c-2.4-6.9-4.9-13.7-5.7-20.9c-0.2-1.5-0.3-3.1,0.4-4.4c0.3-0.5,0.7-1.1,0.6-1.7
		c-0.1-0.6-0.7-1.1-1.3-1.1c-0.6,0-1.1,0.2-1.5,0.6c-0.8,0.6-1.8,1.8-2.9,3.2c-1.9,0.3-3.6,1.1-4.9,2.6c-1.2,1.3-1.4,3.4-1.4,5
		c0,0.7,0,1.4,0,2.1c-0.3,2,1.5,8.2,2.3,9.3c1,1.3,2.5,2.3,4.1,2.7c1.7,0.4,3.5,0.3,4.9,1.3c1.3,0.8,1.9,2.3,2.5,3.7
		c2,5.3,3.1,11,2.6,16.7c-0.3,2.9-1.1,6-3.5,7.7c-2.7,1.9-7,1.1-8.7-1.8c-0.3-0.5-0.5-1.1-0.4-1.7c0.2-0.6,0.9-1,1.4-0.6
		c0.5,0.4,0.3,1.1,0.6,1.7c0.3,0.8,1.6,1,2.3,0.4c0.7-0.5,0.9-1.5,0.8-2.4c-0.3-2.2-2.5-3.8-4.7-3.6c-2.2,0.2-4,2-4.4,4.2
		c-0.4,2.1,0.5,4.4,2.1,5.9c1.6,1.5,3.8,2.2,6,2.1c4.2-0.1,8-2.9,10-6.6c2-3.6,2.5-8,2-12.2C107.1,195.8,105.7,191.8,104.3,187.9z
		 M96.9,178.3c0.2,1.2-0.4,2.3-0.5,3.4c-0.1,1.4-1.4,2.1-2.3,1.7c-1-0.4-1.6-1-1.8-2c-0.2-1.3-0.8-2.5-0.9-3.8c-0.1-1-0.3-2-0.4-3
		c0-1.5,0.7-2.6,1.2-3.8c0.3-0.8,1.1-1.2,2-1.2c0.4,0,1.3,0.8,1.4,1.4c0.4,1.7,0.8,3.5,1.1,5.2C97,176.8,96.8,177.6,96.9,178.3z"/>
</g>
</svg>
