<svg xmlns="http://www.w3.org/2000/svg" viewBox="0 0 509.09 497.98"><defs><style>.cls-1{fill:#f7941e;}</style></defs><title>Asset 22</title><g id="Layer_2" data-name="Layer 2"><g id="Layer_1-2" data-name="Layer 1"><path class="cls-1" d="M358.18,2.65c28.54-7,61.36.46,86.78,14.17,19.82,10.7,59.7,35.61,63.51,58.91,2,12.15-1.51,333.46-1.51,415.42,0,6.81,0,6.83-10.55,6.83H10.13C0,498,0,498,0,491.37,0,363.26,0,219.83,0,91.71c0-4.89,64.33,6.49,69.51,7.73,31.65,7.59,67.18,30.1,100.26,27,45.58-4.28,85.41-51.9,117.77-79.74,15.85-13.63,32.45-26.64,51-36.37A85.5,85.5,0,0,1,358.18,2.65Z"/></g></g></svg>