<?xml version="1.0" encoding="utf-8"?>
<!-- Generator: Adobe Illustrator 22.0.1, SVG Export Plug-In . SVG Version: 6.00 Build 0)  -->
<svg version="1.1" id="Layer_1" xmlns="http://www.w3.org/2000/svg" xmlns:xlink="http://www.w3.org/1999/xlink" x="0px" y="0px"
	 viewBox="0 0 510.1 801.5" style="enable-background:new 0 0 510.1 801.5;" xml:space="preserve">
<style type="text/css">
	.st0{fill:#F7941E;}
	.st1{fill:#FDFADA;}
	.st2{fill:#4D0738;}
	.st3{fill:#253C7E;}
	.st4{fill:#002A39;}
	.st5{fill:#00496D;}
	.st6{fill:#2780B7;}
	.st7{fill:#B72B25;}
	.st8{fill:#FFFFFF;}
	.st9{fill:#FCED1E;}
	.st10{fill:#5B5B5B;}
	.st11{fill:#2F1110;}
</style>
<title>Asset 22</title>
<g id="Layer_2_1_">
	<g id="Layer_1-2">
		<path class="st0" d="M359.2,11.2c28.5-7,61.4,0.5,86.8,14.2c19.8,10.7,67.2,42.3,71,65.6c2,12.2,0.3,638,0.3,720
			c0,6.8,0,0-19.9,1.1H11.1C-5,813-5,824.2-5,817.6C-5,689.5-5,226.1-5,98c0-4.9,70.3,8.7,75.5,9.9c31.7,7.6,67.2,30.1,100.3,27
			c45.6-4.3,85.4-51.9,117.8-79.7c15.9-13.6,32.5-26.6,51-36.4C345.7,15.5,352.3,12.9,359.2,11.2z"/>
	</g>
</g>
<g>
	<path class="st1" d="M34.5,174.1c1.4-1.1,2.5-2.6,3.3-4.2c1.7-3.1,2.8-6.5,3-10c0.1-0.8,0-1.7-0.7-2s-1.5,0.2-1.8,0.9
		s-0.3,1.5-0.5,2.2s-0.6,1.5-1.3,1.7c-0.7,0.1-1.4-0.4-1.7-1s-0.3-1.4-0.1-2.1c0.2-1.4,0.8-2.8,1.8-3.8s2.5-1.7,3.9-1.5
		c1.8,0.2,3.3,1.8,3.9,3.6s0.4,3.7,0,5.5c-1.6,6.9-6.4,12-12.5,15.1c-0.7,0.4-1.4,1-1.4,1.7c0,0.4,0.2,0.8,0.3,1.1
		c0.6,1.4,1.5,2.6,2.2,4c0.6,1.5,0.9,3.2,2.2,4.3c2,1.5,4.7,1.5,7,1c2.2-0.5,5.1-2.5,7.3-2.5c0.6,0,1.2,0.5,1.1,1.1
		c-0.1,0.3-0.3,0.6-0.6,0.8c-2.1,1.7-4.8,2.1-7.4,2.2c-1.4,0.1-6-0.5-6.3,1.4c-0.1,0.7,0.2,1.3,0.5,1.9c3.2,6.1,4.8,13.4,4.2,20.3
		c-0.1,1.4-0.4,2.8-1.1,4c-0.9,1.4-2.5,2.3-4.1,2.3c-1.6,0.1-3.3-0.7-4.3-2.1c-0.5-0.7-0.9-1.6-0.6-2.5c0.3-0.8,1.4-1.4,2.1-0.9
		c0.9,0.6,0.7,2,1.9,2.4c0.8,0.3,1.6-0.3,2-1c1.3-2.4,0.7-7,0.4-9.6c-0.3-3.4-1.1-6.7-2.6-9.7c-0.8-1.5-2.2-3.6-4.3-3.4
		c-0.6,0.1-1.4,0.3-1.7-0.2c-0.5-0.7,0.5-1.5,1-2.2c0.6-1,0.2-2.2-0.1-3.3c-0.7-2-1.5-4.1-2.2-6.1c-1.8,0-2.2,3.4-4,3.1
		c-1-0.2-1.3-1.5-1-2.4c0.6-2.1,3.1-3.6,2.9-5.8c-0.1-1.3-1.5-2.6-1.3-3.8c0.3-1.8,1.6-0.5,2.5,0.3c1.8,1.5,4.6,1.5,6.7,0.4
		C33.5,174.8,34,174.5,34.5,174.1z"/>
	<path class="st1" d="M63,154.7c1.5,1.6,1.7,3.7,2.1,5.7c0.8,4.3,2.6,8.5,3.5,12.9c0.6,3.3,1.2,6.7,2,10c0.5,1.8,0.9,3.7,1.9,5.3
		c1.2,1.9,3.6,6.6,6.4,5.8c0.4-0.1,0.8-0.3,1.2-0.4c1.9-0.6,0.9,1.5,0.2,2.2c-1.4,1.5-3.3,1-4.8,0c-1-0.6-2.2-2.4-3.4-2.4
		c-1.9,0.1-1.8,3.3-2.2,4.5c-0.9,2.6-3.4,3.8-5.8,4.7c-1.7,0.6-3.5,1.2-5.2,0.2c-3.3-2.1-3.6-7.4-3.4-10.9c0.2-2.6,0.7-5.6,2.3-7.7
		c1.1-1.5,2.5-2,4.3-2.2c1.6-0.3,4.3-0.2,3.6-2.6c-1-3.5-2-7-3.3-10.4c-0.9-2.3-1.9-4.5-2.3-6.9c-0.3-1.7-0.3-3.5,0.2-5.2
		C60.5,156.4,61.8,153.2,63,154.7 M60,194.6c0.5,1.7,1.5,3.3,2.9,4.4c0.4,0.3,0.8,0.6,1.3,0.6s0.9-0.2,1.3-0.5
		c0.8-0.7,1.2-1.6,1.5-2.6c0.5-1.6,0.7-3.3,0.8-5c0.1-1.9,0.1-3.8-0.2-5.7c-0.1-0.7-0.4-1.5-1-1.9c-0.4-0.2-0.9-0.3-1.4-0.2
		c-1.8,0.1-3.5,1-4.5,2.4c-1.5,2.2-1.1,5-0.9,7.4"/>
	<path class="st1" d="M112.5,169.8c0.4,2.6,1.6,5.2,2.3,7.7c1,3.3,3,7.9,7.3,6.6c2.3-0.7,3.6-2.8,3.3-5.2c-0.1-1.1-1.3-4.4,0.6-4.6
		c2.4-0.2,2.5,3.8,2.5,5.3c0,5.7-5.2,9.2-10.4,8c-6.8-1.6-6.7-11.8-8.3-17.1c-0.7-2.2-1.7-3.6-4.2-3.2c-0.9,0.2-4.7,1-4.3-1.1
		c0.3-1.8,3.4-2,4.6-1.8c2.9,0.5,1.2-4.5,1-5.9c-0.5-3.7-0.9-7.3-1.3-11c-0.1-1.5,1.3-3.2,2.8-1.8c0.5,0.5,0.8,1.3,0.9,2.1
		c0.4,3,0.4,6,0.7,9c0.1,1.1,0.1,3.5,0.9,4.4c1.2,1.4,2.3-0.8,2.7-2c0.3-0.9,0.5-1.9,0.9-2.9c0.2-0.5,0.5-1,0.9-1.3
		c1.6-1.1,2.3,0.7,2.3,2c0,2.1-1.3,4.3-2.5,5.9c-1.1,1.7-2.8,2.9-2.8,5.1C112.4,168.7,112.4,169.3,112.5,169.8z"/>
	<path class="st1" d="M103,185.8c0.8-3.3,0.7-6.7,1.8-10c0.2-0.6,0.4-1.2,0.9-1.6c0.4-0.4,1.2-0.6,1.7-0.3c0.6,0.4,0.7,1.3,0.6,2.1
		c-0.2,3.1-0.8,6.3-1.7,9.3c-0.6,1.8-1.3,3.6-2.7,4.8c-1.4,1.3-3.5,1.9-5.4,1.6s-3.7-1.4-4.8-2.9c-1.9-2.6-2.1-6.3-4.4-8.5
		c-0.6-0.6-1.2-1-1.7-1.6s-0.9-1.4-0.6-2.2c0.3-1,1.4-1.4,2-2.2c1-1.3,0.7-3.1,0.7-4.7c0-1.5,0.2-3.1,1.1-4.4
		c0.9-1.3,2.4-2.1,3.9-1.9c1.8,0.2,3,1.8,3.8,3.4c0.7,1.4,1.1,3,1,4.6s-0.6,3.2-1.7,4.3c-0.8,0.8-1.9,1.5-2.2,2.6
		c-0.2,0.5-0.1,1.1,0,1.7c0.4,2.7,1.4,5.4,3,7.7c0.6,0.9,1.6,1.9,2.7,1.6C102.2,188.8,102.5,186.9,103,185.8 M95.1,167.7
		c-0.7-1-1.7-1.4-2.5-0.7c-0.5,0.5-0.6,1.2-0.6,1.8c-0.1,1.8,0.5,3.7,1.5,5.1c0.2,0.2,0.4,0.5,0.6,0.5c0.3,0,0.6-0.2,0.8-0.5
		c0.6-0.9,1-1.9,1.1-3C96.1,169.9,95.7,168.6,95.1,167.7"/>
	<path class="st1" d="M60.3,212.4c-0.1,2.1-4.6,4.4-6.4,3.4c-2.1-1.2-3.5-3.3-4.6-5.5c-2.1-4.3-4.2-11.2-0.2-15.2
		c0.7-0.7,2.8-1,2.6,0.6c0,0.2-0.1,0.5-0.2,0.7c-1,2.3-1.8,4.9-1,7.5c0.6,2.3,1.2,4.9,3.2,6.4c1,0.8,2.2,1.2,3.5,1.1
		c0.8,0,2.1-0.8,2.8-0.1C60.2,211.7,60.3,212,60.3,212.4z"/>
	<path class="st1" d="M53.3,183.1c-0.6,0.4-1.3,0.8-1.9,1.2c-0.2,0.1-0.3,0.3-0.4,0.5c-1.2,1.3-4.1,1.4-4.9-0.5
		c-0.9-2.2-1.9-4.1-0.4-6.4c0.6-0.9,1.4-1.6,2.4-1.7c1-0.1,2,0.2,2.8,0.7C53.4,178.2,55.2,180.4,53.3,183.1"/>
	<path class="st1" d="M86.9,184.7c-2.4-6.9-4.9-13.7-5.7-20.9c-0.2-1.5-0.3-3.1,0.4-4.4c0.3-0.5,0.7-1.1,0.6-1.7
		c-0.1-0.6-0.7-1.1-1.3-1.1c-0.6,0-1.1,0.2-1.5,0.6c-0.8,0.6-1.8,1.8-2.9,3.2c-1.9,0.3-3.6,1.1-4.9,2.6c-1.2,1.3-1.4,3.4-1.4,5
		c0,0.7,0,1.4,0,2.1c-0.3,2,1.5,8.2,2.3,9.3c1,1.3,2.5,2.3,4.1,2.7c1.7,0.4,3.5,0.3,4.9,1.3c1.3,0.8,1.9,2.3,2.5,3.7
		c2,5.3,3.1,11,2.6,16.7c-0.3,2.9-1.1,6-3.5,7.7c-2.7,1.9-7,1.1-8.7-1.8c-0.3-0.5-0.5-1.1-0.4-1.7c0.2-0.6,0.9-1,1.4-0.6
		s0.3,1.1,0.6,1.7c0.3,0.8,1.6,1,2.3,0.4c0.7-0.5,0.9-1.5,0.8-2.4c-0.3-2.2-2.5-3.8-4.7-3.6s-4,2-4.4,4.2c-0.4,2.1,0.5,4.4,2.1,5.9
		s3.8,2.2,6,2.1c4.2-0.1,8-2.9,10-6.6c2-3.6,2.5-8,2-12.2C89.7,192.6,88.3,188.6,86.9,184.7z M79.5,175.1c0.2,1.2-0.4,2.3-0.5,3.4
		c-0.1,1.4-1.4,2.1-2.3,1.7c-1-0.4-1.6-1-1.8-2c-0.2-1.3-0.8-2.5-0.9-3.8c-0.1-1-0.3-2-0.4-3c0-1.5,0.7-2.6,1.2-3.8
		c0.3-0.8,1.1-1.2,2-1.2c0.4,0,1.3,0.8,1.4,1.4c0.4,1.7,0.8,3.5,1.1,5.2C79.6,173.6,79.4,174.4,79.5,175.1z"/>
</g>
<g>
	<g>
		
			<rect x="135.9" y="244" transform="matrix(0.5165 -0.8563 0.8563 0.5165 -140.9865 238.7623)" class="st2" width="10" height="0.4"/>
	</g>
	<g>
		<g>
			
				<rect x="102.2" y="299.3" transform="matrix(0.2531 -0.9674 0.9674 0.2531 -210.9924 325.6978)" class="st2" width="6.5" height="0.4"/>
		</g>
		<g>
			
				<rect x="85.8" y="295.3" transform="matrix(0.9779 -0.209 0.209 0.9779 -59.6664 26.2559)" class="st2" width="17.2" height="0.4"/>
		</g>
		<g>
			
				<rect x="95.6" y="289.3" transform="matrix(0.9539 -0.3001 0.3001 0.9539 -82.3337 42.853)" class="st2" width="5.5" height="0.4"/>
		</g>
		<g>
			
				<rect x="79.2" y="263.4" transform="matrix(1.149833e-03 -1 1 1.149833e-03 -205.5531 363.8731)" class="st2" width="0.4" height="42.9"/>
		</g>
		<g>
			
				<rect x="94.8" y="272.3" transform="matrix(7.997679e-02 -0.9968 0.9968 7.997679e-02 -188.7122 349.5747)" class="st2" width="0.4" height="9.5"/>
		</g>
		<g>
			
				<rect x="90" y="262.7" transform="matrix(0.1805 -0.9836 0.9836 0.1805 -191.9018 310.1497)" class="st2" width="0.4" height="15"/>
		</g>
		<g>
			
				<rect x="89.9" y="251.7" transform="matrix(0.4151 -0.9098 0.9098 0.4151 -185.6816 235.2352)" class="st2" width="0.4" height="20.6"/>
		</g>
		<g>
			
				<rect x="91" y="232.8" transform="matrix(0.6069 -0.7948 0.7948 0.6069 -163.5549 171.0882)" class="st2" width="0.4" height="36.2"/>
		</g>
		<g>
			
				<rect x="105.8" y="245.9" transform="matrix(0.6902 -0.7236 0.7236 0.6902 -148.8898 154.4741)" class="st2" width="0.4" height="10.4"/>
		</g>
		<g>
			
				<rect x="105.5" y="221.9" transform="matrix(0.8404 -0.542 0.542 0.8404 -112.0474 95.2568)" class="st2" width="0.4" height="31.8"/>
		</g>
		<g>
			
				<rect x="116.9" y="228" transform="matrix(0.9277 -0.3734 0.3734 0.9277 -80.583 60.9818)" class="st2" width="0.4" height="21.1"/>
		</g>
		<g>
			
				<rect x="126.9" y="235.6" transform="matrix(0.9896 -0.1436 0.1436 0.9896 -33.3377 20.7506)" class="st2" width="0.4" height="11.5"/>
		</g>
		<g>
			
				<rect x="121.4" y="231.9" transform="matrix(0.2222 -0.975 0.975 0.2222 -120.0667 313.7357)" class="st2" width="30.4" height="0.4"/>
		</g>
		<g>
			
				<rect x="139" y="245.4" transform="matrix(0.5957 -0.8032 0.8032 0.5957 -136.0414 220.8945)" class="st2" width="24.8" height="0.4"/>
		</g>
		<g>
			
				<rect x="145.9" y="255" transform="matrix(0.6597 -0.7515 0.7515 0.6597 -139.0862 203.3212)" class="st2" width="18.1" height="0.4"/>
		</g>
		<g>
			
				<rect x="151.9" y="263.5" transform="matrix(0.8037 -0.595 0.595 0.8037 -126.0318 145.3108)" class="st2" width="10.6" height="0.4"/>
		</g>
		<g>
			
				<rect x="153.9" y="268.4" transform="matrix(0.9077 -0.4196 0.4196 0.9077 -98.0977 91.204)" class="st2" width="8.8" height="0.4"/>
		</g>
		<g>
			
				<rect x="154.9" y="270.5" transform="matrix(0.9734 -0.2292 0.2292 0.9734 -57.5485 45.8388)" class="st2" width="27.3" height="0.4"/>
		</g>
		<g>
			
				<rect x="161" y="274.4" transform="matrix(0.2032 -0.9791 0.9791 0.2032 -144.7916 380.2011)" class="st2" width="0.4" height="9.3"/>
		</g>
		<g>
			
				<rect x="159.2" y="280.2" transform="matrix(0.1841 -0.9829 0.9829 0.1841 -149.289 388.6235)" class="st2" width="0.4" height="8"/>
		</g>
		<g>
			<circle class="st3" cx="104.4" cy="304.2" r="1.7"/>
		</g>
		<g>
			<circle class="st3" cx="84.8" cy="297.8" r="1.7"/>
		</g>
		<g>
			<circle class="st3" cx="94.4" cy="290.8" r="1.7"/>
		</g>
		<g>
			<circle class="st3" cx="56.3" cy="285" r="1.7"/>
		</g>
		<g>
			<circle class="st3" cx="89" cy="276.8" r="1.7"/>
		</g>
		<g>
			<circle class="st3" cx="81.4" cy="268.2" r="1.7"/>
		</g>
		<g>
			<circle class="st3" cx="79.6" cy="257" r="1.7"/>
		</g>
		<g>
			<circle class="st3" cx="75.6" cy="239.2" r="1.7"/>
		</g>
		<g>
			<circle class="st3" cx="101.5" cy="246.5" r="1.7"/>
		</g>
		<g>
			<circle class="st3" cx="96.4" cy="223.4" r="1.7"/>
		</g>
		<g>
			<circle class="st3" cx="112.8" cy="227.9" r="1.7"/>
		</g>
		<g>
			<circle class="st3" cx="125.9" cy="234.7" r="1.7"/>
		</g>
		<g>
			<circle class="st3" cx="139.9" cy="216.5" r="1.7"/>
		</g>
		<g>
			<circle class="st3" cx="158.9" cy="234.6" r="1.7"/>
		</g>
		<g>
			<circle class="st3" cx="161.4" cy="247.7" r="1.7"/>
		</g>
		<g>
			<circle class="st3" cx="182.9" cy="267" r="1.7"/>
		</g>
		<g>
			<circle class="st3" cx="166.5" cy="279.9" r="1.7"/>
		</g>
		<g>
			<circle class="st3" cx="164.5" cy="285.1" r="1.7"/>
		</g>
	</g>
	<g>
		<g>
			<path class="st4" d="M106.9,325.4c-0.3,0.1-0.7,0-0.9-0.4c-0.5-1.2-0.4-2.2,0.2-3.2c1.2-1.9,4.3-2.6,5.8-2.8
				c-1.4-7.1-0.8-12.5,1.8-16c2.4-3.3,5.5-3.6,5.7-3.7c0.4,0,0.7,0.2,0.8,0.6c0,0.4-0.2,0.7-0.6,0.8l0,0c-0.1,0-2.7,0.4-4.7,3.1
				c-2.4,3.3-2.8,8.7-1.4,15.6l0.2,0.8l-0.8,0.1c-1.2,0.1-4.5,0.7-5.5,2.3c-0.3,0.6-0.4,1.2-0.1,2
				C107.5,324.9,107.3,325.3,106.9,325.4L106.9,325.4z"/>
		</g>
		<g>
			<path class="st4" d="M115.5,324.4c-0.2,0.1-0.4,0.1-0.5,0c-0.3-0.2-0.5-0.6-0.3-0.9c0.4-0.8,0.4-1.5,0.2-2c-0.5-1-2-1.2-2-1.2
				c-0.4-0.1-0.6-0.4-0.6-0.8c0.1-0.4,0.4-0.6,0.8-0.6c0.1,0,2.2,0.4,3,1.9c0.5,0.9,0.4,2-0.1,3.2
				C115.8,324.2,115.6,324.3,115.5,324.4z"/>
		</g>
		<g>
			<path class="st4" d="M112.3,323.6c-0.3,0.1-0.7,0-0.8-0.3c-0.9-1.8,0.2-3.8,0.2-3.9c0.2-0.3,0.6-0.5,0.9-0.3s0.5,0.6,0.3,0.9
				c0,0-0.8,1.5-0.2,2.7C112.9,323,112.7,323.4,112.3,323.6C112.4,323.6,112.3,323.6,112.3,323.6z"/>
		</g>
	</g>
	<g>
		<g>
			<path class="st4" d="M176.5,300.3L176.5,300.3c-0.4,0.1-0.8-0.1-0.9-0.4c-0.3-0.8-0.7-1.3-1.3-1.5c-1.8-0.6-4.7,1.1-5.7,1.8
				l-0.6,0.4l-0.4-0.7c-3.3-6.3-7.1-10.1-11.1-11.2c-3.3-0.9-5.5,0.6-5.6,0.6c-0.3,0.2-0.7,0.1-0.9-0.2c-0.2-0.3-0.1-0.7,0.2-0.9
				c0.1-0.1,2.8-1.8,6.7-0.8c4.2,1.1,8.1,4.8,11.6,11.2c1.3-0.8,4.1-2.2,6.3-1.5c1,0.3,1.8,1.1,2.2,2.3
				C177.1,299.8,176.9,300.2,176.5,300.3z"/>
		</g>
		<g>
			<path class="st4" d="M169.3,305c-0.2,0.1-0.4,0.1-0.5,0c-1.2-0.6-1.9-1.4-2.1-2.4c-0.4-1.7,1-3.4,1.1-3.4c0.3-0.3,0.7-0.3,1-0.1
				c0.3,0.2,0.3,0.7,0.1,1c-0.3,0.3-1,1.4-0.8,2.2c0.1,0.6,0.6,1,1.4,1.4c0.3,0.2,0.5,0.6,0.3,0.9
				C169.6,304.8,169.5,304.9,169.3,305z"/>
		</g>
		<g>
			<path class="st4" d="M171.2,302.4L171.2,302.4c-0.4,0.1-0.8-0.1-0.9-0.5c-0.3-1.3-1.8-1.9-1.8-1.9c-0.3-0.1-0.5-0.5-0.4-0.9
				c0.1-0.3,0.5-0.5,0.9-0.4c0.1,0,2.2,0.9,2.7,2.9C171.8,301.9,171.6,302.3,171.2,302.4z"/>
		</g>
	</g>
	<g>
		<path class="st4" d="M131.8,315.8c0,0,1.1,3.9-0.1,6.7c-1.3,2.8-7.2,0.3-8.6,2.3s-3,4,2.6,4.4s11.1,1,13,0.4s2.1-3.7,0.3-4.8
			c-1.9-1.1-3.4,0.3-2.3-6.5C137.6,311.5,131.8,315.8,131.8,315.8z"/>
	</g>
	<g>
		<path class="st4" d="M150.4,313.7c0,0,0.5,4.1,2.7,6.2c2.2,2.1,6.7-2.5,8.8-1.1s4.3,2.5-0.7,5s-9.9,5.1-11.8,5.3
			c-2,0.2-3.4-2.6-2.1-4.4c1.3-1.8,3.2-1-0.3-6.9C143.3,311.8,150.4,313.7,150.4,313.7z"/>
	</g>
	<g>
		<path class="st5" d="M125.5,296.5c0,0-9.9,1.9-8.4,6.7s-0.1,4.4-0.2,7.4s1.4,8.2,5.4,7.3c4-0.9,6.4-2,7.2-1
			c0.8,1.1,13.1,0,15.7-0.7s10.1-3.6,11-8.4s-2.8-5.9-2.3-6.9s-0.1-5.6-0.1-8.1s-3.5-5.5-4.4-5c-1,0.5-10.6,0.4-12.3,2
			c-1.7,1.6-4.1,6.5-5.9,6.8C129.3,296.9,125.5,296.5,125.5,296.5z"/>
	</g>
	<g>
		<g>
			<path class="st5" d="M104.4,259.7c0.2-0.2,0.4-0.5,0.6-0.8c0.6-1,0.8-2.2,1.5-3.3c1.1-2,2.7-3.7,4.4-5.2c6-5.1,15.5-7.8,23.3-6.8
				c3.3,0.4,6.7,1.9,8.8,4.7c1.9,2.5,2.8,5.7,4.7,8.3c1.7,2.4,4.4,3.7,6.2,5.9c2.5,3,2.6,7.2,4,10.7c0.5,1.2,0.9,2.2,1.1,3.5
				c0.4,4.6-3,8.6-6.6,11.1c-1.8,1.2-3.8,2.4-5.9,2.9c-3,0.8-6.3,0.2-9,2.1c-1.9,1.3-2.9,3.6-4.3,5.4c-1.7,2.2-5.2,1.3-7.5,1
				c-1.4-0.2-2.7-0.4-4.1-0.1c-1.5,0.3-2.9,1-4.4,0.8c-1.2-0.2-2.3-0.9-3.4-1.5c-2.7-1.5-5.6-1.1-8.4-2.3c-5.5-2.3-6.2-8.8-5.8-14.1
				c0.2-2.2,0.2-4.1-1-6.1c-1.1-1.9-2.3-3.5-2.5-5.8s0.9-4.5,2.5-6.1c1.2-1.2,2.6-2.1,4-3.1C103.4,260.6,103.9,260.2,104.4,259.7z"
				/>
		</g>
		<g>
			<path class="st6" d="M105.7,260.5c0.2-0.2,0.4-0.5,0.5-0.8c0.5-1,0.8-2.1,1.4-3.1c1.1-1.9,2.5-3.5,4.2-4.9
				c5.7-4.8,14.6-7.3,21.9-6.4c3.1,0.4,6.4,1.8,8.3,4.4c1.8,2.4,2.7,5.4,4.4,7.8c1.6,2.2,4.1,3.5,5.9,5.6c2.4,2.9,2.5,6.8,3.8,10.1
				c0.4,1.1,0.9,2.1,1,3.3c0.4,4.4-2.9,8.1-6.2,10.4c-1.7,1.2-3.6,2.2-5.6,2.7c-2.8,0.7-6,0.2-8.5,2c-1.8,1.2-2.7,3.4-4,5.1
				c-1.6,2.1-4.9,1.2-7,1c-1.3-0.2-2.5-0.3-3.9-0.1c-1.4,0.3-2.7,0.9-4.2,0.7c-1.2-0.2-2.2-0.9-3.2-1.4c-2.5-1.4-5.3-1.1-7.9-2.1
				c-5.2-2.2-5.9-8.3-5.5-13.2c0.2-2.1,0.2-3.9-0.9-5.7c-1-1.8-2.2-3.3-2.3-5.5c-0.2-2.2,0.8-4.2,2.3-5.8c1.1-1.1,2.4-2,3.8-2.9
				C104.7,261.3,105.2,261,105.7,260.5z"/>
		</g>
	</g>
	<g>
		<path class="st7" d="M113.6,281.4c0,0-2.1,5,3.4,11.8c0,0,22.8,0.1,32.6-13.5c0,0-0.3-7.8-5.8-10.1
			C143.8,269.6,132.9,279,113.6,281.4z"/>
	</g>
	<g>
		<path class="st8" d="M113.5,281.3c0,0,1.7,3.9,5.6,2.7s2.3-3.9,2.3-3.9s0.4,3.5,3.4,2.6s3-2,2.4-4.2c0,0,0.6,3.4,4.9,1.7
			c4.3-1.7,1.2-4.4,1.2-4.4s1.3,3.7,5.2,1.5c3.8-2.1-0.2-4-0.2-4s2.7,3.4,5.8,1.2c3.1-2.2-0.3-5-0.3-5S132,279.4,113.5,281.3z"/>
	</g>
	<g>
		<path class="st8" d="M117,293.2c0,0,0.1-3.7,3.8-4.4c3.7-0.7,3.8,3.8,3.8,3.8s-1.6-3.9,2.9-5.4c4.5-1.5,4.5,3.9,4.5,3.9
			s-2.2-4.6,2.1-6c4.3-1.4,5,3.3,5,3.3s-3.7-3.8,0.1-5.7c3.8-1.9,5.8,1.9,5.8,1.9s-3.6-3.4-0.8-5.3c2.8-1.9,5.4,0.5,5.4,0.5
			S141.8,292.4,117,293.2z"/>
	</g>
	<g>
		<circle class="st3" cx="143.8" cy="238.7" r="1.7"/>
	</g>
	<g>
		<circle class="st3" cx="161.8" cy="259.4" r="1.7"/>
	</g>
	<g>
		<circle class="st3" cx="163.2" cy="266.5" r="1.7"/>
	</g>
	<g id="tGMRFs_2_">
		<g>
			<g>
				<path class="st9" d="M145.4,300c0-0.2,0-0.5,0.1-0.7c0.1-0.6,0.5-1.1,0.9-1.5c0.6-0.6,1.3-0.9,2.2-1c0.1,0,0.2,0,0.2,0.2
					c0.2,0.5,0.6,0.6,1,0.4c0.1-0.1,0.2-0.2,0.2-0.4c0-0.4,0.2-0.6,0.6-0.5c0.1,0,0.2,0.1,0.2,0.2c0.2,0.6,0.3,1.3,0.5,1.9
					c0.1,0.3-0.1,0.4-0.3,0.4c-0.2,0-0.4,0-0.5-0.2s0-0.4-0.3-0.4c-0.3,0-0.6,0.1-0.7,0.4c-0.1,0.1-0.1,0.3-0.1,0.5
					c0.4,1.7,0.8,3.4,1.1,5.1c0,0.1,0,0.2,0.1,0.2c0.3,0.1,0.3,0.3,0.3,0.5c0.4,1.9,0.9,3.9,1.3,5.8c0.1,0.3,0,0.5-0.3,0.5
					c-0.2,0-0.4,0.1-0.5,0.1c-0.3,0.1-0.4,0-0.5-0.3c-0.4-2-0.9-4-1.3-6c0-0.1,0-0.3,0.1-0.4c0-0.1,0-0.2,0-0.2
					c-0.4-1.6-0.7-3.3-1.1-4.9c-0.1-0.5-0.4-0.8-0.9-1c-0.3-0.1-0.6-0.1-0.8,0.1c-0.5,0.3-0.8,0.7-1.1,1.2c0,0.1-0.1,0.1-0.1,0.2
					C145.4,300,145.4,300,145.4,300z"/>
			</g>
		</g>
	</g>
	<g id="D5SZva_2_">
		<g>
			<g>
				<path class="st9" d="M140.1,297.4c0.5,0.6,0.7,1.3,0.6,2.2c-0.1,0.4-0.1,0.9,0.1,1.3c0,0.1,0.1,0.1,0.1,0.2
					c0.3,0.2,0.4,0.5,0.3,0.8c0,0.5-0.1,1-0.2,1.4c0,0.1,0,0.3,0,0.5c0.5,3.1,1,6.1,1.5,9.2c0,0.1,0,0.3,0.1,0.4
					c0,0.1-0.1,0.1-0.1,0.2c-0.9,0.4-1.8,0.7-2.7,1.1c-0.1,0-0.2-0.1-0.2-0.1c0-0.3,0-0.5-0.3-0.7c-0.1-0.1-0.1-0.4-0.1-0.6
					c-0.2-0.1-0.5-0.3-0.3-0.7c0,0,0-0.1-0.1-0.2c-0.4-0.1-0.4-0.4-0.2-0.7c-0.3-0.2-0.6-0.3-0.4-0.7c0,0-0.1-0.2-0.2-0.2
					c-0.2-0.1-0.3-0.3-0.2-0.5c0-0.1,0-0.2-0.1-0.3c-0.3-0.2-0.3-0.4-0.2-0.8c-0.3-0.2-0.5-0.3-0.4-0.7c0,0-0.1-0.2-0.2-0.2
					c-0.2-0.1-0.3-0.3-0.2-0.5s0-0.3-0.1-0.3c-0.2-0.1-0.3-0.3-0.2-0.5c0-0.1,0-0.2-0.1-0.3c-0.2-0.1-0.3-0.3-0.2-0.5
					c0-0.1-0.1-0.2-0.1-0.3l0,0c-0.3-0.2-0.1-0.5-0.3-0.7c-0.2-0.2-0.4-0.3-0.3-0.7c0-0.1-0.1-0.2-0.1-0.2c-0.2-0.1-0.3-0.2-0.2-0.5
					c0-0.1-0.1-0.2-0.1-0.4l0,0c-0.3-0.2,0-0.5-0.2-0.7c-0.2-0.2-0.4-0.3-0.3-0.6c0-0.1,0-0.2-0.1-0.3c-0.2-0.2-0.2-0.4,0.1-0.6
					c0.1,0,0.2-0.1,0.3-0.1s0.2,0,0.2-0.1c-0.3-1.1-0.5-2.2-0.8-3.2c0.1-0.1,0.1-0.2,0.2-0.3c0.3-0.2,0.6-0.1,0.8,0.2
					c0.3,0.3,0.6,0.3,0.9,0.3c0.7,0,1.4,0,2,0.1c0.4,0.1,0.7,0,1-0.4c0.1-0.2,0.4-0.2,0.6-0.4C140,297.3,140.1,297.4,140.1,297.4z
					 M136.6,306.3c0.2,0.2,0.6,0.2,0.4,0.6c-0.1,0.2,0,0.3,0.2,0.4c0.1,0.1,0.2,0.3,0.2,0.4c-0.1,0.3,0,0.4,0.2,0.5
					c0.2,0.1,0.3,0.2,0.1,0.4c-0.1,0.2-0.1,0.3,0.1,0.4s0.3,0.2,0.2,0.4c-0.1,0.2,0,0.3,0.2,0.4c0.2,0.1,0.3,0.2,0.2,0.4
					c-0.1,0.2,0,0.3,0.2,0.4c0.2,0.1,0.3,0.2,0.2,0.4c-0.1,0.2,0,0.3,0.1,0.4c0.2,0.1,0.3,0.2,0.2,0.4c-0.1,0.2,0,0.3,0.2,0.4
					c0.2,0.1,0.3,0.2,0.2,0.5c-0.1,0.2,0,0.3,0.1,0.4c0.2,0.1,0.3,0.2,0.2,0.4c-0.1,0.2,0,0.3,0.1,0.4c0.2,0.1,0.3,0.2,0.1,0.5
					c0.8-0.3,1.6-0.7,2.4-1c-0.5-3.4-1.1-6.7-1.6-10.1c-0.1,0-0.2,0.1-0.3,0.1c0.2,1.4,0.4,2.8,0.7,4.1c0.3,1.8,0.6,3.6,0.9,5.4
					c0,0.1,0,0.3-0.1,0.3c-0.4,0.2-0.7,0.3-1.1,0.5v-0.1c0.3-0.1,0.5-0.3,0.8-0.4c0.2-0.1,0.2-0.2,0.2-0.4c-0.5-3-1-6-1.4-9
					c0-0.2-0.1-0.3-0.4-0.3c-0.2,0-0.4,0-0.5-0.1c-0.4-0.4-0.9-0.7-1.5-0.7c-0.2,0-0.5,0-0.7,0c-0.8,0-1.4-0.3-1.8-1
					c-0.1-0.2-0.3-0.2-0.4-0.1c0,0.2,0.1,0.4,0.1,0.5c-0.1,0.2,0,0.3,0.2,0.4c0.1,0.1,0.2,0.3,0.2,0.4c-0.1,0.3,0,0.4,0.2,0.5
					c0.2,0.1,0.2,0.2,0.1,0.3c0,0.1-0.1,0.2-0.1,0.3c0.3,0.1,0.6,0.3,0.4,0.7c0,0,0.1,0.2,0.2,0.2c0.2,0.1,0.3,0.3,0.2,0.5
					c0,0.1,0,0.3,0.1,0.3C136.8,305.7,136.8,306,136.6,306.3z M139.1,299.6c-0.7-0.2-1.5-0.3-2.3-0.1c-0.1,0-0.2,0.1-0.3,0.2
					c-0.2,0.2-0.3,0.4-0.1,0.7c0.1,0.2,0.4,0.3,0.6,0.2c0.6-0.3,1.2-0.2,1.8,0c0.4,0.1,0.7,0,0.8-0.2
					C139.6,300.1,139.5,299.8,139.1,299.6z"/>
			</g>
			<g>
				<path class="st10" d="M136.6,306.3c0.2-0.3,0.2-0.5-0.2-0.7c-0.1,0-0.1-0.2-0.1-0.3c0.1-0.3,0-0.4-0.2-0.5
					c-0.1,0-0.2-0.2-0.2-0.2c0.2-0.4,0-0.6-0.4-0.7c0-0.1,0.1-0.2,0.1-0.3c0.1-0.2,0.1-0.3-0.1-0.3c-0.2-0.1-0.3-0.2-0.2-0.5
					c0-0.1-0.1-0.3-0.2-0.4c-0.2-0.1-0.2-0.2-0.2-0.4c0-0.1-0.1-0.3-0.1-0.5c0.1-0.1,0.2-0.1,0.4,0.1c0.4,0.6,1.1,0.9,1.8,1
					c0.2,0,0.5,0,0.7,0c0.6,0,1.1,0.2,1.5,0.7c0.1,0.1,0.3,0.2,0.5,0.1c0.2,0,0.3,0,0.4,0.3c0.5,3,0.9,6,1.4,9c0,0.2,0,0.3-0.2,0.4
					c-0.3,0.1-0.5,0.3-0.8,0.4v0.1c0.4-0.2,0.7-0.3,1.1-0.5c0.1,0,0.1-0.2,0.1-0.3c-0.3-1.8-0.6-3.6-0.9-5.4
					c-0.2-1.4-0.4-2.7-0.7-4.1c0.1,0,0.2,0,0.3-0.1c0.5,3.4,1.1,6.7,1.6,10.1c-0.8,0.3-1.5,0.6-2.4,1c0.2-0.3,0.1-0.4-0.1-0.5
					s-0.3-0.2-0.1-0.4c0.1-0.2,0-0.3-0.2-0.4c-0.2-0.1-0.3-0.2-0.1-0.4c0.1-0.2,0-0.4-0.2-0.5c-0.2-0.1-0.3-0.2-0.2-0.4
					c0.1-0.2,0-0.3-0.2-0.4c-0.2-0.1-0.2-0.2-0.1-0.4c0.1-0.2,0-0.3-0.2-0.4c-0.2-0.1-0.3-0.2-0.2-0.4c0.1-0.2,0-0.3-0.2-0.4
					c-0.2-0.1-0.3-0.2-0.2-0.4c0.1-0.2,0-0.4-0.2-0.4c-0.2-0.1-0.3-0.2-0.1-0.4c0.1-0.2,0-0.3-0.1-0.4c-0.2-0.1-0.3-0.2-0.2-0.5
					c0-0.1-0.1-0.3-0.2-0.4c-0.2-0.1-0.3-0.2-0.2-0.4C137.2,306.5,136.8,306.5,136.6,306.3z"/>
			</g>
		</g>
	</g>
	<g id="kZv9pw.tif_1_">
		<g>
			<g>
				<path class="st9" d="M124.4,302.6c0.1,0.1,0.1,0.2,0.2,0.3c0.2,0.3,0.4,0.6,0.6,0.9c0.3,0.4,0.7,0.5,1.1,0.2
					c0.3-0.2,0.6-0.4,1-0.6c0.4-0.3,0.5-0.7,0.2-1.1c-0.2-0.3-0.4-0.6-0.6-1c0-0.1-0.1-0.1-0.1-0.2c0.5,0.1,0.9,0.2,1.2,0.6
					c0.9,0.9,1,2.1,0.2,3.1c-0.1,0.1-0.1,0.2-0.1,0.3c0,0.7,0,1.3,0.1,2c0.2,1.3,0.4,2.6,0.6,3.9c0,0.2,0.1,0.3,0.3,0.3
					c1.2,0.3,1.8,1.5,1.5,2.7c0,0,0,0.1-0.1,0.2c-0.1-0.1-0.1-0.1-0.1-0.2c-0.2-0.3-0.4-0.7-0.7-1c-0.3-0.5-0.8-0.6-1.2-0.3
					c-0.3,0.2-0.5,0.3-0.8,0.5c-0.5,0.3-0.6,0.8-0.3,1.3c0.2,0.3,0.4,0.6,0.6,0.9c0,0.1,0.1,0.1,0.1,0.2c-0.4,0-0.8-0.2-1.1-0.4
					c-0.9-0.7-1.1-1.9-0.5-2.9c0.1-0.2,0.2-0.4,0.2-0.6c-0.1-1.9-0.4-3.9-0.9-5.8c-0.1-0.3-0.2-0.4-0.4-0.5
					c-0.9-0.4-1.4-1.6-1.1-2.6C124.4,302.7,124.4,302.7,124.4,302.6z"/>
			</g>
		</g>
	</g>
	<g>
		<path class="st4" d="M117.1,313.1c0,0,24.4-0.6,39.2-6.7c0,0,1.1-2.2-2.5-5.5c0,0-11.4,5-36.2,5.7
			C117.7,306.6,115.8,311,117.1,313.1z"/>
	</g>
	<g>
		<path class="st8" d="M106.1,273.4c0-0.1-0.7-1.8-2.7-1.2l-0.1-0.4c2.4-0.8,3.2,1.4,3.2,1.5L106.1,273.4l0.2-0.1L106.1,273.4z"/>
	</g>
	<g>
		<path class="st8" d="M106.8,272c0-0.1-0.7-1.8-2.7-1.2l-0.1-0.4c2.4-0.8,3.2,1.4,3.2,1.5L106.8,272l0.2-0.1L106.8,272z"/>
	</g>
	<g>
		<path class="st8" d="M108.4,271.5h-0.5h0.2h-0.2c0-0.1,0-2-2.1-2.1v-0.5C108.3,269.1,108.4,271.5,108.4,271.5z"/>
	</g>
	<g>
		<path class="st8" d="M110,270.8h-0.5c0-0.1,0-2-2.1-2.1v-0.5C110,268.4,110,270.8,110,270.8z"/>
	</g>
	<g>
		<path class="st8" d="M121.3,262.5h-0.5h0.2h-0.2c0-0.1-0.2-2-2.2-1.9v-0.5C121.1,260.1,121.3,262.5,121.3,262.5z"/>
	</g>
	<g>
		<path class="st8" d="M122.3,261.3h-0.5h0.2h-0.2c0-0.1-0.2-2-2.2-1.9v-0.5C122.1,258.9,122.3,261.3,122.3,261.3z"/>
	</g>
	<g>
		<path class="st8" d="M123.5,261.4l-0.4-0.1l0.2,0.1l-0.2-0.1c0-0.1,0.5-1.9-1.4-2.6l0.2-0.4C124.2,259.1,123.5,261.3,123.5,261.4z
			"/>
	</g>
	<g>
		<path class="st8" d="M125.3,261.2l-0.4-0.1l0.2,0.1l-0.2-0.1c0-0.1,0.5-1.9-1.4-2.6l0.2-0.4C126,258.9,125.3,261.1,125.3,261.2z"
			/>
	</g>
	<g>
		<path class="st8" d="M136.8,260.4l-0.5-0.1h0.2h-0.2c0-0.1,0.2-2-1.8-2.3l0.1-0.5C137,258,136.8,260.3,136.8,260.4z"/>
	</g>
	<g>
		<path class="st8" d="M138,259.4l-0.5-0.1h0.2h-0.2c0-0.1,0.2-2-1.8-2.3l0.1-0.5C138.2,257,138,259.4,138,259.4z"/>
	</g>
	<g>
		<path class="st8" d="M139.2,259.7l-0.4-0.2l0.2,0.1l-0.2-0.1c0-0.1,0.9-1.8-0.9-2.8l0.2-0.4C140.2,257.5,139.2,259.6,139.2,259.7z
			"/>
	</g>
	<g>
		<path class="st8" d="M141,259.8l-0.4-0.2l0.2,0.1l-0.2-0.1c0-0.1,0.9-1.8-0.9-2.8l0.2-0.4C142,257.7,141,259.8,141,259.8z"/>
	</g>
	<g>
		<circle class="st11" cx="109.9" cy="274" r="4"/>
	</g>
	<g>
		<circle class="st8" cx="109.9" cy="273.9" r="1.8"/>
	</g>
	<g>
		<circle class="st11" cx="139" cy="262.8" r="4"/>
	</g>
	<g>
		<circle class="st8" cx="139.1" cy="262.9" r="1.8"/>
	</g>
	<g>
		<circle class="st11" cx="123.8" cy="264.2" r="4"/>
	</g>
	<g>
		<circle class="st8" cx="123.7" cy="264.1" r="1.8"/>
	</g>
</g>
</svg>
