<?xml version="1.0" encoding="utf-8"?>
<!-- Generator: Adobe Illustrator 22.0.1, SVG Export Plug-In . SVG Version: 6.00 Build 0)  -->
<svg version="1.1" id="Layer_1" xmlns="http://www.w3.org/2000/svg" xmlns:xlink="http://www.w3.org/1999/xlink" x="0px" y="0px"
	 viewBox="0 0 510.1 6197.6" style="enable-background:new 0 0 510.1 6197.6;" xml:space="preserve">
<style type="text/css">
	.st0{fill:#F7941E;}
	.st1{fill:#FDFADA;}
	.st2{fill:#4D0738;}
	.st3{fill:#253C7E;}
	.st4{fill:#002A39;}
	.st5{fill:#00496D;}
	.st6{fill:#2780B7;}
	.st7{fill:#B72B25;}
	.st8{fill:#FFFFFF;}
	.st9{fill:#FCED1E;}
	.st10{fill:#5B5B5B;}
	.st11{fill:#2F1110;}
</style>
<title>Asset 22</title>
<g id="Layer_2_1_">
	<g id="Layer_1-2">
		<path class="st0" d="M359.2,11.2c28.5-7,61.4,0.5,86.8,14.2c19.8,10.7,67.2,42.3,71,65.6c2,12.2,1,6234,1,6316
			c0,3222-27.1-1.1-47,0H-12.2C-28.3,6407.9-5,2059-5,817.6C-5,689.5-5,226.1-5,98c0-4.9,70.3,8.7,75.5,9.9
			c31.7,7.6,67.2,30.1,100.3,27c45.6-4.3,85.4-51.9,117.8-79.7c15.9-13.6,32.5-26.6,51-36.4C345.7,15.5,352.3,12.9,359.2,11.2z"/>
	</g>
</g>
<g>
	<path class="st1" d="M26.5,154.6c1.5-1,2.7-2.4,3.6-3.9c1.9-3,3.3-6.3,3.8-9.7c0.2-0.8,0.1-1.7-0.5-2c-0.7-0.4-1.5,0.1-1.9,0.8
		s-0.4,1.5-0.7,2.2c-0.3,0.7-0.7,1.4-1.4,1.6c-0.7,0-1.4-0.5-1.6-1.1s-0.2-1.4,0.1-2.1c0.3-1.4,1-2.7,2.1-3.6s2.6-1.5,4-1.2
		c1.8,0.3,3.1,2.1,3.6,3.9c0.5,1.8,0.1,3.7-0.4,5.5c-2.1,6.7-7.3,11.4-13.7,14.1c-0.7,0.3-1.5,0.9-1.5,1.6c0,0.4,0.1,0.8,0.2,1.1
		c0.5,1.4,1.3,2.7,1.9,4.2c0.5,1.5,0.6,3.3,1.8,4.5c1.9,1.7,4.6,1.9,6.9,1.6c2.2-0.3,5.3-2.1,7.5-1.9c0.6,0,1.2,0.6,1,1.2
		c-0.1,0.3-0.3,0.6-0.7,0.7c-2.2,1.5-5,1.7-7.6,1.6c-1.4,0-5.9-1-6.4,0.9c-0.2,0.7,0.1,1.3,0.3,1.9c2.7,6.3,3.7,13.7,2.6,20.6
		c-0.2,1.4-0.6,2.8-1.4,3.9c-1,1.3-2.7,2.1-4.3,2c-1.6,0-3.2-1-4.1-2.4c-0.4-0.7-0.8-1.7-0.4-2.5s1.5-1.3,2.2-0.7
		c0.8,0.7,0.5,2,1.7,2.5c0.8,0.4,1.6-0.2,2.1-0.8c1.5-2.3,1.3-6.9,1.2-9.5c0-3.4-0.6-6.8-1.8-9.9c-0.7-1.6-1.9-3.8-4-3.7
		c-0.6,0.1-1.4,0.2-1.7-0.3c-0.4-0.7,0.6-1.5,1.2-2.1c0.7-0.9,0.4-2.2,0.2-3.3c-0.5-2-1.2-4.2-1.7-6.3c-1.8-0.1-2.5,3.2-4.2,2.8
		c-1-0.3-1.2-1.6-0.8-2.5c0.8-2,3.4-3.3,3.4-5.5c0-1.3-1.3-2.7-1-3.9c0.4-1.8,1.6-0.4,2.5,0.5c1.7,1.6,4.5,1.9,6.6,0.9
		C25.5,155.2,26,155,26.5,154.6z"/>
	<path class="st1" d="M56.5,137.6c1.4,1.7,1.4,3.8,1.6,5.8c0.5,4.4,1.9,8.7,2.5,13.1c0.3,3.3,0.7,6.8,1.2,10.1
		c0.4,1.8,0.6,3.8,1.5,5.4c1,2,3.1,6.9,5.9,6.3c0.4-0.1,0.8-0.2,1.2-0.3c1.9-0.4,0.8,1.6,0,2.2c-1.5,1.4-3.4,0.7-4.8-0.4
		c-0.9-0.7-2-2.6-3.2-2.7c-1.9-0.1-2.1,3.1-2.6,4.3c-1.1,2.5-3.7,3.5-6.2,4.2c-1.7,0.5-3.6,0.9-5.2-0.2c-3.1-2.4-3-7.7-2.5-11.1
		c0.4-2.6,1.1-5.5,2.9-7.5c1.2-1.4,2.7-1.8,4.5-1.8c1.6-0.2,4.3,0.1,3.8-2.3c-0.7-3.6-1.4-7.1-2.5-10.6c-0.7-2.4-1.5-4.6-1.7-7.1
		c-0.2-1.7,0-3.5,0.6-5.2C53.8,139,55.4,136,56.5,137.6 M50.3,177.1c0.4,1.7,1.2,3.4,2.5,4.6c0.4,0.3,0.7,0.7,1.2,0.7
		s0.9-0.1,1.3-0.4c0.9-0.6,1.3-1.5,1.7-2.5c0.6-1.6,1-3.2,1.2-4.9c0.3-1.9,0.4-3.8,0.3-5.7c0-0.7-0.3-1.5-0.8-2
		c-0.4-0.2-0.9-0.4-1.4-0.3c-1.8,0-3.6,0.7-4.7,2c-1.7,2.1-1.5,4.9-1.5,7.3"/>
	<path class="st1" d="M104.6,156.6c0.2,2.6,1.2,5.3,1.7,7.9c0.7,3.4,2.4,8.1,6.7,7.2c2.3-0.5,3.8-2.5,3.7-4.9c0-1.1-0.9-4.5,1-4.5
		c2.4,0,2.2,4,2.1,5.5c-0.5,5.7-5.9,8.8-11,7.1c-6.7-2.1-5.7-12.3-6.9-17.7c-0.5-2.2-1.4-3.7-3.9-3.5c-0.9,0.1-4.8,0.6-4.2-1.4
		c0.4-1.8,3.5-1.7,4.7-1.4c2.9,0.7,1.6-4.4,1.5-5.8c-0.2-3.7-0.3-7.3-0.4-11.1c0-1.5,1.6-3.1,2.9-1.6c0.5,0.5,0.7,1.4,0.7,2.2
		c0.2,3-0.1,6,0,9c0,1.1-0.2,3.5,0.5,4.5c1.1,1.5,2.4-0.6,2.9-1.8c0.4-0.9,0.7-1.9,1.1-2.8c0.2-0.5,0.6-1,1-1.2
		c1.7-1,2.2,0.9,2.1,2.2c-0.2,2.1-1.6,4.2-3,5.7c-1.2,1.6-3,2.7-3.2,4.9C104.6,155.5,104.5,156.1,104.6,156.6z"/>
	<path class="st1" d="M93.9,171.8c1.1-3.2,1.2-6.6,2.6-9.8c0.2-0.6,0.5-1.2,1-1.5c0.4-0.4,1.2-0.5,1.7-0.2c0.6,0.4,0.6,1.4,0.4,2.1
		c-0.4,3.1-1.3,6.2-2.4,9.1c-0.7,1.7-1.6,3.5-3.1,4.6c-1.5,1.2-3.6,1.6-5.5,1.2c-1.9-0.5-3.6-1.7-4.6-3.3c-1.7-2.7-1.6-6.4-3.7-8.8
		c-0.6-0.6-1.1-1.1-1.6-1.7c-0.5-0.6-0.8-1.5-0.4-2.2c0.4-1,1.5-1.3,2.2-2c1.1-1.2,0.9-3,1.1-4.6c0.1-1.5,0.4-3.1,1.4-4.3
		s2.6-1.9,4-1.6c1.8,0.3,2.8,2,3.5,3.7c0.6,1.5,0.9,3.1,0.6,4.7c-0.2,1.6-0.9,3.1-2,4.2c-0.9,0.7-2,1.3-2.4,2.4
		c-0.2,0.5-0.2,1.1-0.1,1.7c0.2,2.7,1,5.5,2.4,7.9c0.5,0.9,1.4,2,2.6,1.8C92.8,174.7,93.3,172.8,93.9,171.8 M87.4,153.1
		c-0.6-1.1-1.6-1.5-2.4-0.9c-0.5,0.5-0.7,1.1-0.7,1.7c-0.2,1.8,0.2,3.7,1.1,5.2c0.2,0.2,0.4,0.5,0.6,0.5c0.3,0,0.6-0.2,0.8-0.4
		c0.7-0.8,1.1-1.8,1.3-2.9C88.2,155.4,88,154,87.4,153.1"/>
	<path class="st1" d="M49.2,194.9c-0.3,2.1-4.9,4-6.7,2.9c-2-1.4-3.2-3.6-4.1-5.9c-1.7-4.5-3.3-11.5,1-15.2c0.8-0.6,2.9-0.8,2.5,0.8
		c0,0.2-0.1,0.5-0.3,0.7c-1.2,2.2-2.2,4.7-1.6,7.4c0.4,2.3,0.8,5,2.7,6.6c0.9,0.9,2.1,1.4,3.4,1.4c0.8,0.1,2.2-0.6,2.8,0.1
		C49.1,194.1,49.2,194.5,49.2,194.9z"/>
	<path class="st1" d="M44.5,165.1c-0.6,0.4-1.4,0.7-2,1c-0.2,0.1-0.3,0.3-0.4,0.5c-1.3,1.2-4.2,1.1-4.8-0.9
		c-0.7-2.3-1.6-4.2,0.1-6.4c0.7-0.8,1.5-1.5,2.5-1.5s2,0.4,2.7,0.9C45,160.2,46.6,162.5,44.5,165.1"/>
	<path class="st1" d="M77.9,169.4c-1.8-7.1-3.8-14-4-21.3c-0.1-1.5-0.1-3.1,0.8-4.4c0.3-0.5,0.8-1,0.7-1.6c-0.1-0.6-0.6-1.2-1.2-1.2
		s-1.1,0.1-1.5,0.5c-0.8,0.5-1.9,1.7-3.1,3c-1.9,0.1-3.7,0.8-5.1,2.2c-1.3,1.2-1.7,3.3-1.8,4.9c-0.1,0.7-0.1,1.4-0.2,2.1
		c-0.5,2,0.8,8.3,1.5,9.5c0.9,1.4,2.3,2.5,3.9,3c1.7,0.5,3.5,0.6,4.8,1.7c1.2,0.9,1.7,2.4,2.2,3.9c1.6,5.4,2.2,11.2,1.3,16.9
		c-0.5,2.9-1.6,5.9-4.1,7.4c-2.8,1.7-7.1,0.5-8.5-2.5c-0.3-0.5-0.4-1.1-0.3-1.7c0.2-0.6,1-0.9,1.4-0.5c0.5,0.4,0.2,1.1,0.5,1.7
		c0.2,0.8,1.5,1.1,2.3,0.6c0.7-0.4,1-1.4,1-2.3c-0.1-2.2-2.2-4-4.4-4c-2.2,0-4.1,1.7-4.7,3.8c-0.6,2.1,0.1,4.4,1.6,6
		s3.6,2.5,5.8,2.6c4.2,0.2,8.2-2.3,10.5-5.8c2.3-3.4,3.1-7.8,3-12C80.1,177.5,79,173.4,77.9,169.4z M71.3,159.2
		c0.1,1.2-0.6,2.3-0.8,3.3c-0.2,1.4-1.6,2-2.4,1.5c-1-0.5-1.5-1.1-1.6-2.1c-0.1-1.3-0.6-2.6-0.6-3.9c0-1-0.1-2-0.2-3
		c0.1-1.5,0.9-2.5,1.5-3.7c0.4-0.8,1.2-1.1,2.1-1c0.4,0,1.2,0.9,1.3,1.5c0.3,1.7,0.5,3.6,0.7,5.3C71.5,157.7,71.2,158.5,71.3,159.2z
		"/>
</g>
<g>
	<g>
		
			<rect x="98.4" y="235.3" transform="matrix(0.5165 -0.8563 0.8563 0.5165 -151.6453 202.4512)" class="st2" width="10" height="0.4"/>
	</g>
	<g>
		<g>
			
				<rect x="64.7" y="290.5" transform="matrix(0.2531 -0.9674 0.9674 0.2531 -230.4641 282.8871)" class="st2" width="6.5" height="0.4"/>
		</g>
		<g>
			
				<rect x="48.3" y="286.5" transform="matrix(0.9779 -0.209 0.209 0.9779 -58.6636 18.2238)" class="st2" width="17.2" height="0.4"/>
		</g>
		<g>
			
				<rect x="58.1" y="280.5" transform="matrix(0.9539 -0.3001 0.3001 0.9539 -81.4332 31.1991)" class="st2" width="5.5" height="0.4"/>
		</g>
		<g>
			
				<rect x="41.6" y="254.6" transform="matrix(1.149829e-03 -1 1 1.149829e-03 -234.2448 317.5572)" class="st2" width="0.4" height="42.8"/>
		</g>
		<g>
			
				<rect x="57.4" y="263.4" transform="matrix(7.997575e-02 -0.9968 0.9968 7.997575e-02 -214.3608 304.1204)" class="st2" width="0.4" height="9.5"/>
		</g>
		<g>
			
				<rect x="52.4" y="253.8" transform="matrix(0.1805 -0.9836 0.9836 0.1805 -213.8901 265.9305)" class="st2" width="0.4" height="15"/>
		</g>
		<g>
			
				<rect x="52.5" y="242.9" transform="matrix(0.4151 -0.9098 0.9098 0.4151 -199.5765 196.0204)" class="st2" width="0.4" height="20.6"/>
		</g>
		<g>
			
				<rect x="53.5" y="224" transform="matrix(0.6069 -0.7948 0.7948 0.6069 -171.3033 137.8338)" class="st2" width="0.4" height="36.2"/>
		</g>
		<g>
			
				<rect x="68.3" y="237.1" transform="matrix(0.6902 -0.7236 0.7236 0.6902 -154.0937 124.6391)" class="st2" width="0.4" height="10.4"/>
		</g>
		<g>
			
				<rect x="68" y="213.2" transform="matrix(0.8404 -0.542 0.542 0.8404 -113.2895 73.5347)" class="st2" width="0.4" height="31.8"/>
		</g>
		<g>
			
				<rect x="79.4" y="219.3" transform="matrix(0.9277 -0.3734 0.3734 0.9277 -80.069 46.3465)" class="st2" width="0.4" height="21.1"/>
		</g>
		<g>
			
				<rect x="89.4" y="226.9" transform="matrix(0.9896 -0.1436 0.1436 0.9896 -32.4799 15.2779)" class="st2" width="0.4" height="11.5"/>
		</g>
		<g>
			
				<rect x="83.8" y="223.1" transform="matrix(0.2222 -0.975 0.975 0.2222 -140.7123 270.2451)" class="st2" width="30.4" height="0.4"/>
		</g>
		<g>
			
				<rect x="101.5" y="236.6" transform="matrix(0.5957 -0.8032 0.8032 0.5957 -144.157 187.1869)" class="st2" width="24.8" height="0.4"/>
		</g>
		<g>
			
				<rect x="108.3" y="246.3" transform="matrix(0.6597 -0.7515 0.7515 0.6597 -145.3217 172.0656)" class="st2" width="18.1" height="0.4"/>
		</g>
		<g>
			
				<rect x="114.4" y="254.7" transform="matrix(0.8037 -0.595 0.595 0.8037 -128.1656 121.2633)" class="st2" width="10.6" height="0.4"/>
		</g>
		<g>
			
				<rect x="116.3" y="259.6" transform="matrix(0.9077 -0.4196 0.4196 0.9077 -97.8713 74.6228)" class="st2" width="8.8" height="0.4"/>
		</g>
		<g>
			
				<rect x="117.3" y="261.7" transform="matrix(0.9734 -0.2292 0.2292 0.9734 -56.5415 36.9856)" class="st2" width="27.3" height="0.4"/>
		</g>
		<g>
			
				<rect x="123.3" y="265.6" transform="matrix(0.2032 -0.9791 0.9791 0.2032 -166.2203 336.2773)" class="st2" width="0.4" height="9.3"/>
		</g>
		<g>
			
				<rect x="121.6" y="271.6" transform="matrix(0.1841 -0.9829 0.9829 0.1841 -171.5023 344.5211)" class="st2" width="0.4" height="8"/>
		</g>
		<g>
			<circle class="st3" cx="66.9" cy="295.4" r="1.7"/>
		</g>
		<g>
			<circle class="st3" cx="47.3" cy="289" r="1.7"/>
		</g>
		<g>
			<circle class="st3" cx="56.9" cy="282" r="1.7"/>
		</g>
		<g>
			<circle class="st3" cx="18.9" cy="276.2" r="1.7"/>
		</g>
		<g>
			<circle class="st3" cx="51.5" cy="268" r="1.7"/>
		</g>
		<g>
			<circle class="st3" cx="43.9" cy="259.4" r="1.7"/>
		</g>
		<g>
			<circle class="st3" cx="42.1" cy="248.2" r="1.7"/>
		</g>
		<g>
			<circle class="st3" cx="38.1" cy="230.5" r="1.7"/>
		</g>
		<g>
			<circle class="st3" cx="64" cy="237.8" r="1.7"/>
		</g>
		<g>
			<circle class="st3" cx="58.9" cy="214.7" r="1.7"/>
		</g>
		<g>
			<circle class="st3" cx="75.3" cy="219.2" r="1.7"/>
		</g>
		<g>
			<circle class="st3" cx="88.4" cy="226" r="1.7"/>
		</g>
		<g>
			<circle class="st3" cx="102.4" cy="207.8" r="1.7"/>
		</g>
		<g>
			<circle class="st3" cx="121.3" cy="225.9" r="1.7"/>
		</g>
		<g>
			<circle class="st3" cx="123.8" cy="239" r="1.7"/>
		</g>
		<g>
			<circle class="st3" cx="145.3" cy="258.2" r="1.7"/>
		</g>
		<g>
			<circle class="st3" cx="128.9" cy="271.1" r="1.7"/>
		</g>
		<g>
			
				<ellipse transform="matrix(0.9565 -0.2918 0.2918 0.9565 -75.0959 49.0472)" class="st3" cx="126.9" cy="276.3" rx="1.7" ry="1.7"/>
		</g>
	</g>
	<g>
		<g>
			<path class="st4" d="M69.4,316.6c-0.3,0.1-0.7,0-0.9-0.4c-0.5-1.2-0.4-2.2,0.2-3.2c1.2-1.9,4.3-2.6,5.8-2.8
				c-1.4-7.1-0.8-12.5,1.8-16c2.4-3.3,5.5-3.6,5.7-3.7c0.4,0,0.7,0.2,0.8,0.6c0,0.4-0.2,0.7-0.6,0.8l0,0c-0.1,0-2.7,0.4-4.7,3.1
				c-2.4,3.3-2.8,8.7-1.4,15.6l0.2,0.8l-0.8,0.1c-1.2,0.1-4.5,0.7-5.5,2.3c-0.3,0.6-0.4,1.2-0.1,2C70,316.1,69.8,316.5,69.4,316.6
				L69.4,316.6z"/>
		</g>
		<g>
			<path class="st4" d="M78,315.6c-0.2,0.1-0.4,0.1-0.5,0c-0.3-0.2-0.5-0.6-0.3-0.9c0.4-0.8,0.4-1.5,0.2-2c-0.5-1-2-1.2-2-1.2
				c-0.4-0.1-0.6-0.4-0.6-0.8c0.1-0.4,0.4-0.6,0.8-0.6c0.1,0,2.2,0.4,3,1.9c0.5,0.9,0.4,2-0.1,3.2C78.3,315.4,78.1,315.5,78,315.6z"
				/>
		</g>
		<g>
			<path class="st4" d="M74.8,314.8c-0.3,0.1-0.7,0-0.8-0.3c-0.9-1.8,0.2-3.8,0.2-3.9c0.2-0.3,0.6-0.5,0.9-0.3s0.5,0.6,0.3,0.9
				c0,0-0.8,1.5-0.2,2.7C75.4,314.2,75.2,314.6,74.8,314.8C74.9,314.8,74.8,314.8,74.8,314.8z"/>
		</g>
	</g>
	<g>
		<g>
			<path class="st4" d="M138.9,291.5L138.9,291.5c-0.4,0.1-0.8-0.1-0.9-0.4c-0.3-0.8-0.7-1.3-1.3-1.5c-1.8-0.6-4.7,1.1-5.7,1.8
				l-0.6,0.4l-0.4-0.7c-3.3-6.3-7.1-10.1-11.1-11.2c-3.3-0.9-5.5,0.6-5.6,0.6c-0.3,0.2-0.7,0.1-0.9-0.2c-0.2-0.3-0.1-0.7,0.2-0.9
				c0.1-0.1,2.8-1.8,6.7-0.8c4.2,1.1,8.1,4.8,11.6,11.2c1.3-0.8,4.1-2.2,6.3-1.5c1,0.3,1.8,1.1,2.2,2.3
				C139.5,291,139.3,291.4,138.9,291.5z"/>
		</g>
		<g>
			<path class="st4" d="M131.7,296.2c-0.2,0.1-0.4,0.1-0.5,0c-1.2-0.6-1.9-1.4-2.1-2.4c-0.4-1.7,1-3.4,1.1-3.4
				c0.3-0.3,0.7-0.3,1-0.1c0.3,0.2,0.3,0.7,0.1,1c-0.3,0.3-1,1.4-0.8,2.2c0.1,0.6,0.6,1,1.4,1.4c0.3,0.2,0.5,0.6,0.3,0.9
				C132,296,131.9,296.1,131.7,296.2z"/>
		</g>
		<g>
			<path class="st4" d="M133.6,293.6L133.6,293.6c-0.4,0.1-0.8-0.1-0.9-0.5c-0.3-1.3-1.8-1.9-1.8-1.9c-0.3-0.1-0.5-0.5-0.4-0.9
				c0.1-0.3,0.5-0.5,0.9-0.4c0.1,0,2.2,0.9,2.7,2.9C134.2,293.1,134,293.5,133.6,293.6z"/>
		</g>
	</g>
	<g>
		<path class="st4" d="M94.3,307c0,0,1.1,3.9-0.1,6.7c-1.3,2.8-7.2,0.3-8.6,2.3s-3,4,2.6,4.4s11.1,1,13,0.4s2.1-3.7,0.3-4.8
			c-1.9-1.1-3.4,0.3-2.3-6.5C100.1,302.7,94.3,307,94.3,307z"/>
	</g>
	<g>
		<path class="st4" d="M112.8,304.9c0,0,0.5,4.1,2.7,6.2s6.7-2.5,8.8-1.1c2.1,1.4,4.3,2.5-0.7,5s-9.9,5.1-11.8,5.3
			c-2,0.2-3.4-2.6-2.1-4.4s3.2-1-0.3-6.9C105.8,303,112.8,304.9,112.8,304.9z"/>
	</g>
	<g>
		<path class="st5" d="M88,287.7c0,0-9.9,1.9-8.4,6.7c1.5,4.8-0.1,4.4-0.2,7.4s1.4,8.2,5.4,7.3c4-0.9,6.4-2,7.2-1
			c0.8,1.1,13.1,0,15.7-0.7s10.1-3.6,11-8.4s-2.8-5.9-2.3-6.9s-0.1-5.6-0.1-8.1s-3.5-5.5-4.4-5c-1,0.5-10.6,0.4-12.3,2
			c-1.7,1.6-4.1,6.5-5.9,6.8C91.8,288.1,88,287.7,88,287.7z"/>
	</g>
	<g>
		<g>
			<path class="st5" d="M66.9,250.9c0.2-0.2,0.4-0.5,0.6-0.8c0.6-1,0.8-2.2,1.5-3.3c1.1-2,2.7-3.7,4.4-5.2c6-5.1,15.5-7.8,23.3-6.8
				c3.3,0.4,6.7,1.9,8.8,4.7c1.9,2.5,2.8,5.7,4.7,8.3c1.7,2.4,4.4,3.7,6.2,5.9c2.5,3,2.6,7.2,4,10.7c0.5,1.2,0.9,2.2,1.1,3.5
				c0.4,4.6-3,8.6-6.6,11.1c-1.8,1.2-3.8,2.4-5.9,2.9c-3,0.8-6.3,0.2-9,2.1c-1.9,1.3-2.9,3.6-4.3,5.4c-1.7,2.2-5.2,1.3-7.5,1
				c-1.4-0.2-2.7-0.4-4.1-0.1c-1.5,0.3-2.9,1-4.4,0.8c-1.2-0.2-2.3-0.9-3.4-1.5c-2.7-1.5-5.6-1.1-8.4-2.3c-5.5-2.3-6.2-8.8-5.8-14.1
				c0.2-2.2,0.2-4.1-1-6.1c-1.1-1.9-2.3-3.5-2.5-5.8s0.9-4.5,2.5-6.1c1.2-1.2,2.6-2.1,4-3.1C65.9,251.8,66.4,251.4,66.9,250.9z"/>
		</g>
		<g>
			<path class="st6" d="M68.2,251.7c0.2-0.2,0.4-0.5,0.5-0.8c0.5-1,0.8-2.1,1.4-3.1c1.1-1.9,2.5-3.5,4.2-4.9
				c5.7-4.8,14.6-7.3,21.9-6.4c3.1,0.4,6.4,1.8,8.3,4.4c1.8,2.4,2.7,5.4,4.4,7.8c1.6,2.2,4.1,3.5,5.9,5.6c2.4,2.9,2.5,6.8,3.8,10.1
				c0.4,1.1,0.9,2.1,1,3.3c0.4,4.4-2.9,8.1-6.2,10.4c-1.7,1.2-3.6,2.2-5.6,2.7c-2.8,0.7-6,0.2-8.5,2c-1.8,1.2-2.7,3.4-4,5.1
				c-1.6,2.1-4.9,1.2-7,1c-1.3-0.2-2.5-0.3-3.9-0.1c-1.4,0.3-2.7,0.9-4.2,0.7c-1.2-0.2-2.2-0.9-3.2-1.4c-2.5-1.4-5.3-1.1-7.9-2.1
				c-5.2-2.2-5.9-8.3-5.5-13.2c0.2-2.1,0.2-3.9-0.9-5.7c-1-1.8-2.2-3.3-2.3-5.5c-0.2-2.2,0.8-4.2,2.3-5.8c1.1-1.1,2.4-2,3.8-2.9
				C67.2,252.5,67.7,252.2,68.2,251.7z"/>
		</g>
	</g>
	<g>
		<path class="st7" d="M76.1,272.6c0,0-2.1,5,3.4,11.8c0,0,22.8,0.1,32.6-13.5c0,0-0.3-7.8-5.8-10.1
			C106.3,260.8,95.4,270.2,76.1,272.6z"/>
	</g>
	<g>
		<path class="st8" d="M76,272.5c0,0,1.7,3.9,5.6,2.7s2.3-3.9,2.3-3.9s0.4,3.5,3.4,2.6s3-2,2.4-4.2c0,0,0.6,3.4,4.9,1.7
			c4.3-1.7,1.2-4.4,1.2-4.4s1.3,3.7,5.2,1.5c3.8-2.1-0.2-4-0.2-4s2.7,3.4,5.8,1.2c3.1-2.2-0.3-5-0.3-5S94.5,270.6,76,272.5z"/>
	</g>
	<g>
		<path class="st8" d="M79.5,284.4c0,0,0.1-3.7,3.8-4.4c3.7-0.7,3.8,3.8,3.8,3.8s-1.6-3.9,2.9-5.4s4.5,3.9,4.5,3.9s-2.2-4.6,2.1-6
			c4.3-1.4,5,3.3,5,3.3s-3.7-3.8,0.1-5.7s5.8,1.9,5.8,1.9s-3.6-3.4-0.8-5.3c2.8-1.9,5.4,0.5,5.4,0.5S104.3,283.6,79.5,284.4z"/>
	</g>
	<g>
		<circle class="st3" cx="106.3" cy="230" r="1.7"/>
	</g>
	<g>
		<circle class="st3" cx="124.2" cy="250.6" r="1.7"/>
	</g>
	<g>
		<circle class="st3" cx="125.6" cy="257.7" r="1.7"/>
	</g>
	<g id="tGMRFs_2_">
		<g>
			<g>
				<path class="st9" d="M107.8,291.2c0-0.2,0-0.5,0.1-0.7c0.1-0.6,0.5-1.1,0.9-1.5c0.6-0.6,1.3-0.9,2.2-1c0.1,0,0.2,0,0.2,0.2
					c0.2,0.5,0.6,0.6,1,0.4c0.1-0.1,0.2-0.2,0.2-0.4c0-0.4,0.2-0.6,0.6-0.5c0.1,0,0.2,0.1,0.2,0.2c0.2,0.6,0.3,1.3,0.5,1.9
					c0.1,0.3-0.1,0.4-0.3,0.4c-0.2,0-0.4,0-0.5-0.2s0-0.4-0.3-0.4s-0.6,0.1-0.7,0.4c-0.1,0.1-0.1,0.3-0.1,0.5
					c0.4,1.7,0.8,3.4,1.1,5.1c0,0.1,0,0.2,0.1,0.2c0.3,0.1,0.3,0.3,0.3,0.5c0.4,1.9,0.9,3.9,1.3,5.8c0.1,0.3,0,0.5-0.3,0.5
					c-0.2,0-0.4,0.1-0.5,0.1c-0.3,0.1-0.4,0-0.5-0.3c-0.4-2-0.9-4-1.3-6c0-0.1,0-0.3,0.1-0.4c0-0.1,0-0.2,0-0.2
					c-0.4-1.6-0.7-3.3-1.1-4.9c-0.1-0.5-0.4-0.8-0.9-1c-0.3-0.1-0.6-0.1-0.8,0.1c-0.5,0.3-0.8,0.7-1.1,1.2c0,0.1-0.1,0.1-0.1,0.2
					C107.8,291.2,107.8,291.2,107.8,291.2z"/>
			</g>
		</g>
	</g>
	<g id="D5SZva_2_">
		<g>
			<g>
				<path class="st9" d="M102.6,288.6c0.5,0.6,0.7,1.3,0.6,2.2c-0.1,0.4-0.1,0.9,0.1,1.3c0,0.1,0.1,0.1,0.1,0.2
					c0.3,0.2,0.4,0.5,0.3,0.8c0,0.5-0.1,1-0.2,1.4c0,0.1,0,0.3,0,0.5c0.5,3.1,1,6.1,1.5,9.2c0,0.1,0,0.3,0.1,0.4
					c0,0.1-0.1,0.1-0.1,0.2c-0.9,0.4-1.8,0.7-2.7,1.1c-0.1,0-0.2-0.1-0.2-0.1c0-0.3,0-0.5-0.3-0.7c-0.1-0.1-0.1-0.4-0.1-0.6
					c-0.2-0.1-0.5-0.3-0.3-0.7c0,0,0-0.1-0.1-0.2c-0.4-0.1-0.4-0.4-0.2-0.7c-0.3-0.2-0.6-0.3-0.4-0.7c0,0-0.1-0.2-0.2-0.2
					c-0.2-0.1-0.3-0.3-0.2-0.5c0-0.1,0-0.2-0.1-0.3c-0.3-0.2-0.3-0.4-0.2-0.8c-0.3-0.2-0.5-0.3-0.4-0.7c0,0-0.1-0.2-0.2-0.2
					c-0.2-0.1-0.3-0.3-0.2-0.5c0.1-0.2,0-0.3-0.1-0.3c-0.2-0.1-0.3-0.3-0.2-0.5c0-0.1,0-0.2-0.1-0.3c-0.2-0.1-0.3-0.3-0.2-0.5
					c0-0.1-0.1-0.2-0.1-0.3l0,0c-0.3-0.2-0.1-0.5-0.3-0.7c-0.2-0.2-0.4-0.3-0.3-0.7c0-0.1-0.1-0.2-0.1-0.2c-0.2-0.1-0.3-0.2-0.2-0.5
					c0-0.1-0.1-0.2-0.1-0.4l0,0c-0.3-0.2,0-0.5-0.2-0.7s-0.4-0.3-0.3-0.6c0-0.1,0-0.2-0.1-0.3c-0.2-0.2-0.2-0.4,0.1-0.6
					c0.1,0,0.2-0.1,0.3-0.1c0.1,0,0.2,0,0.2-0.1c-0.3-1.1-0.5-2.2-0.8-3.2c0.1-0.1,0.1-0.2,0.2-0.3c0.3-0.2,0.6-0.1,0.8,0.2
					c0.3,0.3,0.6,0.3,0.9,0.3c0.7,0,1.4,0,2,0.1c0.4,0.1,0.7,0,1-0.4c0.1-0.2,0.4-0.2,0.6-0.4C102.5,288.5,102.6,288.6,102.6,288.6z
					 M99.1,297.5c0.2,0.2,0.6,0.2,0.4,0.6c-0.1,0.2,0,0.3,0.2,0.4c0.1,0.1,0.2,0.3,0.2,0.4c-0.1,0.3,0,0.4,0.2,0.5s0.3,0.2,0.1,0.4
					c-0.1,0.2-0.1,0.3,0.1,0.4s0.3,0.2,0.2,0.4c-0.1,0.2,0,0.3,0.2,0.4s0.3,0.2,0.2,0.4c-0.1,0.2,0,0.3,0.2,0.4s0.3,0.2,0.2,0.4
					c-0.1,0.2,0,0.3,0.1,0.4c0.2,0.1,0.3,0.2,0.2,0.4c-0.1,0.2,0,0.3,0.2,0.4s0.3,0.2,0.2,0.5c-0.1,0.2,0,0.3,0.1,0.4
					c0.2,0.1,0.3,0.2,0.2,0.4c-0.1,0.2,0,0.3,0.1,0.4c0.2,0.1,0.3,0.2,0.1,0.5c0.8-0.3,1.6-0.7,2.4-1c-0.5-3.4-1.1-6.7-1.6-10.1
					c-0.1,0-0.2,0.1-0.3,0.1c0.2,1.4,0.4,2.8,0.7,4.1c0.3,1.8,0.6,3.6,0.9,5.4c0,0.1,0,0.3-0.1,0.3c-0.4,0.2-0.7,0.3-1.1,0.5v-0.1
					c0.3-0.1,0.5-0.3,0.8-0.4c0.2-0.1,0.2-0.2,0.2-0.4c-0.5-3-1-6-1.4-9c0-0.2-0.1-0.3-0.4-0.3c-0.2,0-0.4,0-0.5-0.1
					c-0.4-0.4-0.9-0.7-1.5-0.7c-0.2,0-0.5,0-0.7,0c-0.8,0-1.4-0.3-1.8-1c-0.1-0.2-0.3-0.2-0.4-0.1c0,0.2,0.1,0.4,0.1,0.5
					c-0.1,0.2,0,0.3,0.2,0.4c0.1,0.1,0.2,0.3,0.2,0.4c-0.1,0.3,0,0.4,0.2,0.5s0.2,0.2,0.1,0.3c0,0.1-0.1,0.2-0.1,0.3
					c0.3,0.1,0.6,0.3,0.4,0.7c0,0,0.1,0.2,0.2,0.2c0.2,0.1,0.3,0.3,0.2,0.5c0,0.1,0,0.3,0.1,0.3C99.3,296.9,99.3,297.2,99.1,297.5z
					 M101.6,290.8c-0.7-0.2-1.5-0.3-2.3-0.1c-0.1,0-0.2,0.1-0.3,0.2c-0.2,0.2-0.3,0.4-0.1,0.7c0.1,0.2,0.4,0.3,0.6,0.2
					c0.6-0.3,1.2-0.2,1.8,0c0.4,0.1,0.7,0,0.8-0.2C102.1,291.3,102,291,101.6,290.8z"/>
			</g>
			<g>
				<path class="st10" d="M99.1,297.5c0.2-0.3,0.2-0.5-0.2-0.7c-0.1,0-0.1-0.2-0.1-0.3c0.1-0.3,0-0.4-0.2-0.5
					c-0.1,0-0.2-0.2-0.2-0.2c0.2-0.4,0-0.6-0.4-0.7c0-0.1,0.1-0.2,0.1-0.3c0.1-0.2,0.1-0.3-0.1-0.3c-0.2-0.1-0.3-0.2-0.2-0.5
					c0-0.1-0.1-0.3-0.2-0.4c-0.2-0.1-0.2-0.2-0.2-0.4c0-0.1-0.1-0.3-0.1-0.5c0.1-0.1,0.2-0.1,0.4,0.1c0.4,0.6,1.1,0.9,1.8,1
					c0.2,0,0.5,0,0.7,0c0.6,0,1.1,0.2,1.5,0.7c0.1,0.1,0.3,0.2,0.5,0.1c0.2,0,0.3,0,0.4,0.3c0.5,3,0.9,6,1.4,9c0,0.2,0,0.3-0.2,0.4
					c-0.3,0.1-0.5,0.3-0.8,0.4v0.1c0.4-0.2,0.7-0.3,1.1-0.5c0.1,0,0.1-0.2,0.1-0.3c-0.3-1.8-0.6-3.6-0.9-5.4
					c-0.2-1.4-0.4-2.7-0.7-4.1c0.1,0,0.2,0,0.3-0.1c0.5,3.4,1.1,6.7,1.6,10.1c-0.8,0.3-1.5,0.6-2.4,1c0.2-0.3,0.1-0.4-0.1-0.5
					s-0.3-0.2-0.1-0.4c0.1-0.2,0-0.3-0.2-0.4s-0.3-0.2-0.1-0.4c0.1-0.2,0-0.4-0.2-0.5s-0.3-0.2-0.2-0.4c0.1-0.2,0-0.3-0.2-0.4
					s-0.2-0.2-0.1-0.4c0.1-0.2,0-0.3-0.2-0.4s-0.3-0.2-0.2-0.4c0.1-0.2,0-0.3-0.2-0.4s-0.3-0.2-0.2-0.4c0.1-0.2,0-0.4-0.2-0.4
					c-0.2-0.1-0.3-0.2-0.1-0.4c0.1-0.2,0-0.3-0.1-0.4c-0.2-0.1-0.3-0.2-0.2-0.5c0-0.1-0.1-0.3-0.2-0.4c-0.2-0.1-0.3-0.2-0.2-0.4
					C99.7,297.7,99.3,297.7,99.1,297.5z"/>
			</g>
		</g>
	</g>
	<g id="kZv9pw.tif_1_">
		<g>
			<g>
				<path class="st9" d="M86.9,293.8c0.1,0.1,0.1,0.2,0.2,0.3c0.2,0.3,0.4,0.6,0.6,0.9c0.3,0.4,0.7,0.5,1.1,0.2
					c0.3-0.2,0.6-0.4,1-0.6c0.4-0.3,0.5-0.7,0.2-1.1c-0.2-0.3-0.4-0.6-0.6-1c0-0.1-0.1-0.1-0.1-0.2c0.5,0.1,0.9,0.2,1.2,0.6
					c0.9,0.9,1,2.1,0.2,3.1c-0.1,0.1-0.1,0.2-0.1,0.3c0,0.7,0,1.3,0.1,2c0.2,1.3,0.4,2.6,0.6,3.9c0,0.2,0.1,0.3,0.3,0.3
					c1.2,0.3,1.8,1.5,1.5,2.7c0,0,0,0.1-0.1,0.2c-0.1-0.1-0.1-0.1-0.1-0.2c-0.2-0.3-0.4-0.7-0.7-1c-0.3-0.5-0.8-0.6-1.2-0.3
					c-0.3,0.2-0.5,0.3-0.8,0.5c-0.5,0.3-0.6,0.8-0.3,1.3c0.2,0.3,0.4,0.6,0.6,0.9c0,0.1,0.1,0.1,0.1,0.2c-0.4,0-0.8-0.2-1.1-0.4
					c-0.9-0.7-1.1-1.9-0.5-2.9c0.1-0.2,0.2-0.4,0.2-0.6c-0.1-1.9-0.4-3.9-0.9-5.8c-0.1-0.3-0.2-0.4-0.4-0.5
					c-0.9-0.4-1.4-1.6-1.1-2.6C86.9,293.9,86.9,293.9,86.9,293.8z"/>
			</g>
		</g>
	</g>
	<g>
		<path class="st4" d="M79.6,304.3c0,0,24.4-0.6,39.1-6.7c0,0,1.1-2.2-2.5-5.5c0,0-11.4,5-36.2,5.7
			C80.2,297.8,78.3,302.2,79.6,304.3z"/>
	</g>
	<g>
		<path class="st8" d="M68.6,264.6c0-0.1-0.7-1.8-2.7-1.2l-0.1-0.4c2.4-0.8,3.2,1.4,3.2,1.5L68.6,264.6l0.2-0.1L68.6,264.6z"/>
	</g>
	<g>
		<path class="st8" d="M69.3,263.2c0-0.1-0.7-1.8-2.7-1.2l-0.1-0.4c2.4-0.8,3.2,1.4,3.2,1.5L69.3,263.2l0.2-0.1L69.3,263.2z"/>
	</g>
	<g>
		<path class="st8" d="M70.9,262.7h-0.5h0.2h-0.2c0-0.1,0-2-2.1-2.1v-0.5C70.8,260.3,70.9,262.7,70.9,262.7z"/>
	</g>
	<g>
		<path class="st8" d="M72.5,262H72c0-0.1,0-2-2.1-2.1v-0.5C72.5,259.6,72.5,262,72.5,262z"/>
	</g>
	<g>
		<path class="st8" d="M83.8,253.7h-0.5h0.2h-0.2c0-0.1-0.2-2-2.2-1.9v-0.5C83.6,251.3,83.8,253.7,83.8,253.7z"/>
	</g>
	<g>
		<path class="st8" d="M84.8,252.5h-0.5h0.2h-0.2c0-0.1-0.2-2-2.2-1.9v-0.5C84.6,250.1,84.8,252.5,84.8,252.5z"/>
	</g>
	<g>
		<path class="st8" d="M86,252.6l-0.4-0.1l0.2,0.1l-0.2-0.1c0-0.1,0.5-1.9-1.4-2.6l0.2-0.4C86.7,250.3,86,252.5,86,252.6z"/>
	</g>
	<g>
		<path class="st8" d="M87.8,252.4l-0.4-0.1l0.2,0.1l-0.2-0.1c0-0.1,0.5-1.9-1.4-2.6l0.2-0.4C88.5,250.1,87.8,252.3,87.8,252.4z"/>
	</g>
	<g>
		<path class="st8" d="M99.3,251.6l-0.5-0.1H99h-0.2c0-0.1,0.2-2-1.8-2.3l0.1-0.5C99.5,249.2,99.3,251.5,99.3,251.6z"/>
	</g>
	<g>
		<path class="st8" d="M100.5,250.6l-0.5-0.1h0.2H100c0-0.1,0.2-2-1.8-2.3l0.1-0.5C100.7,248.2,100.5,250.6,100.5,250.6z"/>
	</g>
	<g>
		<path class="st8" d="M101.7,250.9l-0.4-0.2l0.2,0.1l-0.2-0.1c0-0.1,0.9-1.8-0.9-2.8l0.2-0.4C102.7,248.7,101.7,250.8,101.7,250.9z
			"/>
	</g>
	<g>
		<path class="st8" d="M103.5,251l-0.4-0.2l0.2,0.1l-0.2-0.1c0-0.1,0.9-1.8-0.9-2.8l0.2-0.4C104.5,248.9,103.5,251,103.5,251z"/>
	</g>
	<g>
		<circle class="st11" cx="72.4" cy="265.2" r="4"/>
	</g>
	<g>
		<circle class="st8" cx="72.4" cy="265.1" r="1.8"/>
	</g>
	<g>
		<circle class="st11" cx="101.5" cy="254" r="4"/>
	</g>
	<g>
		<circle class="st8" cx="101.6" cy="254.1" r="1.8"/>
	</g>
	<g>
		<circle class="st11" cx="86.3" cy="255.4" r="4"/>
	</g>
	<g>
		<circle class="st8" cx="86.2" cy="255.3" r="1.8"/>
	</g>
</g>
</svg>
