<?xml version="1.0" encoding="utf-8"?>
<!-- Generator: Adobe Illustrator 22.1.0, SVG Export Plug-In . SVG Version: 6.00 Build 0)  -->
<svg version="1.1" id="Layer_1" xmlns="http://www.w3.org/2000/svg" xmlns:xlink="http://www.w3.org/1999/xlink" x="0px" y="0px"
	 viewBox="0 0 510.1 6197.6" style="enable-background:new 0 0 510.1 6197.6;" xml:space="preserve">
<style type="text/css">
	.st0{fill:#F7941E;}
	.st1{fill:#FDFADA;}
</style>
<title>Asset 22</title>
<g id="Layer_2_1_">
	<g id="Layer_1-2">
		<path class="st0" d="M359.2,11.2c28.5-7,61.4,0.5,86.8,14.2c19.8,10.7,67.2,42.3,71,65.6c2,12.2,1,6234,1,6316
			c0,3222-27.1-1.1-47,0H-12.2C-28.3,6407.9-5,2059-5,817.6C-5,689.5-5,226.1-5,98c0-4.9,70.3,8.7,75.5,9.9
			c31.7,7.6,67.2,30.1,100.3,27c45.6-4.3,85.4-51.9,117.8-79.7c15.9-13.6,32.5-26.6,51-36.4C345.7,15.5,352.3,12.9,359.2,11.2z"/>
	</g>
</g>
<g>
	<path class="st1" d="M26.5,154.6c1.5-1,2.7-2.4,3.6-3.9c1.9-3,3.3-6.3,3.8-9.7c0.2-0.8,0.1-1.7-0.5-2c-0.7-0.4-1.5,0.1-1.9,0.8
		s-0.4,1.5-0.7,2.2c-0.3,0.7-0.7,1.4-1.4,1.6c-0.7,0-1.4-0.5-1.6-1.1s-0.2-1.4,0.1-2.1c0.3-1.4,1-2.7,2.1-3.6s2.6-1.5,4-1.2
		c1.8,0.3,3.1,2.1,3.6,3.9c0.5,1.8,0.1,3.7-0.4,5.5c-2.1,6.7-7.3,11.4-13.7,14.1c-0.7,0.3-1.5,0.9-1.5,1.6c0,0.4,0.1,0.8,0.2,1.1
		c0.5,1.4,1.3,2.7,1.9,4.2c0.5,1.5,0.6,3.3,1.8,4.5c1.9,1.7,4.6,1.9,6.9,1.6c2.2-0.3,5.3-2.1,7.5-1.9c0.6,0,1.2,0.6,1,1.2
		c-0.1,0.3-0.3,0.6-0.7,0.7c-2.2,1.5-5,1.7-7.6,1.6c-1.4,0-5.9-1-6.4,0.9c-0.2,0.7,0.1,1.3,0.3,1.9c2.7,6.3,3.7,13.7,2.6,20.6
		c-0.2,1.4-0.6,2.8-1.4,3.9c-1,1.3-2.7,2.1-4.3,2c-1.6,0-3.2-1-4.1-2.4c-0.4-0.7-0.8-1.7-0.4-2.5s1.5-1.3,2.2-0.7
		c0.8,0.7,0.5,2,1.7,2.5c0.8,0.4,1.6-0.2,2.1-0.8c1.5-2.3,1.3-6.9,1.2-9.5c0-3.4-0.6-6.8-1.8-9.9c-0.7-1.6-1.9-3.8-4-3.7
		c-0.6,0.1-1.4,0.2-1.7-0.3c-0.4-0.7,0.6-1.5,1.2-2.1c0.7-0.9,0.4-2.2,0.2-3.3c-0.5-2-1.2-4.2-1.7-6.3c-1.8-0.1-2.5,3.2-4.2,2.8
		c-1-0.3-1.2-1.6-0.8-2.5c0.8-2,3.4-3.3,3.4-5.5c0-1.3-1.3-2.7-1-3.9c0.4-1.8,1.6-0.4,2.5,0.5c1.7,1.6,4.5,1.9,6.6,0.9
		C25.5,155.2,26,155,26.5,154.6z"/>
	<path class="st1" d="M56.5,137.6c1.4,1.7,1.4,3.8,1.6,5.8c0.5,4.4,1.9,8.7,2.5,13.1c0.3,3.3,0.7,6.8,1.2,10.1
		c0.4,1.8,0.6,3.8,1.5,5.4c1,2,3.1,6.9,5.9,6.3c0.4-0.1,0.8-0.2,1.2-0.3c1.9-0.4,0.8,1.6,0,2.2c-1.5,1.4-3.4,0.7-4.8-0.4
		c-0.9-0.7-2-2.6-3.2-2.7c-1.9-0.1-2.1,3.1-2.6,4.3c-1.1,2.5-3.7,3.5-6.2,4.2c-1.7,0.5-3.6,0.9-5.2-0.2c-3.1-2.4-3-7.7-2.5-11.1
		c0.4-2.6,1.1-5.5,2.9-7.5c1.2-1.4,2.7-1.8,4.5-1.8c1.6-0.2,4.3,0.1,3.8-2.3c-0.7-3.6-1.4-7.1-2.5-10.6c-0.7-2.4-1.5-4.6-1.7-7.1
		c-0.2-1.7,0-3.5,0.6-5.2C53.8,139,55.4,136,56.5,137.6 M50.3,177.1c0.4,1.7,1.2,3.4,2.5,4.6c0.4,0.3,0.7,0.7,1.2,0.7
		s0.9-0.1,1.3-0.4c0.9-0.6,1.3-1.5,1.7-2.5c0.6-1.6,1-3.2,1.2-4.9c0.3-1.9,0.4-3.8,0.3-5.7c0-0.7-0.3-1.5-0.8-2
		c-0.4-0.2-0.9-0.4-1.4-0.3c-1.8,0-3.6,0.7-4.7,2c-1.7,2.1-1.5,4.9-1.5,7.3"/>
	<path class="st1" d="M104.6,156.6c0.2,2.6,1.2,5.3,1.7,7.9c0.7,3.4,2.4,8.1,6.7,7.2c2.3-0.5,3.8-2.5,3.7-4.9c0-1.1-0.9-4.5,1-4.5
		c2.4,0,2.2,4,2.1,5.5c-0.5,5.7-5.9,8.8-11,7.1c-6.7-2.1-5.7-12.3-6.9-17.7c-0.5-2.2-1.4-3.7-3.9-3.5c-0.9,0.1-4.8,0.6-4.2-1.4
		c0.4-1.8,3.5-1.7,4.7-1.4c2.9,0.7,1.6-4.4,1.5-5.8c-0.2-3.7-0.3-7.3-0.4-11.1c0-1.5,1.6-3.1,2.9-1.6c0.5,0.5,0.7,1.4,0.7,2.2
		c0.2,3-0.1,6,0,9c0,1.1-0.2,3.5,0.5,4.5c1.1,1.5,2.4-0.6,2.9-1.8c0.4-0.9,0.7-1.9,1.1-2.8c0.2-0.5,0.6-1,1-1.2
		c1.7-1,2.2,0.9,2.1,2.2c-0.2,2.1-1.6,4.2-3,5.7c-1.2,1.6-3,2.7-3.2,4.9C104.6,155.5,104.5,156.1,104.6,156.6z"/>
	<path class="st1" d="M93.9,171.8c1.1-3.2,1.2-6.6,2.6-9.8c0.2-0.6,0.5-1.2,1-1.5c0.4-0.4,1.2-0.5,1.7-0.2c0.6,0.4,0.6,1.4,0.4,2.1
		c-0.4,3.1-1.3,6.2-2.4,9.1c-0.7,1.7-1.6,3.5-3.1,4.6c-1.5,1.2-3.6,1.6-5.5,1.2c-1.9-0.5-3.6-1.7-4.6-3.3c-1.7-2.7-1.6-6.4-3.7-8.8
		c-0.6-0.6-1.1-1.1-1.6-1.7c-0.5-0.6-0.8-1.5-0.4-2.2c0.4-1,1.5-1.3,2.2-2c1.1-1.2,0.9-3,1.1-4.6c0.1-1.5,0.4-3.1,1.4-4.3
		s2.6-1.9,4-1.6c1.8,0.3,2.8,2,3.5,3.7c0.6,1.5,0.9,3.1,0.6,4.7c-0.2,1.6-0.9,3.1-2,4.2c-0.9,0.7-2,1.3-2.4,2.4
		c-0.2,0.5-0.2,1.1-0.1,1.7c0.2,2.7,1,5.5,2.4,7.9c0.5,0.9,1.4,2,2.6,1.8C92.8,174.7,93.3,172.8,93.9,171.8 M87.4,153.1
		c-0.6-1.1-1.6-1.5-2.4-0.9c-0.5,0.5-0.7,1.1-0.7,1.7c-0.2,1.8,0.2,3.7,1.1,5.2c0.2,0.2,0.4,0.5,0.6,0.5c0.3,0,0.6-0.2,0.8-0.4
		c0.7-0.8,1.1-1.8,1.3-2.9C88.2,155.4,88,154,87.4,153.1"/>
	<path class="st1" d="M49.2,194.9c-0.3,2.1-4.9,4-6.7,2.9c-2-1.4-3.2-3.6-4.1-5.9c-1.7-4.5-3.3-11.5,1-15.2c0.8-0.6,2.9-0.8,2.5,0.8
		c0,0.2-0.1,0.5-0.3,0.7c-1.2,2.2-2.2,4.7-1.6,7.4c0.4,2.3,0.8,5,2.7,6.6c0.9,0.9,2.1,1.4,3.4,1.4c0.8,0.1,2.2-0.6,2.8,0.1
		C49.1,194.1,49.2,194.5,49.2,194.9z"/>
	<path class="st1" d="M44.5,165.1c-0.6,0.4-1.4,0.7-2,1c-0.2,0.1-0.3,0.3-0.4,0.5c-1.3,1.2-4.2,1.1-4.8-0.9
		c-0.7-2.3-1.6-4.2,0.1-6.4c0.7-0.8,1.5-1.5,2.5-1.5s2,0.4,2.7,0.9C45,160.2,46.6,162.5,44.5,165.1"/>
	<path class="st1" d="M77.9,169.4c-1.8-7.1-3.8-14-4-21.3c-0.1-1.5-0.1-3.1,0.8-4.4c0.3-0.5,0.8-1,0.7-1.6c-0.1-0.6-0.6-1.2-1.2-1.2
		s-1.1,0.1-1.5,0.5c-0.8,0.5-1.9,1.7-3.1,3c-1.9,0.1-3.7,0.8-5.1,2.2c-1.3,1.2-1.7,3.3-1.8,4.9c-0.1,0.7-0.1,1.4-0.2,2.1
		c-0.5,2,0.8,8.3,1.5,9.5c0.9,1.4,2.3,2.5,3.9,3c1.7,0.5,3.5,0.6,4.8,1.7c1.2,0.9,1.7,2.4,2.2,3.9c1.6,5.4,2.2,11.2,1.3,16.9
		c-0.5,2.9-1.6,5.9-4.1,7.4c-2.8,1.7-7.1,0.5-8.5-2.5c-0.3-0.5-0.4-1.1-0.3-1.7c0.2-0.6,1-0.9,1.4-0.5c0.5,0.4,0.2,1.1,0.5,1.7
		c0.2,0.8,1.5,1.1,2.3,0.6c0.7-0.4,1-1.4,1-2.3c-0.1-2.2-2.2-4-4.4-4c-2.2,0-4.1,1.7-4.7,3.8c-0.6,2.1,0.1,4.4,1.6,6
		s3.6,2.5,5.8,2.6c4.2,0.2,8.2-2.3,10.5-5.8c2.3-3.4,3.1-7.8,3-12C80.1,177.5,79,173.4,77.9,169.4z M71.3,159.2
		c0.1,1.2-0.6,2.3-0.8,3.3c-0.2,1.4-1.6,2-2.4,1.5c-1-0.5-1.5-1.1-1.6-2.1c-0.1-1.3-0.6-2.6-0.6-3.9c0-1-0.1-2-0.2-3
		c0.1-1.5,0.9-2.5,1.5-3.7c0.4-0.8,1.2-1.1,2.1-1c0.4,0,1.2,0.9,1.3,1.5c0.3,1.7,0.5,3.6,0.7,5.3C71.5,157.7,71.2,158.5,71.3,159.2z
		"/>
</g>
</svg>
