<?xml version="1.0" encoding="utf-8"?>
<!-- Generator: Adobe Illustrator 22.0.1, SVG Export Plug-In . SVG Version: 6.00 Build 0)  -->
<svg version="1.1" id="Layer_1" xmlns="http://www.w3.org/2000/svg" xmlns:xlink="http://www.w3.org/1999/xlink" x="0px" y="0px"
	 viewBox="0 0 505.8 629" style="enable-background:new 0 0 505.8 629;" xml:space="preserve">
<style type="text/css">
	.st0{fill:#F4D013;}
	.st1{fill:#FDFADA;}
</style>
<title>Asset 10</title>
<g id="Layer_2_1_">
	<g id="Layer_1-2">
		<path class="st0" d="M512,65v719H-8V101c2.1,1.8,12.4,12,14.1,14.1c17.2,20.2,39.8,31.1,65.3,35c32.9,5,61-7.5,85.5-28.4
			c26.9-23,49-50.6,71.1-78c11.1-13.8,23.4-26.3,40.2-32.7c18.2-6.9,42.1,0.1,60.9,3.2C390,24,453.8,45.4,512,65z"/>
	</g>
</g>
<g id="Shape_19_1_">
	<path class="st1" d="M225.6,112.1c-1.3-0.1-2.5-0.9-3.3-2.4c-1.3-2.5-0.6-5.6,1-7.8c2.6-3.6,7.3-5.4,11.7-4.7
		c1.8,0.3,3.3,1.5,4.4,2.8c5.9,6.7,4.1,18.1-1.9,24.1c-2.8,2.8-6.6,3.9-10.5,3.8c-2.8-0.1-5.9-0.6-8.3-2.1
		c-9-5.3-13.5-18.2-10.5-28.1c1-3.4,3.4-7.8,6.9-9.1c2.9-1.1,6.8-0.9,9.2,1.2c1.4,1.2,2.1,3.2,1.5,5.1c-0.5,1.6-2.9,3.8-4.7,2.7
		c-1.1-0.7-1.1-2.7-0.2-3.5c0.8-0.8,1.3,0,1.4,0.8c0,0.2,0.2,0.5,0.4,0.4c0.1,0,0.2-0.1,0.2-0.2c0.8-0.9,0.5-2.2-0.4-2.9
		c-2.1-1.8-4.5-2.4-6.9-0.7c-1.4,1-2.3,2.4-3,4c-2.2,4.7-2.2,10.2-0.4,15.1c2.4,6.7,8.3,13.3,15.6,14.5c7.1,1.2,12.2-6.5,11.8-12.8
		c-0.2-3.4-0.4-10.9-4.8-12c-2.3-0.6-4.7-0.6-6.7,0.7c-1.7,1.1-2.9,3-3.1,5c-0.1,1.1,0.1,2.3,0.9,3c1,0.9,2.8,0.5,3.6-0.6
		c0.3-0.4,0.5-0.9,0.4-1.3c-0.2-1.2-1.9-1.2-0.9-2.8c1.1-1.7,3.4-0.6,4,1c0.7,1.7-0.7,3.8-1.9,4.9
		C229.5,111.3,227.4,112.3,225.6,112.1z"/>
	<path class="st1" d="M306.8,97.7c-1.6-1.3-2.6-3.7-3.4-5.6c-2.1-5.1-1.5-10.8-2-16.2c-0.2-2-0.5-3.9-1.1-5.8c-0.5-1.4-0.8-3-2-4.1
		c-0.3-0.3-0.7-0.5-1.1-0.6c-1.1-0.2-2.3,0.9-3.2,1.5c-1,0.8-1.9,1.8-2.6,2.9c-1.2,2.1-1.7,4.6-1.4,6.9c0.2,1.4,0.6,2.7,0.8,4.1
		c0.2,1.4,0.1,2.9-0.7,4c-0.3,0.5-0.9,0.9-1.5,0.7c-0.5-0.1-0.7-0.6-1-1c-1.5-2.8-2.9-5.5-4.5-8.3c-0.2-0.3-0.4-0.6-0.7-0.8
		c-0.4-0.2-1,0-1.3,0.4c-0.3,0.4-0.4,0.8-0.5,1.3c-0.6,3.4,0.2,7,1.4,10.3s2.7,6.5,3.5,9.9c0.1,0.6,0.2,1.4-0.4,1.6
		c-0.5,0.2-1-0.4-1.3-0.9c-3.7-6-5.8-13-5.9-20c0-1.9,0.2-4,1.8-5.1c0.8-0.6,1.9-0.7,2.9-0.5c1,0.2,1.9,0.6,2.5,1.3
		c0.4,0.5,1.2,1.6,1.9,1.6c0.8,0.1,0.2-2,0.2-2.4c0-2.5,0.9-5,2.3-7.1c1.3-2,3.3-3.2,5.8-3c2.7,0.3,5,2.4,6.2,4.7
		c1.8,3.4,2,7.3,2.6,11.1c0.7,4.3,1.7,8.6,3,12.8c1.2,3.8,3.7,7.3,8.1,7.2c1,0,2.1-0.4,2.7-1.2c0.5-0.8,0.6-1.9-0.3-2.5
		c-0.6-0.3-1.4-0.2-1.8,0.3c-0.2,0.2-0.3,0.5-0.5,0.7c-0.7,0.9-1.4-0.1-1.7-0.8c-0.6-1.4-0.2-3,0.8-4.1c1.1-1,2.8-1.3,4.1-0.6
		c1.4,0.7,2.3,2.3,2.3,3.9c0.1,2.1-1.1,4.3-2.9,5.4C314.7,101.8,309.7,100.1,306.8,97.7"/>
	<path class="st1" d="M317.5,89c-1.6,0-3.3-1.4-4.5-2.5c-1.4-1.2-2.5-2.6-3.2-4.3c-1.3-3.2-0.9-6.6-1-10c0-1.7-0.1-3.9,0.6-5.5
		c0.7-1.7,2.2-2.8,3.8-3.7c1.7-0.9,3.8-1.3,5.1-2.7c1.2-1.2,1.8-2.8,2.6-4.3c0.8-1.6,2-3,3.3-4.3c1.7-1.6,4.1-2.9,6.6-2.1
		c2.2,0.8,3.6,3,3.4,5.3c-0.2,2.1-1.9,4-3.9,4.3c-2.6,0.5-4.2-1.9-3.4-4.3c0.2-0.6,0.6-1.1,1.2-1.3c2.7-0.8,0.5,3,2.2,2.8
		c0.5,0,0.8-0.4,1.1-0.8c0.5-0.8,0.9-1.9,0.6-2.8c-0.6-1.8-2.8-1.1-3.9-0.5c-1.9,1.1-3.8,2.3-4.9,4.2c-0.6,1-1.9,3.3-1.4,4.6
		c0.1,0.4,0.5,0.6,0.8,0.8c1.8,1.1,3.2,2.2,4.2,4.1c1,1.9,1.6,4.1,1.8,6.2c0.4,3.9,0.1,8.3-1.9,11.7c-0.9,1.5-2.1,2.7-3.5,3.6
		C321.4,88.8,319.6,88.8,317.5,89 M311.5,72.7c1,4.4,1.4,13,7.9,12.7c2-0.1,3.5-1.5,4.7-2.9c3.7-4.7,3.7-14.3-2.9-16.8
		c-2.2-0.8-2.6,2.2-3.9,3.2c-0.3,0.2-0.6,0.4-0.8,0.7c-0.7,0.8-0.2,1.5-1.5,1.6C313.7,71.2,311.3,70.9,311.5,72.7 M313.5,66.3
		c-0.1,0.5-0.3,1.1-0.3,1.7c0,0.2,0.2,0.4,0.4,0.5c0.1,0.1,0.3,0,0.4,0c0.3-0.1,0.6-0.3,0.9-0.5c0.5-0.4,1-1,1.4-1.5
		c0.1-0.1,0.2-0.3,0.3-0.5c0.1-0.5-0.3-0.9-0.7-1C314.9,64.8,314.2,65.7,313.5,66.3"/>
	<path class="st1" d="M267.5,90.2c-0.3-3.1-0.6-7.8-4.1-9.1c-1.5-0.6-3.2,0.1-4.4,1.2c-1.2,1.1-1.8,2.6-2.4,4.1
		c-0.2,0.5-0.3,1.1,0.1,1.4c0.4,0.2,0.8,0,1.2-0.2c0.7-0.4,1.4-0.8,2.1-1.2c0.4,1,0.1,2.3-0.6,3.1c-0.7,0.8-1.9,1.2-3,1.2
		c-0.9,0-1.9-0.4-2.1-1.2c-0.1-0.3,0-0.6,0-0.9c0.5-3.4,2-6.6,4.2-9.1c0.9-1,1.9-1.9,3.2-2.3c1.7-0.6,4-1,5.5,0.3
		c1.4,1.2,1.7,3.2,2.1,4.9c0.7,2.5,0.9,5.1,0.7,7.7c-0.2,3.2-1.3,6.2-2.5,9.2c-0.8,2-2.8,5.8,0.3,6.9c0.6,0.2,1.3,0.1,2-0.1
		c1.2-0.5,2.4-1.3,3.6-1.9c1.3-0.6,2.6-1.2,3.6-2.2c0.6-0.6,1-1.5,1.1-2.4c0-0.4,0-0.8-0.2-1.2c-0.5-0.7-1.7-0.6-1.6,0.4
		c0,0.3,0.2,0.6,0.3,0.8c0.2,0.3,0.5,0.6,0.4,1c-0.1,0.3-0.4,0.5-0.7,0.5c-0.7,0.1-2.1-0.3-2.5-0.9c-0.7-1.1-0.4-2.6,0.5-3.5
		c0.7-0.7,1.6-1.1,2.5-1.3c0.5-0.1,1.1-0.1,1.6,0c2.5,0.6,2.9,4.8,1.7,6.6c-0.7,1.1-1.9,2.7-3,3.6c-1.2,0.9-2.6,1.6-4,2.3
		c-2.5,1.3-5.6,2.6-8.4,2.3c-0.9-0.1-1.8-0.4-2.5-1c-1-0.9-1-1.9-0.6-3.1c0.9-2.9,2.3-5.6,3.5-8.4c0.5-1.2,1.2-2.4,1.7-3.6
		c0.4-1.2,0.4-2.6,0.5-3.8C267.4,90.3,267.4,90.3,267.5,90.2"/>
	<path class="st1" d="M244.2,92.3c0,0.3,0,0.5,0,0.8c0,4.4,0.8,9.3,2.5,13.4c0.7,1.5,1.7,3.1,3.3,3.7c1.6,0.6,4,0.3,5-1.3
		c0.6-0.9,0.6-2.1,0.6-3.1c0-0.9-0.7-1.8-1.6-0.9c-0.8,1-0.5,2.5-2.3,2.6c-0.2,0-0.3,0-0.5,0c-0.2-0.1-0.3-0.2-0.4-0.3
		c-1.8-2.2,0.8-4.8,2.9-5.2c2.2-0.5,4.2,0.7,5,2.9c0.6,1.7,0.1,3.6-1,5.1c-1.4,1.8-4.8,3.7-7,3.9c-3,0.3-5-1.7-6.1-4.3
		c-0.5-1.1-0.6-2.3-0.9-3.4c-0.4-1.4-0.9-2.7-1.3-4c-0.9-2.8-1.6-5.8-1.6-8.8c0-0.5,0.1-1.1,0.3-1.6c0.6-1.4,2.5-1.7,3-0.2
		C244.1,91.8,244.2,92,244.2,92.3z"/>
	<path class="st1" d="M236.5,85.9c0,0,0-0.1,0-0.1c-0.1-0.5,0.1-1,0.3-1.5c1-2.2,3.8-2.7,5.9-2.5c1.4,0.1,1.9,1.2,1.5,2.4
		c-0.5,1.6-1.8,3.3-3.5,3.8C239.2,88.5,236.8,87.6,236.5,85.9z"/>
</g>
</svg>
