<?xml version="1.0" encoding="utf-8"?>
<!-- Generator: Adobe Illustrator 22.0.1, SVG Export Plug-In . SVG Version: 6.00 Build 0)  -->
<svg version="1.1" id="Layer_1" xmlns="http://www.w3.org/2000/svg" xmlns:xlink="http://www.w3.org/1999/xlink" x="0px" y="0px"
	 viewBox="0 0 505.8 629" style="enable-background:new 0 0 505.8 629;" xml:space="preserve">
<style type="text/css">
	.st0{fill:#F4D013;}
	.st1{fill:#FDFADA;}
	.st2{fill:#273375;}
	.st3{fill:#EC1A58;}
	.st4{fill:#452160;}
	.st5{fill:#A82F91;}
	.st6{fill:#FFFFFF;}
	.st7{fill:#4E0E44;}
	.st8{fill:#F26E21;}
	.st9{fill:#8E8E8E;}
	.st10{fill:#6FBD44;}
</style>
<title>Asset 10</title>
<g id="Layer_2_1_">
	<g id="Layer_1-2">
		<path class="st0" d="M512,65v719H-8V101c2.1,1.8,12.4,12,14.1,14.1c17.2,20.2,39.8,31.1,65.3,35c32.9,5,61-7.5,85.5-28.4
			c26.9-23,49-50.6,71.1-78c11.1-13.8,23.4-26.3,40.2-32.7c18.2-6.9,42.1,0.1,60.9,3.2C390,24,453.8,45.4,512,65z"/>
	</g>
</g>
<g id="Shape_19_1_">
	<path class="st1" d="M225.6,112.1c-1.3-0.1-2.5-0.9-3.3-2.4c-1.3-2.5-0.6-5.6,1-7.8c2.6-3.6,7.3-5.4,11.7-4.7
		c1.8,0.3,3.3,1.5,4.4,2.8c5.9,6.7,4.1,18.1-1.9,24.1c-2.8,2.8-6.6,3.9-10.5,3.8c-2.8-0.1-5.9-0.6-8.3-2.1
		c-9-5.3-13.5-18.2-10.5-28.1c1-3.4,3.4-7.8,6.9-9.1c2.9-1.1,6.8-0.9,9.2,1.2c1.4,1.2,2.1,3.2,1.5,5.1c-0.5,1.6-2.9,3.8-4.7,2.7
		c-1.1-0.7-1.1-2.7-0.2-3.5c0.8-0.8,1.3,0,1.4,0.8c0,0.2,0.2,0.5,0.4,0.4c0.1,0,0.2-0.1,0.2-0.2c0.8-0.9,0.5-2.2-0.4-2.9
		c-2.1-1.8-4.5-2.4-6.9-0.7c-1.4,1-2.3,2.4-3,4c-2.2,4.7-2.2,10.2-0.4,15.1c2.4,6.7,8.3,13.3,15.6,14.5c7.1,1.2,12.2-6.5,11.8-12.8
		c-0.2-3.4-0.4-10.9-4.8-12c-2.3-0.6-4.7-0.6-6.7,0.7c-1.7,1.1-2.9,3-3.1,5c-0.1,1.1,0.1,2.3,0.9,3c1,0.9,2.8,0.5,3.6-0.6
		c0.3-0.4,0.5-0.9,0.4-1.3c-0.2-1.2-1.9-1.2-0.9-2.8c1.1-1.7,3.4-0.6,4,1c0.7,1.7-0.7,3.8-1.9,4.9
		C229.5,111.3,227.4,112.3,225.6,112.1z"/>
	<path class="st1" d="M306.8,97.7c-1.6-1.3-2.6-3.7-3.4-5.6c-2.1-5.1-1.5-10.8-2-16.2c-0.2-2-0.5-3.9-1.1-5.8c-0.5-1.4-0.8-3-2-4.1
		c-0.3-0.3-0.7-0.5-1.1-0.6c-1.1-0.2-2.3,0.9-3.2,1.5c-1,0.8-1.9,1.8-2.6,2.9c-1.2,2.1-1.7,4.6-1.4,6.9c0.2,1.4,0.6,2.7,0.8,4.1
		c0.2,1.4,0.1,2.9-0.7,4c-0.3,0.5-0.9,0.9-1.5,0.7c-0.5-0.1-0.7-0.6-1-1c-1.5-2.8-2.9-5.5-4.5-8.3c-0.2-0.3-0.4-0.6-0.7-0.8
		c-0.4-0.2-1,0-1.3,0.4c-0.3,0.4-0.4,0.8-0.5,1.3c-0.6,3.4,0.2,7,1.4,10.3s2.7,6.5,3.5,9.9c0.1,0.6,0.2,1.4-0.4,1.6
		c-0.5,0.2-1-0.4-1.3-0.9c-3.7-6-5.8-13-5.9-20c0-1.9,0.2-4,1.8-5.1c0.8-0.6,1.9-0.7,2.9-0.5c1,0.2,1.9,0.6,2.5,1.3
		c0.4,0.5,1.2,1.6,1.9,1.6c0.8,0.1,0.2-2,0.2-2.4c0-2.5,0.9-5,2.3-7.1c1.3-2,3.3-3.2,5.8-3c2.7,0.3,5,2.4,6.2,4.7
		c1.8,3.4,2,7.3,2.6,11.1c0.7,4.3,1.7,8.6,3,12.8c1.2,3.8,3.7,7.3,8.1,7.2c1,0,2.1-0.4,2.7-1.2c0.5-0.8,0.6-1.9-0.3-2.5
		c-0.6-0.3-1.4-0.2-1.8,0.3c-0.2,0.2-0.3,0.5-0.5,0.7c-0.7,0.9-1.4-0.1-1.7-0.8c-0.6-1.4-0.2-3,0.8-4.1c1.1-1,2.8-1.3,4.1-0.6
		c1.4,0.7,2.3,2.3,2.3,3.9c0.1,2.1-1.1,4.3-2.9,5.4C314.7,101.8,309.7,100.1,306.8,97.7"/>
	<path class="st1" d="M317.5,89c-1.6,0-3.3-1.4-4.5-2.5c-1.4-1.2-2.5-2.6-3.2-4.3c-1.3-3.2-0.9-6.6-1-10c0-1.7-0.1-3.9,0.6-5.5
		c0.7-1.7,2.2-2.8,3.8-3.7c1.7-0.9,3.8-1.3,5.1-2.7c1.2-1.2,1.8-2.8,2.6-4.3c0.8-1.6,2-3,3.3-4.3c1.7-1.6,4.1-2.9,6.6-2.1
		c2.2,0.8,3.6,3,3.4,5.3c-0.2,2.1-1.9,4-3.9,4.3c-2.6,0.5-4.2-1.9-3.4-4.3c0.2-0.6,0.6-1.1,1.2-1.3c2.7-0.8,0.5,3,2.2,2.8
		c0.5,0,0.8-0.4,1.1-0.8c0.5-0.8,0.9-1.9,0.6-2.8c-0.6-1.8-2.8-1.1-3.9-0.5c-1.9,1.1-3.8,2.3-4.9,4.2c-0.6,1-1.9,3.3-1.4,4.6
		c0.1,0.4,0.5,0.6,0.8,0.8c1.8,1.1,3.2,2.2,4.2,4.1c1,1.9,1.6,4.1,1.8,6.2c0.4,3.9,0.1,8.3-1.9,11.7c-0.9,1.5-2.1,2.7-3.5,3.6
		C321.4,88.8,319.6,88.8,317.5,89 M311.5,72.7c1,4.4,1.4,13,7.9,12.7c2-0.1,3.5-1.5,4.7-2.9c3.7-4.7,3.7-14.3-2.9-16.8
		c-2.2-0.8-2.6,2.2-3.9,3.2c-0.3,0.2-0.6,0.4-0.8,0.7c-0.7,0.8-0.2,1.5-1.5,1.6C313.7,71.2,311.3,70.9,311.5,72.7 M313.5,66.3
		c-0.1,0.5-0.3,1.1-0.3,1.7c0,0.2,0.2,0.4,0.4,0.5c0.1,0.1,0.3,0,0.4,0c0.3-0.1,0.6-0.3,0.9-0.5c0.5-0.4,1-1,1.4-1.5
		c0.1-0.1,0.2-0.3,0.3-0.5c0.1-0.5-0.3-0.9-0.7-1C314.9,64.8,314.2,65.7,313.5,66.3"/>
	<path class="st1" d="M267.5,90.2c-0.3-3.1-0.6-7.8-4.1-9.1c-1.5-0.6-3.2,0.1-4.4,1.2c-1.2,1.1-1.8,2.6-2.4,4.1
		c-0.2,0.5-0.3,1.1,0.1,1.4c0.4,0.2,0.8,0,1.2-0.2c0.7-0.4,1.4-0.8,2.1-1.2c0.4,1,0.1,2.3-0.6,3.1c-0.7,0.8-1.9,1.2-3,1.2
		c-0.9,0-1.9-0.4-2.1-1.2c-0.1-0.3,0-0.6,0-0.9c0.5-3.4,2-6.6,4.2-9.1c0.9-1,1.9-1.9,3.2-2.3c1.7-0.6,4-1,5.5,0.3
		c1.4,1.2,1.7,3.2,2.1,4.9c0.7,2.5,0.9,5.1,0.7,7.7c-0.2,3.2-1.3,6.2-2.5,9.2c-0.8,2-2.8,5.8,0.3,6.9c0.6,0.2,1.3,0.1,2-0.1
		c1.2-0.5,2.4-1.3,3.6-1.9c1.3-0.6,2.6-1.2,3.6-2.2c0.6-0.6,1-1.5,1.1-2.4c0-0.4,0-0.8-0.2-1.2c-0.5-0.7-1.7-0.6-1.6,0.4
		c0,0.3,0.2,0.6,0.3,0.8c0.2,0.3,0.5,0.6,0.4,1c-0.1,0.3-0.4,0.5-0.7,0.5c-0.7,0.1-2.1-0.3-2.5-0.9c-0.7-1.1-0.4-2.6,0.5-3.5
		c0.7-0.7,1.6-1.1,2.5-1.3c0.5-0.1,1.1-0.1,1.6,0c2.5,0.6,2.9,4.8,1.7,6.6c-0.7,1.1-1.9,2.7-3,3.6c-1.2,0.9-2.6,1.6-4,2.3
		c-2.5,1.3-5.6,2.6-8.4,2.3c-0.9-0.1-1.8-0.4-2.5-1c-1-0.9-1-1.9-0.6-3.1c0.9-2.9,2.3-5.6,3.5-8.4c0.5-1.2,1.2-2.4,1.7-3.6
		c0.4-1.2,0.4-2.6,0.5-3.8C267.4,90.3,267.4,90.3,267.5,90.2"/>
	<path class="st1" d="M244.2,92.3c0,0.3,0,0.5,0,0.8c0,4.4,0.8,9.3,2.5,13.4c0.7,1.5,1.7,3.1,3.3,3.7c1.6,0.6,4,0.3,5-1.3
		c0.6-0.9,0.6-2.1,0.6-3.1c0-0.9-0.7-1.8-1.6-0.9c-0.8,1-0.5,2.5-2.3,2.6c-0.2,0-0.3,0-0.5,0c-0.2-0.1-0.3-0.2-0.4-0.3
		c-1.8-2.2,0.8-4.8,2.9-5.2c2.2-0.5,4.2,0.7,5,2.9c0.6,1.7,0.1,3.6-1,5.1c-1.4,1.8-4.8,3.7-7,3.9c-3,0.3-5-1.7-6.1-4.3
		c-0.5-1.1-0.6-2.3-0.9-3.4c-0.4-1.4-0.9-2.7-1.3-4c-0.9-2.8-1.6-5.8-1.6-8.8c0-0.5,0.1-1.1,0.3-1.6c0.6-1.4,2.5-1.7,3-0.2
		C244.1,91.8,244.2,92,244.2,92.3z"/>
	<path class="st1" d="M236.5,85.9c0,0,0-0.1,0-0.1c-0.1-0.5,0.1-1,0.3-1.5c1-2.2,3.8-2.7,5.9-2.5c1.4,0.1,1.9,1.2,1.5,2.4
		c-0.5,1.6-1.8,3.3-3.5,3.8C239.2,88.5,236.8,87.6,236.5,85.9z"/>
</g>
<g>
	<path class="st2" d="M454.5,106.1c-1.3-0.4-2.5-1.1-2.5-1.2l-0.5-0.4l3.1-4.5c0.2-0.3,0.6-0.4,0.9-0.2c0.3,0.2,0.4,0.6,0.2,0.9
		l-2.4,3.4c0.9,0.5,2.5,1.2,3.5,0.7c0.8-0.4,1.2-1.4,1.3-3c0-0.3,0.3-0.6,0.7-0.6c0.3,0,0.6,0.3,0.6,0.7c-0.1,2.1-0.8,3.5-2,4
		C456.3,106.4,455.4,106.4,454.5,106.1z"/>
</g>
<g>
	<path class="st2" d="M440,110.1c-4.9-1.4-7.7-6.4-7.8-6.7c-0.2-0.3,0-0.7,0.3-0.8c0.3-0.2,0.7,0,0.8,0.3l0,0c0,0,0.8,1.4,2.2,2.9
		c1.3,1.3,3.3,3,6,3.3c3.2,0.4,6.5-1.2,9.9-4.7c-0.6-0.6-1.6-1.6-1.9-3.1c-0.3-1.4,0-2.8,1-4.2c0.2-0.3,0.6-0.4,0.9-0.2
		c0.3,0.2,0.4,0.6,0.2,0.9c-0.7,1.1-1,2.2-0.8,3.2c0.4,1.7,1.9,2.7,2,2.7l0.6,0.4l-0.5,0.5c-3.9,4.2-7.7,6-11.4,5.5
		C440.9,110.3,440.4,110.2,440,110.1z"/>
</g>
<g>
	<path class="st2" d="M355.3,116c-0.2-0.1-0.4-0.2-0.4-0.5c-0.2-1.2,0.1-2.2,0.8-2.9c1.5-1.6,4.7-1.6,6.1-1.5c0.1-7.1,1.8-12.1,5-15
		c2.9-2.6,6-2.3,6.1-2.3c0.3,0,0.6,0.3,0.5,0.7c0,0.3-0.3,0.6-0.7,0.5l0,0c0,0-2.7-0.2-5.2,2c-2.9,2.7-4.5,7.8-4.6,14.7l0,0.7
		l-0.7-0.1c-1.2-0.2-4.5-0.3-5.8,1.1c-0.5,0.5-0.6,1.1-0.5,1.9c0.1,0.3-0.2,0.6-0.5,0.7C355.5,116.1,355.4,116.1,355.3,116z"/>
</g>
<g>
	<path class="st2" d="M363.6,116.8c-0.1,0-0.1-0.1-0.2-0.1c-0.3-0.2-0.3-0.6-0.1-0.8c0.5-0.7,0.7-1.3,0.6-1.9
		c-0.3-1.1-1.7-1.6-1.7-1.6c-0.3-0.1-0.5-0.5-0.3-0.8c0.1-0.3,0.5-0.5,0.8-0.3c0.1,0,2,0.8,2.5,2.4c0.3,0.9,0,1.9-0.8,2.9
		C364.1,116.8,363.9,116.9,363.6,116.8z"/>
</g>
<g>
	<path class="st2" d="M360.8,115.4c-0.2-0.1-0.4-0.2-0.4-0.4c-0.5-1.9,0.9-3.6,1-3.6c0.2-0.3,0.6-0.3,0.8-0.1
		c0.2,0.2,0.3,0.6,0.1,0.8c0,0-1.1,1.3-0.7,2.6c0.1,0.3-0.1,0.6-0.4,0.7C361,115.4,360.9,115.4,360.8,115.4z"/>
</g>
<g>
	<path class="st2" d="M372.7,131.1c-0.1,0-0.2-0.1-0.3-0.2c-0.3-0.3-0.3-0.7-0.1-1l2.4-2.6c-1.6-6.5-1.2-11.1,1.2-13.6
		c2.6-2.7,6.4-2,6.5-2c0.4,0.1,0.6,0.4,0.6,0.8c-0.1,0.4-0.4,0.6-0.8,0.6l0,0c0,0-3.2-0.6-5.2,1.6c-2.1,2.2-2.3,6.6-0.8,12.7
		l0.1,0.4l-2.9,3.2C373.3,131.1,373,131.2,372.7,131.1z"/>
</g>
<g>
	<path class="st2" d="M412.9,136.4c-0.2,0-0.3-0.1-0.4-0.3l-2.3-3.7l0.4-0.4c2.5-2.6,6.7-7.3,6.3-10.5c-0.1-1-0.8-1.4-0.8-1.4
		c-0.3-0.2-0.5-0.6-0.3-1c0.2-0.3,0.6-0.5,1-0.3c0.1,0.1,1.2,0.7,1.5,2.5c0.4,2.8-1.7,6.6-6.3,11.3l1.7,2.7c0.2,0.3,0.1,0.8-0.2,1
		C413.3,136.5,413.1,136.5,412.9,136.4z"/>
</g>
<g>
	<g>
		<path class="st3" d="M397.6,61.6c-0.5-0.1-0.8-0.6-0.8-1c0-0.1,0.3-8.6-4.6-9.4c-0.6-0.1-1-0.6-0.9-1.2c0.1-0.6,0.6-1,1.2-0.9
			c2.8,0.5,4.8,2.7,5.8,6.4c0.7,2.6,0.6,5.1,0.6,5.2c0,0.6-0.5,1-1.1,1C397.8,61.6,397.7,61.6,397.6,61.6z"/>
	</g>
	<g>
		<path class="st3" d="M404,68.6c-0.5-0.1-0.9-0.7-0.7-1.2c0-0.2,3-13.8-4.5-20.7c-0.4-0.4-0.5-1.1-0.1-1.5c0.4-0.4,1.1-0.5,1.5-0.1
			c3.5,3.2,5.5,8.2,5.8,14.4c0.2,4.6-0.6,8.2-0.6,8.4C405.2,68.3,404.6,68.7,404,68.6C404.1,68.6,404,68.6,404,68.6z"/>
	</g>
	<g>
		<path class="st3" d="M409.1,61.5c-0.1,0-0.1,0-0.2-0.1c-0.5-0.2-0.8-0.9-0.5-1.4l0,0c0-0.1,3.1-7-0.9-10.5c-0.4-0.4-0.5-1-0.1-1.5
			c0.4-0.4,1-0.5,1.5-0.1c2.2,1.9,3.1,4.7,2.7,8.3c-0.3,2.6-1.2,4.6-1.2,4.7C410.1,61.4,409.6,61.6,409.1,61.5z"/>
	</g>
	<g>
		<path class="st3" d="M413.7,67.2c-0.4-0.1-0.7-0.5-0.8-0.9c0-0.2-0.3-3.8,0.5-8.3c1.1-6,3.8-10.6,7.8-13.3
			c0.5-0.3,1.1-0.2,1.5,0.3c0.3,0.5,0.2,1.1-0.3,1.5c-8.5,5.8-7.4,19.5-7.4,19.6c0.1,0.6-0.4,1.1-1,1.1
			C413.9,67.3,413.8,67.2,413.7,67.2z"/>
	</g>
	<g>
		<path class="st3" d="M418.6,65.5c-0.5-0.1-0.8-0.6-0.8-1.1c0.1-0.5,1.6-12.9,8.5-15.4c0.5-0.2,1.1,0.1,1.3,0.6
			c0.2,0.5-0.1,1.1-0.6,1.3c-5.7,2.1-7.1,13.5-7.1,13.7c-0.1,0.6-0.6,1-1.2,0.9C418.7,65.5,418.6,65.5,418.6,65.5z"/>
	</g>
	<g>
		<path class="st3" d="M420,69.9c-0.5-0.1-0.8-0.6-0.8-1.1c0-0.4,1-8.6,7.9-13.1c0.5-0.3,1.1-0.2,1.4,0.3c0.3,0.5,0.2,1.1-0.3,1.4
			c-6.1,3.9-7,11.5-7,11.6c-0.1,0.6-0.6,1-1.2,0.9C420.1,70,420.1,69.9,420,69.9z"/>
	</g>
</g>
<g>
	<g>
		<path class="st3" d="M421.4,69.1c-0.1,0-0.2-0.1-0.2-0.1c-0.5-0.3-0.7-0.9-0.4-1.4c0-0.1,1.2-2.2,3.2-4.1c2.7-2.7,5.6-3.5,8.2-2.5
			c0.5,0.2,0.8,0.8,0.6,1.4c-0.2,0.5-0.8,0.8-1.4,0.6c-1.9-0.7-3.9-0.1-6,2c-1.7,1.7-2.8,3.6-2.8,3.7
			C422.4,69,421.9,69.2,421.4,69.1z"/>
	</g>
	<g>
		<path class="st3" d="M412.3,71.7C412.3,71.7,412.3,71.7,412.3,71.7c-0.6-0.2-0.9-0.8-0.7-1.3c0-0.1,1.2-3.7,3.8-7.5
			c3.4-5.1,7.7-8.4,12.4-9.3c0.6-0.1,1.1,0.2,1.2,0.8c0.1,0.6-0.2,1.1-0.8,1.2c-10.1,2.1-14.5,15.3-14.6,15.4
			C413.4,71.6,412.8,71.9,412.3,71.7z"/>
	</g>
	<g>
		<path class="st3" d="M411.6,63.1c-0.5-0.1-0.8-0.6-0.8-1.1c0-0.1,0.3-2.3,1.3-4.6c1.5-3.2,3.7-5.2,6.6-5.7
			c0.6-0.1,1.1,0.3,1.2,0.9c0.1,0.6-0.3,1.1-0.9,1.2c-5.2,0.9-6.2,8.4-6.2,8.5c-0.1,0.6-0.6,1-1.2,0.9
			C411.7,63.1,411.7,63.1,411.6,63.1z"/>
	</g>
	<g>
		<path class="st3" d="M404.7,65.6c-0.1,0-0.2-0.1-0.3-0.2c-0.5-0.3-0.6-1-0.2-1.5c0.1-0.1,8.1-11.3,3.8-20.6
			c-0.2-0.5,0-1.1,0.5-1.4c0.5-0.2,1.1,0,1.4,0.5c2,4.3,1.9,9.7-0.2,15.4c-1.6,4.3-3.7,7.2-3.8,7.4
			C405.6,65.6,405.1,65.7,404.7,65.6z"/>
	</g>
	<g>
		<path class="st3" d="M401.4,61.6c-0.1,0-0.1,0-0.2-0.1c-0.5-0.2-0.8-0.9-0.5-1.4l0,0c0-0.1,4.7-10.7,0.9-15.4
			c-0.4-0.4-0.3-1.1,0.2-1.5c0.4-0.4,1.1-0.3,1.5,0.2c4.6,5.7-0.4,17.1-0.6,17.6C402.4,61.5,401.9,61.7,401.4,61.6z"/>
	</g>
	<g>
		<path class="st3" d="M397.9,64.7c-0.1,0-0.1,0-0.2-0.1c-0.5-0.2-0.8-0.9-0.5-1.4c0-0.1,3.2-7,0-13.5c-0.3-0.5,0-1.1,0.5-1.4
			c0.5-0.3,1.1,0,1.4,0.5c3.6,7.4,0.2,15,0,15.3C398.9,64.6,398.4,64.8,397.9,64.7z"/>
	</g>
</g>
<g>
	<path class="st4" d="M387,67c0,0-25.7,3.7-14.6,29.5s12.1,20.6,23.5,23.7c11.4,3.1,27.3,0.5,35.2-11.8c8-12.3,9.5-20.4,6.7-25.8
		l1.3-3.3l-4.5,0.9l0.6-2.6l-2.6-1.1l4.7-3.2l-9.7-3l2.8-6.6l-7,3.5l2.1-7.4l-6.6,3.4l-1.3-7.1l-8.1,4.9l-2-6.9l-4.5,5.2l-6.8-5.6
		l-0.1,7.9l-6.8-3l2.4,5.9l-7.2-2.2L387,67z"/>
</g>
<g>
	<path class="st5" d="M388.7,69.1c0,0-23,3.3-13.1,26.4s10.9,18.4,21,21.3s24.5,0.5,31.6-10.6s8.5-18.3,6-23.1l1.1-2.9l-4,0.8
		l0.5-2.3l-2.3-1l4.3-2.9l-8.7-2.7l2.5-5.9l-6.2,3.1l1.9-6.7l-5.9,3.1l-1.2-6.4l-7.3,4.4l-1.8-6.2l-4,4.7l-6.1-5l-0.1,7.1l-6.1-2.7
		l2.1,5.3l-6.5-2L388.7,69.1z"/>
</g>
<g>
	<circle class="st4" cx="374.3" cy="78.8" r="9.1"/>
</g>
<g>
	<circle class="st6" cx="374.3" cy="78.8" r="5.2"/>
</g>
<g>
	<circle class="st4" cx="435.2" cy="90.2" r="9.1"/>
</g>
<g>
	<circle class="st6" cx="435.2" cy="90.5" r="5.2"/>
</g>
<g>
	<polygon class="st7" points="400.3,96.6 407.9,77.3 408.9,77.7 401.7,95.8 405.4,96.5 405.2,97.5 	"/>
</g>
<g>
	<path class="st8" d="M383.6,99.7c0,0-1.5,2.2-0.9,4.4"/>
</g>
<g>
	<path class="st8" d="M418.5,105.4c0,0,0.5,0.8,0.1,3.6"/>
</g>
<g>
	<path class="st8" d="M382.7,102c0,0,19.2,7.9,35.6,5.2"/>
</g>
<g>
	<circle class="st8" cx="374" cy="78.7" r="2.6"/>
</g>
<g>
	<circle class="st8" cx="435.4" cy="90.6" r="2.6"/>
</g>
<g id="PNSHPz.tif">
	<g>
		<g>
			<path class="st9" d="M449.7,97.4c0.7-1,1.6-1.8,2.4-2.6c1.1-1.2,2.2-2.3,3.3-3.5c0.9-0.9,1.5-2,1.9-3.4c0.3-1.2,0.6-2.3,1-3.5
				c0-0.1,0-0.1,0-0.2c-0.5-0.3-0.5-0.3-0.3-1c0.1-0.3,0.2-0.4,0.5-0.4c1.4,0.4,2.8,0.8,4.1,1.2c0.3,0.1,0.3,0.2,0.2,0.5
				c0,0,0,0,0,0.1c-0.2,0.7-0.2,0.7-0.8,0.6c0,0.1-0.1,0.2-0.1,0.3c-0.3,1-0.6,2-0.8,3c-0.4,1.3-0.4,2.6-0.1,3.9
				c0.6,2.6,1.2,5.2,1.8,7.7c0.3,1.3-0.4,2.6-1.5,2.6c0,0,0,0,0,0c-3.7-1-7.4-2.1-11.1-3.1c-0.3-0.3-0.5-0.5-0.6-1
				c0-0.2,0-0.5-0.1-0.7C449.6,97.9,449.7,97.7,449.7,97.4z M462.6,84.5c-1.5-0.4-2.9-0.8-4.3-1.2c-0.1,0.2-0.1,0.3-0.1,0.5
				c1.4,0.4,2.9,0.8,4.3,1.2C462.5,84.8,462.6,84.7,462.6,84.5z"/>
		</g>
		<g>
			<path class="st9" d="M458.2,83.8c0-0.2,0.1-0.3,0.1-0.5c1.4,0.4,2.9,0.8,4.3,1.2c0,0.2-0.1,0.3-0.1,0.5"/>
		</g>
	</g>
</g>
<g>
	<path class="st10" d="M456.2,92l-4.2,4.5c0,0-1.1,0.8-0.7,1.8c0,0,0.1,0.5,0.7,0.7c0.7,0.2,8.3,2.3,8.3,2.3s0.6,0.3,1.1-0.3
		s0.3-1.3,0.1-2c-0.2-0.6-1.4-6-1.4-6s-0.1-0.9-0.1-1.2C460,91.4,457.8,92.8,456.2,92z"/>
</g>
<g>
	<circle class="st10" cx="463.7" cy="82.2" r="0.9"/>
</g>
<g>
	<circle class="st10" cx="465.9" cy="70.9" r="0.9"/>
</g>
<g>
	<circle class="st10" cx="463.4" cy="76.9" r="1.3"/>
</g>
<g>
	<circle class="st10" cx="469.5" cy="75.9" r="1"/>
</g>
</svg>
