<?xml version="1.0" encoding="utf-8"?>
<!-- Generator: Adobe Illustrator 22.1.0, SVG Export Plug-In . SVG Version: 6.00 Build 0)  -->
<svg version="1.1" id="Layer_1" xmlns="http://www.w3.org/2000/svg" xmlns:xlink="http://www.w3.org/1999/xlink" x="0px" y="0px"
	 viewBox="0 0 505.8 3765" style="enable-background:new 0 0 505.8 3765;" xml:space="preserve">
<style type="text/css">
	.st0{fill:#F4D013;}
	.st1{fill:#FDFADA;}
</style>
<title>Asset 10</title>
<g id="Layer_2_1_">
	<g id="Layer_1-2">
		<path class="st0" d="M512,65v3870H-8V101c2.1,1.8,12.4,12,14.1,14.1c17.2,20.2,39.8,31.1,65.3,35c32.9,5,61-7.5,85.5-28.4
			c26.9-23,49-50.6,71.1-78c11.1-13.8,23.4-26.3,40.2-32.7c18.2-6.9,42.1,0.1,60.9,3.2C390,24,453.8,45.4,512,65z"/>
	</g>
</g>
<g id="Shape_19_1_">
	<path class="st1" d="M223.9,118.2c-1.4-0.1-2.7-1-3.6-2.7c-1.4-2.7-0.6-6.1,1.1-8.5c2.9-4,8-5.9,12.8-5.1c2,0.4,3.6,1.6,4.9,3
		c6.4,7.3,4.4,19.9-2.2,26.4c-3.1,3.1-7.3,4.3-11.5,4.1c-3.1-0.1-6.5-0.7-9.1-2.4c-9.9-5.8-14.7-20-11.4-30.8
		c1.1-3.8,3.8-8.5,7.6-9.9c3.1-1.2,7.5-1,10,1.3c1.5,1.3,2.3,3.5,1.6,5.6c-0.6,1.7-3.2,4.2-5.2,2.9c-1.2-0.8-1.2-3-0.2-3.8
		c0.9-0.9,1.5,0,1.5,0.9c0,0.2,0.2,0.6,0.4,0.4c0.1,0,0.2-0.1,0.3-0.2c0.9-1,0.6-2.4-0.5-3.1c-2.2-2-5-2.7-7.6-0.8
		c-1.6,1.1-2.5,2.6-3.3,4.4c-2.4,5.1-2.5,11.2-0.5,16.5c2.6,7.3,9,14.6,17,16c7.7,1.4,13.4-7.1,12.9-14c-0.2-3.7-0.3-12-5.2-13.1
		c-2.5-0.7-5.1-0.6-7.4,0.7c-1.9,1.2-3.2,3.2-3.4,5.5c-0.1,1.2,0.1,2.5,0.9,3.3c1.1,1,3.1,0.6,3.9-0.6c0.3-0.4,0.6-1,0.4-1.4
		c-0.2-1.3-2.1-1.3-1-3.1c1.2-1.8,3.7-0.6,4.4,1.1c0.7,1.9-0.8,4.1-2.1,5.3C228.1,117.3,225.9,118.5,223.9,118.2z"/>
	<path class="st1" d="M312.9,102.8c-1.8-1.4-2.8-4-3.7-6.1c-2.2-5.6-1.6-11.8-2.1-17.8c-0.2-2.1-0.5-4.3-1.2-6.4
		c-0.5-1.5-0.8-3.3-2.2-4.5c-0.3-0.3-0.8-0.5-1.2-0.6c-1.2-0.2-2.6,0.9-3.5,1.6c-1.1,0.8-2.1,2-2.9,3.1c-1.3,2.3-1.8,5-1.5,7.6
		c0.2,1.5,0.6,3,0.9,4.5c0.2,1.5,0.1,3.2-0.8,4.3c-0.4,0.5-1,1-1.7,0.8c-0.6-0.2-0.8-0.6-1-1.1c-1.6-3.1-3.2-6-4.9-9.1
		c-0.2-0.4-0.4-0.6-0.8-0.9c-0.5-0.2-1.1,0-1.5,0.4c-0.3,0.4-0.5,0.9-0.5,1.4c-0.7,3.8,0.2,7.7,1.5,11.2c1.3,3.6,3,7.1,3.8,10.8
		c0.1,0.7,0.2,1.5-0.4,1.8c-0.6,0.2-1.1-0.4-1.4-1c-4.1-6.6-6.3-14.3-6.3-21.9c0-2.1,0.2-4.4,2-5.6c0.9-0.7,2.1-0.8,3.2-0.6
		s2.1,0.7,2.7,1.4c0.5,0.5,1.3,1.7,2.1,1.7c0.9,0.2,0.2-2.2,0.2-2.6c0-2.7,1-5.4,2.5-7.8c1.5-2.2,3.6-3.4,6.3-3.3
		c2.9,0.3,5.5,2.6,6.7,5.1c2,3.7,2.2,8,2.8,12.1c0.7,4.7,1.8,9.4,3.3,14c1.3,4.1,4.1,8,8.9,7.9c1.1,0,2.3-0.4,3-1.3
		c0.6-0.9,0.7-2.1-0.4-2.7c-0.6-0.3-1.5-0.2-2,0.3c-0.3,0.2-0.4,0.5-0.5,0.8c-0.8,1-1.5-0.1-1.8-0.8c-0.6-1.5-0.2-3.3,0.9-4.5
		c1.2-1.1,3.1-1.4,4.4-0.6c1.6,0.8,2.5,2.5,2.5,4.3c0.1,2.3-1.2,4.7-3.2,5.8C321.5,107.4,316,105.5,312.9,102.8"/>
	<path class="st1" d="M324.5,93.4c-1.8,0-3.6-1.6-4.9-2.8c-1.5-1.3-2.7-2.9-3.4-4.7c-1.4-3.5-1-7.2-1-10.9c0-1.9-0.1-4.3,0.7-6
		c0.7-1.9,2.4-3.1,4.2-4c1.9-1,4.1-1.4,5.6-3c1.3-1.3,2-3.1,2.9-4.7c0.9-1.7,2.2-3.3,3.6-4.7c1.9-1.8,4.5-3.2,7.2-2.3
		c2.4,0.9,3.9,3.3,3.7,5.9c-0.2,2.3-2.1,4.4-4.3,4.7c-2.9,0.5-4.6-2.1-3.8-4.7c0.2-0.7,0.6-1.2,1.3-1.4c2.9-0.8,0.5,3.3,2.4,3.1
		c0.5,0,0.9-0.5,1.2-0.9c0.6-0.9,1-2.1,0.7-3c-0.7-2-3.1-1.2-4.3-0.6c-2.1,1.2-4.1,2.5-5.4,4.6c-0.6,1.1-2.1,3.6-1.6,5.1
		c0.1,0.4,0.5,0.7,0.9,0.9c2,1.2,3.5,2.4,4.5,4.5c1.1,2.1,1.7,4.4,1.9,6.8c0.4,4.3,0.1,9.1-2.1,12.8c-1,1.6-2.3,3-3.8,3.9
		C328.9,93.1,326.9,93.1,324.5,93.4 M318.1,75.5c1.1,4.8,1.4,14.2,8.6,13.9c2.2-0.1,3.8-1.6,5.1-3.1c4.1-5.1,4.2-15.7-3.1-18.4
		c-2.4-0.9-2.9,2.4-4.3,3.4c-0.4,0.2-0.6,0.4-0.9,0.8c-0.8,0.9-0.2,1.6-1.6,1.7C320.5,73.8,317.9,73.5,318.1,75.5 M320.3,68.4
		c-0.2,0.6-0.3,1.2-0.3,1.9c0,0.2,0.2,0.5,0.5,0.5c0.1,0.1,0.3,0,0.4,0c0.3-0.1,0.6-0.3,1-0.5c0.5-0.5,1.1-1,1.5-1.6
		c0.1-0.1,0.2-0.4,0.4-0.5c0.2-0.6-0.3-1-0.7-1C321.8,66.8,321.1,67.8,320.3,68.4"/>
	<path class="st1" d="M269.8,94.4c-0.3-3.4-0.6-8.5-4.4-10c-1.7-0.7-3.5,0.2-4.8,1.3c-1.3,1.2-2,2.9-2.6,4.5
		c-0.3,0.5-0.3,1.2,0.1,1.5c0.5,0.2,0.8,0,1.3-0.2c0.7-0.4,1.5-0.9,2.3-1.3c0.4,1.1,0.1,2.5-0.6,3.4c-0.8,0.9-2,1.3-3.3,1.3
		c-0.9,0-2-0.5-2.3-1.3c-0.1-0.3,0-0.6,0-0.9c0.5-3.7,2.2-7.2,4.6-9.9c1-1.1,2.1-2.1,3.5-2.5c1.8-0.6,4.4-1,6,0.4
		c1.5,1.3,1.8,3.5,2.3,5.3c0.8,2.7,1,5.6,0.7,8.4c-0.3,3.5-1.4,6.8-2.8,10c-0.9,2.1-3,6.3,0.3,7.6c0.7,0.2,1.4,0.1,2.2-0.1
		c1.3-0.6,2.6-1.4,3.9-2.1c1.4-0.6,2.9-1.3,3.9-2.4c0.7-0.6,1.1-1.7,1.2-2.7c0-0.4,0-0.8-0.2-1.3c-0.5-0.8-1.9-0.6-1.8,0.4
		c0,0.3,0.2,0.7,0.4,0.9c0.2,0.4,0.5,0.7,0.4,1.1c-0.1,0.3-0.5,0.5-0.8,0.5c-0.8,0.1-2.3-0.3-2.7-1c-0.8-1.3-0.4-2.8,0.6-3.8
		c0.7-0.7,1.8-1.2,2.7-1.4c0.6-0.2,1.2-0.1,1.8,0c2.7,0.7,3.2,5.3,1.8,7.3c-0.8,1.2-2.1,2.9-3.3,3.9c-1.3,1-2.9,1.8-4.4,2.5
		c-2.7,1.4-6.1,2.8-9.2,2.5c-1-0.1-2-0.5-2.7-1.1c-1.1-1-1.1-2.1-0.6-3.4c1-3.1,2.6-6.1,3.9-9.2c0.6-1.3,1.4-2.6,1.9-3.9
		s0.5-2.9,0.6-4.2C269.7,94.6,269.7,94.6,269.8,94.4"/>
	<path class="st1" d="M244.4,96.6c0,0.3,0,0.5,0,0.8c0,4.8,0.8,10.2,2.7,14.7c0.8,1.7,1.8,3.4,3.6,4.1s4.4,0.3,5.5-1.4
		c0.7-0.9,0.7-2.3,0.6-3.4c0-0.9-0.8-2-1.8-1c-0.8,1.1-0.6,2.7-2.6,2.8c-0.2,0-0.3,0-0.5,0s-0.4-0.2-0.4-0.3
		c-1.9-2.4,0.9-5.3,3.2-5.6c2.4-0.6,4.6,0.8,5.4,3.2c0.6,1.8,0.1,4-1.1,5.6c-1.5,2-5.3,4-7.7,4.3c-3.3,0.3-5.5-1.9-6.7-4.7
		c-0.6-1.2-0.6-2.5-1-3.7c-0.4-1.6-0.9-3-1.5-4.4c-1-3.1-1.7-6.3-1.7-9.6c0-0.5,0.1-1.2,0.3-1.8c0.7-1.6,2.7-1.8,3.3-0.2
		C244.2,96.1,244.3,96.3,244.4,96.6z"/>
	<path class="st1" d="M236,89.6L236,89.6c-0.1-0.7,0.1-1.2,0.4-1.8c1.1-2.4,4.2-3,6.5-2.7c1.5,0.1,2.1,1.3,1.6,2.7
		c-0.6,1.7-2,3.6-3.9,4.1C238.9,92.4,236.3,91.5,236,89.6z"/>
</g>
</svg>
