<?xml version="1.0" encoding="utf-8"?>
<!-- Generator: Adobe Illustrator 22.0.1, SVG Export Plug-In . SVG Version: 6.00 Build 0)  -->
<svg version="1.1" id="Layer_1" xmlns="http://www.w3.org/2000/svg" xmlns:xlink="http://www.w3.org/1999/xlink" x="0px" y="0px"
	 viewBox="0 0 505.8 3765" style="enable-background:new 0 0 505.8 3765;" xml:space="preserve">
<style type="text/css">
	.st0{fill:#F4D013;}
	.st1{fill:#FDFADA;}
	.st2{fill:#273375;}
	.st3{fill:#EC1A58;}
	.st4{fill:#452160;}
	.st5{fill:#A82F91;}
	.st6{fill:#FFFFFF;}
	.st7{fill:#4E0E44;}
	.st8{fill:#F26E21;}
	.st9{fill:#8E8E8E;}
	.st10{fill:#6FBD44;}
</style>
<title>Asset 10</title>
<g id="Layer_2_1_">
	<g id="Layer_1-2">
		<path class="st0" d="M512,65v3870H-8V101c2.1,1.8,12.4,12,14.1,14.1c17.2,20.2,39.8,31.1,65.3,35c32.9,5,61-7.5,85.5-28.4
			c26.9-23,49-50.6,71.1-78c11.1-13.8,23.4-26.3,40.2-32.7c18.2-6.9,42.1,0.1,60.9,3.2C390,24,453.8,45.4,512,65z"/>
	</g>
</g>
<g id="Shape_19_1_">
	<path class="st1" d="M223.9,118.2c-1.4-0.1-2.7-1-3.6-2.7c-1.4-2.7-0.6-6.1,1.1-8.5c2.9-4,8-5.9,12.8-5.1c2,0.4,3.6,1.6,4.9,3
		c6.4,7.3,4.4,19.9-2.2,26.4c-3.1,3.1-7.3,4.3-11.5,4.1c-3.1-0.1-6.5-0.7-9.1-2.4c-9.9-5.8-14.7-20-11.4-30.8
		c1.1-3.8,3.8-8.5,7.6-9.9c3.1-1.2,7.5-1,10,1.3c1.5,1.3,2.3,3.5,1.6,5.6c-0.6,1.7-3.2,4.2-5.2,2.9c-1.2-0.8-1.2-3-0.2-3.8
		c0.9-0.9,1.5,0,1.5,0.9c0,0.2,0.2,0.6,0.4,0.4c0.1,0,0.2-0.1,0.3-0.2c0.9-1,0.6-2.4-0.5-3.1c-2.2-2-5-2.7-7.6-0.8
		c-1.6,1.1-2.5,2.6-3.3,4.4c-2.4,5.1-2.5,11.2-0.5,16.5c2.6,7.3,9,14.6,17,16c7.7,1.4,13.4-7.1,12.9-14c-0.2-3.7-0.3-12-5.2-13.1
		c-2.5-0.7-5.1-0.6-7.4,0.7c-1.9,1.2-3.2,3.2-3.4,5.5c-0.1,1.2,0.1,2.5,0.9,3.3c1.1,1,3.1,0.6,3.9-0.6c0.3-0.4,0.6-1,0.4-1.4
		c-0.2-1.3-2.1-1.3-1-3.1c1.2-1.8,3.7-0.6,4.4,1.1c0.7,1.9-0.8,4.1-2.1,5.3C228.1,117.3,225.9,118.5,223.9,118.2z"/>
	<path class="st1" d="M312.9,102.8c-1.8-1.4-2.8-4-3.7-6.1c-2.2-5.6-1.6-11.8-2.1-17.8c-0.2-2.1-0.5-4.3-1.2-6.4
		c-0.5-1.5-0.8-3.3-2.2-4.5c-0.3-0.3-0.8-0.5-1.2-0.6c-1.2-0.2-2.6,0.9-3.5,1.6c-1.1,0.8-2.1,2-2.9,3.1c-1.3,2.3-1.8,5-1.5,7.6
		c0.2,1.5,0.6,3,0.9,4.5c0.2,1.5,0.1,3.2-0.8,4.3c-0.4,0.5-1,1-1.7,0.8c-0.6-0.2-0.8-0.6-1-1.1c-1.6-3.1-3.2-6-4.9-9.1
		c-0.2-0.4-0.4-0.6-0.8-0.9c-0.5-0.2-1.1,0-1.5,0.4c-0.3,0.4-0.5,0.9-0.5,1.4c-0.7,3.8,0.2,7.7,1.5,11.2c1.3,3.6,3,7.1,3.8,10.8
		c0.1,0.7,0.2,1.5-0.4,1.8c-0.6,0.2-1.1-0.4-1.4-1c-4.1-6.6-6.3-14.3-6.3-21.9c0-2.1,0.2-4.4,2-5.6c0.9-0.7,2.1-0.8,3.2-0.6
		s2.1,0.7,2.7,1.4c0.5,0.5,1.3,1.7,2.1,1.7c0.9,0.2,0.2-2.2,0.2-2.6c0-2.7,1-5.4,2.5-7.8c1.5-2.2,3.6-3.4,6.3-3.3
		c2.9,0.3,5.5,2.6,6.7,5.1c2,3.7,2.2,8,2.8,12.1c0.7,4.7,1.8,9.4,3.3,14c1.3,4.1,4.1,8,8.9,7.9c1.1,0,2.3-0.4,3-1.3
		c0.6-0.9,0.7-2.1-0.4-2.7c-0.6-0.3-1.5-0.2-2,0.3c-0.3,0.2-0.4,0.5-0.5,0.8c-0.8,1-1.5-0.1-1.8-0.8c-0.6-1.5-0.2-3.3,0.9-4.5
		c1.2-1.1,3.1-1.4,4.4-0.6c1.6,0.8,2.5,2.5,2.5,4.3c0.1,2.3-1.2,4.7-3.2,5.8C321.5,107.4,316,105.5,312.9,102.8"/>
	<path class="st1" d="M324.5,93.4c-1.8,0-3.6-1.6-4.9-2.8c-1.5-1.3-2.7-2.9-3.4-4.7c-1.4-3.5-1-7.2-1-10.9c0-1.9-0.1-4.3,0.7-6
		c0.7-1.9,2.4-3.1,4.2-4c1.9-1,4.1-1.4,5.6-3c1.3-1.3,2-3.1,2.9-4.7c0.9-1.7,2.2-3.3,3.6-4.7c1.9-1.8,4.5-3.2,7.2-2.3
		c2.4,0.9,3.9,3.3,3.7,5.9c-0.2,2.3-2.1,4.4-4.3,4.7c-2.9,0.5-4.6-2.1-3.8-4.7c0.2-0.7,0.6-1.2,1.3-1.4c2.9-0.8,0.5,3.3,2.4,3.1
		c0.5,0,0.9-0.5,1.2-0.9c0.6-0.9,1-2.1,0.7-3c-0.7-2-3.1-1.2-4.3-0.6c-2.1,1.2-4.1,2.5-5.4,4.6c-0.6,1.1-2.1,3.6-1.6,5.1
		c0.1,0.4,0.5,0.7,0.9,0.9c2,1.2,3.5,2.4,4.5,4.5c1.1,2.1,1.7,4.4,1.9,6.8c0.4,4.3,0.1,9.1-2.1,12.8c-1,1.6-2.3,3-3.8,3.9
		C328.9,93.1,326.9,93.1,324.5,93.4 M318.1,75.5c1.1,4.8,1.4,14.2,8.6,13.9c2.2-0.1,3.8-1.6,5.1-3.1c4.1-5.1,4.2-15.7-3.1-18.4
		c-2.4-0.9-2.9,2.4-4.3,3.4c-0.4,0.2-0.6,0.4-0.9,0.8c-0.8,0.9-0.2,1.6-1.6,1.7C320.5,73.8,317.9,73.5,318.1,75.5 M320.3,68.4
		c-0.2,0.6-0.3,1.2-0.3,1.9c0,0.2,0.2,0.5,0.5,0.5c0.1,0.1,0.3,0,0.4,0c0.3-0.1,0.6-0.3,1-0.5c0.5-0.5,1.1-1,1.5-1.6
		c0.1-0.1,0.2-0.4,0.4-0.5c0.2-0.6-0.3-1-0.7-1C321.8,66.8,321.1,67.8,320.3,68.4"/>
	<path class="st1" d="M269.8,94.4c-0.3-3.4-0.6-8.5-4.4-10c-1.7-0.7-3.5,0.2-4.8,1.3c-1.3,1.2-2,2.9-2.6,4.5
		c-0.3,0.5-0.3,1.2,0.1,1.5c0.5,0.2,0.8,0,1.3-0.2c0.7-0.4,1.5-0.9,2.3-1.3c0.4,1.1,0.1,2.5-0.6,3.4c-0.8,0.9-2,1.3-3.3,1.3
		c-0.9,0-2-0.5-2.3-1.3c-0.1-0.3,0-0.6,0-0.9c0.5-3.7,2.2-7.2,4.6-9.9c1-1.1,2.1-2.1,3.5-2.5c1.8-0.6,4.4-1,6,0.4
		c1.5,1.3,1.8,3.5,2.3,5.3c0.8,2.7,1,5.6,0.7,8.4c-0.3,3.5-1.4,6.8-2.8,10c-0.9,2.1-3,6.3,0.3,7.6c0.7,0.2,1.4,0.1,2.2-0.1
		c1.3-0.6,2.6-1.4,3.9-2.1c1.4-0.6,2.9-1.3,3.9-2.4c0.7-0.6,1.1-1.7,1.2-2.7c0-0.4,0-0.8-0.2-1.3c-0.5-0.8-1.9-0.6-1.8,0.4
		c0,0.3,0.2,0.7,0.4,0.9c0.2,0.4,0.5,0.7,0.4,1.1c-0.1,0.3-0.5,0.5-0.8,0.5c-0.8,0.1-2.3-0.3-2.7-1c-0.8-1.3-0.4-2.8,0.6-3.8
		c0.7-0.7,1.8-1.2,2.7-1.4c0.6-0.2,1.2-0.1,1.8,0c2.7,0.7,3.2,5.3,1.8,7.3c-0.8,1.2-2.1,2.9-3.3,3.9c-1.3,1-2.9,1.8-4.4,2.5
		c-2.7,1.4-6.1,2.8-9.2,2.5c-1-0.1-2-0.5-2.7-1.1c-1.1-1-1.1-2.1-0.6-3.4c1-3.1,2.6-6.1,3.9-9.2c0.6-1.3,1.4-2.6,1.9-3.9
		s0.5-2.9,0.6-4.2C269.7,94.6,269.7,94.6,269.8,94.4"/>
	<path class="st1" d="M244.4,96.6c0,0.3,0,0.5,0,0.8c0,4.8,0.8,10.2,2.7,14.7c0.8,1.7,1.8,3.4,3.6,4.1s4.4,0.3,5.5-1.4
		c0.7-0.9,0.7-2.3,0.6-3.4c0-0.9-0.8-2-1.8-1c-0.8,1.1-0.6,2.7-2.6,2.8c-0.2,0-0.3,0-0.5,0s-0.4-0.2-0.4-0.3
		c-1.9-2.4,0.9-5.3,3.2-5.6c2.4-0.6,4.6,0.8,5.4,3.2c0.6,1.8,0.1,4-1.1,5.6c-1.5,2-5.3,4-7.7,4.3c-3.3,0.3-5.5-1.9-6.7-4.7
		c-0.6-1.2-0.6-2.5-1-3.7c-0.4-1.6-0.9-3-1.5-4.4c-1-3.1-1.7-6.3-1.7-9.6c0-0.5,0.1-1.2,0.3-1.8c0.7-1.6,2.7-1.8,3.3-0.2
		C244.2,96.1,244.3,96.3,244.4,96.6z"/>
	<path class="st1" d="M236,89.6L236,89.6c-0.1-0.7,0.1-1.2,0.4-1.8c1.1-2.4,4.2-3,6.5-2.7c1.5,0.1,2.1,1.3,1.6,2.7
		c-0.6,1.7-2,3.6-3.9,4.1C238.9,92.4,236.3,91.5,236,89.6z"/>
</g>
<g>
	<path class="st2" d="M454.5,106.1c-1.3-0.4-2.5-1.1-2.5-1.2l-0.5-0.4l3.1-4.5c0.2-0.3,0.6-0.4,0.9-0.2c0.3,0.2,0.4,0.6,0.2,0.9
		l-2.4,3.4c0.9,0.5,2.5,1.2,3.5,0.7c0.8-0.4,1.2-1.4,1.3-3c0-0.3,0.3-0.6,0.7-0.6c0.3,0,0.6,0.3,0.6,0.7c-0.1,2.1-0.8,3.5-2,4
		C456.3,106.4,455.4,106.4,454.5,106.1z"/>
</g>
<g>
	<path class="st2" d="M440,110.1c-4.9-1.4-7.7-6.4-7.8-6.7c-0.2-0.3,0-0.7,0.3-0.8c0.3-0.2,0.7,0,0.8,0.3l0,0c0,0,0.8,1.4,2.2,2.9
		c1.3,1.3,3.3,3,6,3.3c3.2,0.4,6.5-1.2,9.9-4.7c-0.6-0.6-1.6-1.6-1.9-3.1c-0.3-1.4,0-2.8,1-4.2c0.2-0.3,0.6-0.4,0.9-0.2
		c0.3,0.2,0.4,0.6,0.2,0.9c-0.7,1.1-1,2.2-0.8,3.2c0.4,1.7,1.9,2.7,2,2.7l0.6,0.4l-0.5,0.5c-3.9,4.2-7.7,6-11.4,5.5
		C440.9,110.3,440.4,110.2,440,110.1z"/>
</g>
<g>
	<path class="st2" d="M355.3,116c-0.2-0.1-0.4-0.2-0.4-0.5c-0.2-1.2,0.1-2.2,0.8-2.9c1.5-1.6,4.7-1.6,6.1-1.5c0.1-7.1,1.8-12.1,5-15
		c2.9-2.6,6-2.3,6.1-2.3c0.3,0,0.6,0.3,0.5,0.7c0,0.3-0.3,0.6-0.7,0.5l0,0c0,0-2.7-0.2-5.2,2c-2.9,2.7-4.5,7.8-4.6,14.7v0.7
		l-0.7-0.1c-1.2-0.2-4.5-0.3-5.8,1.1c-0.5,0.5-0.6,1.1-0.5,1.9C356,115.6,355.7,115.9,355.3,116C355.5,116.1,355.4,116.1,355.3,116z
		"/>
</g>
<g>
	<path class="st2" d="M363.6,116.8c-0.1,0-0.1-0.1-0.2-0.1c-0.3-0.2-0.3-0.6-0.1-0.8c0.5-0.7,0.7-1.3,0.6-1.9
		c-0.3-1.1-1.7-1.6-1.7-1.6c-0.3-0.1-0.5-0.5-0.3-0.8c0.1-0.3,0.5-0.5,0.8-0.3c0.1,0,2,0.8,2.5,2.4c0.3,0.9,0,1.9-0.8,2.9
		C364.1,116.8,363.9,116.9,363.6,116.8z"/>
</g>
<g>
	<path class="st2" d="M360.8,115.4c-0.2-0.1-0.4-0.2-0.4-0.4c-0.5-1.9,0.9-3.6,1-3.6c0.2-0.3,0.6-0.3,0.8-0.1
		c0.2,0.2,0.3,0.6,0.1,0.8c0,0-1.1,1.3-0.7,2.6c0.1,0.3-0.1,0.6-0.4,0.7C361,115.4,360.9,115.4,360.8,115.4z"/>
</g>
<g>
	<path class="st2" d="M372.7,131.1c-0.1,0-0.2-0.1-0.3-0.2c-0.3-0.3-0.3-0.7-0.1-1l2.4-2.6c-1.6-6.5-1.2-11.1,1.2-13.6
		c2.6-2.7,6.4-2,6.5-2c0.4,0.1,0.6,0.4,0.6,0.8c-0.1,0.4-0.4,0.6-0.8,0.6l0,0c0,0-3.2-0.6-5.2,1.6c-2.1,2.2-2.3,6.6-0.8,12.7
		l0.1,0.4l-2.9,3.2C373.3,131.1,373,131.2,372.7,131.1z"/>
</g>
<g>
	<path class="st2" d="M412.9,136.4c-0.2,0-0.3-0.1-0.4-0.3l-2.3-3.7l0.4-0.4c2.5-2.6,6.7-7.3,6.3-10.5c-0.1-1-0.8-1.4-0.8-1.4
		c-0.3-0.2-0.5-0.6-0.3-1c0.2-0.3,0.6-0.5,1-0.3c0.1,0.1,1.2,0.7,1.5,2.5c0.4,2.8-1.7,6.6-6.3,11.3l1.7,2.7c0.2,0.3,0.1,0.8-0.2,1
		C413.3,136.5,413.1,136.5,412.9,136.4z"/>
</g>
<g>
	<g>
		<path class="st3" d="M397.6,61.6c-0.5-0.1-0.8-0.6-0.8-1c0-0.1,0.3-8.6-4.6-9.4c-0.6-0.1-1-0.6-0.9-1.2c0.1-0.6,0.6-1,1.2-0.9
			c2.8,0.5,4.8,2.7,5.8,6.4c0.7,2.6,0.6,5.1,0.6,5.2c0,0.6-0.5,1-1.1,1C397.8,61.6,397.7,61.6,397.6,61.6z"/>
	</g>
	<g>
		<path class="st3" d="M404,68.6c-0.5-0.1-0.9-0.7-0.7-1.2c0-0.2,3-13.8-4.5-20.7c-0.4-0.4-0.5-1.1-0.1-1.5s1.1-0.5,1.5-0.1
			c3.5,3.2,5.5,8.2,5.8,14.4c0.2,4.6-0.6,8.2-0.6,8.4C405.2,68.3,404.6,68.7,404,68.6C404.1,68.6,404,68.6,404,68.6z"/>
	</g>
	<g>
		<path class="st3" d="M409.1,61.5c-0.1,0-0.1,0-0.2-0.1c-0.5-0.2-0.8-0.9-0.5-1.4l0,0c0-0.1,3.1-7-0.9-10.5c-0.4-0.4-0.5-1-0.1-1.5
			c0.4-0.4,1-0.5,1.5-0.1c2.2,1.9,3.1,4.7,2.7,8.3c-0.3,2.6-1.2,4.6-1.2,4.7C410.1,61.4,409.6,61.6,409.1,61.5z"/>
	</g>
	<g>
		<path class="st3" d="M413.7,67.2c-0.4-0.1-0.7-0.5-0.8-0.9c0-0.2-0.3-3.8,0.5-8.3c1.1-6,3.8-10.6,7.8-13.3
			c0.5-0.3,1.1-0.2,1.5,0.3c0.3,0.5,0.2,1.1-0.3,1.5c-8.5,5.8-7.4,19.5-7.4,19.6c0.1,0.6-0.4,1.1-1,1.1
			C413.9,67.3,413.8,67.2,413.7,67.2z"/>
	</g>
	<g>
		<path class="st3" d="M418.6,65.5c-0.5-0.1-0.8-0.6-0.8-1.1c0.1-0.5,1.6-12.9,8.5-15.4c0.5-0.2,1.1,0.1,1.3,0.6
			c0.2,0.5-0.1,1.1-0.6,1.3c-5.7,2.1-7.1,13.5-7.1,13.7C419.8,65.2,419.3,65.6,418.6,65.5C418.7,65.5,418.6,65.5,418.6,65.5z"/>
	</g>
	<g>
		<path class="st3" d="M420,69.9c-0.5-0.1-0.8-0.6-0.8-1.1c0-0.4,1-8.6,7.9-13.1c0.5-0.3,1.1-0.2,1.4,0.3s0.2,1.1-0.3,1.4
			c-6.1,3.9-7,11.5-7,11.6C421.1,69.6,420.6,70,420,69.9C420.1,70,420.1,69.9,420,69.9z"/>
	</g>
</g>
<g>
	<g>
		<path class="st3" d="M421.4,69.1c-0.1,0-0.2-0.1-0.2-0.1c-0.5-0.3-0.7-0.9-0.4-1.4c0-0.1,1.2-2.2,3.2-4.1c2.7-2.7,5.6-3.5,8.2-2.5
			c0.5,0.2,0.8,0.8,0.6,1.4c-0.2,0.5-0.8,0.8-1.4,0.6c-1.9-0.7-3.9-0.1-6,2c-1.7,1.7-2.8,3.6-2.8,3.7
			C422.4,69,421.9,69.2,421.4,69.1z"/>
	</g>
	<g>
		<path class="st3" d="M412.3,71.7L412.3,71.7c-0.6-0.2-0.9-0.8-0.7-1.3c0-0.1,1.2-3.7,3.8-7.5c3.4-5.1,7.7-8.4,12.4-9.3
			c0.6-0.1,1.1,0.2,1.2,0.8s-0.2,1.1-0.8,1.2c-10.1,2.1-14.5,15.3-14.6,15.4C413.4,71.6,412.8,71.9,412.3,71.7z"/>
	</g>
	<g>
		<path class="st3" d="M411.6,63.1c-0.5-0.1-0.8-0.6-0.8-1.1c0-0.1,0.3-2.3,1.3-4.6c1.5-3.2,3.7-5.2,6.6-5.7
			c0.6-0.1,1.1,0.3,1.2,0.9c0.1,0.6-0.3,1.1-0.9,1.2c-5.2,0.9-6.2,8.4-6.2,8.5c-0.1,0.6-0.6,1-1.2,0.9
			C411.7,63.1,411.7,63.1,411.6,63.1z"/>
	</g>
	<g>
		<path class="st3" d="M404.7,65.6c-0.1,0-0.2-0.1-0.3-0.2c-0.5-0.3-0.6-1-0.2-1.5c0.1-0.1,8.1-11.3,3.8-20.6
			c-0.2-0.5,0-1.1,0.5-1.4c0.5-0.2,1.1,0,1.4,0.5c2,4.3,1.9,9.7-0.2,15.4c-1.6,4.3-3.7,7.2-3.8,7.4
			C405.6,65.6,405.1,65.7,404.7,65.6z"/>
	</g>
	<g>
		<path class="st3" d="M401.4,61.6c-0.1,0-0.1,0-0.2-0.1c-0.5-0.2-0.8-0.9-0.5-1.4l0,0c0-0.1,4.7-10.7,0.9-15.4
			c-0.4-0.4-0.3-1.1,0.2-1.5c0.4-0.4,1.1-0.3,1.5,0.2c4.6,5.7-0.4,17.1-0.6,17.6C402.4,61.5,401.9,61.7,401.4,61.6z"/>
	</g>
	<g>
		<path class="st3" d="M397.9,64.7c-0.1,0-0.1,0-0.2-0.1c-0.5-0.2-0.8-0.9-0.5-1.4c0-0.1,3.2-7,0-13.5c-0.3-0.5,0-1.1,0.5-1.4
			c0.5-0.3,1.1,0,1.4,0.5c3.6,7.4,0.2,15,0,15.3C398.9,64.6,398.4,64.8,397.9,64.7z"/>
	</g>
</g>
<g>
	<path class="st4" d="M387,67c0,0-25.7,3.7-14.6,29.5s12.1,20.6,23.5,23.7s27.3,0.5,35.2-11.8c8-12.3,9.5-20.4,6.7-25.8l1.3-3.3
		l-4.5,0.9l0.6-2.6l-2.6-1.1l4.7-3.2l-9.7-3l2.8-6.6l-7,3.5l2.1-7.4l-6.6,3.4l-1.3-7.1l-8.1,4.9l-2-6.9l-4.5,5.2l-6.8-5.6l-0.1,7.9
		l-6.8-3l2.4,5.9l-7.2-2.2L387,67z"/>
</g>
<g>
	<path class="st5" d="M388.7,69.1c0,0-23,3.3-13.1,26.4s10.9,18.4,21,21.3s24.5,0.5,31.6-10.6s8.5-18.3,6-23.1l1.1-2.9l-4,0.8
		l0.5-2.3l-2.3-1l4.3-2.9l-8.7-2.7l2.5-5.9l-6.2,3.1l1.9-6.7l-5.9,3.1l-1.2-6.4l-7.3,4.4l-1.8-6.2l-4,4.7l-6.1-5l-0.1,7.1l-6.1-2.7
		l2.1,5.3l-6.5-2L388.7,69.1z"/>
</g>
<g>
	<circle class="st4" cx="374.3" cy="78.8" r="9.1"/>
</g>
<g>
	<circle class="st6" cx="374.3" cy="78.8" r="5.2"/>
</g>
<g>
	<circle class="st4" cx="435.2" cy="90.2" r="9.1"/>
</g>
<g>
	<circle class="st6" cx="435.2" cy="90.5" r="5.2"/>
</g>
<g>
	<polygon class="st7" points="400.3,96.6 407.9,77.3 408.9,77.7 401.7,95.8 405.4,96.5 405.2,97.5 	"/>
</g>
<g>
	<path class="st8" d="M383.6,99.7c0,0-1.5,2.2-0.9,4.4"/>
</g>
<g>
	<path class="st8" d="M418.5,105.4c0,0,0.5,0.8,0.1,3.6"/>
</g>
<g>
	<path class="st8" d="M382.7,102c0,0,19.2,7.9,35.6,5.2"/>
</g>
<g>
	<circle class="st8" cx="374" cy="78.7" r="2.6"/>
</g>
<g>
	<circle class="st8" cx="435.4" cy="90.6" r="2.6"/>
</g>
<g id="PNSHPz.tif">
	<g>
		<g>
			<path class="st9" d="M449.7,97.4c0.7-1,1.6-1.8,2.4-2.6c1.1-1.2,2.2-2.3,3.3-3.5c0.9-0.9,1.5-2,1.9-3.4c0.3-1.2,0.6-2.3,1-3.5
				c0-0.1,0-0.1,0-0.2c-0.5-0.3-0.5-0.3-0.3-1c0.1-0.3,0.2-0.4,0.5-0.4c1.4,0.4,2.8,0.8,4.1,1.2c0.3,0.1,0.3,0.2,0.2,0.5
				c0,0,0,0,0,0.1c-0.2,0.7-0.2,0.7-0.8,0.6c0,0.1-0.1,0.2-0.1,0.3c-0.3,1-0.6,2-0.8,3c-0.4,1.3-0.4,2.6-0.1,3.9
				c0.6,2.6,1.2,5.2,1.8,7.7c0.3,1.3-0.4,2.6-1.5,2.6l0,0c-3.7-1-7.4-2.1-11.1-3.1c-0.3-0.3-0.5-0.5-0.6-1c0-0.2,0-0.5-0.1-0.7
				C449.6,97.9,449.7,97.7,449.7,97.4z M462.6,84.5c-1.5-0.4-2.9-0.8-4.3-1.2c-0.1,0.2-0.1,0.3-0.1,0.5c1.4,0.4,2.9,0.8,4.3,1.2
				C462.5,84.8,462.6,84.7,462.6,84.5z"/>
		</g>
		<g>
			<path class="st9" d="M458.2,83.8c0-0.2,0.1-0.3,0.1-0.5c1.4,0.4,2.9,0.8,4.3,1.2c0,0.2-0.1,0.3-0.1,0.5"/>
		</g>
	</g>
</g>
<g>
	<path class="st10" d="M456.2,92l-4.2,4.5c0,0-1.1,0.8-0.7,1.8c0,0,0.1,0.5,0.7,0.7c0.7,0.2,8.3,2.3,8.3,2.3s0.6,0.3,1.1-0.3
		s0.3-1.3,0.1-2c-0.2-0.6-1.4-6-1.4-6s-0.1-0.9-0.1-1.2C460,91.4,457.8,92.8,456.2,92z"/>
</g>
<g>
	<circle class="st10" cx="463.7" cy="82.2" r="0.9"/>
</g>
<g>
	<circle class="st10" cx="465.9" cy="70.9" r="0.9"/>
</g>
<g>
	<circle class="st10" cx="463.4" cy="76.9" r="1.3"/>
</g>
<g>
	<circle class="st10" cx="469.5" cy="75.9" r="1"/>
</g>
</svg>
