<?xml version="1.0" encoding="utf-8"?>
<!-- Generator: Adobe Illustrator 22.1.0, SVG Export Plug-In . SVG Version: 6.00 Build 0)  -->
<svg version="1.1" id="Layer_1" xmlns="http://www.w3.org/2000/svg" xmlns:xlink="http://www.w3.org/1999/xlink" x="0px" y="0px"
	 viewBox="0 0 504.5 887.8" style="enable-background:new 0 0 504.5 887.8;" xml:space="preserve">
<style type="text/css">
	.st0{fill:#E33369;}
</style>
<title>Asset 11</title>
<title>Asset 11</title>
<g>
	<path class="st0" d="M338.1,781c-82.2-34.9-159.8-58.7-249.5-33.4C62.7,754.8,38,765.5,15,779.2c-3.1,1.8-24.9,12.9-24.9,17.1v20
		c0-4.2,21.8-15.3,24.9-17.1c23-13.7,47.7-24.4,73.6-31.6c89.7-25.3,167.3-1.5,249.5,33.4c55.6,23.6,128.5,23,177.6-14.7v-20
		C466.7,804,393.7,804.6,338.1,781z"/>
	<path class="st0" d="M338.1,97C255.9,62.1,178.3,38.3,88.6,63.6C62.7,70.8,38,81.5,15,95.2C11.9,97-9.9,108.1-9.9,112.3v684
		c0-4.2,21.8-15.3,24.9-17.1c23-13.7,47.7-24.4,73.6-31.6c89.7-25.3,167.3-1.5,249.5,33.4c55.6,23.6,128.5,23,177.6-14.7v-684
		C466.7,120,393.7,120.6,338.1,97z"/>
</g>
</svg>
