<?xml version="1.0" encoding="utf-8"?>
<!-- Generator: Adobe Illustrator 22.1.0, SVG Export Plug-In . SVG Version: 6.00 Build 0)  -->
<svg version="1.1" id="Layer_1" xmlns="http://www.w3.org/2000/svg" xmlns:xlink="http://www.w3.org/1999/xlink" x="0px" y="0px"
	 viewBox="0 0 504.5 887.8" style="enable-background:new 0 0 504.5 887.8;" xml:space="preserve">
<style type="text/css">
	.st0{fill:#F4D012;}
	.st1{fill:#E33369;}
</style>
<title>Asset 11</title>
<title>Asset 11</title>
<g>
	<path class="st0" d="M334.9,781c-79.1-34.9-153.8-58.7-240.1-33.4c-24.9,7.2-48.7,17.9-70.8,31.6c-3,1.8-24,12.9-24,17.1v20
		c0-4.2,21-15.3,24-17.1c22.1-13.7,45.9-24.4,70.8-31.6c86.3-25.3,161-1.5,240.1,33.4c53.5,23.6,123.7,23,170.9-14.7v-20
		C458.6,804,388.4,804.6,334.9,781z"/>
	<path class="st0" d="M334.9,97C255.8,62.1,181.1,38.3,94.8,63.6C69.9,70.8,46.1,81.5,24,95.2C21,97,0,108.1,0,112.3v684
		c0-4.2,21-15.3,24-17.1c22.1-13.7,45.9-24.4,70.8-31.6c86.3-25.3,161-1.5,240.1,33.4c53.5,23.6,123.7,23,170.9-14.7v-684
		C458.6,120,388.4,120.6,334.9,97z"/>
	<path class="st1" d="M334.9,116C255.8,81.1,181.1,57.3,94.8,82.6c-24.9,7.2-48.7,17.9-70.8,31.6c-3,1.8-24,12.9-24,17.1v20
		c0-4.2,21-15.3,24-17.1c22.1-13.7,45.9-24.4,70.8-31.6c86.3-25.3,161-1.5,240.1,33.4c53.5,23.6,123.7,23,170.9-14.7v-20
		C458.6,139,388.4,139.6,334.9,116z"/>
</g>
</svg>
