<svg xmlns="http://www.w3.org/2000/svg" xmlns:xlink="http://www.w3.org/1999/xlink" viewBox="0 0 530.58 975.74"><defs><style>.cls-1{fill:none;}.cls-2{clip-path:url(#clip-path);}.cls-3{fill:#fcfcfb;}.cls-4{fill:#f8951e;}.cls-5{fill:#fdd803;}.cls-6{fill:#fff2c8;}.cls-7{fill:#ed1b6a;}.cls-8{opacity:0.8;}.cls-9{fill:#aa3a8c;}.cls-10{fill:#fbfadb;}</style><clipPath id="clip-path" transform="translate(0)"><rect id="_Rectangle_" data-name="&lt;Rectangle&gt;" class="cls-1" x="4.5" y="38.37" width="521.58" height="930.55"/></clipPath></defs><title>Asset 25</title><g id="Layer_2" data-name="Layer 2"><g id="Layer_1-2" data-name="Layer 1"><g class="cls-2"><rect class="cls-3" x="19.3" y="29.36" width="506.34" height="779.22"/><image width="1280" height="1244" transform="translate(9 28.78) scale(0.41 0.4)" xlink:href="blackunderorange.png"/><path class="cls-4" d="M17.3,35.4c0-1.93.13-3.87.2-5.8L75,29.36a32,32,0,0,1,5,2.81c24.78,20.27,54.05,26.59,85.25,27.12,14.36.25,28.73.49,43.07,1.32,26.41,1.52,40.81,15.86,44.4,42,3.15,23-1.58,45-5.74,67.25A169,169,0,0,0,243.66,198c-.22,12.28,5.7,22,16.46,28.29,16.12,9.48,34,13.68,52.4,13.88,32.17.34,64.35-1.18,96.53-1.06,11.41,0,23,1.83,34.18,4.2,13,2.76,23.87,10,33.56,19.07,13.65,12.77,16.53,28.64,14.55,46.2-3.84,33.94,8.18,62.63,30.52,87.57a30.06,30.06,0,0,1,7.72,20.29c0,26.5-.1,82.22-.1,85.09H17.61c-.11-2.15-.31-4.3-.31-6.44" transform="translate(0)"/><image width="1280" height="1313" transform="translate(13 35.03) scale(0.4)" xlink:href="blackunderyellow.png"/><path class="cls-5" d="M528.2,530.9H18.3V0q1.41,2.24,2.83,4.46c7.42,11.72,13.38,24.72,22.54,34.89,24.24,26.92,56.13,38.35,92,39.77,17.2.68,34.43.56,51.61,1.48,23.94,1.29,37.53,12.67,43.15,35.7,3.83,15.69,3.47,31.54.84,47.4-2.81,17-6,34-8.25,51.1-1.91,14.72,3.32,27,16.42,34.92A87.93,87.93,0,0,0,258.14,258c30.41,9.61,61.68,7.59,92.86,6.06,22.9-1.12,45.81-3.25,68.55,1.75,28.52,6.27,60.3,27.85,55,67.43-4.5,33.68,6.86,62.69,28.75,88,7.89,9.12,16.54,17.61,24.84,26.39Q528.17,489.3,528.2,530.9Z" transform="translate(0)"/><path class="cls-6" d="M528.16,447.67l1.42,0q0,39.24-.06,78.47c0,1.6-.86,3.19-1.32,4.78Q528.19,489.29,528.16,447.67Z" transform="translate(0)"/><image width="1280" height="1279" transform="translate(10 33.78) scale(0.4 0.4)" xlink:href="blackunderpink.png"/><path class="cls-7" d="M530.58,458.85v57.27H13q0-234.45.06-468.9c0-2.15.91-4.3,1.4-6.44,4.9,2.38,9.61,5.29,14.73,7C47.6,54.13,66.9,54.57,86.11,55.3c13.37.52,26.78.47,40.13,1.28,25,1.51,39.34,13.75,44.62,37.58a123.19,123.19,0,0,1,.83,47.6c-2.72,16.21-6.22,32.31-8.39,48.59-2.57,19.35,4.67,34,19.93,40.77a155.82,155.82,0,0,0,25.41,8.63c29.2,7.4,58.89,5.6,88.57,3.83,23.33-1.39,46.71-3.05,69.84,1.88,39.08,8.34,58.4,32.79,56.7,71.47,0,.48-.08.95-.11,1.43-1,20,.72,39.59,10.91,57.56a202.69,202.69,0,0,0,47.7,57.3C496.56,445,512.31,454.21,530.58,458.85Z" transform="translate(0)"/><image class="cls-8" width="1280" height="1305" transform="translate(0 34.37) scale(0.41 0.41)" xlink:href="blackunderpurple.png"/><path class="cls-9" d="M10,534.8V70.87c25,1.1,50,1.28,74.88,3.55,25.21,2.32,40.42,16.42,43.93,39.11a134.2,134.2,0,0,1,.88,29.65c-1.45,20.54-5,41-5.57,61.51-.78,27,12.71,44.61,40,51.23,15.78,3.83,32.53,5,48.89,5.29,26.79.51,53.62-1,80.43-1,19.13,0,38.08,2.29,56.13,9,19.2,7.18,32.88,19.6,37.59,39.39,1.76,7.41,1.85,15.24,2.19,22.9,2.6,57.47,26.74,102.72,80,131.65,15.78,8.57,33.17,12,50.7,15,7.1,1.24,10.56,4.21,10.54,12.44q-.5,219.21-.24,438.43v8.75c-9.79-.67-16.49-5.93-22.85-11.11C495.11,916.63,484,905,471,895.71c-55.83-40-111.69-80.07-168.41-118.91C256,744.91,212.34,709.73,169.8,673.16c-46.73-40.17-97.07-76.45-139.69-121C24.05,545.77,16.74,540.55,10,534.8Z" transform="translate(0)"/><path class="cls-10" d="M408.57,859.29c-1.54,54.92-77.89,80.34-122.32,95.13-89.53,29.8-179.65,23.13-271.78,11.36-2.22-.29-2.83-1.15-2.78-3,.08-2.31-.23-4.63-.37-6.95C11.32,809.35,10,660.64,10,514.17c14,3.89,26.26,8.42,38.11,13,9.88,3.8,19.54,8.1,28.94,12.73,7.42,3.65,14.39,8,21.38,12.33a89.77,89.77,0,0,1,9.27,6.89c2.67,2.15,5.17,4.48,7.72,6.74A88.51,88.51,0,0,1,136,591.93c3.32,6.54,6.24,13.24,9,20q6,14.63,11.58,29.42c2.52,6.74,4.63,13.6,6.92,20.4.06.18,0,.47.11.54,3.48,2,169.62,137.3,177.56,141a10.94,10.94,0,0,0,2.42.51l0,.06.63.58c5.81,4.17,11.76,8.21,17.39,12.57,3.11,2.41,18,12.58,19.7,13.65,9,5.69,18.24,14.75,27.2,20.47C408.8,851.21,408.57,859.27,408.57,859.29Z" transform="translate(0)"/></g></g></g></svg>