<svg xmlns="http://www.w3.org/2000/svg" viewBox="0 0 200 200"><defs><style>.cls-1{fill:#f70368;}.cls-2{fill:#f7f7f7;}</style></defs><title>Asset 2</title><g id="Layer_2" data-name="Layer 2"><g id="Layer_1-2" data-name="Layer 1"><circle class="cls-1" cx="100" cy="100" r="100"/><path class="cls-2" d="M147.59,145.56h-77a6.72,6.72,0,0,1,2.13-4.75,20.21,20.21,0,0,1,8.09-4.8c6.46-2.32,13.19-3.17,20-3.63.42,0,.85,0,1.27-.07a2.79,2.79,0,0,0,.58-.19L94.43,97.63,101.2,96c.64,2.63,1.25,5.08,1.84,7.54,2.18,9.08,4.37,18.15,6.49,27.25.25,1.06.69,1.3,1.7,1.32,8.52.18,17,.81,25.11,3.68a40.62,40.62,0,0,1,7.77,4A7.11,7.11,0,0,1,147.59,145.56Z"/><path class="cls-2" d="M104.59,68.29c-2.52-3.86-5.35-7.46-9.48-9.77a11,11,0,0,0-3.38-1.25l.11-.58c15-2,28.39,1.26,39.67,11.58a38.63,38.63,0,0,1,11.14,18.27c-4-3.31-8.37-3.22-12.79-2.56s-8.66,2.13-12,5.32a25.29,25.29,0,0,0-2.9,4c-2.15-2.25-5.29-2.61-8.4-2.65a38.7,38.7,0,0,0-20,5,18.82,18.82,0,0,0-3.82,2.89,18.7,18.7,0,0,0-2.1,3.07c-3.77-3.84-8.71-3.45-13.64-2.72a22.63,22.63,0,0,0-8.83,3.28c-2.17,1.38-4.08,3-4.93,5.66-4.16-16.83,6-41.26,31.68-49.57l.24.51a10.44,10.44,0,0,0-2.11,2.26,25,25,0,0,0-3.21,6.56c-2.23,7-2.26,14.13-1.62,21.33.14,1.62.39,3.22.59,4.93a42.85,42.85,0,0,1,33.73-8.14,4.15,4.15,0,0,0-.1-.6A74.89,74.89,0,0,0,104.59,68.29Z"/><path class="cls-2" d="M85.23,58.82,85,58.31c-.27-1.13-.54-2.18-.76-3.23-.47-2.24.54-4.07,2.5-4.56s3.7.71,4.29,2.9c.28,1,.53,2.09.82,3.27l-.11.58A7.88,7.88,0,0,0,85.23,58.82Z"/><path class="cls-2" d="M78.29,89c-.64-7.2-.61-14.38,1.62-21.33a25,25,0,0,1,3.21-6.56,10.44,10.44,0,0,1,2.11-2.26,7.88,7.88,0,0,1,6.5-1.55,11,11,0,0,1,3.38,1.25c4.13,2.31,7,5.91,9.48,9.77a74.89,74.89,0,0,1,7.92,16.87,4.15,4.15,0,0,1,.1.6A42.85,42.85,0,0,0,78.88,93.9C78.68,92.19,78.43,90.59,78.29,89Z"/></g></g></svg>