<svg xmlns="http://www.w3.org/2000/svg" viewBox="0 0 169.28 159.09"><defs><style>.cls-1{fill:#0d0d0d;}.cls-2{fill:#f9f9fa;}</style></defs><title>blackShoes</title><g id="Layer_2" data-name="Layer 2"><g id="Layer_1-2" data-name="Layer 1"><path class="cls-1" d="M64.19,94.72A31.67,31.67,0,0,0,63,90.55c-2-5.63-8.19-33.2-13.14-26.47-2.79,3.8-2.21,9.56-4.38,13.72C42.59,83.41,35.2,87,28.86,86.33c-7.16-.79-8.53-6.75-9.84-12.58-.42-1.85-3.09-15.89-6.62-10.17C3.89,77.41-3.51,100.85,1.77,117c5.91,18,18.21,30,29.68,41.2,1.65,1.62,4.74,1.06,6.06-1.06q7-11.11,13.91-22.25C58.91,122.86,67.06,109.05,64.19,94.72Z"/><path class="cls-1" d="M9.1,38.72c11.45,5.55,23.5,3.37,35.24-.24,5.81-1.79,9.74-4.63,10.35-11,.54-5.53.55-24.69-7.33-25.36A16.59,16.59,0,0,0,41.93,3a38.31,38.31,0,0,1-19.77-.37A17.42,17.42,0,0,0,17,1.5c-3.93.08-5.18,4-7,6.76-3.86,6-2.48,18.89-3.15,26A4.84,4.84,0,0,0,9.1,38.72Z"/><path class="cls-2" d="M11.15,30.08c-2.57,0-2.58,4,0,4S13.73,30.08,11.15,30.08Z"/><path class="cls-2" d="M23.4,33.33c-2.57,0-2.58,4,0,4S26,33.33,23.4,33.33Z"/><path class="cls-2" d="M37.15,31.83c-2.57,0-2.58,4,0,4S39.73,31.83,37.15,31.83Z"/><path class="cls-2" d="M48.65,27.58c-2.57,0-2.58,4,0,4S51.23,27.58,48.65,27.58Z"/><path class="cls-2" d="M13.15,68.33c-2.57,0-2.58,4,0,4S15.73,68.33,13.15,68.33Z"/><path class="cls-2" d="M15.4,84.08c-2.57,0-2.58,4,0,4S18,84.08,15.4,84.08Z"/><path class="cls-2" d="M29.4,90.58c-2.57,0-2.58,4,0,4S32,90.58,29.4,90.58Z"/><path class="cls-2" d="M44.65,84.08c-2.57,0-2.58,4,0,4S47.23,84.08,44.65,84.08Z"/><path class="cls-2" d="M51.65,70.83c-2.57,0-2.58,4,0,4S54.23,70.83,51.65,70.83Z"/><path class="cls-1" d="M105.09,93.22a31.67,31.67,0,0,1,1.15-4.17c2-5.63,8.19-33.2,13.14-26.47,2.78,3.8,2.21,9.56,4.38,13.72,2.92,5.61,10.32,9.22,16.66,8.53,7.16-.79,8.53-6.75,9.84-12.58.42-1.85,3.09-15.89,6.62-10.17,8.51,13.83,15.91,37.27,10.63,53.37-5.91,18-18.21,30-29.68,41.2-1.65,1.62-4.74,1.06-6.06-1.06q-7-11.11-13.91-22.25C110.37,121.36,102.22,107.55,105.09,93.22Z"/><path class="cls-1" d="M160.18,37.22c-11.45,5.55-23.5,3.37-35.24-.24-5.81-1.79-9.74-4.63-10.35-11-.54-5.53-.56-24.69,7.33-25.36a16.63,16.63,0,0,1,5.43.87,38.31,38.31,0,0,0,19.77-.37A17.42,17.42,0,0,1,152.31,0c3.93.08,5.18,4,7,6.76,3.86,6,2.48,18.89,3.15,26A4.84,4.84,0,0,1,160.18,37.22Z"/><path class="cls-2" d="M158.13,28.58c2.57,0,2.57,4,0,4S155.55,28.58,158.13,28.58Z"/><path class="cls-2" d="M145.88,31.83c2.57,0,2.57,4,0,4S143.3,31.83,145.88,31.83Z"/><path class="cls-2" d="M132.13,30.33c2.57,0,2.57,4,0,4S129.55,30.33,132.13,30.33Z"/><path class="cls-2" d="M120.63,26.08c2.57,0,2.57,4,0,4S118.05,26.08,120.63,26.08Z"/><path class="cls-2" d="M156.13,66.83c2.57,0,2.57,4,0,4S153.55,66.83,156.13,66.83Z"/><path class="cls-2" d="M153.88,82.58c2.57,0,2.57,4,0,4S151.3,82.58,153.88,82.58Z"/><path class="cls-2" d="M139.88,89.08c2.57,0,2.57,4,0,4S137.3,89.08,139.88,89.08Z"/><path class="cls-2" d="M124.63,82.58c2.57,0,2.57,4,0,4S122.05,82.58,124.63,82.58Z"/><path class="cls-2" d="M117.63,69.33c2.57,0,2.57,4,0,4S115.05,69.33,117.63,69.33Z"/></g></g></svg>