<svg xmlns="http://www.w3.org/2000/svg" viewBox="0 0 972 932.03"><defs><style>.cls-1{fill:#f15d24;}.cls-2{fill:#f15c22;}.cls-3{fill:#f6a31e;}.cls-4{fill:#f15e26;}.cls-5{fill:none;}</style></defs><title>bodyorange</title><g id="Layer_2" data-name="Layer 2"><g id="Layer_1-2" data-name="Layer 1"><path class="cls-1" d="M541.56,854.31c-.27.08-.53.19-.8.3a52.24,52.24,0,0,1-6.7-1,105.55,105.55,0,0,1-12.81-3.75c-.69-5.85.48-12,.56-17.81a10.11,10.11,0,0,0-.21-2.19v-74.8c0-17.83,20.77-17.86,20.77,0v75a8.88,8.88,0,0,0-.65,3.69C541.9,840.6,541.72,847.45,541.56,854.31Z"/><path class="cls-2" d="M864.8,230.91c-.43-6.39-10.44-6.44-10,0A31.52,31.52,0,0,1,837,261a179.45,179.45,0,0,0-.81-28.66c-.68-6.27-10.47-6.5-10,0a110,110,0,0,1-2.3,32,48.18,48.18,0,0,1-23.69-28.48c-1.89-6.19-11-3.62-9.64,2.66A54.49,54.49,0,0,0,816.11,274c1.71,1,3.48,1.81,5.27,2.64,2.56,1.18,3,1.34,3.23,4.23.37,5.17-.59,10.79-.87,16q-.86,15.48-1.7,31l-1.69,30.95c-.13,2.46.07,5.25-.44,7.66-.63,3-2.29,3.48-4.74,4.68-4.24,2.08-8.58,4-12.89,5.86q-27.46,12.17-55.93,21.88l-.55.22a5.24,5.24,0,0,0-1.42-.19c-6.43,0-6.45,10,0,10a5.23,5.23,0,0,0,1.73-.28,4.55,4.55,0,0,0,2.9-.11q23.52-8.08,46.45-17.76,11.61-4.89,23-10.19c7.06-3.28,10.78-6.95,11.47-14.95,1.5-17.51,1.93-35.19,2.89-52.75q.74-13.47,1.48-26.95c.18-3.31.41-6.58-.22-9.48a6.16,6.16,0,0,0,1.89-3.83c0-.26,0-.52.08-.79C853.28,266.33,866.08,249.54,864.8,230.91Z"/><path class="cls-2" d="M351.15,535a38.67,38.67,0,0,0-20.44-12.48,54.29,54.29,0,0,0-10.3-2.57,40.34,40.34,0,0,0-9-.35c-3-5.07-6.71-9.86-10-14.73l-41-60.33,40.13-24.73c5.47-3.37.45-12-5.05-8.64l-44.67,27.54c-2.18,1.34-3.34,4.56-1.79,6.84l41.55,61.11,10,14.67a1,1,0,0,1,.08.11,5.84,5.84,0,0,0-.51.49A47.87,47.87,0,0,0,289.85,569c1.63,4.9,8.22,4.15,9.65.47a4.56,4.56,0,0,0,2.61-4.36,54.87,54.87,0,0,1,3-17.22,34.55,34.55,0,0,1,1.95-4.43q6,8.53,12,17.06c3.64,5.19,12,.56,8.63-5a232.47,232.47,0,0,1-12.35-23.42,29.67,29.67,0,0,1,13.2.22,47.8,47.8,0,0,1,15.56,9.75C348.85,546.49,355.26,539.86,351.15,535Z"/><path class="cls-1" d="M437.93,854.31a7.71,7.71,0,0,1,.8.3,52.24,52.24,0,0,0,6.7-1,105.55,105.55,0,0,0,12.81-3.75c.69-5.85-.48-12-.56-17.81a9.51,9.51,0,0,1,.22-2.19v-74.8c0-17.83-20.77-17.86-20.77,0v75a8.88,8.88,0,0,1,.64,3.69C437.59,840.6,437.77,847.45,437.93,854.31Z"/><path class="cls-3" d="M764.77,369.91a115.3,115.3,0,0,0-43.07-27.84c-16.53-6-33.24-7.45-50.72-7-14.46.39-30.85,1.83-43.92-5.63-15.27-8.72-17.39-28-13.5-43.57,4.68-18.75,17.77-34.34,27.53-50.61A149.19,149.19,0,0,0,660,185.36c6.24-34.47-.46-71.7-25.73-97.27-23.69-24-58.69-32.39-91.46-31.71a201.35,201.35,0,0,0-96.85,27.8c-28.84,17-53.17,42.23-64.33,74.18-10.76,30.77-6.25,63.85-11.16,95.57-2.2,14.22-6.53,28.18-15.54,39.63a6.35,6.35,0,0,0-1.08,2c-28.84,1.29-55.73,17.27-71.6,41.68-20.71,31.86-15,74.18,6.39,104.19,11.12,15.57,26,28.11,42.66,37.46,15.31,8.62,32.07,13.58,48.6,19.24,14.46,5,29.56,10.8,40.43,22,12,12.32,14.56,29.61,11.52,46-3.46,18.7-12.24,35.8-20.85,52.57q-7.83,15.3-15.69,30.58c-4.6,9-9.09,18.23-11.38,28.14-8.53,36.87,15.91,73.46,48.25,89.31,31.75,15.56,70.9,15.79,104.29,5.53,30.29-9.32,59.91-29,72.84-59,7.59-17.55,7.7-36.33,7.75-55.12.06-18.32,1.83-35.84,10-52.49a98.09,98.09,0,0,1,32.55-37.73c15.95-10.86,34.81-15.57,53.17-20.65s37.8-10.84,52.81-23.33S789.74,493.81,794,475C802.48,437.76,791.3,397.3,764.77,369.91Z"/><path class="cls-4" d="M490,784.17c-21.58,0-42.42-4.38-60.05-13a98.55,98.55,0,0,1-41.58-38.76c-10.43-18.07-13.66-37.49-9.35-56.17,2.42-10.44,7.16-20.19,11.81-29.28q4.83-9.45,9.68-18.88l6.06-11.8c8.36-16.31,17-33.16,20.34-51.11,1.81-9.77,2.9-28.17-10.19-41.59-10.17-10.44-24.58-16-38.47-20.72-2.6-.89-5.2-1.76-7.8-2.63-13.92-4.67-28.32-9.49-41.63-17-18.29-10.29-33.18-23.38-44.28-38.92-24.39-34.15-27-78.28-6.51-109.81,16.48-25.36,43.51-41.57,72.75-43.79l.18-.24c7.35-9.32,12.1-21.52,14.54-37.31,1.83-11.82,2.33-24.17,2.82-36.12.82-20,1.66-40.6,8.56-60.33,10.69-30.6,34.31-57.89,66.51-76.84,30.05-17.67,65.31-27.79,99.29-28.49,39.4-.82,73.16,11,95.12,33.19,24.43,24.73,34.31,61.79,27.09,101.68a155.18,155.18,0,0,1-19.5,51.6c-2.64,4.4-5.55,8.79-8.35,13-7.56,11.44-15.38,23.27-18.62,36.23-3.19,12.78-2.19,30.4,11.13,38,10.52,6,23.9,5.55,36.84,5.11l4.46-.14c21-.56,37.24,1.68,52.58,7.28a120.33,120.33,0,0,1,45,29.06c27.7,28.61,39.4,70.62,30.53,109.64-4.87,21.45-15.3,39.32-30.15,51.67C753.5,540.43,735,546.26,714.08,552l-3.8,1.05c-16.58,4.56-33.72,9.28-47.89,18.92a92.79,92.79,0,0,0-30.87,35.81c-8.29,16.85-9.45,34.88-9.5,50.29,0,18.91-.11,38.47-8.16,57.1-12.15,28.14-39.84,50.65-76,61.75A163.6,163.6,0,0,1,490,784.17ZM546.24,61.34c-1.17,0-2.29,0-3.37,0-32.29.66-65.82,10.29-94.42,27.11-30.16,17.75-52.23,43.15-62.14,71.52-6.41,18.33-7.19,37.32-8,57.43-.5,12.23-1,24.87-2.93,37.25-2.71,17.53-8.12,31.26-16.56,42a1.69,1.69,0,0,0-.25.45l-1.08,3.28-3.44.15c-27.1,1.21-52.38,16-67.64,39.42-18.27,28.11-15.75,67.72,6.27,98.55,10.24,14.34,24,26.45,41,36,12.49,7,25.8,11.48,39.91,16.21q3.93,1.31,7.86,2.65c15,5.15,30.68,11.18,42.39,23.2,12,12.34,16.6,30.23,12.86,50.39-3.59,19.39-12.58,36.91-21.27,53.85l-6.06,11.81q-4.84,9.42-9.67,18.86c-4.55,8.89-8.81,17.65-11,27-4.72,20.42,1.88,37.87,8.26,48.91a88.45,88.45,0,0,0,37.32,34.78c28.4,13.91,66,15.87,100.62,5.24,33.32-10.25,58.73-30.72,69.72-56.17C611.92,694.5,612,676,612,658.08c.05-16.55,1.34-36,10.53-54.67a102.77,102.77,0,0,1,34.22-39.67c15.54-10.57,33.49-15.51,50.86-20.29l3.78-1c19.76-5.48,37.23-10.94,51-22.36,13.14-10.93,22.41-26.91,26.79-46.2,8.13-35.76-2.59-74.26-28-100.46h0A110,110,0,0,0,720,346.77c-14.1-5.15-29.18-7.2-48.88-6.69l-4.39.14c-13.67.46-29.16,1-42.14-6.42-18.17-10.38-19.91-32.95-15.87-49.12,3.65-14.62,11.95-27.17,20-39.31,2.87-4.35,5.58-8.45,8.11-12.66A145.13,145.13,0,0,0,655,184.47c6.63-36.64-2.25-70.49-24.37-92.87C605.05,65.67,568.07,61.34,546.24,61.34Z"/><path class="cls-1" d="M458.56,844.46c-.83-4-5-4.38-7.65-2.5a30.79,30.79,0,0,0-.41-17.76c-1.66-5.17-10.07-4.53-9.82,1.33,0,.88,0,1.74,0,2.59a4.76,4.76,0,0,0-3.67,4.63c-.3,8.8-11.13,17.18-6.1,26.33s18.94,3.44,24.13-2.48A12.76,12.76,0,0,0,458.56,844.46Zm-10.42,4.78c.3-.54.58-1.12.84-1.72A1.54,1.54,0,0,1,448.14,849.24Z"/><path class="cls-1" d="M524.44,856.6c5.18,5.92,19.06,11.68,24.12,2.48s-5.8-17.53-6.09-26.33a4.78,4.78,0,0,0-3.68-4.63c0-.85,0-1.71,0-2.59.25-5.86-8.16-6.5-9.82-1.33a30.79,30.79,0,0,0-.41,17.76c-2.61-1.88-6.82-1.51-7.65,2.5A12.74,12.74,0,0,0,524.44,856.6Zm6.07-9.08c.26.6.54,1.18.84,1.72A1.55,1.55,0,0,1,530.51,847.52Z"/><rect class="cls-5" width="100" height="118"/><rect class="cls-5" x="872" y="814.03" width="100" height="118"/></g></g></svg>