<svg xmlns="http://www.w3.org/2000/svg" viewBox="0 0 972 932.03"><defs><style>.cls-1{fill:#68c5ab;}.cls-2{fill:#1c8c8c;}.cls-3{fill:#d6d625;}.cls-4{fill:none;}</style></defs><title>bodyswirl</title><g id="Layer_2" data-name="Layer 2"><g id="Layer_1-2" data-name="Layer 1"><path class="cls-1" d="M311.47,371.86c-6.44-13-20.82-21.6-34.66-23.26-13.65-1.64-28.54,4.64-35.1,17.48-3.61,7.07-4.45,15.64-4.19,23.52.26,8.18,5.59,12.46,12.79,14.9,15.45,5.22,32.51-6.42,29.35-23.77-1.38-7.58-12.71-4.37-11.33,3.19.93,5.14-3.75,9.37-8.4,9.89a14.78,14.78,0,0,1-8.54-1.76c-2.85-1.61-2.16-3.82-2-6.9.24-6.17,1.07-12.29,5.2-17.08a23.12,23.12,0,0,1,14.05-7.55c11.36-1.67,24.38,4.57,30.85,14.18,7.81,11.6,1.15,24.72-5,35.35-3.87,6.66,6.29,12.7,10.15,6.05C312.35,402.72,319,386.94,311.47,371.86Z"/><path class="cls-1" d="M386.11,269c-5.07-26.51-25.8-54.24-54-56.63-14.14-1.21-26,8.45-35.65,17.83-10.13,9.84-17.87,21.8-18.63,36.43-1.42,27.21,25.47,51.1,51.35,39.29,11.88-5.42,21.41-18.69,19.37-32.39-2.7-18.2-23.66-16.83-35.88-9.83-6.6,3.78-.68,14.15,5.93,10.36,4.22-2.42,9.75-4.33,14.64-3.13s4.28,7.38,3,11.21A22.68,22.68,0,0,1,317.76,297c-22.58,2.46-33.85-24.54-24.86-42.93,4.46-9.13,12.58-16.89,20.49-22.94,3.79-2.9,8.1-5.58,12.82-6.49,6-1.16,12.19.89,17.55,3.65,18.8,9.69,29.51,28.74,31.9,49.71,3,26.57-5.86,52.49-14.2,77.22-2.47,7.31,8.88,10.46,11.33,3.19C382.47,329.66,392,299.64,386.11,269Z"/><path class="cls-1" d="M468,166.87c-2.56-16.5-10.52-31.2-19.49-44.92-8.41-12.87-18.63-25-33-30.94-28.75-12-57.54,11.8-61.94,41.1-2,13,.83,27.38,10.49,36.7a37.28,37.28,0,0,0,31.8,9.92c13.6-2.37,24.67-15.07,23-29.56-1.76-15.36-19.5-23.73-31.4-13.52-5.8,5,2.55,13.43,8.31,8.49,2.84-2.44,7.71-.8,9.81,1.89,3.08,4,1.72,10.21-.84,14-4.5,6.7-13.1,8.35-20.46,6.59-20.72-5-23.52-29.26-14.7-46.1,5-9.56,13.7-18.27,24.4-20.49,11.17-2.31,22.46,3.32,30.54,10.86,8.89,8.31,15.55,19.1,21.49,29.7,6.43,11.48,10.64,23.62,11.34,36.9,1.56,29.31-8.56,59.34-18.84,86.28-2.74,7.2,8.62,10.32,11.34,3.19C461.68,236,473.2,200.52,468,166.87Z"/><path class="cls-1" d="M596.91,121.31a56.17,56.17,0,0,0-66.49,10.57,60.29,60.29,0,0,0-17.08,37.2c-.81,8.66-.24,17.45-.05,26.13q.33,14.6.65,29.19c.17,7.71,11.92,7.74,11.75,0q-.41-18.48-.82-37c-.23-10.43-.68-21.05,3.19-30.92,6.29-16,22.06-28.71,39.12-29.84a47.35,47.35,0,0,1,42.91,22.62c5.21,8.7,6.64,17.75.52,26.38-5.79,8.15-16.11,14.32-26,14.87-9.22.52-18.36-4.49-23.58-12.18-1.53-2.25-6-9.78-3.56-12.07,1.49-1.37,6.06-2,7.95-2.18,2.42-.2,5.29,0,6,2.83,1.85,7.48,13.18,4.31,11.33-3.19-3.51-14.2-21.62-13.53-31.74-7.51-11.8,7-3.64,24.34,2.88,32.19,18,21.71,50.27,16,66-5.48C636.49,160.3,618.12,132.34,596.91,121.31Z"/><path class="cls-1" d="M782.91,192c-28.75-27.58-72.32-24-104.07-3.93-18.68,11.83-33.93,28.54-46.65,46.68-12.83,18.32-26.22,40.53-26.87,63.67-.22,7.73,11.53,7.72,11.75,0,.46-16.56,9.21-32.07,17.56-45.81a191.88,191.88,0,0,1,29.57-37.71c22.11-21.6,53.55-37.1,84.61-28.83,24.76,6.6,46.33,30.79,41,58.2-2.41,12.49-9.6,24.16-21.14,29.69-12.8,6.12-29.27,4.07-39.79-5.72a39.29,39.29,0,0,1-11.28-19.11,35.09,35.09,0,0,1-1.1-11.5c.35-4.08,3.76-5.51,7.19-7,6.41-2.75,16.25-4.23,21.38,1.87,3.58,4.26,4.39,10.81-.1,14.58-5.85,4.9,2.5,13.35,8.3,8.48,13-10.91,5.14-32-8.82-37.46-8.45-3.27-17.93-1.73-26,1.87-3.6,1.61-7.43,3.6-10.05,6.69-3.25,3.83-3.76,9-3.69,13.88.25,17.54,10.13,34.9,25.45,43.1,15.92,8.52,36.5,7.55,51.07-3.47,13.1-9.91,20.51-26.05,21.08-42.55C802.92,220.39,795.14,203.78,782.91,192Z"/><path class="cls-1" d="M764.79,323.45A56.55,56.55,0,0,0,710.15,314c-10.82,3.91-20.57,10.38-29.68,17.41-8.13,6.26-15.86,13.8-17.88,24.43-1.43,7.54,9.89,10.77,11.33,3.19,1.53-8,7.47-13.45,13.65-18.16,6.74-5.14,13.91-10.09,21.61-13.62,15.4-7.06,33.59-5.9,47.24,4.69,11.7,9.09,18,27.56,3.29,37.41-5.72,3.82-13.13,3.6-19,.29a16.72,16.72,0,0,1-7.63-8.24c-.57-1.5-1.28-4.1-.22-5.57.25-.35,1.91-1.48,2.13-1.3,5.9,4.68,14.28-3.75,8.31-8.49a13.61,13.61,0,0,0-20.69,4c-4.89,8.66-.15,19.65,6.49,25.77a30.19,30.19,0,0,0,45.22-4.44C785.83,355.32,778.91,335,764.79,323.45Z"/><path class="cls-2" d="M459.46,765.68c0-1.42-.09-2.83-.15-4.25a6,6,0,0,0-6.6-5.76c.09-3.38.19-6.76.34-10.14.35-7.72-11.4-7.7-11.75,0q-.41,9-.46,18C447.07,764,453.27,764.8,459.46,765.68Z"/><path class="cls-2" d="M428.56,763l2.61.05a11.25,11.25,0,0,1,6.63.28l2.8.19c-.27-.78-.53-1.57-.81-2.36-2.39-6.75-12.51-4.45-11.66,1.86Z"/><path class="cls-2" d="M523.08,772.55a147.26,147.26,0,0,1,16.16,1.73q.33-15.74-.38-31.46c-.35-7.7-12.1-7.72-11.75,0q.46,10.36.49,20.72c-2.63-2.28-7-2.28-8.81,1.05-3.3-2.15-9.17-.53-9.57,4.84,0,.3,0,.59-.06.89C513.83,770.89,518.45,771.75,523.08,772.55Z"/><path class="cls-3" d="M772.28,665.8c-.8-5.62-1.68-10.88-2.42-15.52-4.35-27.07-6.47-70.74-41-72.79-30.86-1.83-61.94,3.78-92.64.09-5.84-.71-11.81-1.81-16.83-5-16.58-10.42-5.24-28.7,3.92-39.69,5.84-7,12.28-13.68,18.44-20.48q19.41-21.36,38.79-42.73c27-29.8,45.08-63,27-103.76-15-34-44.14-39-72.11-56.76-18.22-11.56-23.24-39.26-39.49-54.78-15.68-15-38.27-27.81-60.19-28.79-22.74-1-39.13,16-60.68,19.06-10.21,1.47-20.51-1.36-30.81-1.82-18.54-.82-31.85,11.46-38.88,28.25-13.75,32.88-18.23,58.27-50.29,79.1-45.67,29.67-81.74,48.34-79.94,109.51,1,33.54,2.34,66.86.62,100.38-.87,17-1.74,34.3-7.23,50.71-4.93,14.74-14.56,27.3-23.94,40-8.94,12.14-17.71,24.92-20.94,39.35-3.69,16.44-.52,33.36,5.32,49.08,5.23,14.09,11.58,29.61,27.76,36.28,14,5.78,30.06,5,44.84,2.31,18.28-3.36,35.83-9.59,53.62-14.49a270.53,270.53,0,0,1,58.51-9.67c40-2,79.81,3.72,119.19,9.27,68.11,9.61,143.66,19.15,207.11-11.53,7-3.39,14.19-7.15,19.85-12.23C777.89,723.12,775.85,690.91,772.28,665.8Z"/><path class="cls-2" d="M781.48,664.43c-.66-4.65-1.38-9.09-2-13l-.43-2.68c-.45-2.81-.88-5.82-1.33-9-2-14.15-4.3-30.19-10.45-43.77-7.93-17.53-20.66-26.94-37.85-28-14.21-.85-28.45-.17-42.21.49-17.28.82-33.59,1.6-49.88-.36-4.69-.56-9.51-1.39-13-3.61s-3.85-4.19-4-4.93c-.69-4.44,3.08-12.11,10.09-20.52,3.89-4.68,8.22-9.36,12.4-13.88q2.91-3.15,5.77-6.29,19.41-21.36,38.79-42.73c16.67-18.37,27-34.64,32.42-51.19,6.83-20.73,5.58-41.91-3.72-62.94-12.34-27.92-33.48-38.62-53.91-49-7.19-3.63-14.62-7.4-21.77-11.94-8-5.05-13.3-15-18.94-25.59-5.27-9.86-10.72-20.06-19.1-28.06-19.53-18.64-44.26-30.36-66.14-31.34-15.07-.68-27.64,5.3-38.74,10.57-8,3.82-15.59,7.42-23.64,8.57-5.36.78-11.2,0-17.39-.74-3.78-.48-7.69-1-11.73-1.16-20.65-.91-38.54,11.79-47.83,34-2.52,6-4.7,11.72-6.82,17.23-9.38,24.47-16.16,42.16-39.92,57.59q-4.61,3-9.08,5.86c-41.32,26.56-77,49.49-75.16,112l.33,11.05c.89,29.05,1.81,59.1.3,88.54v.16c-.82,16.16-1.68,32.87-6.73,48-4.16,12.45-12.31,23.48-20.93,35.17l-1.64,2.22c-9.42,12.78-18.92,26.63-22.58,42.93-3.7,16.47-1.84,34.32,5.69,54.58,4.91,13.22,12.33,33.21,33,41.72a72,72,0,0,0,27.73,5,123,123,0,0,0,22.24-2.2c13.06-2.4,25.71-6.2,38-9.87,5.4-1.62,11-3.3,16.44-4.8a259.83,259.83,0,0,1,56.54-9.35c6.06-.31,12.13-.41,18.21-.37a11.4,11.4,0,0,1,3.4,0c31.54.48,63.28,4.95,94.17,9.31l1.69.24c64.42,9.1,144.6,20.42,212.37-12.35,7.11-3.45,15.26-7.64,22-13.67C787.35,727.29,785.49,692.56,781.48,664.43Zm-27.71,67.66c-4.93,4.42-11.72,7.88-17.69,10.78-62.75,30.34-139.88,19.45-201.86,10.7l-1.68-.24c-38.81-5.47-78.93-11.14-119.24-9.11a278.61,278.61,0,0,0-60.47,10c-5.66,1.56-11.35,3.27-16.85,4.92-11.76,3.53-23.93,7.18-36,9.4-16.48,3-29.47,2.45-39.7-1.77-12.12-5-17.39-16.92-22.56-30.84-6.18-16.64-7.79-30.9-4.94-43.59s11.09-24.61,19.31-35.76l1.63-2.21c9.12-12.36,18.55-25.14,23.68-40.46,5.88-17.62,6.81-35.67,7.71-53.13v-.16c1.55-30.24.62-60.68-.28-90.13-.11-3.67-.23-7.34-.33-11C283,407.84,310,390.46,351,364.14c3-1.93,6.06-3.89,9.16-5.91,28.88-18.76,37.4-41,47.26-66.69,2.06-5.38,4.19-10.94,6.6-16.69,3.56-8.51,11.94-22.51,28.56-22.51.44,0,.9,0,1.35,0,3.3.14,6.68.57,10.26,1,7.11.9,14.46,1.83,22.26.71,10.8-1.55,20-5.93,28.91-10.16,10.05-4.78,19.54-9.3,30.06-8.82,20.7.93,41.6,14.16,54.25,26.24,6.19,5.91,10.7,14.35,15.48,23.28,6.55,12.26,13.32,24.93,25.45,32.63,7.91,5,15.74,9,23.32,12.83,19.11,9.67,35.61,18,45.22,39.77,13.63,30.83,6,58.76-25.38,93.39L634.93,506c-1.87,2.06-3.76,4.11-5.65,6.15-4.35,4.71-8.84,9.57-13,14.62-11.11,13.32-15.92,25.36-14.3,35.8.8,5.17,3.63,12.52,12.59,18.14,6.62,4.16,14.13,5.52,20.61,6.3,17.81,2.14,35.66,1.29,52.92.47,13.29-.64,27-1.29,40.27-.5,21.54,1.28,26.6,24.83,31,55.49.47,3.27.91,6.37,1.39,9.34l.43,2.7c.62,3.84,1.33,8.19,2,12.65C766.14,688.71,768.51,718.89,753.77,732.09Z"/><path class="cls-2" d="M802.2,563.31c-12.52-1.45-27.31,7.27-24.72,21.67,1.36,7.59,12.69,4.37,11.33-3.19-.69-3.84,5.78-6.27,8.5-6.63,3.81-.5,9.4.55,11.84,3.92,6,8.21-9.15,17.59-15.07,19.7-9,3.21-18.84,3.61-28.29,3-5.19-.33-8.17-2-8.83-7.52-.58-4.84.63-9.85,2.07-14.42,6.13-19.53,22.24-34.37,34-50.4,5.12-7,13.21-16.66,10.72-26.07-2.76-10.42-14.8-14.07-23.26-18a505.29,505.29,0,0,1-74.12-42.66c-6.28-4.35-12.16,6-5.93,10.36l2.41,1.65a5.79,5.79,0,0,0-.92,4.45c-2.2-.43-4.41-.83-6.63-1.18a7.1,7.1,0,0,0-7.43,4.41c-.53-.63-1.07-1.25-1.59-1.89-4.87-5.91-13.15,2.61-8.31,8.49a128.22,128.22,0,0,0,66.27,42.68c4.86,1.27,10.1,2.19,14.73,4.24l0,.06c-1.58,2.82-3.1,5.68-4.52,8.59-.33.69-.64,1.39-1,2.08a130.07,130.07,0,0,0-10.6,16.77c-6.33,11.76-11.32,25.23-10.06,38.86,1.9,20.72,22,39.52,42.37,31.69a79.52,79.52,0,0,0,18.1-2.38c11-2.93,22.2-9.74,26.92-20.8C826.13,576.8,815.76,564.88,802.2,563.31ZM791.65,510a11.08,11.08,0,0,0-.06-1.82,7.2,7.2,0,0,0,.77-1.81,1.8,1.8,0,0,0,0,.19A5.71,5.71,0,0,1,791.65,510ZM746,583.58q-.27,1.51-.45,3.09a33.42,33.42,0,0,1-1-13c.09-.78.2-1.55.32-2.32a6.36,6.36,0,0,0,1.25.87c0,.31-.06.63-.08.94a5.22,5.22,0,0,0,1.43,4.19A57.25,57.25,0,0,0,746,583.58Z"/><path class="cls-2" d="M153.08,548.22c3.2,7.61,6.23,16,11,22.59,5.32,7.43,13,8.41,21.16,5.65,8.77-3,17.41-5.87,26.46-7.81a178.72,178.72,0,0,1,56.22-2.77c7.51.79,7.46-11.21,0-12l-.33,0c7.52-4.59,13.57-13.48,9.18-20.11.08-.24,1.22-9.43,1.3-9.67.37-1-2-3-2.28-4-.48-1.59,1.06-1.07-1.13-2.15-3.31-1.63-11.13,1-14.54,1.75-9.6,2-18.39,6.36-27.69,9.35L214.1,534.9,188.88,543c-2.56.82-5.94,1.35-8.32,2.67l-.55.18c-.42-1-.87-2.15-1-2.38q-3.6-8.81-7.29-17.59-7.17-17-14.69-33.88-3.75-8.43-7.61-16.82c-2.32-5.06-4.3-10.81-7.61-15.3-6.4-8.67-20.59-7.39-30-6.14C102.17,455,93,459.14,87,467.31c-5.44,7.41-6.94,17.23-2.66,25.61,4.57,8.95,15,14.81,24.85,12.21,11-2.89,15.7-15.36,8.51-24.51-4.73-6-13,2.51-8.3,8.48,2,2.56-2.86,4.5-4.44,4.63-3.51.27-7-1.76-9.1-4.54-4.44-5.9-1.77-13.23,3.21-17.71,6.31-5.67,15.22-6.45,23.26-6.31h.57q8,27.3,18.15,53.83,3.88,10.08,8.08,20"/><path class="cls-2" d="M461.34,761.34a5.31,5.31,0,0,0-6.49-4.69,20,20,0,0,0-9.51.32,4.9,4.9,0,0,0-2.67,1.88c-2.58-3.75-9.68-3-9.12,2.46a248.14,248.14,0,0,1,0,51.84c-1.85,17.36-6.53,34.22-8.82,51.52a4.73,4.73,0,0,0,2.31,5.16,47.7,47.7,0,0,0,13.61,5,4.94,4.94,0,0,0,5-1.82,13.21,13.21,0,0,0,9.67-5.19c6.23-7.87,6.52-20.69,7.52-30.24C465.51,812.24,463.42,786.68,461.34,761.34Z"/><path class="cls-2" d="M552.14,852.26c-1.49-9.92-3.06-19.83-4.6-29.74q-4.62-30-9.26-59.93c-.34-2.17-2.81-3.63-4.82-3.67a36.51,36.51,0,0,0-6.6.43,5.45,5.45,0,0,0-4.69,1.3,11,11,0,0,0-4.82,3.62c-.18.27-.35.55-.5.83-3.12-1.41-7.39,0-6.93,4.24,2.16,19.95,4.79,39.84,7.49,59.72q1,7.63,2.08,15.27c.63,4.62.63,10,2,14.43,2.63,8.22,13.41,6.23,20.11,6.15,3.76,0,7.65-.24,9.93-3.73C553.35,858.47,552.58,855.2,552.14,852.26Z"/><rect class="cls-4" width="100" height="118"/><rect class="cls-4" x="872" y="814.03" width="100" height="118"/></g></g></svg>