<svg xmlns="http://www.w3.org/2000/svg" viewBox="0 0 972 932.03"><defs><style>.cls-1{fill:#673d98;}.cls-2{fill:#c3acd3;stroke:#673e98;stroke-miterlimit:10;stroke-width:13px;}.cls-3{fill:#673e98;}.cls-4{fill:none;}</style></defs><title>bodypurple</title><g id="Layer_2" data-name="Layer 2"><g id="Layer_1-2" data-name="Layer 1"><path class="cls-1" d="M456,762.85c-.55-8.55-6.5-15.87-15-15.87-7.68,0-15.54,7.27-15,15.87.89,13.71,1.46,27.39,1.77,41.12.3,13.14,4.91,26.84.25,39.7a23.46,23.46,0,0,1-2,4.21c-1.87,5-5.81,9.32-9.1,13.2-4.15,4.89-10.39,11.17-7.08,17.34a16.09,16.09,0,0,0,7,.29,20,20,0,0,0,1.92-1.44c7-6.06,16.27-8.89,25.43-8.82,8.05.06,15.05-7.33,15-15.88Q458.89,807.68,456,762.85Z"/><path class="cls-1" d="M569.36,866c-7-7.51-16-15.31-17.59-18.4-4.3-8.36-3.41-18.33-2.41-27.68,2-18.41,3.79-36.74,5-55.21.55-8.6-7.3-15.87-15-15.87-8.49,0-14.43,7.32-15,15.87q-2.88,44.8-3.22,89.72c-.07,8.55,6.93,15.94,15,15.88,9.16-.07,18.44,2.76,25.43,8.82a17.86,17.86,0,0,0,9.67,4.42,4.16,4.16,0,0,1,2.17-.76c2.1-.12,3.31-.78,4-1.77C580.32,876.43,572.11,868.92,569.36,866Z"/><g id="_Group_" data-name="&lt;Group&gt;"><path class="cls-1" d="M814.43,522.12c1.53-2.06,3.08-4.12,4.6-6.19-15.74-8.19-31.16-17.63-46.73-26.17l-53.72-29.48q-54.26-29.76-108.5-59.54c-5.22-2.85-8.35-10-8.35-16.21,0-7.22,3.43-12.11,8.35-16.23A1003,1003,0,0,1,789.41,247.84a999.9,999.9,0,0,1-78.23-129.78C653.67,152.7,606.08,203.56,573,266.23c-7.77,14.72-26,10.24-30.79-4.49a1428.29,1428.29,0,0,1-50-202.13,679.14,679.14,0,0,1-101.75,43.26,510.8,510.8,0,0,1,25.19,194.6c-.75,11.26-10.27,22.51-21.33,18.12l-173.21-68.7a21.71,21.71,0,0,1-2.82-1.39c-.63.45-1.25.94-1.87,1.41-.32.3-1.44,1.26-1.69,1.52-.75.79-1.52,1.53-2.25,2.34-4,4.41-7.42,9.55-11,14.4q-18.65,25.31-37.29,50.6a962.13,962.13,0,0,0,173.23,62.1c14.69,3.74,15.72,26.15,4,34.35a1723.49,1723.49,0,0,1-157.06,98A976.76,976.76,0,0,1,255.9,636.49l161.21-137.2c5.34-4.55,13.82-2.6,18.71,1.47,5.43,4.52,7.72,12.46,6,19.75q-11.21,48.56-19.77,97.81Q414.44,662.44,409,707c-.75,6.2-1.55,12.41-2.11,18.63-.53,5.64-.84,9.49,0,12.94,0-.39.4.52.54,1,.13.09.21.15.21.17a27.14,27.14,0,0,0,3.27,1l.52.14.29,0c1.18.14,2.37.21,3.56.27,3.27.17,6.54.24,9.81.34q72.3,2.31,144.65.8a1498.41,1498.41,0,0,0-24.23-201.16c-2.86-15,11.68-30.84,24.75-21.21l113.5,83.6,24.89,18.33a143.62,143.62,0,0,0,11.89,8.28c2.49,1.47,4.65,2.47,7,2.52.85,0,3.07-.29,1-.1a16.4,16.4,0,0,1,1.61-.57c.79-.51,2.39-1.55,2.92-1.94l.38-.29c.59-.54,1.16-1.13,1.73-1.72,1.33-1.37,2.58-2.81,3.81-4.3,6.16-7.42,11.72-15.51,17.49-23.3l38.92-52.53Q804.91,535,814.43,522.12Z"/><path class="cls-2" d="M819,539.74c-1.52,2.08-3.07,4.13-4.6,6.19l-19.06,25.76Q775.9,598,756.45,624.23c-5.77,7.79-11.33,15.87-17.49,23.3-1.23,1.48-2.48,2.92-3.81,4.29-.57.59-1.14,1.18-1.73,1.73l-.38.28c-.53.4-2.13,1.43-2.92,1.94a16.53,16.53,0,0,0-1.61.58c2.09-.2-.13.11-1,.09-2.32-.05-4.48-1-7-2.52a143.62,143.62,0,0,1-11.89-8.28l-24.89-18.33-113.5-83.6c-13.07-9.62-27.61,6.21-24.75,21.22a1498.46,1498.46,0,0,1,24.23,201.15q-72.33,1.47-144.65-.79c-3.27-.1-6.54-.17-9.81-.34-1.19-.07-2.38-.14-3.56-.27l-.29,0-.52-.13a29.15,29.15,0,0,1-3.27-1s-.08-.08-.21-.17c-.14-.49-.58-1.39-.54-1-.86-3.44-.55-7.3,0-12.94.56-6.22,1.36-12.42,2.11-18.62q5.37-44.53,13.09-88.67,8.52-49.24,19.77-97.81c1.68-7.29-.61-15.22-6-19.75-4.89-4.07-13.37-6-18.71-1.47L255.9,660.3a976.76,976.76,0,0,0-71.47-126.25,1721.29,1721.29,0,0,0,157.06-98c11.69-8.2,10.66-30.6-4-34.34a962.9,962.9,0,0,1-173.23-62.1q18.63-25.32,37.29-50.61c3.57-4.85,7-10,11-14.4.73-.8,1.5-1.55,2.25-2.33.25-.26,1.37-1.23,1.69-1.52.62-.48,1.24-1,1.87-1.42a20.5,20.5,0,0,0,2.82,1.39l173.21,68.7c11.06,4.39,20.58-6.86,21.33-18.11a510.83,510.83,0,0,0-25.19-194.61A680.12,680.12,0,0,0,492.24,83.43a1429,1429,0,0,0,50,202.13c4.81,14.73,23,19.21,30.79,4.49,33.06-62.68,80.65-113.53,138.16-148.17a1000.58,1000.58,0,0,0,78.23,129.78A1002.52,1002.52,0,0,0,610.08,392.12c-4.92,4.11-8.35,9-8.35,16.22,0,6.25,3.13,13.36,8.35,16.22q54.24,29.78,108.5,59.53l53.72,29.48C787.87,522.11,803.29,531.56,819,539.74Z"/></g><path class="cls-3" d="M871.37,640.09c-7.34-7.45-15-14.58-22.87-21.41a440.11,440.11,0,0,0-49-37c-4.17-2.72-10.94-2.13-14.27,2a15.66,15.66,0,0,0-3.92,9.46,11.94,11.94,0,0,0-7.6,3.55c-4.81,5.1-4.13,12.49,0,17.64,13,16.24,30.7,27.55,47.13,39.46,8.81,6.4,17.5,13.92,26.92,19.27,9.26,5.26,20.54,5.25,27.94-3.52C884,659.62,879.14,648,871.37,640.09Z"/><path class="cls-3" d="M223.11,594a12.73,12.73,0,0,0-.27-5.18c-1.6-6.16-8.46-10.95-14.48-8.71-19.13,7.12-37,19.23-54.77,29.33-15,8.53-41,18.52-38.41,41.22,1.55,13.39,13.6,17.17,24.3,12.94,9.49-3.75,18.18-10,26.94-15.24l55.9-33.74C230.72,609.52,228.93,598.92,223.11,594Z"/><path class="cls-3" d="M385.07,265.07c-15.15,0-15.18,24.95,0,24.95S400.25,265.07,385.07,265.07Z"/><path class="cls-3" d="M345.46,267.34c-8.27,0-8.28,13.61,0,13.61S353.74,267.34,345.46,267.34Z"/><path class="cls-3" d="M369,224.82c-6.2,0-6.21,10.21,0,10.21S375.22,224.82,369,224.82Z"/><path class="cls-3" d="M574.56,216.88c-6.2,0-6.21,10.21,0,10.21S580.77,216.88,574.56,216.88Z"/><path class="cls-3" d="M552.08,174.93c-14.47,0-14.49,23.81,0,23.81S566.56,174.93,552.08,174.93Z"/><path class="cls-3" d="M653.78,391.5c-9,0-9,14.74,0,14.74S662.75,391.5,653.78,391.5Z"/><ellipse class="cls-3" cx="692.32" cy="375.06" rx="14.99" ry="15.87"/><path class="cls-3" d="M703,410.77c-11.71,0-11.73,19.28,0,19.28S714.75,410.77,703,410.77Z"/><path class="cls-3" d="M294.07,409.64c-11.71,0-11.73,19.27,0,19.27S305.8,409.64,294.07,409.64Z"/><path class="cls-3" d="M264.1,397.73c-5.51,0-5.52,9.07,0,9.07S269.62,397.73,264.1,397.73Z"/><rect class="cls-4" width="100" height="118"/><rect class="cls-4" x="872" y="814.03" width="100" height="118"/></g></g></svg>