<?xml version="1.0" encoding="utf-8"?>
<!-- Generator: Adobe Illustrator 22.1.0, SVG Export Plug-In . SVG Version: 6.00 Build 0)  -->
<svg version="1.1" id="Layer_1" xmlns="http://www.w3.org/2000/svg" xmlns:xlink="http://www.w3.org/1999/xlink" x="0px" y="0px"
	 viewBox="0 0 714.6 726.7" style="enable-background:new 0 0 714.6 726.7;" xml:space="preserve">
<style type="text/css">
	.st0{fill:#673D98;}
	.st1{fill:#C3ACD3;stroke:#673E98;stroke-width:13;stroke-miterlimit:10;}
	.st2{fill:#673E98;}
</style>
<title>body4</title>
<g id="Layer_2_1_">
	<g id="Layer_1-2">
		<path class="st0" d="M307.2,592.5c-6.8,0-13.8,6.1-13.3,13.3c1.4,21.1,2.3,42.1,2.7,63.2c-10.3,2.3-19.8,7-27.9,13.8
			c-5.6,4.5-4.7,14.1,0,18.8c5.5,5.5,13.2,4.6,18.8,0c6.2-5.1,14.4-7.5,22.5-7.4c7.3-0.1,13.2-6,13.3-13.3
			c-0.2-25.1-1.2-50.1-2.8-75.1C320,598.7,314.7,592.5,307.2,592.5z"/>
		<path class="st0" d="M432.9,684.4c-8.1-6.8-17.6-11.5-27.9-13.8c0.4-21.1,1.3-42.2,2.7-63.2c0.5-7.2-6.5-13.3-13.3-13.3
			c-7.5,0-12.8,6.1-13.3,13.3c-1.7,25-2.7,50-2.8,75.1c0.1,7.3,6,13.2,13.3,13.3c8.1-0.1,16.4,2.3,22.6,7.4c5.6,4.6,13.3,5.5,18.8,0
			C437.6,698.5,438.5,688.9,432.9,684.4z"/>
		<g id="_Group_">
			<path class="st0" d="M638.4,404.3c1.4-1.7,2.7-3.4,4.1-5.2c-14-6.9-27.6-14.8-41.4-21.9l-47.6-24.7l-96.2-49.9
				c-4.6-2.4-7.4-8.3-7.4-13.6c0-6,3-10.1,7.4-13.6c49.3-39.1,102.6-72.9,159.1-100.9c-25.9-34.4-49.1-70.7-69.4-108.7
				c-51,29-93.2,71.6-122.5,124.1c-6.9,12.3-23,8.5-27.3-3.8C377.9,131,363.1,74.5,352.6,17c-29.1,14.4-59.3,26.5-90.2,36.2
				c18.3,52,26.3,107.4,22.3,162.9c-0.7,9.4-9.1,18.8-18.9,15.2l-153.6-57.5c-0.9-0.3-1.7-0.7-2.5-1.2c-0.6,0.4-1.1,0.8-1.7,1.2
				c-0.3,0.2-1.3,1.1-1.5,1.3c-0.7,0.7-1.3,1.3-2,2c-3.6,3.7-6.6,8-9.7,12.1l-33.1,42.4c49.5,22,100.9,39.4,153.6,52
				c13,3.1,13.9,21.9,3.6,28.8c-45,29.8-91.5,57.2-139.3,82.1c23.8,33.6,45,68.9,63.4,105.7l143-114.9c4.7-3.8,12.3-2.2,16.6,1.2
				c4.8,4,6.9,10.5,5.4,16.5c-6.6,27.1-12.5,54.4-17.5,81.9c-4.5,24.6-8.4,49.4-11.6,74.2c-0.7,5.2-1.4,10.4-1.9,15.6
				c-0.5,4.7-0.7,7.9,0,10.8c0-0.3,0.4,0.4,0.5,0.8c0.1,0.1,0.2,0.1,0.2,0.1c1,0.3,1.9,0.6,2.9,0.8l0.5,0.1h0.3
				c1.1,0.1,2.1,0.2,3.2,0.2c2.9,0.1,5.8,0.2,8.7,0.3c42.7,1.3,85.5,1.5,128.3,0.7c-3.1-56.6-10.3-112.9-21.5-168.4
				c-2.5-12.6,10.4-25.8,21.9-17.8l100.6,70l22.1,15.4c3.4,2.4,6.9,4.9,10.5,6.9c1.9,1.2,4,1.9,6.2,2.1c0.8,0,2.7-0.2,0.9-0.1
				c0.1,0,1.4-0.5,1.4-0.5c0.7-0.4,2.1-1.3,2.6-1.6l0.3-0.2c0.5-0.5,1-0.9,1.5-1.4c1.2-1.1,2.3-2.4,3.4-3.6
				c5.5-6.2,10.4-13,15.5-19.5l34.5-44L638.4,404.3z"/>
			<path class="st1" d="M642.4,419c-1.3,1.7-2.7,3.5-4.1,5.2l-16.9,21.6l-34.5,44c-5.1,6.5-10.1,13.3-15.5,19.5
				c-1.1,1.2-2.2,2.4-3.4,3.6c-0.5,0.5-1,0.9-1.5,1.4l-0.3,0.2c-0.5,0.3-1.9,1.2-2.6,1.6c-0.1,0-1.3,0.5-1.4,0.5
				c1.9-0.2-0.1,0.1-0.9,0.1c-2.2-0.2-4.3-0.9-6.2-2.1c-3.7-2-7.1-4.5-10.5-6.9l-22.1-15.4l-100.7-70c-11.6-8.1-24.5,5.2-21.9,17.8
				c11.2,55.6,18.3,111.8,21.5,168.4c-42.8,0.8-85.5,0.6-128.3-0.7c-2.9-0.1-5.8-0.1-8.7-0.3c-1.1-0.1-2.1-0.1-3.2-0.2H281l-0.5-0.1
				c-1-0.2-2-0.5-2.9-0.8c0,0-0.1-0.1-0.2-0.1c-0.1-0.4-0.5-1.2-0.5-0.8c-0.8-2.8-0.5-6.1,0-10.8c0.5-5.2,1.2-10.4,1.9-15.6
				c3.2-24.9,7-49.6,11.6-74.2c5.1-27.5,10.9-54.8,17.5-81.9c1.6-6.1-0.5-12.5-5.4-16.5c-4.3-3.4-11.9-5-16.6-1.2L143.1,520
				c-18.4-36.8-39.6-72.2-63.4-105.8c47.8-24.9,94.3-52.3,139.3-82.1c10.4-6.9,9.5-25.6-3.6-28.8c-52.7-12.6-104.1-30-153.6-52
				l33.1-42.4c3.2-4.1,6.2-8.4,9.7-12.1c0.6-0.7,1.3-1.3,2-2c0.2-0.2,1.2-1,1.5-1.3c0.6-0.4,1.1-0.8,1.7-1.2
				c0.8,0.4,1.6,0.8,2.5,1.2l153.6,57.5c9.8,3.7,18.2-5.7,18.9-15.2c3.9-55.5-4.1-111-22.3-162.9c31-9.7,61.1-21.8,90.2-36.2
				c10.4,57.5,25.2,114,44.3,169.2c4.3,12.3,20.4,16.1,27.3,3.8c29.3-52.5,71.5-95.1,122.5-124.1c20.3,38,43.5,74.3,69.4,108.7
				c-56.4,27.9-109.7,61.7-159.1,100.9c-4.4,3.4-7.4,7.5-7.4,13.6c0,5.2,2.8,11.2,7.4,13.6l96.2,49.9l47.6,24.7
				C614.8,404.3,628.5,412.2,642.4,419z"/>
		</g>
		<path class="st2" d="M688.9,503.1c-6.5-6.2-13.3-12.2-20.3-17.9c-13.8-11.3-28.3-21.7-43.5-31c-3.7-2.3-9.7-1.8-12.7,1.6
			c-2,2.2-3.3,5-3.5,7.9c-2.5,0.2-4.9,1.2-6.7,3c-4.3,4.3-3.7,10.4,0,14.8c11.5,13.6,27.2,23.1,41.8,33c7.8,5.4,15.5,11.6,23.9,16.1
			c8.4,4.5,18.2,4.4,24.8-3C700,519.4,695.7,509.6,688.9,503.1z"/>
		<path class="st2" d="M114,464.4c0.2-1.4,0.2-2.9-0.2-4.3c-1.4-5.2-7.5-9.2-12.9-7.3c-17,6-32.8,16.1-48.6,24.6
			c-13.4,7.1-36.4,15.5-34.1,34.5c1.4,11.2,12.1,14.4,21.6,10.8c8.4-3.1,16.1-8.3,23.9-12.8l49.6-28.2
			C120.7,477.5,119.1,468.6,114,464.4z"/>
		<path class="st2" d="M257.6,189c-13.4,0-13.5,20.9,0,20.9S271,189,257.6,189z"/>
		<path class="st2" d="M222.5,190.9c-7.3,0-7.3,11.4,0,11.4C229.8,202.3,229.8,190.9,222.5,190.9z"/>
		<path class="st2" d="M243.3,155.3c-5.5,0-5.5,8.5,0,8.5S248.9,155.3,243.3,155.3z"/>
		<path class="st2" d="M425.6,148.7c-5.5,0-5.5,8.5,0,8.5S431.1,148.7,425.6,148.7z"/>
		<path class="st2" d="M405.7,113.6c-12.8,0-12.8,19.9,0,19.9C418.5,133.5,418.5,113.6,405.7,113.6z"/>
		<path class="st2" d="M495.9,294.9c-7.9,0-8,12.3,0,12.3C503.8,307.2,503.8,294.9,495.9,294.9z"/>
		<circle class="st2" cx="530.1" cy="281.1" r="13.3"/>
		<path class="st2" d="M539.6,311c-10.4,0-10.4,16.1,0,16.1S550,311,539.6,311z"/>
		<path class="st2" d="M176.9,310.1c-10.4,0-10.4,16.1,0,16.1C187.3,326.2,187.3,310.1,176.9,310.1z"/>
		<path class="st2" d="M150.3,300.1c-4.9,0-4.9,7.6,0,7.6S155.2,300.1,150.3,300.1z"/>
	</g>
</g>
</svg>
