<?xml version="1.0" encoding="utf-8"?>
<!-- Generator: Adobe Illustrator 22.1.0, SVG Export Plug-In . SVG Version: 6.00 Build 0)  -->
<svg version="1.1" id="Layer_1" xmlns="http://www.w3.org/2000/svg" xmlns:xlink="http://www.w3.org/1999/xlink" x="0px" y="0px"
	 viewBox="0 0 972 932" style="enable-background:new 0 0 972 932;" xml:space="preserve">
<style type="text/css">
	.st0{fill:#F15D24;}
	.st1{fill:#F15C22;}
	.st2{fill:#F6A31E;}
	.st3{fill:#F15E26;}
	.st4{fill:none;}
</style>
<title>bodyorange</title>
<g id="Layer_2_1_">
	<g id="Layer_1-2">
		<path class="st0" d="M541.6,854.3c-0.3,0.1-0.5,0.2-0.8,0.3c-2.3-0.2-4.5-0.5-6.7-1c-4.3-1-8.6-2.2-12.8-3.8
			c-0.7-5.8,0.5-12,0.6-17.8c0-0.7-0.1-1.5-0.2-2.2v-74.8c0-17.8,20.8-17.9,20.8,0v75c-0.5,1.2-0.7,2.4-0.7,3.7
			C541.9,840.6,541.7,847.5,541.6,854.3z"/>
		<path class="st1" d="M864.8,230.9c-0.4-6.4-10.4-6.4-10,0c0.7,12.7-6.3,24.6-17.8,30.1c0.5-9.6,0.2-19.1-0.8-28.7
			c-0.7-6.3-10.5-6.5-10,0c0.8,10.7,0,21.5-2.3,32c-11.4-6-19.9-16.2-23.7-28.5c-1.9-6.2-11-3.6-9.6,2.7
			c3.2,14.9,12.5,27.7,25.5,35.5c1.7,1,3.5,1.8,5.3,2.6c2.6,1.2,3,1.3,3.2,4.2c0.4,5.2-0.6,10.8-0.9,16c-0.6,10.3-1.1,20.7-1.7,31
			l-1.7,31c-0.1,2.5,0.1,5.2-0.4,7.7c-0.6,3-2.3,3.5-4.7,4.7c-4.2,2.1-8.6,4-12.9,5.9c-18.3,8.1-37,15.4-55.9,21.9l-0.5,0.2
			c-0.5-0.1-0.9-0.2-1.4-0.2c-6.4,0-6.5,10,0,10c0.6,0,1.2-0.1,1.7-0.3c1,0.3,2,0.2,2.9-0.1c15.7-5.4,31.2-11.3,46.5-17.8
			c7.7-3.3,15.4-6.7,23-10.2c7.1-3.3,10.8-7,11.5-15c1.5-17.5,1.9-35.2,2.9-52.8c0.5-9,1-18,1.5-27c0.2-3.3,0.4-6.6-0.2-9.5
			c1.1-1,1.7-2.4,1.9-3.8c0-0.3,0-0.5,0.1-0.8C853.3,266.3,866.1,249.5,864.8,230.9z"/>
		<path class="st1" d="M351.1,535c-5.3-6.2-12.5-10.6-20.4-12.5c-3.3-1.2-6.8-2.1-10.3-2.6c-3-0.5-6-0.6-9-0.3
			c-3-5.1-6.7-9.9-10-14.7l-41-60.3l40.1-24.7c5.5-3.4,0.5-12-5-8.6l-44.7,27.5c-2.2,1.3-3.3,4.6-1.8,6.8l41.5,61.1l10,14.7
			c0,0,0.1,0.1,0.1,0.1c-0.2,0.2-0.4,0.3-0.5,0.5c-11.7,12.7-15.6,30.7-10.3,47.1c1.6,4.9,8.2,4.2,9.6,0.5c1.7-0.8,2.7-2.5,2.6-4.4
			c0.1-5.9,1.1-11.7,3-17.2c0.5-1.5,1.2-3,2-4.4c4,5.7,8,11.4,12,17.1c3.6,5.2,12,0.6,8.6-5c-4.6-7.6-8.7-15.4-12.4-23.4
			c4.4-0.9,8.9-0.8,13.2,0.2c5.8,2.2,11.1,5.5,15.6,9.8C348.9,546.5,355.3,539.9,351.1,535z"/>
		<path class="st0" d="M437.9,854.3c0.3,0.1,0.5,0.2,0.8,0.3c2.3-0.2,4.5-0.5,6.7-1c4.3-1,8.6-2.2,12.8-3.8c0.7-5.8-0.5-12-0.6-17.8
			c0-0.7,0.1-1.5,0.2-2.2v-74.8c0-17.8-20.8-17.9-20.8,0v75c0.5,1.2,0.7,2.4,0.6,3.7C437.6,840.6,437.8,847.5,437.9,854.3z"/>
		<path class="st2" d="M758.8,369.9c-12.1-12.4-26.8-21.9-43.1-27.8c-16.5-6-33.2-7.5-50.7-7c-14.5,0.4-30.8,1.8-43.9-5.6
			c-15.3-8.7-17.4-28-13.5-43.6c4.7-18.8,17.8-34.3,27.5-50.6c9.3-15.4,15.7-32.3,18.9-49.9c6.2-34.5-0.5-71.7-25.7-97.3
			c-23.7-24-58.7-32.4-91.5-31.7c-34.1,0.9-67.4,10.5-96.9,27.8c-28.8,17-53.2,42.2-64.3,74.2c-10.8,30.8-6.2,63.9-11.2,95.6
			c-2.2,14.2-6.5,28.2-15.5,39.6c-0.5,0.6-0.8,1.3-1.1,2c-28.8,1.3-55.7,17.3-71.6,41.7c-20.7,31.9-15,74.2,6.4,104.2
			c11.1,15.6,26,28.1,42.7,37.5c15.3,8.6,32.1,13.6,48.6,19.2c14.5,5,29.6,10.8,40.4,22c12,12.3,14.6,29.6,11.5,46
			c-3.5,18.7-12.2,35.8-20.9,52.6c-5.2,10.2-10.4,20.4-15.7,30.6c-4.6,9-9.1,18.2-11.4,28.1c-8.5,36.9,15.9,73.5,48.2,89.3
			c31.8,15.6,70.9,15.8,104.3,5.5c30.3-9.3,59.9-29,72.8-59c7.6-17.5,7.7-36.3,7.8-55.1c0.1-18.3,1.8-35.8,10-52.5
			c7.4-15.2,18.6-28.2,32.5-37.7c16-10.9,34.8-15.6,53.2-20.7s37.8-10.8,52.8-23.3s24.2-30.1,28.4-48.9
			C796.5,437.8,785.3,397.3,758.8,369.9z"/>
		<path class="st3" d="M479,784.2c-21.6,0-42.4-4.4-60-13c-17.4-8.6-31.8-22-41.6-38.8c-10.4-18.1-13.7-37.5-9.4-56.2
			c2.4-10.4,7.2-20.2,11.8-29.3c3.2-6.3,6.4-12.6,9.7-18.9l6.1-11.8c8.4-16.3,17-33.2,20.3-51.1c1.8-9.8,2.9-28.2-10.2-41.6
			c-10.2-10.4-24.6-16-38.5-20.7c-2.6-0.9-5.2-1.8-7.8-2.6c-13.9-4.7-28.3-9.5-41.6-17c-18.3-10.3-33.2-23.4-44.3-38.9
			c-24.4-34.1-27-78.3-6.5-109.8c16.5-25.4,43.5-41.6,72.8-43.8l0.2-0.2c7.4-9.3,12.1-21.5,14.5-37.3c1.8-11.8,2.3-24.2,2.8-36.1
			c0.8-20,1.7-40.6,8.6-60.3c10.7-30.6,34.3-57.9,66.5-76.8c30-17.7,65.3-27.8,99.3-28.5c39.4-0.8,73.2,11,95.1,33.2
			c24.4,24.7,34.3,61.8,27.1,101.7c-3.4,18.2-10,35.7-19.5,51.6c-2.6,4.4-5.5,8.8-8.3,13c-7.6,11.4-15.4,23.3-18.6,36.2
			c-3.2,12.8-2.2,30.4,11.1,38c10.5,6,23.9,5.5,36.8,5.1l4.5-0.1c21-0.6,37.2,1.7,52.6,7.3c17,6.2,32.4,16.1,45,29.1
			C785.1,395,796.8,437,788,476c-4.9,21.5-15.3,39.3-30.2,51.7c-15.3,12.7-33.8,18.6-54.7,24.3l-3.8,1c-16.6,4.6-33.7,9.3-47.9,18.9
			c-13.2,9.1-23.8,21.4-30.9,35.8c-8.3,16.8-9.5,34.9-9.5,50.3c0,18.9-0.1,38.5-8.2,57.1c-12.2,28.1-39.8,50.7-76,61.8
			C511.4,781.7,495.2,784.1,479,784.2z M535.2,61.3c-1.2,0-2.3,0-3.4,0C499.6,62,466,71.6,437.5,88.4
			c-30.2,17.8-52.2,43.2-62.1,71.5c-6.4,18.3-7.2,37.3-8,57.4c-0.5,12.2-1,24.9-2.9,37.2c-2.7,17.5-8.1,31.3-16.6,42
			c-0.1,0.1-0.2,0.3-0.2,0.5l-1.1,3.3l-3.4,0.1c-27.1,1.2-52.4,16-67.6,39.4c-18.3,28.1-15.8,67.7,6.3,98.5c10.2,14.3,24,26.5,41,36
			c12.5,7,25.8,11.5,39.9,16.2c2.6,0.9,5.2,1.8,7.9,2.6c15,5.1,30.7,11.2,42.4,23.2c12,12.3,16.6,30.2,12.9,50.4
			c-3.6,19.4-12.6,36.9-21.3,53.8l-6.1,11.8c-3.2,6.3-6.5,12.6-9.7,18.9c-4.5,8.9-8.8,17.7-11,27c-4.7,20.4,1.9,37.9,8.3,48.9
			c8.8,15,21.7,27.1,37.3,34.8c28.4,13.9,66,15.9,100.6,5.2c33.3-10.2,58.7-30.7,69.7-56.2c7.3-16.7,7.4-35.2,7.4-53.1
			c0-16.5,1.3-36,10.5-54.7c7.8-16,19.6-29.6,34.2-39.7c15.5-10.6,33.5-15.5,50.9-20.3l3.8-1c19.8-5.5,37.2-10.9,51-22.4
			c13.1-10.9,22.4-26.9,26.8-46.2c8.1-35.8-2.6-74.3-28-100.5l0,0c-11.5-11.9-25.6-21-41.2-26.7c-14.1-5.1-29.2-7.2-48.9-6.7
			l-4.4,0.1c-13.7,0.5-29.2,1-42.1-6.4c-18.2-10.4-19.9-33-15.9-49.1c3.7-14.6,12-27.2,20-39.3c2.9-4.4,5.6-8.4,8.1-12.7
			c8.9-14.9,15-31.2,18.2-48.2c6.6-36.6-2.2-70.5-24.4-92.9C594,65.7,557.1,61.3,535.2,61.3z"/>
		<path class="st0" d="M458.6,844.5c-0.8-4-5-4.4-7.6-2.5c1.6-5.8,1.5-12-0.4-17.8c-1.7-5.2-10.1-4.5-9.8,1.3c0,0.9,0,1.7,0,2.6
			c-2.1,0.5-3.7,2.4-3.7,4.6c-0.3,8.8-11.1,17.2-6.1,26.3s18.9,3.4,24.1-2.5C458.3,853.5,459.6,848.8,458.6,844.5z M448.1,849.2
			c0.3-0.5,0.6-1.1,0.8-1.7C449.1,848.2,448.8,848.9,448.1,849.2L448.1,849.2z"/>
		<path class="st0" d="M524.4,856.6c5.2,5.9,19.1,11.7,24.1,2.5s-5.8-17.5-6.1-26.3c0-2.2-1.5-4.1-3.7-4.6c0-0.8,0-1.7,0-2.6
			c0.2-5.9-8.2-6.5-9.8-1.3c-1.9,5.8-2,11.9-0.4,17.8c-2.6-1.9-6.8-1.5-7.7,2.5C519.9,848.8,521.2,853.5,524.4,856.6z M530.5,847.5
			c0.3,0.6,0.5,1.2,0.8,1.7C530.7,848.9,530.4,848.2,530.5,847.5L530.5,847.5z"/>
		<rect class="st4" width="100" height="118"/>
		<rect x="872" y="814" class="st4" width="100" height="118"/>
	</g>
</g>
</svg>
