<svg xmlns="http://www.w3.org/2000/svg" viewBox="0 0 972 932.03"><defs><style>.cls-1{fill:#b4d889;}.cls-2{fill:#57b947;}.cls-3{fill:none;}</style></defs><title>bodygreen</title><g id="Layer_2" data-name="Layer 2"><g id="Layer_1-2" data-name="Layer 1"><path class="cls-1" d="M814.17,428.64c-11.71-5.87-28,2.31-28.06,17.19,0,7.13,4.84,14.11,11.39,15.76a12.82,12.82,0,0,0,5.48.08c.65-.12,1.28-.29,1.91-.46l.24,0c0,.88,0,1.8,0,2.19q-.13,3.28-.43,6.56a123.62,123.62,0,0,1-14.1,46.73c-17,31.74-47.9,53.67-81.89,58.17-7.08.93-7.17,12.94,0,12a122.28,122.28,0,0,0,89.63-60.58A138,138,0,0,0,816,469.91c.35-3.83.89-9,.06-13.27C825.79,450.29,825.41,434.27,814.17,428.64Z"/><path class="cls-1" d="M141.83,401.64c11.71-5.87,28,2.31,28.06,17.19,0,7.13-4.84,14.11-11.39,15.76a12.82,12.82,0,0,1-5.48.08c-.65-.11-1.28-.29-1.91-.46l-.24,0c0,.88,0,1.8,0,2.19q.14,3.28.43,6.56a123.62,123.62,0,0,0,14.1,46.73c17,31.74,47.9,53.68,81.89,58.17,7.08.93,7.17,13,0,12a122.22,122.22,0,0,1-89.63-60.58A138,138,0,0,1,140,442.91c-.35-3.83-.89-9-.06-13.27C130.21,423.29,130.59,407.28,141.83,401.64Z"/><g id="_Group_" data-name="&lt;Group&gt;"><path class="cls-1" d="M554.94,729q.79,52.68-.74,105.36a4.92,4.92,0,0,1-4.68,5l-21.06,0a4.94,4.94,0,0,1-4.68-5q-1.37-36.42-2.72-72.83-.34-9-.68-18c-.17-4.44-.94-9.54,1.76-13.34,2.48-3.47,6.47-4,10.22-4.72l16.83-3.06C553.19,721.67,555.65,725.87,554.94,729ZM545,829.34q1.29-48.09.66-96.2l-8.13,1.48c-1.89.34-4.75.29-6.46,1.19-2,1.09-1.49,2.2-1.4,4.72.34,10.31.77,20.62,1.16,30.93L533,829.32Z"/><path class="cls-1" d="M545.63,733.14q.63,48.11-.66,96.2l-12,0-2.16-57.86c-.39-10.31-.82-20.62-1.16-30.93-.09-2.52-.65-3.63,1.4-4.72,1.71-.9,4.57-.85,6.46-1.19Z"/><path class="cls-1" d="M458.62,730.68c2.71,3.8,1.93,8.9,1.76,13.34q-.35,9-.68,18-1.35,36.42-2.72,72.83a4.94,4.94,0,0,1-4.68,5l-21.06,0a4.93,4.93,0,0,1-4.68-5q-1.53-52.67-.74-105.36c-.7-3.12,1.75-7.32,5.75-6.59L448.41,726C452.16,726.64,456.15,727.21,458.62,730.68ZM451.13,741c.08-2.52.64-3.63-1.41-4.72-1.71-.9-4.57-.85-6.46-1.19l-8.13-1.48q-.63,48.11.66,96.2l12,0L450,772C450.36,761.65,450.78,751.34,451.13,741Z"/><path class="cls-1" d="M449.72,736.31c2,1.09,1.49,2.2,1.41,4.72-.35,10.31-.77,20.62-1.17,30.93l-2.16,57.86-12,0q-1.29-48.09-.66-96.2l8.13,1.48C445.15,735.46,448,735.41,449.72,736.31Z"/></g><path class="cls-2" d="M737.56,434.38c-11.07-7.1-23.6-1.88-34.11,3.73-14.07-34.1-34.52-64.57-60.93-87.44a225.51,225.51,0,0,1,12.84-64.2c1.88-5.25-4.62-7.52-7.82-4.86l-29.19,24.18-13.86,11.49c-1.32,1.09-2.64,2.13-3.87,3.23-3.23-2.64-5.24-4.67-5.12-5.59s.23-1.66.33-2.49q5.26-41.39,8.32-83.09c1.05-14.4,2.56-29.08,2.58-43.53,0-20.81-3.57-21.28-15.72-5.07C577.35,199,562.32,219,547.73,237.45c-5.2,6.59-38.09,39.14-35.16,48.77q-27.74-91.13-55.44-182.28C453.69,92.63,449.08,73.86,440,67.5c2.43,1.7-11.53,72-12.51,78.64-6.72,45.67-14,91.23-20.77,136.87.81-5.42-38.45-34.92-44.15-39.89l-37.38-32.56c-1.18-1-25.9-25.1-24.73-11.3a480.2,480.2,0,0,0,26.93,122.37c.53,1.56-.77,4.49-3.23,8.22l-.12-.1a275.59,275.59,0,0,0-38.59-23.19,147.85,147.85,0,0,0-14.21-8.47L271,298c-2.87-1.62-6.9,1-6.89,4.61a4.19,4.19,0,0,0,.86,2.89c.6,1.18,1.22,2.35,1.83,3.52a5.51,5.51,0,0,0,2.33,4.5q13.07,24.9,27.45,48.94c-5.8,6.36-10.56,11.62-12.14,14-12,18.46-21.89,39.24-29.68,60.92-10.58-4-22.57-5.47-31.41,3.5-7.27,7.38-10,19.79-5.58,29.56a24.48,24.48,0,0,0,23.52,14.08c-.63,2.86-1.23,5.73-1.78,8.59-9.63,49.43-7.55,94.09,17.86,137.47,72.15,123.2,240.92,141.24,358.06,91,36.56-15.68,72.64-40,93.55-76.64,23.77-41.69,20.71-93.65,13.24-139.89q-1.79-11-4.34-21.82a11.12,11.12,0,0,0,3.11-2.45c10.22,1.28,19.79-8,23.56-17.48C748.66,453.05,747.06,440.49,737.56,434.38Z"/><path class="cls-1" d="M485.08,753.22a328.58,328.58,0,0,1-66.51-6.67c-34.93-7.23-66.55-20-94-38a225.23,225.23,0,0,1-71.59-75C229.1,592.69,223.38,549,234.48,492c.15-.77.31-1.54.46-2.33a29.55,29.55,0,0,1-21.78-16.81c-5.28-11.57-2.47-26.69,6.66-36,7.91-8,18.63-10.13,31.92-6.29a294.54,294.54,0,0,1,28.49-57.28c1.5-2.31,4.89-6.16,9.84-11.62-8.67-14.64-17-29.59-24.88-44.52a11.37,11.37,0,0,1-3.39-6.51l-.14-.27-1-1.92a9.94,9.94,0,0,1-1.69-6.09,10.64,10.64,0,0,1,4.89-8.82,9.12,9.12,0,0,1,9.31-.61l.31.16a151.64,151.64,0,0,1,14.43,8.57,281,281,0,0,1,33.95,19.93,483.58,483.58,0,0,1-26.54-121.9c-.5-6,2.31-8.43,4-9.37,4-2.15,10.17-1.76,28.63,15.49l.48.45,37.35,32.54c1.13,1,3.87,3.15,7.34,5.91,15.16,12,24.54,19.89,30.26,25.37,2.66-17.67,5.39-35.43,8.05-52.71,3.63-23.64,7.39-48.08,10.93-72.14.25-1.69,1.15-6.52,2.52-13.84,2.91-15.64,10.66-57.16,10.2-62.6a4.94,4.94,0,0,0,2.05,3.25h0l5.65-9.2h0c9.6,6.73,14.46,23.25,18,35.32.42,1.41.81,2.76,1.19,4l18.68,61.42Q496.92,217,513.14,270.3c5.08-7.7,13.36-17.32,24.57-29.58,2.74-3,5.11-5.59,6.08-6.81,14-17.77,28.44-36.92,43.2-56.61,6.37-8.5,12.15-15.35,18.3-13.05s6.6,11.51,6.59,21.57c0,11.41-.94,23-1.84,34.17-.26,3.27-.52,6.53-.75,9.78-2,27.81-4.85,55.87-8.35,83.4a.28.28,0,0,0,0,.09l14.26-11.82,29.19-24.18a10.42,10.42,0,0,1,12.88-.08,9.75,9.75,0,0,1,2.92,11.25,219.88,219.88,0,0,0-12.36,59.78C671.6,369.4,691.6,397.8,706,430.75c10.86-5.17,22.95-8.33,34.23-1.08h0c10.95,7,14.7,21.75,9.1,35.78-5.38,13.5-16.21,20.34-25.4,20.89,1.31,5.93,2.45,11.89,3.4,17.77,7,43.27,11.74,98.71-13.91,143.69-18.89,33.11-51.2,59.65-96,78.89C576.58,744.19,530.62,753.22,485.08,753.22ZM247.89,478.6l-1.57,7.19c-.67,3.08-1.24,5.84-1.75,8.46-10.52,54-5.22,95.19,17.19,133.45A214.58,214.58,0,0,0,330,699.18c26.36,17.29,56.82,29.59,90.53,36.57,63.5,13.14,133.85,6.12,193-19.27,42.72-18.33,73.36-43.37,91.07-74.41,23.87-41.85,19.25-94.71,12.56-136.09-1.15-7.09-2.58-14.29-4.26-21.41l-1-4.29,3.7-2a6,6,0,0,0,1.67-1.31l1.78-2,2.57.32c7.5.94,15.15-6.46,18.22-14.17,2.89-7.24,2.58-17.22-4.93-22-8.69-5.58-19.15-1.41-29.15,3.93l-4.84,2.59-2.18-5.29c-14.24-34.51-34.8-64-59.46-85.39l-2-1.76.14-2.81a231.46,231.46,0,0,1,12.41-63.66l-42.13,34.91-1.16.95c-.91.75-1.77,1.45-2.56,2.16l-3.16,2.82-3.28-2.67c-4.36-3.56-7.65-6.62-7.09-10.76.12-.83.23-1.63.33-2.43,3.47-27.32,6.26-55.17,8.28-82.78.24-3.27.51-6.56.77-9.85.88-11,1.78-22.31,1.8-33.26a80.22,80.22,0,0,0-.39-9.12,84.19,84.19,0,0,0-6.16,7.5c-14.8,19.75-29.26,38.95-43.36,56.82-1.22,1.53-3.47,4-6.59,7.4-5.22,5.72-12.38,13.54-18.21,21-9.1,11.6-9.34,15.14-9.33,15.5a1.29,1.29,0,0,0-.07-.35l-9.8,3.4h0q-18.39-60.42-36.77-120.86l-18.67-61.41c-.4-1.29-.8-2.67-1.23-4.12-1.73-5.88-4-13.56-6.9-19.77-.47,3.22-1.06,7-1.78,11.31-2.23,13.34-5.16,29.06-7.3,40.53-1.24,6.67-2.22,11.94-2.44,13.4-3.55,24.11-7.31,48.57-10.95,72.22-3.25,21.19-6.62,43.1-9.82,64.66h0l-10.17-1.73a3.87,3.87,0,0,0,.19,2.06C399.46,279.33,375,260,367,253.6c-3.72-2.95-6.4-5.08-7.71-6.22l-37.37-32.56c-.11-.09-.36-.32-.73-.67-7.92-7.4-12.68-10.79-15.35-12.35a471.12,471.12,0,0,0,26.33,117.82l0,.13c1.46,4.3-1.12,9.12-3.85,13.26l-3,4.57-4.33-3.34a270.18,270.18,0,0,0-37.77-22.69l-.58-.34a145,145,0,0,0-12.86-7.73c.27.54.55,1.07.83,1.61l1.27,2.45,0,1.36,1,.63.68,1.29c8.56,16.34,17.75,32.71,27.29,48.67l2.2,3.67-2.85,3.13c-4.53,5-10.18,11.16-11.6,13.34-11.29,17.32-21.08,37.42-29.1,59.75l-1.79,5-4.73-1.78c-11.72-4.42-20.27-3.67-26.15,2.29s-7.8,15.92-4.5,23.17a19.33,19.33,0,0,0,18.57,11Zm73.22-144.32.11.08Zm-.15-.12h0Z"/><path class="cls-1" d="M458.1,862.76c1.24-10.89.53-22.13.31-33a22.66,22.66,0,0,0-18.15-9.26,23.11,23.11,0,0,0-14.17,5.17c-.13,13.16-1.38,26.29-1.41,39.45a22.23,22.23,0,0,0,15.58,6.38C447,871.45,453.55,868.05,458.1,862.76Z"/><path class="cls-1" d="M555.66,828.37a22.3,22.3,0,0,0-16.12-6.92,23.85,23.85,0,0,0-17.1,7.87c.77,12.68,2.58,25.3,2.94,38a22.11,22.11,0,0,0,14.16,5.11A23.56,23.56,0,0,0,555.21,866C555.37,853.45,555.59,840.91,555.66,828.37Z"/><rect class="cls-3" width="100" height="118"/><rect class="cls-3" x="872" y="814.03" width="100" height="118"/></g></g></svg>