<svg xmlns="http://www.w3.org/2000/svg" viewBox="0 0 200 200"><defs><style>.cls-1{fill:#a8388b;}.cls-2{fill:#298ab8;}.cls-3{fill:#a9388c;}.cls-4{fill:#f8f7f0;}.cls-5{fill:#fff;}.cls-6{fill:none;stroke:#a9388c;stroke-miterlimit:10;stroke-width:0.25px;}</style></defs><title>Asset 3</title><g id="Layer_2" data-name="Layer 2"><g id="Layer_1-2" data-name="Layer 1"><circle class="cls-1" cx="100" cy="100" r="100"/><path class="cls-2" d="M98.1,119.16l-.22.27c.06-.09.14-.18.21-.28Z"/><path class="cls-3" d="M98.09,119.15c-.07.1-.15.19-.21.28l-.17.21-7.07-5.8a1.47,1.47,0,0,1,.14-.28l.2-.24Z"/><path class="cls-4" d="M97.71,119.64l.17-.21c-.85,1.1-1.8,2.3-2.78,3.5l.09-.28L87.53,120c1-2.16,2.21-4.46,3.11-6.2Z"/><path class="cls-3" d="M95.19,122.65l-.09.28-.22.27-7.58-2.58.09-.3c0-.09.09-.18.14-.28Z"/><path class="cls-2" d="M95.1,122.93l-.1.3-.12,0Z"/><path class="cls-4" d="M87.3,120.62l7.58,2.58c-1.11,1.36-2.26,2.7-3.31,3.81l-5.06-4.62-.22.24,1.1-2.31Z"/><path class="cls-4" d="M91.94,111.4l8.11,5.21c-.52.66-1.18,1.55-2,2.54L91,113.32l-.2.24,1.13-2.22S91.93,111.4,91.94,111.4Z"/><path class="cls-4" d="M92.08,111a3.33,3.33,0,0,1-.17.33c-.06-.9,4.94-9.9,5.43-10.77,6.65-11.77,14.86-22.65,23.57-33,3.23-3.83,6.59-7.53,10-11.23.94-1,7.17-8.41,8.26-5.1,1.37,4.16-2.39,10.68-4.25,14.33-2.33,4.56-5.13,8.87-7.88,13.18-8.3,13-17.39,25.67-26.84,37.91l-.12-.08.27-.37Z"/><path class="cls-3" d="M92.08,111l8.24,5.23-.27.37-8.11-5.21s0,0,0-.06A3.33,3.33,0,0,0,92.08,111Z"/><path class="cls-3" d="M91.57,127l-.21.22c-.06.08-.14.15-.21.23l-5-4.55c0-.09.09-.18.13-.28l.22-.24Z"/><path class="cls-2" d="M91.36,127.23l-.2.23h0C91.22,127.38,91.3,127.31,91.36,127.23Z"/><path class="cls-2" d="M90.58,113.79l.2-.23a1.47,1.47,0,0,0-.14.28Z"/><path class="cls-4" d="M88,129.81a3.23,3.23,0,0,1-3.25-3.4,17,17,0,0,1,1.38-3.5l5,4.55C89.81,128.84,88.67,129.78,88,129.81Z"/><path class="cls-2" d="M87.49,120h0c0,.1-.09.19-.14.28Z"/><path class="cls-5" d="M86,141.75a3.49,3.49,0,0,0,.59-.41,1.36,1.36,0,0,1-.06.29s-8.49,9.64-25.92,7.68c0,0,11.84-6.42,13-13.93,0,1.19.33,2.91,1.58,3.72,2,1.31,7.68-2.19,8.67-.92S86,140.73,86,141.75Z"/><path class="cls-2" d="M86.09,122.85l.2-.22c0,.1-.09.19-.13.28Z"/><path class="cls-4" d="M84.67,126.69c1,4.33,4,3.11,4.41,2.8,1.85,7.39-1.2,10.77-2.53,11.85.26-1.88-2.62-4.13-5-4.37s-3,1.27-5.19.51c-2-.71-2.65-3.18-2.73-3.51h0C76.17,127.81,84.67,126.69,84.67,126.69Z"/><path class="cls-3" d="M83.83,138.18c-1-1.27-6.67,2.23-8.67.92-1.25-.81-1.54-2.53-1.58-3.72a8.17,8.17,0,0,0,.09-1.4h0c.08.33.75,2.8,2.73,3.51,2.14.76,2.75-.76,5.19-.51s5.21,2.49,5,4.37a3.49,3.49,0,0,1-.59.41C86,140.73,84.81,139.46,83.83,138.18Z"/><path class="cls-5" d="M73.68,134h0v0Z"/><path class="cls-4" d="M73.67,134a8.17,8.17,0,0,1-.09,1.4,8.3,8.3,0,0,1,0-1.27A.69.69,0,0,1,73.67,134Z"/><path class="cls-6" d="M98.09,119.15c.78-1,1.44-1.88,2-2.54l.27-.37L92.08,111a3.33,3.33,0,0,1-.17.33l-1.13,2.22"/><path class="cls-6" d="M95.1,122.93c1-1.2,1.93-2.4,2.78-3.5"/><path class="cls-6" d="M91.57,127c1.05-1.11,2.2-2.45,3.31-3.81"/><path class="cls-6" d="M86.16,122.91a17,17,0,0,0-1.38,3.5,3.23,3.23,0,0,0,3.25,3.4c.64,0,1.78-1,3.12-2.35"/><path class="cls-6" d="M87.39,120.32l-1.1,2.31"/><path class="cls-6" d="M90.64,113.84c-.9,1.74-2.06,4-3.11,6.2"/></g></g></svg>