<?xml version="1.0" encoding="utf-8"?>
<!-- Generator: Adobe Illustrator 22.1.0, SVG Export Plug-In . SVG Version: 6.00 Build 0)  -->
<svg version="1.1" id="Layer_1" xmlns="http://www.w3.org/2000/svg" xmlns:xlink="http://www.w3.org/1999/xlink" x="0px" y="0px"
	 viewBox="0 0 200 200" style="enable-background:new 0 0 200 200;" xml:space="preserve">
<style type="text/css">
	.st0{fill:#A8388B;}
	.st1{fill:#298AB8;}
	.st2{fill:#A9388C;}
	.st3{fill:#F8F7F0;}
	.st4{fill:#FFFFFF;}
	.st5{fill:none;stroke:#A9388C;stroke-width:0.25;stroke-miterlimit:10;}
</style>
<title>Asset 3</title>
<g id="Layer_2_1_">
	<g id="Layer_1-2">
		<circle class="st0" cx="100" cy="100" r="100"/>
		<path class="st1" d="M98.1,119.2l-0.2,0.3C97.9,119.3,98,119.2,98.1,119.2L98.1,119.2z"/>
		<path class="st2" d="M98.1,119.2c-0.1,0.1-0.2,0.2-0.2,0.3l-0.2,0.2l-7.1-5.8c0-0.1,0.1-0.2,0.1-0.3l0.2-0.2L98.1,119.2z"/>
		<path class="st3" d="M97.7,119.6l0.2-0.2c-0.8,1.1-1.8,2.3-2.8,3.5l0.1-0.3l-7.7-2.7c1-2.2,2.2-4.5,3.1-6.2L97.7,119.6z"/>
		<path class="st2" d="M95.2,122.7l-0.1,0.3l-0.2,0.3l-7.6-2.6l0.1-0.3c0-0.1,0.1-0.2,0.1-0.3L95.2,122.7z"/>
		<path class="st1" d="M95.1,122.9l-0.1,0.3h-0.1L95.1,122.9z"/>
		<path class="st3" d="M87.3,120.6l7.6,2.6c-1.1,1.4-2.3,2.7-3.3,3.8l-5.1-4.6l-0.2,0.2l1.1-2.3L87.3,120.6z"/>
		<path class="st3" d="M91.9,111.4l8.1,5.2c-0.5,0.7-1.2,1.6-2,2.5l-7.1-5.8l-0.2,0.2L91.9,111.4C91.9,111.3,91.9,111.4,91.9,111.4z
			"/>
		<path class="st3" d="M92.1,111c-0.1,0.1-0.1,0.2-0.2,0.3c-0.1-0.9,4.9-9.9,5.4-10.8c6.7-11.8,14.9-22.7,23.6-33
			c3.2-3.8,6.6-7.5,10-11.2c0.9-1,7.2-8.4,8.3-5.1c1.4,4.2-2.4,10.7-4.2,14.3c-2.3,4.6-5.1,8.9-7.9,13.2
			c-8.3,13-17.4,25.7-26.8,37.9l-0.1-0.1l0.3-0.4L92.1,111z"/>
		<path class="st2" d="M92.1,111l8.2,5.2l-0.3,0.4l-8.1-5.2c0,0,0,0,0-0.1C92,111.2,92,111.1,92.1,111z"/>
		<path class="st2" d="M91.6,127l-0.2,0.2c-0.1,0.1-0.1,0.2-0.2,0.2l-5-4.6c0-0.1,0.1-0.2,0.1-0.3l0.2-0.2L91.6,127z"/>
		<path class="st1" d="M91.4,127.2l-0.2,0.2l0,0C91.2,127.4,91.3,127.3,91.4,127.2z"/>
		<path class="st1" d="M90.6,113.8l0.2-0.2C90.7,113.6,90.7,113.7,90.6,113.8L90.6,113.8z"/>
		<path class="st3" d="M88,129.8c-1.8,0-3.2-1.4-3.3-3.2c0-0.1,0-0.1,0-0.2c0.3-1.2,0.8-2.4,1.4-3.5l5,4.6
			C89.8,128.8,88.7,129.8,88,129.8z"/>
		<path class="st1" d="M87.5,120L87.5,120c0,0.1-0.1,0.2-0.1,0.3L87.5,120z"/>
		<path class="st4" d="M86,141.8c0.2-0.1,0.4-0.3,0.6-0.4c0,0.1,0,0.2-0.1,0.3c0,0-8.5,9.6-25.9,7.7c0,0,11.8-6.4,13-13.9
			c0,1.2,0.3,2.9,1.6,3.7c2,1.3,7.7-2.2,8.7-0.9S86,140.7,86,141.8z"/>
		<path class="st1" d="M86.1,122.8l0.2-0.2C86.3,122.7,86.2,122.8,86.1,122.8L86.1,122.8z"/>
		<path class="st3" d="M84.7,126.7c1,4.3,4,3.1,4.4,2.8c1.8,7.4-1.2,10.8-2.5,11.9c0.3-1.9-2.6-4.1-5-4.4s-3,1.3-5.2,0.5
			c-2-0.7-2.7-3.2-2.7-3.5l0,0C76.2,127.8,84.7,126.7,84.7,126.7z"/>
		<path class="st2" d="M83.8,138.2c-1-1.3-6.7,2.2-8.7,0.9c-1.2-0.8-1.5-2.5-1.6-3.7c0.1-0.5,0.1-0.9,0.1-1.4l0,0
			c0.1,0.3,0.8,2.8,2.7,3.5c2.1,0.8,2.8-0.8,5.2-0.5s5.2,2.5,5,4.4c-0.2,0.2-0.4,0.3-0.6,0.4C86,140.7,84.8,139.5,83.8,138.2z"/>
		<path class="st4" d="M73.7,134L73.7,134L73.7,134z"/>
		<path class="st3" d="M73.7,134c0,0.5,0,0.9-0.1,1.4c0-0.4,0-0.8,0-1.3C73.6,134.1,73.6,134,73.7,134z"/>
		<path class="st5" d="M98.1,119.2c0.8-1,1.4-1.9,2-2.5l0.3-0.4l-8.3-5.2c-0.1,0.1-0.1,0.2-0.2,0.3l-1.1,2.2"/>
		<path class="st5" d="M95.1,122.9c1-1.2,1.9-2.4,2.8-3.5"/>
		<path class="st5" d="M91.6,127c1.1-1.1,2.2-2.4,3.3-3.8"/>
		<path class="st5" d="M86.2,122.9c-0.6,1.1-1.1,2.3-1.4,3.5c-0.1,1.8,1.3,3.3,3.1,3.4c0.1,0,0.1,0,0.2,0c0.6,0,1.8-1,3.1-2.3"/>
		<path class="st5" d="M87.4,120.3l-1.1,2.3"/>
		<path class="st5" d="M90.6,113.8c-0.9,1.7-2.1,4-3.1,6.2"/>
	</g>
</g>
</svg>
