<svg xmlns="http://www.w3.org/2000/svg" viewBox="0 0 1231.35 1419.43"><defs><style>.cls-1{fill:#fcfcfb;}.cls-2{fill:#f8951e;}.cls-3{fill:#fdd803;}.cls-4{fill:#fff2c8;}.cls-5{fill:#ed1b6a;}.cls-6{fill:#aa3a8c;}.cls-7{fill:#fbfadb;}</style></defs><title>Asset 26</title><g id="Layer_2" data-name="Layer 2"><g id="Layer_1-2" data-name="Layer 1"><rect class="cls-1" x="22.16" y="42.71" width="1206.78" height="1133.56"/><path class="cls-2" d="M17.39,51.5c0-2.81.27-5.63.42-8.45l121.69-.34c3.55,1.34,7.52,2.35,10.6,4.09,52.41,29.49,114.31,38.67,180.31,39.45,30.38.36,60.78.72,91.1,1.92,55.86,2.21,86.33,23.07,93.93,61.14,6.66,33.39-3.34,65.47-12.15,97.83-3.67,13.49-6.75,27.24-7.09,40.91-.45,17.87,12.07,31.95,34.84,41.16,34.09,13.79,72,19.9,110.82,20.18,68,.5,136.13-1.71,204.19-1.53,24.14.06,48.61,2.66,72.3,6.11,27.51,4,50.49,14.56,71,27.74,23.69,15.25,28.54,35.32,28.6,61.37.09,33.52,5,64,24.92,92.08,28.84,40.72,72,52.8,117.92,63.82,8.75,2.1,68.42,14.59,68.16,25.22,0,38.55,0,101.23,0,105.41H18.05c-.23-3.13-.65-6.26-.65-9.38"/><path class="cls-3" d="M1228.94,772.32H0V0L6,6.49c15.79,17,28.48,36,48,50.76,51.57,39.16,119.43,55.78,195.7,57.84,36.58,1,73.25.83,109.8,2.17,50.95,1.86,79.86,18.43,91.82,51.92,8.16,22.83,7.38,45.89,1.79,69-6,24.76-12.83,49.45-17.55,74.33-4.07,21.41,7.05,39.32,34.93,50.8a237.44,237.44,0,0,0,39.86,12.1c64.69,14,131.23,11,197.57,8.81,48.74-1.63,97.48-4.72,145.86,2.55,38.39,5.77,89.34,20,110.18,56.33,12.93,22.53,4.49,50.93,11.6,75.4,7.69,26.46,24.28,50.51,47.08,66.14,33.32,22.84,146.55,77.43,206.31,66.61C1239.33,649.33,1211.76,724,1228.94,772.32Z"/><path class="cls-4" d="M1084.88,651.24l3,0c0,38,0,76.1-.13,114.16,0,2.32-1.83,4.63-2.81,7Q1084.92,711.78,1084.88,651.24Z"/><path class="cls-5" d="M1228.94,676.2v74.61H0Q0,410.19.14,69.56c0-3.12,2.08-6.24,3.18-9.36,11.14,3.46,21.85,7.68,33.49,10.23,41.86,9.16,85.73,9.8,129.4,10.87,30.41.75,60.88.68,91.23,1.85,56.91,2.2,89.43,20,101.45,54.6,8,23,8,46.06,1.88,69.16-6.2,23.55-14.14,47-19.07,70.6-5.86,28.12,10.61,49.32,45.31,59.24a505.77,505.77,0,0,0,57.75,12.54c66.39,10.74,133.89,8.12,201.35,5.56,53-2,106.19-4.44,158.78,2.73,88.83,12.11,132.75,47.64,128.9,103.84,0,.69-.2,1.38-.26,2.07-4.7,61.87,43.49,111.67,92.81,142.43,31.67,19.76,66.5,33.52,101.61,45.79C1137.74,655.14,1228.94,677.77,1228.94,676.2Z"/><path class="cls-6" d="M0,778V103.1c58.94,1.6,118.1,1.85,176.77,5.17,59.52,3.36,95.43,23.87,103.7,56.88,3.54,14.15,3.72,28.84,2.08,43.15-3.42,29.86-11.73,59.6-13.14,89.47-1.86,39.34,30,64.9,94.47,74.53,37.25,5.56,76.8,7.24,115.42,7.69,63.24.74,126.57-1.48,189.86-1.43,45.16,0,89.91,3.34,132.5,13.15C847,402.16,879.28,420.23,890.4,449c4.16,10.77,4.36,22.17,5.18,33.31,6.12,83.61,63.13,149.43,188.77,191.51,37.26,12.48,78.32,17.4,119.69,21.85,16.76,1.81,24.94,6.13,24.9,18.1-.78,212.6-.57,425.2-.57,637.8v12.73c-23.13-1-38.93-8.62-53.94-16.17-29.25-14.7-55.59-31.6-86.22-45.13-131.8-58.24-263.66-116.48-397.58-173-109.93-46.39-213-97.56-313.4-150.76C266.92,920.83,148.08,868.05,47.48,803.17,33.18,794,15.9,786.35,0,778Z"/><path class="cls-7" d="M940.9,1250c-3.64,79.89-183.87,116.86-288.76,138.38-211.36,43.35-424.11,33.65-641.6,16.52-5.23-.41-6.67-1.67-6.54-4.37.17-3.36-.55-6.74-.89-10.11C3.11,1177.38,0,961.05,0,748c33,5.67,62,12.26,90,18.88,23.31,5.52,46.13,11.77,68.32,18.51,17.51,5.32,34,11.7,50.46,17.94a236.77,236.77,0,0,1,21.89,10c6.31,3.13,12.2,6.51,18.23,9.81,20.33,11.1,36.83,23.69,48.56,38,7.83,9.52,14.72,19.27,21.28,29.07Q333,911.45,346.05,933c5.95,9.8,10.94,19.78,16.35,29.68.14.26,0,.69.26.78,8.21,2.91,400.4,199.74,419.16,205.06a41.27,41.27,0,0,0,5.72.74l.11.1,1.49.84c13.72,6.07,27.76,11.94,41,18.28,7.34,3.51,42.55,18.31,46.5,19.85,21.18,8.29,43.08,21.47,64.22,29.78C941.44,1238.28,940.9,1250,940.9,1250Z"/></g></g></svg>