<svg xmlns="http://www.w3.org/2000/svg" viewBox="0 0 194.41 155.42"><defs><style>.cls-1{fill:#fff;}.cls-2{fill:#181818;}.cls-3{fill:#8dc63f;}.cls-4{fill:none;stroke:#c34a9b;stroke-miterlimit:10;stroke-width:3px;}</style></defs><title>eye1</title><g id="Layer_2" data-name="Layer 2"><g id="Layer_1-2" data-name="Layer 1"><path class="cls-1" d="M93.71,24.6A28.33,28.33,0,1,1,65.39,52.93,28.34,28.34,0,0,1,93.71,24.6Zm11.11,28.33A11.11,11.11,0,1,0,93.71,64,11.12,11.12,0,0,0,104.82,52.93Z" transform="translate(-0.25 -0.25)"/><path class="cls-2" d="M15.51,92.74c2,2-1.13,5.17-3.14,3.14Q6.28,89.75.79,83.08C-1,80.9,2.11,77.73,3.93,79.94Q9.43,86.6,15.51,92.74Z" transform="translate(-0.25 -0.25)"/><path class="cls-1" d="M29.4,99A28.33,28.33,0,1,1,1.08,127.35,28.34,28.34,0,0,1,29.4,99Zm11.11,28.33a11.11,11.11,0,1,0-11.11,11.1A11.12,11.12,0,0,0,40.51,127.35Z" transform="translate(-0.25 -0.25)"/><path class="cls-2" d="M32.32,91.24c.14,2.86-4.32,2.85-4.44,0q-.36-8.05-.74-16.1c-.13-2.86,4.32-2.84,4.44,0Q32,83.2,32.32,91.24Z" transform="translate(-0.25 -0.25)"/><circle class="cls-3" cx="29.15" cy="127.1" r="11.11"/><path class="cls-2" d="M162.32,74.59c-.12-2.87,4.32-2.85,4.45,0q.36,8,.74,16.09c.12,2.87-4.32,2.86-4.44,0C162.81,85.32,162.57,80,162.32,74.59Z" transform="translate(-0.25 -0.25)"/><path class="cls-2" d="M121.23,7.19c1.81-2.21,4.94,1,3.13,3.14q-5.49,6.66-11.58,12.8c-2,2-5.15-1.11-3.14-3.15Q115.74,13.86,121.23,7.19Z" transform="translate(-0.25 -0.25)"/><path class="cls-2" d="M97.75,18.48c.13,2.87-4.31,2.86-4.45,0L92.57,2.39c-.13-2.87,4.31-2.84,4.44,0Z" transform="translate(-0.25 -0.25)"/><path class="cls-2" d="M80.94,20c2,2-1.12,5.18-3.14,3.15Q71.71,17,66.22,10.33C64.41,8.14,67.54,5,69.35,7.19Q74.85,13.85,80.94,20Z" transform="translate(-0.25 -0.25)"/><path class="cls-1" d="M165.14,154.56a28.33,28.33,0,1,1,28.33-28.32A28.31,28.31,0,0,1,165.14,154.56Zm0-39.43a11.11,11.11,0,1,0,11.11,11.11A11.1,11.1,0,0,0,165.14,115.13Z" transform="translate(-0.25 -0.25)"/><path class="cls-2" d="M191,79.39c1.82-2.21,4.94,1,3.14,3.14q-5.49,6.66-11.57,12.79c-2,2-5.17-1.11-3.14-3.14Q185.49,86,191,79.39Z" transform="translate(-0.25 -0.25)"/><path class="cls-2" d="M55.79,79.94c1.82-2.21,5,1,3.15,3.14q-5.5,6.67-11.58,12.8c-2,2-5.16-1.11-3.14-3.14Q50.3,86.61,55.79,79.94Z" transform="translate(-0.25 -0.25)"/><path class="cls-2" d="M150.69,92.18c2,2-1.12,5.18-3.14,3.14Q141.48,89.2,136,82.53c-1.8-2.19,1.32-5.35,3.14-3.14Q144.63,86.05,150.69,92.18Z" transform="translate(-0.25 -0.25)"/><circle class="cls-3" cx="164.9" cy="125.99" r="11.11"/><circle class="cls-3" cx="93.46" cy="52.68" r="11.11"/><circle class="cls-4" cx="93.46" cy="52.68" r="11.11"/><circle class="cls-4" cx="164.9" cy="125.99" r="11.11"/><circle class="cls-4" cx="29.15" cy="127.1" r="11.11"/></g></g></svg>