<svg xmlns="http://www.w3.org/2000/svg" viewBox="0 0 263.21 115.21"><defs><style>.cls-1{fill:#452160;}.cls-2{fill:#fff;}.cls-3{fill:#2f2f30;}.cls-4{fill:#623a84;}</style></defs><title>eye3</title><g id="Layer_2" data-name="Layer 2"><g id="Layer_1-2" data-name="Layer 1"><circle class="cls-1" cx="52.61" cy="62.61" r="52.61"/><path class="cls-2" d="M93.13,63.37A39.73,39.73,0,1,0,32.24,97c-.31-10.78,1.55-31.9,20.07-37.39,19.82-5.87,20.57,25.23,20,38.73A39.71,39.71,0,0,0,93.13,63.37Z"/><path class="cls-3" d="M52.31,59.6C33.79,65.09,31.93,86.21,32.24,97A39.69,39.69,0,0,0,72.3,98.33C72.88,84.83,72.13,53.73,52.31,59.6Z"/><path class="cls-4" d="M16.43,38.48s38,15,73,1c0,0-12.33-21.67-35-21S16.43,38.48,16.43,38.48Z"/><circle class="cls-1" cx="210.61" cy="52.61" r="52.61"/><path class="cls-2" d="M170.08,53.37A39.74,39.74,0,1,1,231,87c.31-10.78-1.55-31.9-20.07-37.39-19.82-5.87-20.56,25.23-20,38.73A39.71,39.71,0,0,1,170.08,53.37Z"/><path class="cls-3" d="M210.9,49.6C229.42,55.09,231.28,76.21,231,87a39.69,39.69,0,0,1-40.06,1.34C190.34,74.83,191.08,43.73,210.9,49.6Z"/><path class="cls-4" d="M246.78,28.48s-38,15-73,1c0,0,12.33-21.67,35-21S246.78,28.48,246.78,28.48Z"/></g></g></svg>