<svg xmlns="http://www.w3.org/2000/svg" viewBox="0 0 393.61 100.18"><defs><style>.cls-1{fill:#fff;}.cls-2{fill:#efd0b6;}.cls-3{fill:#9bd7d4;}.cls-4{fill:#4f7372;}</style></defs><title>eyes4</title><g id="Layer_2" data-name="Layer 2"><g id="Layer_1-2" data-name="Layer 1"><path class="cls-1" d="M294.88,91c-15.75,0-28.59-10.44-29.22-23.5H217.11c-1.79,1.87-2.73,3-2.73,3,99.55,64.19,154.08,5.49,161.19-3H324.1C323.48,80.58,310.64,91,294.88,91Z"/><path class="cls-1" d="M94.63,91C78.88,91,66,80.58,65.41,67.52H20.11c-1.79,1.87-2.73,3-2.73,3,99.55,64.19,154.08,5.49,161.19-3H123.85C123.23,80.58,110.39,91,94.63,91Z"/><path class="cls-2" d="M217.11,67.52h48.55c0-.34,0-.67,0-1,0-13.53,13.1-24.5,29.25-24.5s29.25,11,29.25,24.5c0,.33,0,.66,0,1h51.47c.54-.64.81-1,.81-1C299.1-9.88,231.29,52.61,217.11,67.52Z"/><path class="cls-2" d="M20.11,67.52h45.3c0-.34,0-.67,0-1C65.38,53,78.48,42,94.63,42s29.25,11,29.25,24.5c0,.33,0,.66,0,1h54.72c.54-.64.81-1,.81-1C102.1-9.88,34.29,52.61,20.11,67.52Z"/><path class="cls-3" d="M94.63,91c15.76,0,28.6-10.44,29.22-23.5H65.41C66,80.58,78.88,91,94.63,91Z"/><path class="cls-2" d="M123.88,66.52C123.88,53,110.79,42,94.63,42S65.38,53,65.38,66.52c0,.33,0,.66,0,1h58.44C123.87,67.18,123.88,66.85,123.88,66.52Z"/><path class="cls-3" d="M294.88,91c15.76,0,28.6-10.44,29.22-23.5H265.66C266.29,80.58,279.13,91,294.88,91Z"/><path class="cls-2" d="M324.13,66.52C324.13,53,311,42,294.88,42s-29.25,11-29.25,24.5c0,.33,0,.66,0,1H324.1C324.12,67.18,324.13,66.85,324.13,66.52Z"/><path class="cls-4" d="M323.7,1.44a35.14,35.14,0,0,1-16.26,24c-2.18,1.35-.18,4.81,2,3.45a39,39,0,0,0,18.1-26.35C328,0,324.17-1.09,323.7,1.44Z"/><path class="cls-4" d="M343.37,5.13A62.57,62.57,0,0,1,337,16.75c-2.16,3.08-7.42,11.19-12,10.21-2.51-.54-3.58,3.31-1.06,3.85,5.9,1.27,10-3.84,13.42-8a67,67,0,0,0,9.89-16.66C348.22,3.82,344.35,2.79,343.37,5.13Z"/><path class="cls-4" d="M359.14,11.51a24.79,24.79,0,0,1-18.2,19.94c-2.49.65-1.44,4.51,1.06,3.85a28.68,28.68,0,0,0,21-22.72C363.44,10.06,359.58,9,359.14,11.51Z"/><path class="cls-4" d="M377.18,15.51c-.39-2.54-4.25-1.46-3.86,1.06,1.22,7.84-7.6,23.18-16.86,21.88-2.52-.36-3.61,3.49-1.07,3.85C368.12,44.1,378.93,26.79,377.18,15.51Z"/><path class="cls-4" d="M392.93,20.62c-.66-2.48-4.52-1.43-3.86,1.07,1.78,6.72-1,13-5.19,18.21s-9.73,10.82-16.95,9.57c-2.52-.43-3.6,3.42-1.07,3.86,8.86,1.53,15.55-4.11,20.85-10.6C391.87,36.4,395.09,28.8,392.93,20.62Z"/><path class="cls-4" d="M69.91,1.44a35.14,35.14,0,0,0,16.26,24c2.18,1.35.18,4.81-2,3.45A39.06,39.06,0,0,1,66.05,2.51C65.59,0,69.45-1.09,69.91,1.44Z"/><path class="cls-4" d="M50.24,5.13a62.57,62.57,0,0,0,6.4,11.62c2.16,3.08,7.42,11.19,12,10.21,2.51-.54,3.58,3.31,1.06,3.85-5.89,1.27-10-3.84-13.42-8A67.28,67.28,0,0,1,46.39,6.19C45.39,3.82,49.26,2.79,50.24,5.13Z"/><path class="cls-4" d="M34.47,11.51A24.79,24.79,0,0,0,52.68,31.45c2.48.65,1.43,4.51-1.07,3.85a28.69,28.69,0,0,1-21-22.72C30.18,10.06,34,9,34.47,11.51Z"/><path class="cls-4" d="M16.43,15.51c.39-2.54,4.25-1.46,3.86,1.06-1.22,7.84,7.6,23.18,16.86,21.88,2.52-.36,3.61,3.49,1.07,3.85C25.49,44.1,14.68,26.79,16.43,15.51Z"/><path class="cls-4" d="M.68,20.62c.66-2.48,4.52-1.43,3.86,1.07-1.78,6.72,1,13,5.19,18.21s9.73,10.82,17,9.57c2.52-.43,3.6,3.42,1.07,3.86C18.89,54.86,12.2,49.22,6.9,42.73,1.74,36.4-1.48,28.8.68,20.62Z"/><path class="cls-4" d="M80.88,68c0,8.3,5.41,15,12.08,15S105,76.28,105,68c0-.16,0-.31,0-.46H80.9C80.9,67.67,80.88,67.82,80.88,68Z"/><path class="cls-4" d="M282.88,68c0,8.3,5.41,15,12.08,15S307,76.28,307,68c0-.16,0-.31,0-.46H282.9C282.9,67.67,282.88,67.82,282.88,68Z"/></g></g></svg>