<svg xmlns="http://www.w3.org/2000/svg" viewBox="0 0 972 932.03"><defs><style>.cls-1{fill:#fff;}.cls-2{fill:#efd0b6;}.cls-3{fill:#9bd7d4;}.cls-4{fill:#4f7372;}.cls-5{fill:none;}</style></defs><title>eyes4_2</title><g id="Layer_2" data-name="Layer 2"><g id="Layer_1-2" data-name="Layer 1"><path class="cls-1" d="M572.53,437.47c-13.81,0-25.06-10.43-25.61-23.5H504.35c-1.56,1.88-2.38,3-2.38,3,87.25,64.2,135,5.49,141.28-3H598.14C597.59,427,586.34,437.47,572.53,437.47Z"/><path class="cls-1" d="M397,437.47C383.2,437.47,372,427,371.4,414H331.68c-1.56,1.88-2.38,3-2.38,3,87.25,64.2,135.05,5.49,141.28-3h-48C422.07,427,410.82,437.47,397,437.47Z"/><path class="cls-2" d="M504.35,414h42.57c0-.33,0-.66,0-1,0-13.53,11.48-24.5,25.64-24.5s25.64,11,25.64,24.5c0,.34,0,.67,0,1h45.11c.47-.63.71-1,.71-1C576.22,336.58,516.79,399.06,504.35,414Z"/><path class="cls-2" d="M331.68,414H371.4c0-.33,0-.66,0-1,0-13.53,11.48-24.5,25.64-24.5s25.64,11,25.64,24.5c0,.34,0,.67,0,1h48c.47-.63.71-1,.71-1C403.55,336.58,344.12,399.06,331.68,414Z"/><path class="cls-3" d="M397,437.47c13.81,0,25.06-10.43,25.61-23.5H371.4C372,427,383.2,437.47,397,437.47Z"/><path class="cls-2" d="M422.65,413c0-13.53-11.48-24.5-25.64-24.5s-25.64,11-25.64,24.5c0,.34,0,.67,0,1h51.22C422.63,413.64,422.65,413.31,422.65,413Z"/><path class="cls-3" d="M572.53,437.47c13.81,0,25.06-10.43,25.61-23.5H546.92C547.47,427,558.72,437.47,572.53,437.47Z"/><path class="cls-2" d="M598.17,413c0-13.53-11.48-24.5-25.64-24.5s-25.64,11-25.64,24.5c0,.34,0,.67,0,1h51.22C598.15,413.64,598.17,413.31,598.17,413Z"/><path class="cls-4" d="M597.79,347.9c-1.62,10.06-6.61,18.57-14.25,24-1.92,1.35-.16,4.81,1.77,3.46,8.37-5.91,14.08-15.3,15.86-26.36C601.57,346.45,598.19,345.37,597.79,347.9Z"/><path class="cls-4" d="M615,351.58a65.63,65.63,0,0,1-5.6,11.63c-1.9,3.07-6.51,11.19-10.52,10.2-2.2-.54-3.14,3.31-.93,3.86,5.17,1.27,8.79-3.84,11.76-8a69.36,69.36,0,0,0,8.67-16.66C619.28,350.28,615.89,349.24,615,351.58Z"/><path class="cls-4" d="M628.85,358c-1.47,9.69-7.59,17.43-16,19.93-2.18.65-1.25,4.51.93,3.86,9.46-2.82,16.74-11.72,18.41-22.73C632.61,356.51,629.24,355.43,628.85,358Z"/><path class="cls-4" d="M644.66,362c-.34-2.53-3.72-1.46-3.38,1.07,1.07,7.83-6.66,23.18-14.78,21.87-2.21-.36-3.16,3.5-.94,3.86C636.72,390.55,646.19,373.24,644.66,362Z"/><path class="cls-4" d="M658.46,367.08c-.58-2.49-4-1.43-3.38,1.06,1.56,6.72-.88,13-4.55,18.21s-8.52,10.83-14.86,9.58c-2.2-.44-3.15,3.42-.93,3.85,7.77,1.54,13.63-4.1,18.27-10.6C657.54,382.85,660.36,375.25,658.46,367.08Z"/><path class="cls-4" d="M375.34,347.9c1.61,10.06,6.6,18.57,14.25,24,1.91,1.35.16,4.81-1.77,3.46C379.45,369.41,373.73,360,372,349,371.55,346.45,374.93,345.37,375.34,347.9Z"/><path class="cls-4" d="M358.1,351.58a65,65,0,0,0,5.61,11.63c1.89,3.07,6.5,11.19,10.51,10.2,2.2-.54,3.14,3.31.94,3.86-5.17,1.27-8.8-3.84-11.76-8a69.39,69.39,0,0,1-8.68-16.66C353.85,350.28,357.24,349.24,358.1,351.58Z"/><path class="cls-4" d="M344.27,358c1.48,9.69,7.6,17.43,16,19.93,2.18.65,1.26,4.51-.93,3.86-9.45-2.82-16.73-11.72-18.41-22.73C340.51,356.51,343.89,355.43,344.27,358Z"/><path class="cls-4" d="M328.46,362c.35-2.53,3.73-1.46,3.38,1.07-1.06,7.83,6.67,23.18,14.79,21.87,2.21-.36,3.16,3.5.93,3.86C336.41,390.55,326.93,373.24,328.46,362Z"/><path class="cls-4" d="M314.66,367.08c.58-2.49,4-1.43,3.38,1.06-1.56,6.72.88,13,4.55,18.21s8.53,10.83,14.86,9.58c2.21-.44,3.16,3.42.93,3.85-7.76,1.54-13.62-4.1-18.27-10.6C315.59,382.85,312.76,375.25,314.66,367.08Z"/><path class="cls-4" d="M385,414.43c0,8.31,4.73,15,10.58,15s10.58-6.73,10.58-15c0-.15,0-.3,0-.46H385C385,414.13,385,414.28,385,414.43Z"/><path class="cls-4" d="M562,414.43c0,8.31,4.74,15,10.58,15s10.59-6.73,10.59-15c0-.15,0-.3,0-.46H562C562,414.13,562,414.28,562,414.43Z"/><rect class="cls-5" width="100" height="118"/><rect class="cls-5" x="872" y="814.03" width="100" height="118"/></g></g></svg>