<svg xmlns="http://www.w3.org/2000/svg" viewBox="0 0 972 932.03"><defs><style>.cls-1{fill:#452160;}.cls-2{fill:#fff;}.cls-3{fill:#2f2f30;}.cls-4{fill:#623a84;}.cls-5{fill:none;}</style></defs><title>eyes1_1</title><g id="Layer_2" data-name="Layer 2"><g id="Layer_1-2" data-name="Layer 1"><circle class="cls-1" cx="402.72" cy="423.03" r="52.61"/><path class="cls-2" d="M443.25,423.79a39.74,39.74,0,1,0-60.9,33.62c-.31-10.78,1.55-31.9,20.07-37.39,19.82-5.87,20.57,25.23,20,38.73A39.72,39.72,0,0,0,443.25,423.79Z"/><path class="cls-3" d="M402.42,420c-18.52,5.49-20.38,26.61-20.07,37.39a39.69,39.69,0,0,0,40.06,1.34C423,445.25,422.24,414.15,402.42,420Z"/><path class="cls-4" d="M366.54,398.9s38,15,73,1c0,0-12.33-21.67-35-21S366.54,398.9,366.54,398.9Z"/><circle class="cls-1" cx="560.72" cy="413.03" r="52.61"/><path class="cls-2" d="M520.19,413.79a39.74,39.74,0,1,1,60.9,33.62c.3-10.78-1.56-31.9-20.08-37.39-19.81-5.87-20.56,25.23-20,38.73A39.72,39.72,0,0,1,520.19,413.79Z"/><path class="cls-3" d="M561,410c18.52,5.49,20.38,26.61,20.08,37.39A39.69,39.69,0,0,1,541,448.75C540.45,435.25,541.2,404.15,561,410Z"/><path class="cls-4" d="M596.89,388.9s-38,15-73,1c0,0,12.34-21.67,35-21S596.89,388.9,596.89,388.9Z"/><rect class="cls-5" width="100" height="118"/><rect class="cls-5" x="872" y="814.03" width="100" height="118"/></g></g></svg>