<svg xmlns="http://www.w3.org/2000/svg" viewBox="0 0 972 932.03"><defs><style>.cls-1{fill:#181818;}.cls-2{fill:#fff;}.cls-3{fill:#8dc63f;}.cls-4,.cls-5{fill:none;}.cls-4{stroke:#c34a9b;stroke-miterlimit:10;stroke-width:3px;}</style></defs><title>eyes3_1</title><g id="Layer_2" data-name="Layer 2"><g id="Layer_1-2" data-name="Layer 1"><path class="cls-1" d="M577.27,404.36c1.82-2.21,4.94.95,3.14,3.14q-5.5,6.66-11.57,12.8c-2,2-5.17-1.11-3.15-3.15Q571.78,411,577.27,404.36Z"/><path class="cls-2" d="M551.43,422.88a28.33,28.33,0,1,1-28.32,28.33A28.33,28.33,0,0,1,551.43,422.88Zm11.11,28.33a11.11,11.11,0,1,0-11.11,11.11A11.12,11.12,0,0,0,562.54,451.21Z"/><circle class="cls-3" cx="551.43" cy="451.21" r="11.11"/><path class="cls-1" d="M553.8,415.65c.12,2.87-4.32,2.86-4.45,0q-.37-8-.74-16.09c-.12-2.87,4.32-2.84,4.44,0C553.3,404.92,553.54,410.29,553.8,415.65Z"/><path class="cls-1" d="M537,417.15c2,2-1.12,5.18-3.14,3.15q-6.09-6.14-11.58-12.8c-1.8-2.19,1.32-5.35,3.15-3.14Q530.9,411,537,417.15Z"/><path class="cls-1" d="M507.51,332.16c1.81-2.21,5,1,3.13,3.14q-5.47,6.68-11.57,12.8c-2,2-5.15-1.11-3.14-3.14Q502,338.83,507.51,332.16Z"/><path class="cls-2" d="M480,349.58a28.32,28.32,0,1,1-28.32,28.32A28.32,28.32,0,0,1,480,349.58Zm11.11,28.32A11.11,11.11,0,1,0,480,389,11.12,11.12,0,0,0,491.11,377.9Z"/><circle class="cls-3" cx="480" cy="377.9" r="11.11"/><path class="cls-1" d="M484,343.46c.13,2.86-4.31,2.85-4.44,0l-.73-16.1c-.14-2.86,4.31-2.84,4.44,0Z"/><path class="cls-1" d="M467.23,345c2,2-1.13,5.17-3.15,3.14Q458,342,452.51,335.3c-1.81-2.18,1.32-5.35,3.13-3.14Q461.15,338.82,467.23,345Z"/><path class="cls-1" d="M442.08,404.91c1.82-2.21,4.95,1,3.14,3.15q-5.49,6.66-11.57,12.79c-2,2-5.17-1.11-3.14-3.14Q436.59,411.58,442.08,404.91Z"/><path class="cls-2" d="M415.69,424a28.32,28.32,0,1,1-28.33,28.32A28.32,28.32,0,0,1,415.69,424Zm11.11,28.32a11.11,11.11,0,1,0-11.11,11.11A11.12,11.12,0,0,0,426.8,452.32Z"/><circle class="cls-3" cx="415.69" cy="452.32" r="11.11"/><path class="cls-1" d="M418.61,416.21c.13,2.86-4.32,2.85-4.44,0-.25-5.37-.49-10.73-.75-16.1-.12-2.86,4.32-2.84,4.45,0Q418.25,408.17,418.61,416.21Z"/><path class="cls-1" d="M401.79,417.71c2,2-1.12,5.17-3.13,3.14q-6.09-6.14-11.58-12.79c-1.8-2.19,1.32-5.36,3.14-3.15Q395.71,411.59,401.79,417.71Z"/><circle class="cls-4" cx="480" cy="377.9" r="11.11"/><circle class="cls-4" cx="551.43" cy="451.21" r="11.11"/><circle class="cls-4" cx="415.69" cy="452.32" r="11.11"/><rect class="cls-5" width="100" height="118"/><rect class="cls-5" x="872" y="814.03" width="100" height="118"/></g></g></svg>