<?xml version="1.0" encoding="utf-8"?>
<!-- Generator: Adobe Illustrator 22.1.0, SVG Export Plug-In . SVG Version: 6.00 Build 0)  -->
<svg version="1.1" id="Layer_1" xmlns="http://www.w3.org/2000/svg" xmlns:xlink="http://www.w3.org/1999/xlink" x="0px" y="0px"
	 viewBox="0 0 714.2 726.5" style="enable-background:new 0 0 714.2 726.5;" xml:space="preserve">
<style type="text/css">
	.st0{fill:#B4D889;}
	.st1{fill:#57B947;}
</style>
<title>greenBody</title>
<g id="Layer_2_1_">
	<g id="Layer_1-2">
		<path class="st0" d="M666.2,332.3c-10.8-5.1-25.7,2-25.8,14.8c0,6.1,4.5,12.1,10.5,13.6c1.7,0.4,3.4,0.4,5,0.1
			c0.6-0.1,1.2-0.2,1.7-0.4l0.2,0c0,0.8,0,1.5,0,1.9c-0.1,1.9-0.2,3.8-0.4,5.6c-4.8,47-41.4,84.4-88.2,90.3
			c-6.5,0.8-6.6,11.1,0,10.3c33.8-4.2,64.5-23,82.4-52.2c9-14.7,14.6-31.3,16.3-48.5c0.3-3.3,0.9-7.7,0.1-11.4
			C676.8,351,676.5,337.2,666.2,332.3z"/>
		<path class="st0" d="M48.1,309.1c10.8-5.1,25.7,2,25.8,14.8c0,6.1-4.5,12.1-10.5,13.6c-1.7,0.4-3.4,0.4-5,0.1
			c-0.6-0.1-1.2-0.2-1.7-0.4l-0.2,0c0,0.8,0,1.5,0,1.9c0.1,1.9,0.2,3.8,0.4,5.6c4.8,47,41.3,84.4,88.2,90.3c6.5,0.8,6.6,11.2,0,10.3
			c-33.7-4.2-64.5-23-82.4-52.2c-9-14.7-14.5-31.3-16.2-48.5c-0.3-3.3-0.9-7.7-0.1-11.4C37.4,327.7,37.8,313.9,48.1,309.1z"/>
		<g id="_Group_">
			<path class="st0" d="M427.9,590.9c0.5,30.2,0.3,60.5-0.7,90.7c0,2.4-1.9,4.3-4.3,4.3h-19.4c-2.4,0-4.3-1.9-4.3-4.3l-2.5-62.7
				l-0.6-15.5c-0.2-3.8-0.9-8.2,1.6-11.5c2.3-3,5.9-3.4,9.4-4.1l15.5-2.6C426.2,584.6,428.5,588.3,427.9,590.9z M418.7,677.3
				c0.8-27.6,1-55.2,0.6-82.8l-7.5,1.3c-1.7,0.3-4.4,0.2-5.9,1c-1.9,0.9-1.4,1.9-1.3,4.1c0.3,8.9,0.7,17.8,1.1,26.6l2,49.8
				L418.7,677.3z"/>
			<path class="st0" d="M419.3,594.5c0.4,27.6,0.2,55.2-0.6,82.8h-11l-2-49.8c-0.4-8.9-0.7-17.8-1.1-26.6c-0.1-2.2-0.6-3.1,1.3-4.1
				c1.6-0.8,4.2-0.7,5.9-1L419.3,594.5z"/>
			<path class="st0" d="M339.3,592.4c2.5,3.3,1.8,7.7,1.6,11.5l-0.6,15.5l-2.5,62.7c0,2.4-1.9,4.3-4.3,4.3h-19.4
				c-2.4,0-4.3-1.9-4.3-4.3c-0.9-30.2-1.2-60.5-0.7-90.7c-0.6-2.7,1.6-6.3,5.3-5.7l15.5,2.6C333.4,588.9,337,589.4,339.3,592.4z
				 M332.4,601.3c0.1-2.2,0.6-3.1-1.3-4.1c-1.6-0.8-4.2-0.7-5.9-1l-7.5-1.3c-0.4,27.6-0.2,55.2,0.6,82.8h11l2-49.8
				C331.7,619.1,332.1,610.2,332.4,601.3z"/>
			<path class="st0" d="M331.1,597.2c1.9,0.9,1.4,1.9,1.3,4.1c-0.3,8.9-0.7,17.8-1.1,26.6l-2,49.8h-11c-0.8-27.6-1-55.2-0.6-82.8
				l7.5,1.3C326.9,596.5,329.6,596.5,331.1,597.2z"/>
		</g>
		<path class="st1" d="M595.7,337.3c-10.2-6.1-21.7-1.6-31.3,3.2c-12.9-29.4-31.7-55.6-56-75.3c1.1-18.9,5-37.6,11.8-55.3
			c1.7-4.5-4.3-6.5-7.2-4.2l-26.8,20.8l-12.7,9.9c-1.2,0.9-2.4,1.8-3.5,2.8c-3-2.3-4.8-4-4.7-4.8c0.1-0.8,0.2-1.4,0.3-2.1
			c3.2-23.8,5.8-47.6,7.6-71.5c1-12.4,2.4-25,2.4-37.5c0-17.9-3.3-18.3-14.5-4.4c-12.6,15.7-26.4,32.9-39.8,48.8
			c-4.8,5.7-35,33.7-32.3,42c-17-52.3-34-104.6-51-157c-3.2-9.7-7.4-25.8-15.7-31.3c2.2,1.5-10.6,62-11.5,67.7
			c-6.2,39.3-12.9,78.6-19.1,117.8c0.7-4.7-35.3-30.1-40.6-34.3l-34.4-28c-1.1-0.9-23.8-21.6-22.7-9.7
			c3.3,36.1,11.7,71.6,24.8,105.4c0.5,1.3-0.7,3.9-3,7.1l-0.1-0.1c-11.3-7.6-23.1-14.3-35.5-20c-4.2-2.7-8.6-5.1-13.1-7.3l-0.2-0.1
			c-2.6-1.4-6.3,0.9-6.3,4c-0.1,0.9,0.2,1.8,0.8,2.5c0.6,1,1.1,2,1.7,3c0,1.6,0.8,3,2.1,3.9c8,14.3,16.4,28.3,25.2,42.1
			c-5.3,5.5-9.7,10-11.2,12.1c-11.1,15.9-20.1,33.8-27.3,52.5c-9.7-3.4-20.8-4.7-28.9,3c-6.7,6.4-9.2,17-5.2,25.5
			c3.9,8,12.9,12.7,21.6,12.1c-0.6,2.5-1.1,4.9-1.6,7.4c-8.8,42.6-6.9,81,16.4,118.4c66.3,106.1,221.5,121.6,329.2,78.4
			c33.6-13.5,66.8-34.4,86-66c21.9-35.9,19-80.6,12.2-120.4c-1.1-6.3-2.4-12.6-4-18.8c1.1-0.5,2-1.2,2.9-2.1
			c9.4,1.1,18.2-6.9,21.7-15.1C605.9,353.4,604.5,342.5,595.7,337.3z"/>
		<path class="st0" d="M363.6,611.8c-20.5,0-41-1.9-61.1-5.7c-32.1-6.2-61.1-17.2-86.4-32.7c-27.4-16.8-49.5-38.6-65.8-64.6
			c-22-35.2-27.3-72.7-17-121.8c0.1-0.7,0.3-1.3,0.4-2c-8.6-1.3-16.1-6.7-20-14.5c-4.8-10-2.3-23,6.1-31c7.3-6.9,17.1-8.7,29.3-5.4
			c6.8-17.4,15.6-33.9,26.2-49.3c1.4-2,4.5-5.3,9-10c-8-12.6-15.7-25.5-22.9-38.3c-1.6-1.5-2.7-3.4-3.1-5.6l-0.1-0.2l-0.9-1.7
			c-1.1-1.5-1.6-3.4-1.5-5.2c0.1-3.1,1.8-6,4.5-7.6c2.6-1.6,5.8-1.8,8.6-0.5l0.3,0.1c4.5,2.2,9,4.7,13.3,7.4
			c10.8,5,21.2,10.7,31.2,17.2c-12.9-33.7-21.1-69-24.4-105c-0.5-5.2,2.1-7.3,3.7-8.1c3.6-1.9,9.4-1.5,26.3,13.3l0.4,0.4L254,169
			c1,0.9,3.6,2.7,6.7,5.1c13.9,10.3,22.6,17.1,27.8,21.8c2.4-15.2,5-30.5,7.4-45.4c3.3-20.4,6.8-41.4,10-62.1
			c0.2-1.5,1.1-5.6,2.3-11.9c2.7-13.5,9.8-49.3,9.4-53.9c0.2,1.2,0.9,2.2,1.9,2.8l0,0l5.2-7.9l0,0c8.8,5.8,13.3,20,16.6,30.4
			c0.4,1.2,0.7,2.4,1.1,3.4l17.2,52.9c9.9,30.6,19.9,61.2,29.8,91.8c4.7-6.6,12.3-14.9,22.6-25.5c2.5-2.6,4.7-4.8,5.6-5.9
			c12.9-15.3,26.1-31.8,39.7-48.7c5.9-7.3,11.2-13.2,16.8-11.2c5.6,2,6,9.9,6,18.6c0,9.8-0.9,19.8-1.7,29.4
			c-0.2,2.8-0.5,5.6-0.7,8.4c-1.9,23.9-4.5,48.1-7.7,71.8c0,0,0,0.1,0,0.1l13.1-10.2l26.9-20.8c3.5-2.6,8.3-2.6,11.8-0.1
			c3,2.2,4.2,6.2,2.7,9.7c-6.3,16.5-10.1,33.8-11.4,51.5c21.9,18.2,40.2,42.7,53.5,71.1c10-4.5,21.1-7.2,31.5-0.9l0,0
			c10.1,6,13.5,18.7,8.4,30.8c-4.9,11.6-14.9,17.5-23.4,18c1.2,5.1,2.3,10.2,3.1,15.3c6.4,37.3,10.7,85-12.8,123.7
			c-17.4,28.5-47.1,51.4-88.3,67.9C447.7,604,405.5,611.8,363.6,611.8z M145.6,375.4l-1.4,6.2c-0.6,2.7-1.1,5-1.6,7.3
			c-9.7,46.5-4.8,82,15.8,114.9c15.5,24.8,36.6,45.5,62.7,61.5c24.2,14.9,52.2,25.5,83.2,31.5c58.4,11.3,123,5.3,177.4-16.6
			c39.3-15.8,67.4-37.3,83.7-64.1c21.9-36,17.7-81.5,11.5-117.2c-1.1-6.1-2.4-12.3-3.9-18.4l-0.9-3.7l3.4-1.7
			c0.6-0.3,1.1-0.7,1.5-1.1l1.6-1.7l2.4,0.3c6.9,0.8,13.9-5.6,16.7-12.2c2.7-6.2,2.4-14.8-4.5-18.9c-8-4.8-17.6-1.2-26.8,3.4
			L562,347l-2-4.6c-13.1-29.7-32-55.1-54.7-73.5l-1.9-1.5l0.1-2.4c1-18.7,4.9-37.2,11.4-54.8l-38.7,30.1l-1.1,0.8
			c-0.9,0.6-1.6,1.2-2.4,1.9l-2.9,2.4l-3-2.3c-4-3.1-7-5.7-6.5-9.3c0.1-0.7,0.2-1.4,0.3-2.1c3.2-23.5,5.8-47.5,7.6-71.3
			c0.2-2.8,0.5-5.6,0.7-8.5c0.8-9.5,1.6-19.2,1.7-28.6c0-2.6-0.1-5.2-0.4-7.9c-2,2-3.9,4.2-5.7,6.5c-13.6,17-26.9,33.5-39.8,48.9
			c-1.1,1.3-3.2,3.4-6,6.4c-4.8,4.9-11.4,11.7-16.7,18.1c-8.4,10-8.6,13-8.6,13.3c0-0.1,0-0.2-0.1-0.3l-9,2.9l0,0
			c-11.3-34.7-22.5-69.4-33.8-104.1l-17.2-52.9c-0.4-1.1-0.7-2.3-1.1-3.5c-1.6-5.1-3.7-11.7-6.3-17c-0.4,2.8-1,6-1.6,9.7
			c-2,11.5-4.7,25-6.7,34.9c-1.1,5.7-2,10.3-2.2,11.5c-3.3,20.8-6.7,41.8-10.1,62.2c-3,18.2-6.1,37.1-9,55.7l0,0l-9.4-1.5
			c-0.1,0.6-0.1,1.2,0.2,1.8c-2.2-4.2-24.6-20.9-32-26.4c-3.4-2.5-5.9-4.4-7.1-5.4l-34.4-28l-0.7-0.6c-7.3-6.4-11.7-9.3-14.1-10.6
			c3.4,34.8,11.6,68.9,24.2,101.4l0,0.1c1.3,3.7-1,7.9-3.5,11.4l-2.8,3.9l-4-2.9c-11-7.4-22.7-13.9-34.7-19.5l-0.5-0.3
			c-3.8-2.4-7.8-4.7-11.8-6.7l0.8,1.4l1.2,2.1v1.2l0.9,0.5l0.6,1.1c7.9,14.1,16.4,28.2,25.1,41.9l2,3.2l-2.6,2.7
			c-4.2,4.3-9.4,9.6-10.7,11.5c-10.9,16-19.9,33.3-26.8,51.4l-1.6,4.3l-4.3-1.5c-10.8-3.8-18.6-3.2-24,2c-5.4,5.1-7.2,13.7-4.1,19.9
			c2.9,6,10,9.9,17.1,9.5L145.6,375.4z M212.9,251.1l0.1,0.1L212.9,251.1z M212.8,251L212.8,251z"/>
		<path class="st0" d="M344.4,691.6c-0.5-11.9-9.7-22-22-22c-11.5,0-22.5,10.1-22,22s9.6,22,22,22
			C333.9,713.6,344.9,703.5,344.4,691.6z"/>
		<path class="st0" d="M435.7,692.5c-0.5-11.9-9.7-22-22-22c-11.5,0-22.5,10.1-22,22c0.5,11.9,9.6,22,22,22
			C425.2,714.5,436.2,704.4,435.7,692.5z"/>
	</g>
</g>
</svg>
