<svg xmlns="http://www.w3.org/2000/svg" viewBox="0 0 736.66 809.55"><defs><style>.cls-1{fill:#b4d889;}.cls-2{fill:#57b947;}</style></defs><title>greenBody</title><g id="Layer_2" data-name="Layer 2"><g id="Layer_1-2" data-name="Layer 1"><path class="cls-1" d="M727.24,365.74c-12.51-5.87-29.88,2.31-30,17.19,0,7.13,5.17,14.11,12.17,15.76a14.59,14.59,0,0,0,5.85.08c.69-.12,1.36-.29,2-.46l.25-.05c0,.88,0,1.8,0,2.19q-.15,3.29-.46,6.56a117.76,117.76,0,0,1-102.48,104.9c-7.57.93-7.66,12.94,0,12,39.2-4.86,74.88-26.77,95.69-60.58A131.93,131.93,0,0,0,729.16,407c.37-3.83,1-9,.07-13.27C739.65,387.39,739.24,371.37,727.24,365.74Z"/><path class="cls-1" d="M9.42,338.74c12.51-5.87,29.89,2.31,30,17.19,0,7.13-5.17,14.11-12.17,15.76a14.59,14.59,0,0,1-5.85.08c-.69-.11-1.36-.29-2-.46l-.25-.05c0,.88,0,1.8,0,2.19q.14,3.29.45,6.56A117.8,117.8,0,0,0,122,484.91c7.57.93,7.66,12.95,0,12-39.19-4.85-74.88-26.76-95.69-60.58A132.2,132.2,0,0,1,7.5,380c-.37-3.83-1-9-.06-13.27C-3,360.39-2.57,344.38,9.42,338.74Z"/><g id="_Group_" data-name="&lt;Group&gt;"><path class="cls-1" d="M450.48,666.09q.84,52.68-.79,105.36a5.09,5.09,0,0,1-5,5l-22.48,0a5.09,5.09,0,0,1-5-5l-2.91-72.83-.72-18c-.18-4.44-1-9.54,1.88-13.34,2.64-3.47,6.9-4,10.91-4.72l18-3.06C448.61,658.77,451.23,663,450.48,666.09ZM439.83,766.44q1.38-48.09.71-96.2l-8.68,1.48c-2,.34-5.07.29-6.9,1.19-2.19,1.09-1.59,2.2-1.5,4.72.37,10.31.83,20.62,1.24,30.93L427,766.42Z"/><path class="cls-1" d="M440.54,670.24q.66,48.1-.71,96.2l-12.82,0-2.31-57.86c-.41-10.31-.87-20.62-1.24-30.93-.09-2.52-.69-3.63,1.5-4.72,1.83-.9,4.88-.85,6.9-1.19Z"/><path class="cls-1" d="M347.64,667.78c2.89,3.8,2.06,8.9,1.88,13.34l-.72,18-2.91,72.83a5.09,5.09,0,0,1-5,5l-22.48,0a5.09,5.09,0,0,1-5-5q-1.62-52.66-.79-105.36c-.74-3.12,1.87-7.32,6.14-6.59l18,3.06C340.75,663.74,345,664.31,347.64,667.78Zm-8,10.35c.09-2.52.69-3.63-1.5-4.72-1.83-.9-4.88-.85-6.9-1.19l-8.68-1.48q-.66,48.1.71,96.2l12.82,0,2.31-57.86C338.82,698.75,339.27,688.44,339.64,678.13Z"/><path class="cls-1" d="M338.14,673.41c2.19,1.09,1.59,2.2,1.5,4.72-.37,10.31-.82,20.62-1.24,30.93l-2.31,57.86-12.82,0q-1.38-48.09-.71-96.2l8.68,1.48C333.26,672.56,336.31,672.51,338.14,673.41Z"/></g><path class="cls-2" d="M645.44,371.48c-11.81-7.1-25.2-1.88-36.41,3.73-15-34.1-36.86-64.57-65.06-87.44a213.41,213.41,0,0,1,13.72-64.2c2-5.25-4.94-7.52-8.36-4.86l-31.16,24.18-14.8,11.49c-1.4,1.09-2.81,2.13-4.12,3.23-3.45-2.64-5.61-4.67-5.47-5.59s.24-1.66.35-2.49q5.63-41.39,8.88-83.09c1.13-14.4,2.73-29.08,2.76-43.53,0-20.81-3.82-21.28-16.79-5.07-14.58,18.22-30.62,38.23-46.21,56.71-5.55,6.59-40.66,39.14-37.53,48.77Q375.62,132.2,346.05,41C342.37,29.73,337.46,11,327.76,4.6c2.59,1.7-12.31,72-13.35,78.64-7.18,45.67-15,91.23-22.18,136.87.87-5.42-41.05-34.92-47.14-39.89l-39.9-32.56c-1.26-1-27.65-25.1-26.4-11.3a453.87,453.87,0,0,0,28.75,122.37c.57,1.56-.83,4.49-3.45,8.22l-.13-.1a298.72,298.72,0,0,0-41.2-23.19,159.4,159.4,0,0,0-15.18-8.47l-.23-.1c-3.06-1.62-7.37,1-7.35,4.61a4,4,0,0,0,.92,2.89c.64,1.18,1.3,2.35,2,3.52a5.43,5.43,0,0,0,2.49,4.5q13.94,24.9,29.3,48.94c-6.19,6.36-11.27,11.62-13,14-12.85,18.46-23.37,39.24-31.68,60.92-11.3-4-24.1-5.47-33.54,3.5-7.76,7.38-10.71,19.79-6,29.56,4.5,9.25,15,14.71,25.1,14.08-.67,2.86-1.3,5.73-1.9,8.59-10.27,49.43-8.06,94.09,19.07,137.47,77,123.2,257.21,141.24,382.28,91,39-15.68,77.55-40,99.87-76.64,25.38-41.69,22.12-93.65,14.13-139.89q-1.89-11-4.63-21.82a12.16,12.16,0,0,0,3.33-2.45c10.9,1.28,21.13-8,25.15-17.48C657.29,390.15,655.59,377.59,645.44,371.48Z"/><path class="cls-1" d="M375.89,690.32a373.73,373.73,0,0,1-71-6.67c-37.29-7.23-71-20-100.32-38-31.79-19.54-57.51-44.78-76.42-75-25.54-40.84-31.65-84.49-19.79-141.51.15-.77.32-1.54.49-2.33A31.34,31.34,0,0,1,85.58,410c-5.63-11.57-2.64-26.69,7.12-36,8.44-8,19.89-10.13,34.07-6.29a287.05,287.05,0,0,1,30.42-57.28c1.6-2.31,5.21-6.16,10.5-11.62-9.26-14.64-18.18-29.59-26.56-44.52a11.17,11.17,0,0,1-3.62-6.51l-.15-.27-1.06-1.92a9.52,9.52,0,0,1-1.8-6.09,10.53,10.53,0,0,1,5.22-8.82,10.32,10.32,0,0,1,9.95-.61l.33.16a165,165,0,0,1,15.39,8.57,305.62,305.62,0,0,1,36.26,19.93,457,457,0,0,1-28.34-121.9c-.54-6,2.47-8.43,4.3-9.37,4.23-2.15,10.86-1.76,30.57,15.49l.51.45L248.57,176c1.2,1,4.13,3.15,7.83,5.91,16.18,12,26.2,19.89,32.31,25.37,2.84-17.67,5.75-35.43,8.59-52.71,3.88-23.64,7.89-48.08,11.67-72.14.27-1.69,1.23-6.52,2.69-13.84C314.77,52.91,323,11.39,322.55,6a4.9,4.9,0,0,0,2.19,3.25h0l6-9.2h0C341,6.74,346.22,23.26,350,35.33c.45,1.41.87,2.76,1.28,4l19.94,61.42q17.31,53.33,34.63,106.64c5.42-7.7,14.26-17.32,26.23-29.58,2.93-3,5.45-5.59,6.49-6.81,15-17.77,30.36-36.92,46.12-56.61,6.81-8.5,13-15.35,19.54-13.05s7,11.51,7,21.57c0,11.41-1,23-2,34.17-.28,3.27-.56,6.53-.81,9.78-2.18,27.81-5.18,55.87-8.92,83.4,0,0,0,.06,0,.09l15.23-11.82L546,214.36a11.72,11.72,0,0,1,13.75-.08,9.35,9.35,0,0,1,3.12,11.25,207.77,207.77,0,0,0-13.19,59.78c25.38,21.19,46.74,49.59,62.09,82.54,11.59-5.17,24.5-8.33,36.55-1.08h0c11.69,7,15.68,21.75,9.71,35.78-5.74,13.5-17.31,20.34-27.12,20.89,1.4,5.93,2.62,11.89,3.63,17.77C642,484.48,647,539.92,619.65,584.9,599.48,618,565,644.55,517.13,663.79,473.58,681.29,424.51,690.32,375.89,690.32ZM122.66,415.7,121,422.89c-.72,3.08-1.33,5.84-1.87,8.46-11.23,54-5.58,95.19,18.34,133.45,18,28.8,42.53,52.85,72.86,71.48C238.46,653.57,271,665.87,307,672.85,374.77,686,449.87,679,513,653.58c45.61-18.33,78.32-43.37,97.22-74.41,25.49-41.85,20.56-94.71,13.41-136.09-1.22-7.09-2.75-14.29-4.54-21.41L618,417.38l4-2a6.62,6.62,0,0,0,1.79-1.31l1.89-2,2.75.32c8,.94,16.17-6.46,19.45-14.17,3.08-7.24,2.75-17.22-5.26-22-9.28-5.58-20.44-1.41-31.12,3.93l-5.17,2.59L604,377.43c-15.2-34.51-37.15-64-63.48-85.39l-2.18-1.76.15-2.81a218.46,218.46,0,0,1,13.25-63.66l-45,34.91-1.24.95c-1,.75-1.89,1.45-2.74,2.16l-3.37,2.82L495.9,262c-4.65-3.56-8.17-6.62-7.56-10.76.12-.83.23-1.64.34-2.43,3.71-27.32,6.69-55.17,8.85-82.78.25-3.27.53-6.56.82-9.85.93-11,1.9-22.31,1.92-33.26a78.89,78.89,0,0,0-.41-9.12,82.86,82.86,0,0,0-6.58,7.5C477.47,141,462,160.23,447,178.1c-1.29,1.53-3.7,4-7,7.4-5.58,5.72-13.22,13.54-19.44,21-9.72,11.6-10,15.14-10,15.5a1.29,1.29,0,0,0-.07-.35L400,225h0q-19.65-60.42-39.25-120.86L340.81,42.74c-.41-1.29-.85-2.67-1.3-4.12-1.85-5.88-4.26-13.56-7.37-19.77-.5,3.22-1.14,7-1.9,11.31-2.38,13.34-5.51,29.06-7.79,40.53-1.33,6.67-2.38,11.94-2.61,13.4-3.79,24.11-7.8,48.57-11.69,72.22-3.48,21.19-7.07,43.1-10.49,64.66h0l-10.86-1.73a3.7,3.7,0,0,0,.2,2.06c-2.52-4.88-28.59-24.25-37.16-30.61-4-2.95-6.83-5.08-8.23-6.22l-39.9-32.56-.77-.67c-8.46-7.4-13.54-10.79-16.39-12.35a445.92,445.92,0,0,0,28.11,117.82l.05.13c1.56,4.3-1.21,9.12-4.12,13.26l-3.2,4.57-4.62-3.35a295.13,295.13,0,0,0-40.32-22.68l-.62-.34c-4.46-2.81-9.08-5.41-13.74-7.73l.89,1.61,1.36,2.45,0,1.36,1.08.63.72,1.29c9.15,16.34,19,32.71,29.14,48.67l2.34,3.67-3,3.13c-4.84,5-10.86,11.16-12.38,13.34a280.76,280.76,0,0,0-31.07,59.75l-1.91,5-5.05-1.78c-12.51-4.42-21.64-3.67-27.92,2.29s-8.33,15.92-4.8,23.17c3.41,7,11.56,11.52,19.82,11Zm78.17-144.32.12.08Zm-.16-.12h0Z"/><path class="cls-1" d="M353.54,783.05c-.62-13.82-11.21-25.5-25.5-25.5-13.34,0-26.12,11.73-25.5,25.5s11.2,25.5,25.5,25.5C341.38,808.55,354.15,796.82,353.54,783.05Z"/><path class="cls-1" d="M459.54,784.05c-.62-13.82-11.21-25.5-25.5-25.5-13.34,0-26.12,11.73-25.5,25.5s11.2,25.5,25.5,25.5C447.38,809.55,460.15,797.82,459.54,784.05Z"/></g></g></svg>