<svg xmlns="http://www.w3.org/2000/svg" viewBox="0 0 972 932.03"><defs><style>.cls-1{fill:#721011;}.cls-2{fill:#b82025;}.cls-3{fill:#707071;}.cls-4{fill:none;}</style></defs><title>mouth2_3</title><g id="Layer_2" data-name="Layer 2"><g id="Layer_1-2" data-name="Layer 1"><path class="cls-1" d="M603.65,569.78c.94,3-1,5-3.44,5.57-13.77,20.49-27.42,41.08-41.37,61.44-5.48,8-11.38,15.74-19.36,21.41s-17.83,8.26-27.55,9.22c-17.71,1.77-36.27-1.37-52.94-7.39-33-11.91-61.35-36.19-76.94-67.71a3.89,3.89,0,0,1-1.79-5.23c5.28-12.74,10.55-25.55,17.19-37.67,6.33-11.54,14.15-23.79,24.42-32.24,5.57-4.58,11.91-6,19-5.77,6.84.28,14.3.8,20.77,3.17,10.31,3.77,15.45,12.67,22.17,20.38,7.24-11,17.48-20.19,27.72-28.18,11.55-9,26.87-8.43,40-3.17,26.63,10.67,40.59,36.13,50.39,61.6A4.26,4.26,0,0,1,603.65,569.78Zm-45.59,50.53,34.71-51.58c-8.41-22.07-20.13-44.93-42.68-55.08a44.47,44.47,0,0,0-16.53-4c-7.32-.25-12.65,2-18.16,6.68-9.4,8-19,16.31-25.21,27.11a5.15,5.15,0,0,1-1.29,1.49c-1.48,2.49-5.08,3.92-7.86,1.36-7.5-6.91-12.1-18.24-22-22.2-5.59-2.24-12.19-2.56-18.14-2.81-6.72-.27-11.1,1.57-15.76,6.34-16.29,16.65-25.67,38.67-34.45,59.93a126.47,126.47,0,0,0,33,41.34,129.51,129.51,0,0,0,43.1,23.36c15.73,5,33.61,7.68,50,4.58a42.92,42.92,0,0,0,23.8-12.61C547.42,637.1,552.58,628.46,558.06,620.31Z"/><path class="cls-2" d="M592.77,568.73l-34.71,51.58c-5.48,8.15-10.64,16.79-17.47,23.92a42.92,42.92,0,0,1-23.8,12.61c-16.37,3.1-34.25.38-50-4.58a129.51,129.51,0,0,1-43.1-23.36,126.47,126.47,0,0,1-33-41.34c8.78-21.26,18.16-43.28,34.45-59.93,4.66-4.77,9-6.61,15.76-6.34,6,.25,12.55.57,18.14,2.81,9.9,4,14.5,15.29,22,22.2,2.78,2.56,6.38,1.13,7.86-1.36a5.15,5.15,0,0,0,1.29-1.49c6.25-10.8,15.81-19.1,25.21-27.11,5.51-4.69,10.84-6.93,18.16-6.68a44.47,44.47,0,0,1,16.53,4C572.64,523.8,584.36,546.66,592.77,568.73Zm-71.22,26.64a25.91,25.91,0,0,0-6.12-18.18c-4.47-5-10.95-6.23-17.36-5.5a45.43,45.43,0,0,0-29.32,15.93c-3.74-.49-7.8,3.24-5.08,7.14,7.76,11.17,18.56,21.33,33,21.73C508.9,616.84,520.73,608.07,521.55,595.37Z"/><path class="cls-1" d="M515.43,577.19a25.91,25.91,0,0,1,6.12,18.18c-.82,12.7-12.65,21.47-24.92,21.12-14.4-.4-25.2-10.56-33-21.73-2.72-3.9,1.34-7.63,5.08-7.14a45.43,45.43,0,0,1,29.32-15.93C504.48,571,511,572.2,515.43,577.19Zm-3.78,18.27c.46-4.09-1.09-9.86-4.47-12.53-3.13-2.47-7.94-1.7-11.55-.87a36,36,0,0,0-19.88,12.4c4.73,5.7,10.65,10.58,18.1,11.87S510.67,603.91,511.65,595.46Z"/><path class="cls-3" d="M575.07,467.9c-6.36,0-6.37,9.88,0,9.88S581.44,467.9,575.07,467.9Z"/><rect class="cls-4" width="100" height="118"/><rect class="cls-4" x="872" y="814.03" width="100" height="118"/></g></g></svg>