<svg xmlns="http://www.w3.org/2000/svg" viewBox="0 0 395.36 60.99"><defs><style>.cls-1{fill:#5a3513;}</style></defs><title>mouth4</title><g id="Layer_2" data-name="Layer 2"><g id="Layer_1-2" data-name="Layer 1"><path class="cls-1" d="M195.56,27.75c-8-14.9-21-25.1-38.07-27.27S123.75,3.72,109.13,12C93,21.11,79.18,33.6,63.22,42.89c-2,1.16-4,2.26-6.18,3.28-1.87.49-3.72,1-5.57,1.6a4.45,4.45,0,0,0-2.32,1.6c-10.72,3.53-22.21,3.91-31.82-3.43C11.57,41.54,7.38,34,9.91,26.7c1-2.91,3.51-6.37,7-5.93C20,21.14,22.67,24,21.47,27c-2.16,5.43,6.62,7.79,8.76,2.41C33.29,21.68,26.81,13.7,19.34,12,10.8,10.06,3.65,16.63,1.16,24.28-4.45,41.49,11.37,56.75,27,60.09c11.57,2.47,22.77-.38,33.17-5.34A116.38,116.38,0,0,1,96,51.29c14.27.87,28.22,4.29,42.46,5.51,21.48,1.82,46.6-3.17,58.23-23.33A4.24,4.24,0,0,0,195.56,27.75Z"/><path class="cls-1" d="M199.8,27.75c8-14.9,21-25.1,38.06-27.27S271.61,3.72,286.23,12c16.09,9.1,29.95,21.59,45.9,30.88,2,1.16,4.05,2.26,6.19,3.28,1.87.49,3.72,1,5.57,1.6a4.39,4.39,0,0,1,2.31,1.6c10.72,3.53,22.21,3.91,31.83-3.43,5.76-4.4,9.94-11.94,7.41-19.24-1-2.91-3.5-6.37-7-5.93-3.1.37-5.75,3.23-4.55,6.25,2.15,5.43-6.63,7.79-8.76,2.41C362.06,21.68,368.55,13.7,376,12c8.54-1.95,15.69,4.62,18.18,12.27,5.61,17.21-10.21,32.47-25.85,35.81-11.56,2.47-22.77-.38-33.17-5.34a116.31,116.31,0,0,0-35.86-3.46c-14.27.87-28.23,4.29-42.46,5.51-21.49,1.82-46.6-3.17-58.24-23.33A4.25,4.25,0,0,1,199.8,27.75Z"/></g></g></svg>