<?xml version="1.0" encoding="utf-8"?>
<!-- Generator: Adobe Illustrator 22.1.0, SVG Export Plug-In . SVG Version: 6.00 Build 0)  -->
<svg version="1.1" id="Layer_1" xmlns="http://www.w3.org/2000/svg" xmlns:xlink="http://www.w3.org/1999/xlink" x="0px" y="0px"
	 viewBox="0 0 972 932" style="enable-background:new 0 0 972 932;" xml:space="preserve">
<style type="text/css">
	.st0{fill:#721011;}
	.st1{fill:#B82025;}
	.st2{fill:#707071;}
	.st3{fill:none;}
</style>
<title>mouth2_3</title>
<g id="Layer_2_1_">
	<g id="Layer_1-2">
		<path class="st0" d="M603.7,569.8c0.9,3-1,5-3.4,5.6c-13.8,20.5-27.4,41.1-41.4,61.4c-5.5,8-11.4,15.7-19.4,21.4
			s-17.8,8.3-27.5,9.2c-17.7,1.8-36.3-1.4-52.9-7.4c-33-11.9-61.4-36.2-76.9-67.7c-1.9-0.9-2.7-3.3-1.8-5.2c0,0,0,0,0,0
			c5.3-12.7,10.5-25.5,17.2-37.7c6.3-11.5,14.1-23.8,24.4-32.2c5.6-4.6,11.9-6,19-5.8c6.8,0.3,14.3,0.8,20.8,3.2
			c10.3,3.8,15.5,12.7,22.2,20.4c7.2-11,17.5-20.2,27.7-28.2c11.6-9,26.9-8.4,40-3.2c26.6,10.7,40.6,36.1,50.4,61.6
			C603.4,566.2,604.1,568,603.7,569.8z M558.1,620.3l34.7-51.6c-8.4-22.1-20.1-44.9-42.7-55.1c-5.2-2.4-10.8-3.7-16.5-4
			c-7.3-0.2-12.7,2-18.2,6.7c-9.4,8-19,16.3-25.2,27.1c-0.3,0.6-0.8,1.1-1.3,1.5c-1.5,2.5-5.1,3.9-7.9,1.4
			c-7.5-6.9-12.1-18.2-22-22.2c-5.6-2.2-12.2-2.6-18.1-2.8c-6.7-0.3-11.1,1.6-15.8,6.3c-16.3,16.7-25.7,38.7-34.5,59.9
			c8,16,19.2,30,33,41.3c12.7,10.5,27.4,18.4,43.1,23.4c15.7,5,33.6,7.7,50,4.6c9.1-1.5,17.4-6,23.8-12.6
			C547.4,637.1,552.6,628.5,558.1,620.3L558.1,620.3z"/>
		<path class="st1" d="M592.8,568.7l-34.7,51.6c-5.5,8.2-10.6,16.8-17.5,23.9c-6.4,6.6-14.7,11.1-23.8,12.6
			c-16.4,3.1-34.2,0.4-50-4.6c-15.7-5-30.4-12.9-43.1-23.4c-13.8-11.3-25-25.4-33-41.3c8.8-21.3,18.2-43.3,34.5-59.9
			c4.7-4.8,9-6.6,15.8-6.3c6,0.2,12.5,0.6,18.1,2.8c9.9,4,14.5,15.3,22,22.2c2.8,2.6,6.4,1.1,7.9-1.4c0.5-0.4,1-0.9,1.3-1.5
			c6.2-10.8,15.8-19.1,25.2-27.1c5.5-4.7,10.8-6.9,18.2-6.7c5.7,0.3,11.3,1.6,16.5,4C572.6,523.8,584.4,546.7,592.8,568.7z
			 M521.6,595.4c0.4-6.6-1.8-13.1-6.1-18.2c-4.5-5-11-6.2-17.4-5.5c-11.4,1.4-21.9,7.1-29.3,15.9c-3.7-0.5-7.8,3.2-5.1,7.1
			c7.8,11.2,18.6,21.3,33,21.7C508.9,616.8,520.7,608.1,521.6,595.4L521.6,595.4z"/>
		<path class="st0" d="M515.4,577.2c4.3,5.1,6.5,11.6,6.1,18.2c-0.8,12.7-12.6,21.5-24.9,21.1c-14.4-0.4-25.2-10.6-33-21.7
			c-2.7-3.9,1.3-7.6,5.1-7.1c7.4-8.8,17.9-14.5,29.3-15.9C504.5,571,511,572.2,515.4,577.2z M511.6,595.5c0.5-4.1-1.1-9.9-4.5-12.5
			c-3.1-2.5-7.9-1.7-11.5-0.9c-7.8,1.8-14.8,6.2-19.9,12.4c4.7,5.7,10.6,10.6,18.1,11.9S510.7,603.9,511.6,595.5z"/>
		<path class="st2" d="M575.1,483.9c-6.4,0-6.4,9.9,0,9.9S581.4,483.9,575.1,483.9z"/>
		<rect class="st3" width="100" height="118"/>
		<rect x="872" y="814" class="st3" width="100" height="118"/>
	</g>
</g>
</svg>
