<svg xmlns="http://www.w3.org/2000/svg" viewBox="0 0 137.29 200.96"><defs><style>.cls-1{fill:#f7a4a5;}.cls-2{fill:#fff;}.cls-3{fill:#653293;}.cls-4{fill:#c75556;}</style></defs><title>mouth2_1</title><g id="Layer_2" data-name="Layer 2"><g id="Layer_1-2" data-name="Layer 1"><g id="_Group_" data-name="&lt;Group&gt;"><path class="cls-1" d="M122.25,57.78c4.85,4.49,5.25,12,5.1,18.14a130.17,130.17,0,0,1-3.53,25.23c-3.41,15.13-8.39,29.85-11.68,45-1.48,6.87-2.56,13.9-5.07,20.51-2.89,7.59-7.89,14-13.62,19.66s-12.62,12-21.17,10.24c-7.31-1.54-14.62-7.38-20-12.33-10.87-10-17.88-23.29-22.52-37.18-5.2-15.58-7.54-31.86-10.55-48a251.8,251.8,0,0,0-5.59-24.58c-1.09-3.71-2.3-7.37-3.7-11C8.36,59.51,4.49,54,5.25,49.67a2.3,2.3,0,0,0-.12-1.21C14.32,34,32.8,45.19,42.39,52.66c4.59,3.56,8.91,7.18,14.69,8.53A72.13,72.13,0,0,0,78.8,62.87c6.94-.53,13.21-2.71,19.66-5.16C105.74,54.94,115.65,51.66,122.25,57.78Z"/><path class="cls-1" d="M5.13,48.46a2.3,2.3,0,0,1,.12,1.21C4.49,54,8.36,59.51,9.93,63.56c1.4,3.59,2.61,7.25,3.7,11A251.8,251.8,0,0,1,19.22,99.1c3,16.1,5.35,32.38,10.55,48,4.64,13.89,11.65,27.15,22.52,37.18,5.37,4.95,12.68,10.79,20,12.33,8.55,1.78,15.58-4.71,21.17-10.24s10.73-12.07,13.62-19.66c2.51-6.61,3.59-13.64,5.07-20.51,3.29-15.16,8.27-29.88,11.68-45a130.17,130.17,0,0,0,3.53-25.23c.15-6.17-.25-13.65-5.1-18.14-6.6-6.12-16.51-2.84-23.79-.07C92,60.16,85.74,62.34,78.8,62.87a72.13,72.13,0,0,1-21.72-1.68c-5.78-1.35-10.1-5-14.69-8.53C32.8,45.19,14.32,34,5.13,48.46Zm124.64,13c2.64,6.73,2.2,14.4,1.52,21.45a174.55,174.55,0,0,1-4.63,25.26c-2.3,9.16-5,18.21-7.42,27.35-2.26,8.57-3.68,17.33-5.93,25.89C109.46,176,99.37,190,86.33,197.9c-13.62,8.21-27.74-1.65-37.79-11.16C37,175.85,29.75,161.44,25,146.49c-5.31-16.6-7.54-33.94-10.89-51A198.89,198.89,0,0,0,7.65,70.17C5.38,63.4-.26,55.81,1,48.5c0-.06,0-.12.05-.17a1.93,1.93,0,0,1,.16-1.91c8.48-13.64,26.13-9.69,37.28-2.1,3.78,2.58,7.23,5.57,10.92,8.28a28,28,0,0,0,13.22,5.13,62.12,62.12,0,0,0,32.8-3.54C107.55,49.54,123.82,46.34,129.77,61.49Z"/></g><g id="_Group_2" data-name="&lt;Group&gt;"><path d="M134.33,64.81l-18.72-6.49c-6.23-2.16-12.65-5-19.33-5.26-12.42-.42-23.89,8-36.31,3.44-9.21-3.42-18.51-16.12-29.36-11.32-4.58,2-7.35,6.45-11.07,9.59-5.16,4.35-11.95,4.72-18.29,3.48l9-13.71c3.29-5,6.37-10.46,10.34-15,7.29-8.34,18.24-10.71,28.89-10.76a116.2,116.2,0,0,1,34.49,5.58C89.31,26,94.62,28,99.83,30.14A38,38,0,0,1,107,33.63c2.32,1.61,3.93,3.95,5.86,6,4.14,4.3,9.48,7.21,13.56,11.6A36.72,36.72,0,0,1,134.33,64.81Z"/><path d="M10.79,38.47c3.46-5.29,6.83-10.91,11.87-14.87,8.54-6.68,19.91-8,30.41-7.59a127.81,127.81,0,0,1,37.17,7.46A115,115,0,0,1,106.45,30c4.86,2.57,7.77,7.36,12,10.79,4.4,3.57,8.93,6.69,12.42,11.26,3.32,4.35-.26-.1,1.09,5.19.26,1,.33,10-.72,9.59-7.07-2.46-9.27-3.36-16.34-5.81-6.72-2.33-13.67-5.52-20.91-5.14-8.59.46-16.58,4.28-24.88,4.71A34.54,34.54,0,0,0,65,60.45a2.45,2.45,0,0,0-.48,0,23.28,23.28,0,0,1-5.3-1.26C53.49,57.11,49,53.2,43.89,50c-6.13-3.82-11.53-3.93-16.84,1.24-3.63,3.54-6.68,7.33-11.6,9.13C10.19,62.3,7.9,59.25,2.53,58m113.08.33c6.24,2.17,9.9-4.85,16.14-2.68-1.66-5-1.69-.52-5.33-4.45-4.08-4.39-9.42-7.3-13.56-11.6-1.93-2-3.54-4.35-5.86-6a38,38,0,0,0-7.17-3.49C94.62,28,89.31,26,83.92,24.35a116.2,116.2,0,0,0-34.49-5.58c-10.65.05-21.6,2.42-28.89,10.76-4,4.55-7,10-10.34,15L1.25,58.25c6.34,1.24,13.13.87,18.29-3.48,3.72-3.14,6.49-7.55,11.07-9.59C41.46,40.38,50.76,53.08,60,56.5c12.42,4.61,23.89-3.86,36.31-3.44C103,53.28,109.38,56.16,115.61,58.32Z"/></g><path class="cls-2" d="M14.55,24.56S7.92,49,21.61,50,35.23,20.09,35.23,20.09,32.29,42.73,43.1,43.64,55,38.19,55.72,22.75c0,0-2,22.54,13.68,21.28S81.12,22.68,81.12,22.68,77.63,57,92.41,52.31s10.11-14.58,10.11-14.58,6.77,25.91,20,20.7c12.15-4.78,7.61-7.55,8.71-17.64C129.71,23.18,63.77,4.05,14.55,24.56Z"/><path class="cls-3" d="M89.42,4.19C64.3-5.09,35,1.29,16.51,20.84,6.86,31.05,2.08,36.32,0,50.21L1.09,60.34c-.9,1.58,2.18,2.85,3.07,1.27C14.25,43.74,27.42,29.5,47.19,24c20.56-5.71,43-2,61.06,9.27,11.38,7.08,15.16,22.9,23,33.6.63.85,5.4-6.46,5.61-7.78C141.37,30.75,112.27,12.64,89.42,4.19Z"/><path class="cls-4" d="M70.43,62c-.17-1.79-3-1.81-2.82,0a209.44,209.44,0,0,1-5.85,72.6,1.41,1.41,0,0,0,2.72.75A211.82,211.82,0,0,0,70.43,62Z"/></g></g></svg>