<svg xmlns="http://www.w3.org/2000/svg" viewBox="0 0 972 932.03"><defs><style>.cls-1{fill:#f7a4a5;}.cls-2{fill:#fff;}.cls-3{fill:#653293;}.cls-4{fill:#c75556;}.cls-5{fill:none;}</style></defs><title>mouth1_3</title><g id="Layer_2" data-name="Layer 2"><g id="Layer_1-2" data-name="Layer 1"><g id="_Group_" data-name="&lt;Group&gt;"><path class="cls-1" d="M555.14,540.72c4.85,4.49,5.26,12,5.1,18.13a130.27,130.27,0,0,1-3.53,25.24c-3.41,15.13-8.39,29.84-11.67,45-1.49,6.87-2.57,13.9-5.07,20.51-2.9,7.58-7.9,14-13.63,19.66s-12.62,12-21.17,10.23c-7.31-1.54-14.62-7.37-20-12.32-10.86-10-17.88-23.29-22.52-37.18-5.2-15.58-7.54-31.87-10.54-48a251.65,251.65,0,0,0-5.6-24.57c-1.09-3.71-2.3-7.37-3.7-11-1.57-4-5.44-9.52-4.68-13.89a2.21,2.21,0,0,0-.12-1.21c9.19-14.42,27.68-3.26,37.26,4.2,4.59,3.57,8.91,7.18,14.7,8.54a72.69,72.69,0,0,0,21.71,1.68c6.94-.54,13.21-2.72,19.67-5.17C538.64,537.87,548.54,534.59,555.14,540.72Z"/><path class="cls-1" d="M438,531.39a2.21,2.21,0,0,1,.12,1.21c-.76,4.37,3.11,9.85,4.68,13.89,1.4,3.6,2.61,7.26,3.7,11a251.65,251.65,0,0,1,5.6,24.57c3,16.1,5.34,32.39,10.54,48,4.64,13.89,11.66,27.15,22.52,37.18,5.37,5,12.68,10.78,20,12.32,8.55,1.79,15.59-4.7,21.17-10.23s10.73-12.08,13.63-19.66c2.5-6.61,3.58-13.64,5.07-20.51,3.28-15.17,8.26-29.88,11.67-45a130.27,130.27,0,0,0,3.53-25.24c.16-6.17-.25-13.64-5.1-18.13-6.6-6.13-16.5-2.85-23.78-.08-6.46,2.45-12.73,4.63-19.67,5.17A72.69,72.69,0,0,1,490,544.13c-5.79-1.36-10.11-5-14.7-8.54C465.7,528.13,447.21,517,438,531.39Zm124.64,13c2.64,6.73,2.2,14.41,1.52,21.46a175,175,0,0,1-4.63,25.26c-2.3,9.16-5,18.21-7.42,27.35-2.26,8.56-3.67,17.33-5.93,25.88-3.85,14.57-13.94,28.59-27,36.47-13.63,8.21-27.75-1.65-37.8-11.17-11.51-10.88-18.79-25.3-23.57-40.24-5.32-16.61-7.55-33.95-10.9-51a199,199,0,0,0-6.41-25.33c-2.28-6.76-7.92-14.35-6.66-21.66a1.67,1.67,0,0,0,.05-.18,1.93,1.93,0,0,1,.16-1.9c8.48-13.65,26.13-9.7,37.28-2.1,3.78,2.57,7.24,5.56,10.92,8.28a28.16,28.16,0,0,0,13.22,5.12,62,62,0,0,0,32.8-3.54C540.44,532.47,556.71,529.27,562.66,544.42Z"/></g><g id="_Group_2" data-name="&lt;Group&gt;"><path d="M567.23,547.75l-18.72-6.49c-6.24-2.16-12.66-5-19.34-5.27-12.42-.42-23.89,8.06-36.3,3.45-9.22-3.42-18.52-16.13-29.36-11.32-4.58,2-7.36,6.45-11.08,9.59-5.15,4.35-11.95,4.71-18.29,3.47q4.49-6.85,8.95-13.71c3.3-5,6.37-10.46,10.35-15,7.29-8.34,18.23-10.71,28.88-10.76a116.15,116.15,0,0,1,34.49,5.58c5.4,1.66,10.7,3.61,15.91,5.79a37.14,37.14,0,0,1,7.17,3.49c2.32,1.61,3.93,3.94,5.86,5.95,4.15,4.31,9.49,7.22,13.56,11.6A36.84,36.84,0,0,1,567.23,547.75Z"/><path d="M443.68,521.41c3.46-5.29,6.83-10.92,11.87-14.88,8.54-6.68,19.92-8,30.42-7.58a127.79,127.79,0,0,1,37.16,7.45A115,115,0,0,1,539.34,513c4.86,2.58,7.77,7.37,12,10.79,4.41,3.58,8.93,6.7,12.42,11.26,3.33,4.36-.26-.1,1.1,5.19.25,1,.32,10-.73,9.59-7.07-2.45-9.27-3.36-16.34-5.81-6.71-2.33-13.66-5.52-20.91-5.13-8.59.45-16.58,4.27-24.88,4.71a34.55,34.55,0,0,0-4.07-.18,3.73,3.73,0,0,0-.48,0,23.4,23.4,0,0,1-5.3-1.26c-5.74-2.12-10.22-6-15.33-9.21-6.14-3.82-11.54-3.93-16.85,1.24-3.62,3.54-6.68,7.32-11.6,9.12-5.26,1.93-7.55-1.12-12.91-2.38m113.08.33c6.23,2.16,9.89-4.85,16.13-2.69-1.65-5-1.69-.52-5.33-4.45-4.07-4.38-9.41-7.29-13.56-11.6-1.93-2-3.54-4.34-5.86-5.95a37.14,37.14,0,0,0-7.17-3.49c-5.21-2.18-10.51-4.13-15.91-5.79a116.15,116.15,0,0,0-34.49-5.58c-10.65.05-21.59,2.42-28.88,10.76-4,4.54-7.05,10-10.35,15q-4.47,6.85-8.95,13.71c6.34,1.24,13.14.88,18.29-3.47,3.72-3.14,6.5-7.56,11.08-9.59,10.84-4.81,20.14,7.9,29.36,11.32,12.41,4.61,23.88-3.87,36.3-3.45C535.85,536.22,542.27,539.1,548.51,541.26Z"/></g><path class="cls-2" d="M447.45,507.49s-6.64,24.4,7.05,25.41S468.12,503,468.12,503s-2.94,22.64,7.87,23.55,11.91-5.45,12.62-20.89c0,0-2,22.54,13.68,21.28S514,505.61,514,505.61s-3.49,34.3,11.29,29.64,10.11-14.58,10.11-14.58,6.77,25.9,20,20.69c12.14-4.78,7.6-7.55,8.7-17.64C562.61,506.11,496.66,487,447.45,507.49Z"/><path class="cls-3" d="M522.31,487.13c-25.12-9.29-54.43-2.9-72.91,16.65C439.75,514,435,519.26,432.89,533.14L434,543.28c-.9,1.58,2.19,2.85,3.07,1.27,10.09-17.87,23.26-32.12,43-37.62,20.55-5.72,43-2,61.05,9.26,11.38,7.09,15.16,22.9,23,33.61.63.85,5.4-6.46,5.61-7.79C574.26,513.69,545.17,495.58,522.31,487.13Z"/><path class="cls-4" d="M503.32,544.91c-.16-1.79-3-1.81-2.82,0a209.51,209.51,0,0,1-5.85,72.61,1.41,1.41,0,0,0,2.72.75A211.61,211.61,0,0,0,503.32,544.91Z"/><rect class="cls-5" width="100" height="118"/><rect class="cls-5" x="872" y="814.03" width="100" height="118"/></g></g></svg>