<svg xmlns="http://www.w3.org/2000/svg" viewBox="0 0 224.02 200.01"><defs><style>.cls-1{fill:#a91e23;}.cls-2{fill:#e11f26;}.cls-3{fill:#707071;}</style></defs><title>mouth3</title><g id="Layer_2" data-name="Layer 2"><g id="Layer_1-2" data-name="Layer 1"><path class="cls-1" d="M224,101.88c.94,3-1,5-3.45,5.57-13.76,20.49-27.41,41.08-41.37,61.44-5.48,8-11.38,15.74-19.35,21.41s-17.83,8.26-27.55,9.22c-17.71,1.77-36.27-1.37-52.94-7.39C46.4,180.22,18,155.94,2.42,124.42a3.88,3.88,0,0,1-1.78-5.23c5.27-12.74,10.55-25.55,17.18-37.67C24.16,70,32,57.73,42.25,49.28c5.56-4.58,11.91-6.05,19-5.77,6.85.28,14.31.8,20.77,3.17,10.32,3.76,15.45,12.67,22.18,20.38,7.23-11,17.48-20.19,27.72-28.18,11.55-9,26.86-8.43,40-3.17,26.63,10.67,40.59,36.13,50.4,61.6A4.26,4.26,0,0,1,224,101.88Zm-45.6,50.53q17.35-25.78,34.71-51.58C204.74,78.76,193,55.9,170.47,45.75a44.47,44.47,0,0,0-16.54-4c-7.32-.25-12.64,2-18.16,6.68-9.4,8-19,16.31-25.21,27.11A5.12,5.12,0,0,1,109.28,77c-1.48,2.49-5.09,3.92-7.87,1.36-7.5-6.91-12.1-18.24-22-22.2-5.6-2.24-12.19-2.56-18.15-2.81-6.72-.27-11.09,1.57-15.75,6.34C29.23,76.38,19.85,98.4,11.06,119.66a126.5,126.5,0,0,0,33,41.34,129.32,129.32,0,0,0,43.1,23.36c15.73,5,33.6,7.68,50,4.58A42.92,42.92,0,0,0,161,176.33C167.79,169.2,173,160.56,178.43,152.41Z" transform="translate(-0.25)"/><path class="cls-2" d="M213.14,100.83q-17.34,25.8-34.71,51.58C173,160.56,167.79,169.2,161,176.33a42.92,42.92,0,0,1-23.81,12.61c-16.37,3.1-34.24.38-50-4.58A129.32,129.32,0,0,1,44.09,161a126.5,126.5,0,0,1-33-41.34C19.85,98.4,29.23,76.38,45.52,59.73c4.66-4.77,9-6.61,15.75-6.34,6,.25,12.55.57,18.15,2.81,9.89,4,14.49,15.29,22,22.2,2.78,2.56,6.39,1.13,7.87-1.36a5.12,5.12,0,0,0,1.28-1.49c6.26-10.8,15.81-19.1,25.21-27.11,5.52-4.69,10.84-6.93,18.16-6.68a44.47,44.47,0,0,1,16.54,4C193,55.9,204.74,78.76,213.14,100.83Zm-71.21,26.64a26,26,0,0,0-6.12-18.18c-4.47-5-11-6.23-17.36-5.5a45.43,45.43,0,0,0-29.33,15.93c-3.73-.49-7.79,3.24-5.08,7.14,7.77,11.17,18.56,21.33,33,21.73C129.27,148.94,141.11,140.17,141.93,127.47Z" transform="translate(-0.25)"/><path class="cls-1" d="M135.81,109.29a26,26,0,0,1,6.12,18.18c-.82,12.7-12.66,21.47-24.92,21.12-14.41-.4-25.2-10.56-33-21.73-2.71-3.9,1.35-7.63,5.08-7.14a45.43,45.43,0,0,1,29.33-15.93C124.86,103.06,131.34,104.3,135.81,109.29ZM132,127.56c.47-4.09-1.09-9.86-4.46-12.53-3.14-2.47-7.94-1.7-11.56-.87a36,36,0,0,0-19.87,12.4c4.73,5.7,10.65,10.58,18.1,11.87S131.05,136,132,127.56Z" transform="translate(-0.25)"/><path class="cls-3" d="M195.45,0c-6.36,0-6.37,9.88,0,9.88S201.81,0,195.45,0Z" transform="translate(-0.25)"/></g></g></svg>