<svg xmlns="http://www.w3.org/2000/svg" viewBox="0 0 224.11 75.97"><defs><style>.cls-1{fill:#f09ac2;}.cls-2{fill:#fff;}.cls-3{fill:#f1e3f0;}</style></defs><title>mouth1</title><g id="Layer_2" data-name="Layer 2"><g id="Layer_1-2" data-name="Layer 1"><path class="cls-1" d="M0,21.48S223.53,157.34,224.11,0"/><path class="cls-2" d="M73.15,14.51c-2.38.05,3.49,21,4.52,22.87C82,45.12,89.56,47.65,98.13,46.93c27-2.25,29.53-10.56,29-29.84.55,6.77,4.95,27.47,38.69,21.74,8.05-1.37,16.65-2.84,20.3-11.25s2-11.9-.87-21.48c0,0-.3-2.68-.31-2.71"/><path class="cls-3" d="M93,35.2c-3.08-.21-5.35-1-6.94-3.8a22,22,0,0,1-2.32-6.73c-.2-1.1-1.88-.64-1.68.46a20.1,20.1,0,0,0,3.44,8.57c1.93,2.47,4.5,3,7.5,3.25C94.13,37,94.12,35.28,93,35.2Z"/><path class="cls-3" d="M154.87,26.23c-7.51-.21-16.53-1.55-19.43-9.66-.37-1.05-2.06-.6-1.68.46,3.18,8.9,12.7,10.7,21.11,10.94A.87.87,0,0,0,154.87,26.23Z"/></g></g></svg>