<svg xmlns="http://www.w3.org/2000/svg" viewBox="0 0 972 932.03"><defs><style>.cls-1{fill:#5a3513;}.cls-2{fill:none;}</style></defs><title>mouth3_1</title><g id="Layer_2" data-name="Layer 2"><g id="Layer_1-2" data-name="Layer 1"><path class="cls-1" d="M493.45,515.66c-8-14.91-21-25.1-38.06-27.27s-33.75,3.24-48.37,11.52c-16.09,9.11-29.95,21.59-45.9,30.89-2,1.16-4.05,2.26-6.19,3.28-1.87.49-3.72,1-5.57,1.6a4.33,4.33,0,0,0-2.31,1.6c-10.72,3.53-22.21,3.91-31.83-3.43-5.76-4.4-9.94-12-7.41-19.24,1-2.92,3.5-6.37,7-5.94,3.1.38,5.75,3.23,4.55,6.25-2.15,5.44,6.63,7.8,8.76,2.42,3.07-7.75-3.42-15.73-10.89-17.43-8.54-1.94-15.69,4.63-18.18,12.28-5.61,17.21,10.21,32.47,25.85,35.81,11.56,2.46,22.77-.38,33.17-5.34a116.62,116.62,0,0,1,35.86-3.47c14.27.87,28.23,4.3,42.46,5.51,21.49,1.83,46.6-3.16,58.24-23.32A4.25,4.25,0,0,0,493.45,515.66Z"/><path class="cls-1" d="M497.69,515.66c8-14.91,21-25.1,38.07-27.27s33.74,3.24,48.36,11.52c16.09,9.11,30,21.59,45.91,30.89,2,1.16,4.05,2.26,6.18,3.28,1.87.49,3.72,1,5.57,1.6a4.4,4.4,0,0,1,2.32,1.6c10.72,3.53,22.21,3.91,31.82-3.43,5.76-4.4,10-12,7.42-19.24-1-2.92-3.51-6.37-7-5.94-3.1.38-5.75,3.23-4.55,6.25,2.16,5.44-6.62,7.8-8.76,2.42-3.07-7.75,3.42-15.73,10.89-17.43,8.54-1.94,15.69,4.63,18.18,12.28,5.61,17.21-10.21,32.47-25.84,35.81-11.57,2.46-22.77-.38-33.17-5.34a116.69,116.69,0,0,0-35.87-3.47c-14.27.87-28.22,4.3-42.46,5.51-21.48,1.83-46.6-3.16-58.23-23.32A4.24,4.24,0,0,1,497.69,515.66Z"/><rect class="cls-2" width="100" height="118"/><rect class="cls-2" x="872" y="814.03" width="100" height="118"/></g></g></svg>