<svg xmlns="http://www.w3.org/2000/svg" viewBox="0 0 972 932.03"><defs><style>.cls-1{fill:#f09ac2;stroke:#ec008c;stroke-miterlimit:10;}.cls-2{fill:#fff;}.cls-3{fill:#f1e3f0;}.cls-4{fill:none;}</style></defs><title>mouth4_2</title><g id="Layer_2" data-name="Layer 2"><g id="Layer_1-2" data-name="Layer 1"><path class="cls-1" d="M400.4,514.37s221.66,139.44,222.24-17.9"/><path class="cls-2" d="M473,508.84c-2.39,0,3.48,21,4.51,22.86,4.36,7.75,11.9,10.27,20.46,9.56,27-2.26,29.53-10.57,29-29.85.55,6.78,5,27.48,38.69,21.74,8.06-1.37,16.66-2.84,20.3-11.25s2-11.9-.87-21.48c0,0-.61-.92-.62-.95"/><path class="cls-3" d="M491.54,530.61c-3.07-.22-5.35-1-6.93-3.81a21.52,21.52,0,0,1-2.32-6.73c-.2-1.1-1.88-.63-1.68.46a20.06,20.06,0,0,0,3.44,8.58c1.92,2.46,4.49,3,7.49,3.24C492.66,532.43,492.66,530.68,491.54,530.61Z"/><path class="cls-3" d="M553.4,521.63c-7.5-.21-16.52-1.54-19.42-9.66-.38-1.05-2.06-.6-1.68.46,3.18,8.9,12.7,10.71,21.1,10.94A.87.87,0,0,0,553.4,521.63Z"/><path class="cls-1" d="M400.4,514.37s204-18,222-18"/><rect class="cls-4" width="100" height="118"/><rect class="cls-4" x="872" y="814.03" width="100" height="118"/></g></g></svg>