<?xml version="1.0" encoding="utf-8"?>
<!-- Generator: Adobe Illustrator 22.1.0, SVG Export Plug-In . SVG Version: 6.00 Build 0)  -->
<svg version="1.1" id="Layer_1" xmlns="http://www.w3.org/2000/svg" xmlns:xlink="http://www.w3.org/1999/xlink" x="0px" y="0px"
	 viewBox="0 0 714.2 726.5" style="enable-background:new 0 0 714.2 726.5;" xml:space="preserve">
<style type="text/css">
	.st0{fill:#F15C22;}
	.st1{fill:#F15D24;}
	.st2{fill:#F6A31E;}
	.st3{fill:#F15E26;}
</style>
<title>pinkBody</title>
<g id="Layer_2_2_">
	<g id="Layer_1-2_1_">
		<path class="st0" d="M638.6,164.9c-0.3-5.6-9.1-5.6-8.7,0c0.6,11.1-5.6,21.5-15.5,26.3c0.4-8.4,0.2-16.7-0.7-25.1
			c-0.6-5.5-9.2-5.7-8.7,0c0.7,9.3,0,18.8-2,27.9c-10-5.2-17.4-14.1-20.7-24.9c-1.7-5.4-9.6-3.1-8.4,2.4c2.8,13,10.9,24.3,22.3,31
			c1.5,0.9,3.1,1.6,4.6,2.3c2.3,1,2.6,1.2,2.8,3.7c0.3,4.5-0.5,9.4-0.8,14c-0.5,9-1,18-1.5,27.1l-1.5,27.1c-0.1,2.2,0.1,4.5-0.3,6.7
			c-0.5,2.6-2,3.1-4.1,4.1c-3.7,1.8-7.5,3.5-11.3,5.2c-16,7.1-32.3,13.4-48.8,19.1l-0.4,0.2c-0.4-0.1-0.8-0.2-1.2-0.2
			c-5.6,0-5.7,8.7,0,8.7c0.5,0,1-0.1,1.5-0.3c0.9,0.3,1.7,0.2,2.5-0.1c13.7-4.7,27.2-9.9,40.5-15.5c6.7-2.9,13.4-5.8,20.1-8.9
			c6.2-2.9,9.4-6.1,10-13.1c1.3-15.3,1.7-30.7,2.5-46.1c0.4-7.9,0.9-15.7,1.3-23.6c0.2-2.9,0.3-5.8-0.2-8.3c1-0.9,1.5-2.1,1.7-3.3
			c0-0.3,0-0.4,0.1-0.7C628.5,195.8,639.7,181.1,638.6,164.9z"/>
		<path class="st0" d="M190.2,430.3c-4.6-5.4-10.9-9.3-17.8-10.9c-2.9-1-5.9-1.8-9-2.3c-2.6-0.3-5.2-0.5-7.9-0.3
			c-2.6-4.5-5.8-8.6-8.7-12.8L111,351.3l35-21.6c4.8-3,0.4-10.5-4.4-7.5l-39.1,24.1c-1.9,1.2-2.9,4-1.6,5.9l36.2,53.3l8.7,12.8
			l0.1,0.1c-0.2,0.2-0.3,0.3-0.4,0.4c-10.1,11.1-13.5,26.8-8.9,41.1c1.4,4.3,7.2,3.7,8.5,0.4c1.5-0.7,2.4-2.2,2.3-3.8
			c0.1-5.2,1-10.2,2.6-15c0.5-1.3,1-2.6,1.7-3.8c3.5,5,7,10,10.5,14.9c3.1,4.5,10.5,0.4,7.5-4.4c-4-6.6-7.6-13.4-10.7-20.4
			c3.8-0.8,7.8-0.7,11.5,0.2c5.1,1.9,9.7,4.8,13.6,8.6C188.2,440.4,193.8,434.5,190.2,430.3z"/>
		<path class="st1" d="M283.1,706.3c-1.4-0.9-3.3-1.4-4.3-3c-1.3-2.1-0.3-4.8,0-7c0.3-1.9,0.4-4-0.6-5.7c-0.3-0.5-0.8-1-1.2-1.4
			v-66.9c0-15.5-18.2-15.6-18.2,0v69.5c-1.4,0-2.7,0-4.1,0c-2.1,0-4.1-0.2-5.7,1.6c-2.5,2.9-3.1,9.7-0.6,12.7
			c1.2,1.3,2.9,2.1,4.7,2.2c3.7,0.4,6.8-0.2,9.6,2.9c3.8,4.2,1,11.3,8.8,11C278.4,722,293.2,712.5,283.1,706.3z"/>
		<path class="st1" d="M368.3,691.9v-69.6c0-15.5-18.2-15.6-18.2,0v69.6c-0.1,3.1,0.8,6,2.6,8.5l-0.3,0.3c-2.8,3.1-5.9,2.4-9.6,2.9
			c-1.8,0.1-3.5,0.9-4.7,2.2c-2.4,3-1.9,9.8,0.6,12.7c1.5,1.7,3.6,1.6,5.7,1.6c4.2,0,8.4,0,12.7-0.1l0,0c3.1,2.4,7.9,5.7,10.8,1.3
			c1.1-1.7,0.9-3.8,0.6-5.7c-0.3-2.2-1.3-4.8,0-7c1-1.6,2.8-2.1,4.3-3C379.9,701.3,374.5,695.1,368.3,691.9z"/>
		<path class="st2" d="M551.3,286.2c-10.6-10.8-23.4-19.1-37.6-24.3c-14.4-5.2-29-6.5-44.3-6.1c-12.7,0.3-27,1.6-38.3-4.9
			c-13.4-7.6-15.2-24.4-11.8-38.1c4.1-16.4,15.5-30,24-44.2c8-13.4,13.6-28.2,16.5-43.6c5.4-30.1-0.4-62.6-22.4-84.9
			c-20.7-21-51.2-28.3-79.9-27.7c-29.8,0.8-58.8,9.2-84.6,24.3c-25.1,14.8-46.4,36.8-56.1,64.8c-9.4,26.9-5.4,55.7-9.8,83.5
			c-1.9,12.4-5.7,24.6-13.5,34.6c-0.4,0.5-0.7,1.1-1,1.7c-25.1,1.1-48.6,15.1-62.5,36.4c-18.1,27.8-13.1,64.8,5.6,91
			c9.7,13.6,22.7,24.5,37.3,32.7c13.4,7.5,28,11.9,42.4,16.8c12.7,4.4,25.8,9.4,35.3,19.2c10.5,10.7,12.7,25.8,10,40.2
			c-3.1,16.3-10.7,31.3-18.2,45.9c-4.5,8.9-9.1,17.8-13.7,26.7c-4,7.9-7.9,15.9-10,24.5c-7.4,32.2,13.9,64.2,42.1,78
			c27.8,13.6,61.9,13.8,91.1,4.8c26.5-8.1,52.3-25.3,63.6-51.5c6.6-15.3,6.7-31.7,6.8-48.1c0.1-16,1.6-31.3,8.7-45.8
			c6.5-13.3,16.2-24.6,28.4-32.9c14-9.5,30.4-13.6,46.4-18c16.1-4.4,33-9.4,46.1-20.3s21.1-26.3,24.9-42.7
			C584.2,345.4,574.4,310.1,551.3,286.2z"/>
		<path class="st3" d="M311.4,647.8c-18.9,0-37-3.8-52.5-11.3c-15.2-7.5-27.8-19.2-36.3-33.9c-9.1-15.8-12-32.7-8.2-49.1
			c2.1-9.2,6.3-17.6,10.3-25.6c2.8-5.5,5.6-11,8.5-16.5l5.3-10.3c7.3-14.2,14.8-29,17.7-44.6c1.6-8.6,2.5-24.6-8.9-36.3
			c-8.9-9.1-21.5-14-33.6-18.1c-2.3-0.8-4.5-1.6-6.8-2.3c-12.1-4.1-24.7-8.3-36.3-14.8c-16-9-29-20.4-38.7-34
			c-21.3-29.9-23.6-68.4-5.7-95.9c14.4-22.2,38-36.3,63.6-38.2l0.2-0.2c6.4-8.1,10.6-18.8,12.7-32.6c1.6-10.3,2-21.1,2.4-31.5
			c0.7-17.5,1.5-35.4,7.5-52.6c9.3-26.7,29.9-50.5,58.1-67c26.2-15.5,57-24.3,86.7-25c34.4-0.7,63.9,9.6,83,29
			c21.5,21.7,30,54,23.7,88.8c-3,15.9-8.7,31.2-17,45c-2.3,3.8-4.8,7.7-7.3,11.3c-6.6,10-13.4,20.3-16.2,31.6
			c-2.8,11.2-1.9,26.5,9.7,33.2c9.2,5.2,20.9,4.8,32.1,4.5l3.9-0.1c18.3-0.5,32.5,1.5,45.9,6.4c14.8,5.4,28.3,14.1,39.3,25.4
			c24.2,25,34.4,61.6,26.6,95.7c-4.3,18.8-13.4,34.3-26.4,45.1c-13.3,11.1-29.5,16.2-47.8,21.2l-3.3,0.9c-14.5,4-29.4,8.1-41.8,16.5
			c-11.5,7.9-20.8,18.7-27,31.3c-7.2,14.8-8.3,30.5-8.3,43.9c0,16.5-0.1,33.6-7.2,49.8c-10.6,24.5-34.7,44.3-66.4,54
			C339.7,645.6,325.6,647.8,311.4,647.8z M360.5,16.8c-1,0-2,0-3,0c-28.2,0.6-57.4,9-82.4,23.7C248.8,56,229.6,78.2,220.8,103
			c-5.6,16-6.3,32.6-7,50.1c-0.4,10.7-0.9,21.7-2.5,32.5c-2.4,15.3-7.1,27.3-14.5,36.7c-0.1,0.1-0.2,0.3-0.2,0.3l-1,2.8l-3,0.2
			c-23.7,1-45.7,13.9-59,34.4c-16,24.5-13.8,59.1,5.5,86c8.9,12.5,21,23.1,35.8,31.4c10.9,6.1,22.5,10,34.8,14.1l6.9,2.3
			c13.1,4.5,26.8,9.8,37,20.3c10.5,10.7,14.5,26.4,11.3,44c-3.1,16.9-11,32.2-18.6,47l-5.3,10.3c-2.8,5.5-5.7,11-8.5,16.5
			c-3.9,7.8-7.7,15.5-9.6,23.6c-4.1,17.8,1.7,33.1,7.2,42.7c7.7,13.1,18.9,23.7,32.6,30.4c24.8,12.1,57.6,13.9,87.8,4.5
			c29.1-8.9,51.2-26.8,60.9-49.1c6.3-14.6,6.4-30.7,6.4-46.4c0-14.4,1.1-31.4,9.2-47.8c6.8-14,17.1-25.8,29.9-34.7
			c13.5-9.3,29.2-13.5,44.4-17.7l3.3-0.9c17.3-4.8,32.5-9.5,44.5-19.6c11.4-9.5,19.6-23.5,23.4-40.3c7.1-31.3-2.3-64.8-24.4-87.7
			l0,0c-10.1-10.4-22.3-18.3-36-23.2c-12.3-4.5-25.5-6.3-42.7-5.8l-3.8,0.1c-12,0.4-25.5,0.9-36.8-5.6
			c-15.9-9.1-17.4-28.7-13.9-42.9c3.1-12.7,10.5-23.7,17.5-34.3c2.5-3.8,4.9-7.3,7.1-11.1c7.8-13,13.2-27.2,15.9-42.1
			c5.8-32-1.9-61.5-21.3-81.1C411.9,20.6,379.6,16.8,360.5,16.8z"/>
	</g>
</g>
</svg>
