<svg xmlns="http://www.w3.org/2000/svg" viewBox="0 0 200 200"><defs><style>.cls-1{fill:#fb9300;}.cls-2{fill:#f3f3f3;}</style></defs><title>Asset 1</title><g id="Layer_2" data-name="Layer 2"><g id="Layer_1-2" data-name="Layer 1"><circle class="cls-1" cx="100" cy="100" r="100"/><g id="Wyhq96.tif"><path class="cls-2" d="M104.76,70.51h22.08a3.37,3.37,0,0,1,1.57,1.57V94.16c-1,1.8-2.11,2-3.91.85a12.87,12.87,0,0,0-3.37-1.5,7.48,7.48,0,0,0-8.47,2.74,7,7,0,0,0-.74,7.74,7.27,7.27,0,0,0,6.61,4.27,10.08,10.08,0,0,0,6.4-2.09,1.8,1.8,0,0,1,2-.29,9.65,9.65,0,0,1,1.48,1.32v17.92a2.87,2.87,0,0,1-3,1.53c-5.85-.05-11.7,0-17.55,0h-1.28c.1.24.16.36.22.49.56,1.35,1.25,2.68,1.68,4.08a9.58,9.58,0,0,1-7.19,12.5,3.62,3.62,0,0,0-.55.2H97.88a3.39,3.39,0,0,0-.45-.15,9.57,9.57,0,0,1-7.8-8.4A12.25,12.25,0,0,1,90.81,129c.33-.78.71-1.54,1.1-2.37-.29,0-.51,0-.72,0H74.93c-1.87,0-2.65-.77-2.64-2.65q0-8.13,0-16.26c0-.21,0-.43,0-.57-1.68.63-3.27,1.36-4.93,1.83a9.46,9.46,0,0,1-11-4.51A26.55,26.55,0,0,1,55,101V98.17a1.47,1.47,0,0,0,.14-.28,9.51,9.51,0,0,1,4.57-6.6,9.85,9.85,0,0,1,8.81-.61c1.24.46,2.44,1,3.75,1.58V90.55c0-5.68,0-11.37,0-17a2.88,2.88,0,0,1,1.52-3H91.71a.44.44,0,0,0,.13.14c1.47.79,1.7,2,.85,3.46A15.11,15.11,0,0,0,90.94,78c-1.38,5.58,2.73,10.34,8.29,9.72a7.7,7.7,0,0,0,6.5-8.1,11.54,11.54,0,0,0-2-5.56,2.07,2.07,0,0,1,0-2.75A5.25,5.25,0,0,1,104.76,70.51Z"/></g></g></g></svg>