<svg xmlns="http://www.w3.org/2000/svg" viewBox="0 0 972 932.03"><defs><style>.cls-1{fill:#f4d72d;}.cls-2{fill:#f9e47e;}.cls-3{fill:#fff;}.cls-4{fill:none;}</style></defs><title>shoes2</title><g id="Layer_2" data-name="Layer 2"><g id="Layer_1-2" data-name="Layer 1"><path class="cls-1" d="M466.53,816.66c8.1,3.67,8.09,11.62,6.93,18.22a182,182,0,0,0-3,29.31c-.08,7.86,0,15.39-4.92,22.43-4.37,6.31-11.2,11.35-18.41,15.45-14.55,8.26-35.1,13.73-52.93,11.22s-21.55-20.45-15.68-32.22c5.77-11.59,20.39-18.69,35.28-17.11.1-7.19.41-14.39,1-21.58.64-7.86.75-16.4,2.94-24.08,1.89-6.57,9.14-6.73,16.08-6.76,7.8,0,16.43-.09,24,1.62a20.45,20.45,0,0,1,7.21,3.06A5.07,5.07,0,0,1,466.53,816.66ZM464.26,836c.23-1.28.63-2.92.85-4.63a21.2,21.2,0,0,1-7.13,2.31c-8.3,1.29-25.15,1.89-33-3.88l-.21,1.78a326.47,326.47,0,0,0-2.1,37c0,2.3-2.87,4.25-5.68,3.52-15.65-4-31,5.43-32.23,18.54-.44,4.81.86,10.65,5.8,13.79,5.41,3.44,15.23,2.21,21.55,1.4,14.28-1.85,28.18-7.16,38.54-15.47,5.09-4.09,9.16-9,10.31-14.82,1.25-6.42.39-13.19.8-19.69A170.34,170.34,0,0,1,464.26,836Zm-8.66-9.38c2.58-.39,6.43-.88,4.75-3.71-1.21-2-4.4-2.63-6.89-3a.64.64,0,0,0-.2,0h-.07c-6.28,1.5-11.91-.6-18.15-.11-1.69.13-4.9.64-5.22,2.33-.35,1.92,3.55,3.28,5.27,3.79C441.33,827.68,449.16,827.56,455.6,826.57Z"/><path class="cls-2" d="M465.11,831.32c-.22,1.71-.62,3.35-.85,4.63a170.34,170.34,0,0,0-2.48,19.82c-.41,6.5.45,13.27-.8,19.69-1.15,5.85-5.22,10.73-10.31,14.82-10.36,8.31-24.26,13.62-38.54,15.47-6.32.81-16.14,2-21.55-1.4-4.94-3.14-6.24-9-5.8-13.79C386,877.45,401.36,868,417,872c2.81.73,5.68-1.22,5.68-3.52a326.47,326.47,0,0,1,2.1-37l.21-1.78c7.83,5.77,24.68,5.17,33,3.88A21.2,21.2,0,0,0,465.11,831.32Z"/><path class="cls-3" d="M460.35,822.86c1.68,2.83-2.17,3.32-4.75,3.71-6.44,1-14.27,1.11-20.51-.73-1.72-.51-5.62-1.87-5.27-3.79.32-1.69,3.53-2.2,5.22-2.33,6.24-.49,11.87,1.61,18.15.11h.07a.64.64,0,0,1,.2,0C456,820.23,459.14,820.83,460.35,822.86Z"/><path class="cls-1" d="M601.3,879.44c5.86,11.76,2.26,29.68-15.69,32.21s-38.37-3-52.92-11.22c-7.22-4.09-14.05-9.13-18.42-15.43-4.88-7-4.84-14.59-4.93-22.44a179.86,179.86,0,0,0-3-29.32c-1.15-6.59-1.16-14.54,6.93-18.22a5.72,5.72,0,0,1,1.53-.44,20.73,20.73,0,0,1,7.2-3.05c7.59-1.71,16.22-1.65,24-1.62,6.93,0,14.19.18,16.08,6.75,2.19,7.69,2.3,16.23,2.94,24.09.57,7.18.88,14.38,1,21.58C580.89,860.75,595.52,867.84,601.3,879.44Zm-12.1,23.27c4.94-3.13,6.24-9,5.8-13.78-1.21-13.11-16.58-22.59-32.23-18.54-2.8.72-5.67-1.22-5.68-3.53a324.29,324.29,0,0,0-2.1-37c-.07-.59-.13-1.18-.2-1.77-7.83,5.77-24.69,5.16-33,3.87a21.35,21.35,0,0,1-7.13-2.3c.22,1.7.62,3.35.85,4.62A170.49,170.49,0,0,1,518,854.14c.42,6.49-.44,13.27.81,19.69,1.15,5.85,5.21,10.72,10.3,14.81,10.36,8.32,24.26,13.63,38.55,15.47C574,904.92,583.8,906.15,589.2,902.71ZM544.7,824.2c1.71-.51,5.61-1.86,5.26-3.79-.31-1.69-3.53-2.2-5.22-2.33-6.23-.48-11.86,1.62-18.16.12l-.06,0-.2,0c-2.48.39-5.68,1-6.88,3-1.68,2.83,2.17,3.32,4.74,3.71C530.63,825.92,538.45,826.05,544.7,824.2Z"/><path class="cls-2" d="M595,888.93c.44,4.81-.86,10.65-5.8,13.78-5.4,3.44-15.23,2.21-21.54,1.4-14.29-1.84-28.19-7.15-38.55-15.47-5.09-4.09-9.15-9-10.3-14.81-1.25-6.42-.39-13.2-.81-19.69a170.49,170.49,0,0,0-2.47-19.83c-.23-1.27-.63-2.92-.85-4.62a21.35,21.35,0,0,0,7.13,2.3c8.29,1.29,25.15,1.9,33-3.87.07.59.13,1.18.2,1.77a324.29,324.29,0,0,1,2.1,37c0,2.31,2.88,4.25,5.68,3.53C578.42,866.34,593.79,875.82,595,888.93Z"/><path class="cls-3" d="M550,820.41c.35,1.93-3.55,3.28-5.26,3.79-6.25,1.85-14.07,1.72-20.52.74-2.57-.39-6.42-.88-4.74-3.71,1.2-2,4.4-2.63,6.88-3l.2,0,.06,0c6.3,1.5,11.93-.6,18.16-.12C546.43,818.21,549.65,818.72,550,820.41Z"/><rect class="cls-4" width="100" height="118"/><rect class="cls-4" x="872" y="814.03" width="100" height="118"/></g></g></svg>