<svg xmlns="http://www.w3.org/2000/svg" viewBox="0 0 972 932.03"><defs><style>.cls-1{fill:#0d0d0d;}.cls-2{fill:#f9f9fa;}.cls-3{fill:none;}</style></defs><title>shoes1</title><g id="Layer_2" data-name="Layer 2"><g id="Layer_1-2" data-name="Layer 1"><path class="cls-1" d="M551.74,846.79c-.58.8-1.11,1.65-1.64,2.48-6.61,10.62-13.3,7.36-23.49,3.1-13-5.48-10.58,8.35-10.75,16.73a32,32,0,0,0,.2,4.3c1.65,14.48,12.9,25.48,23,34.9l18.83,17.52c1.79,1.67,4.69,1.36,5.67-.63,6.9-13.79,14.27-28.63,14.25-47.44,0-12.43-7.88-22.71-14.9-32.22-2.18-3-5.53-3.7-8.67-1.39A12.06,12.06,0,0,0,551.74,846.79Z"/><path class="cls-1" d="M432,846.79c.58.8,1.11,1.64,1.63,2.48,6.62,10.62,13.31,7.36,23.5,3.1,13-5.48,10.58,8.35,10.75,16.73a32,32,0,0,1-.2,4.3c-1.65,14.47-12.9,25.48-23,34.9l-18.83,17.52c-1.79,1.67-4.69,1.36-5.67-.63-6.9-13.79-14.27-28.63-14.25-47.44,0-12.43,7.88-22.71,14.9-32.22,2.18-3,5.53-3.7,8.67-1.39A12.06,12.06,0,0,1,432,846.79Z"/><path class="cls-1" d="M554.09,816.83c-9.58,5-19.67,3.07-29.5-.22-4.87-1.63-8.16-4.22-8.67-10.07-.44-5-.46-22.5,6.14-23.12a13.07,13.07,0,0,1,4.55.8,29.49,29.49,0,0,0,16.55-.34,13.86,13.86,0,0,1,4.35-1c3.29.08,6,3.61,7.49,6.16,3.23,5.49.43,17.22,1,23.67A4.56,4.56,0,0,1,554.09,816.83Z"/><path class="cls-2" d="M557,849.3c2.57,0,2.58,4,0,4S554.38,849.3,557,849.3Z"/><path class="cls-2" d="M548.05,860.29c2.57,0,2.58,4,0,4S545.47,860.29,548.05,860.29Z"/><path class="cls-2" d="M532.45,863.3c2.58,0,2.58,4,0,4S529.87,863.3,532.45,863.3Z"/><path class="cls-2" d="M521.52,854.3c2.57,0,2.58,4,0,4S518.94,854.3,521.52,854.3Z"/><path class="cls-1" d="M427.78,816.83c9.59,5,19.68,3.07,29.51-.22,4.86-1.63,8.15-4.22,8.66-10.07.45-5,.47-22.5-6.14-23.12a13,13,0,0,0-4.54.8c-9.08,2.47-17.28-1.54-26.27-1.32-4,.1-5.11,8.89-5.15,11.8-.06,6,2.57,12,2,18A4.57,4.57,0,0,0,427.78,816.83Z"/><path class="cls-2" d="M440,809.3c-2.57,0-2.58,4,0,4S442.54,809.3,440,809.3Z"/><path class="cls-2" d="M431,804.3c-2.57,0-2.58,4,0,4S433.54,804.3,431,804.3Z"/><path class="cls-2" d="M450.89,809.3c-2.57,0-2.58,4,0,4S453.47,809.3,450.89,809.3Z"/><path class="cls-2" d="M461.82,804.3c-2.57,0-2.57,4,0,4S464.4,804.3,461.82,804.3Z"/><path class="cls-2" d="M422,849.3c-2.57,0-2.58,4,0,4S424.54,849.3,422,849.3Z"/><path class="cls-2" d="M432.6,860.29c-2.58,0-2.58,4,0,4S435.17,860.29,432.6,860.29Z"/><path class="cls-2" d="M448.19,863.3c-2.57,0-2.57,4,0,4S450.77,863.3,448.19,863.3Z"/><path class="cls-2" d="M459.13,854.3c-2.58,0-2.58,4,0,4S461.7,854.3,459.13,854.3Z"/><path class="cls-2" d="M542.43,809.3c2.58,0,2.58,4,0,4S539.85,809.3,542.43,809.3Z"/><path class="cls-2" d="M551.43,804.3c2.58,0,2.58,4,0,4S548.85,804.3,551.43,804.3Z"/><path class="cls-2" d="M531.5,809.3c2.57,0,2.58,4,0,4S528.92,809.3,531.5,809.3Z"/><path class="cls-2" d="M520.57,804.3c2.57,0,2.58,4,0,4S518,804.3,520.57,804.3Z"/><rect class="cls-3" width="100" height="118"/><rect class="cls-3" x="872" y="814.03" width="100" height="118"/></g></g></svg>