<svg xmlns="http://www.w3.org/2000/svg" viewBox="0 0 972 932.03"><defs><style>.cls-1{fill:#2b3a7a;}.cls-2{fill:#4e5aa8;}.cls-3{fill:#353c98;}.cls-4{fill:none;}</style></defs><title>shoes4</title><g id="Layer_2" data-name="Layer 2"><g id="Layer_1-2" data-name="Layer 1"><g id="_Group_" data-name="&lt;Group&gt;"><path class="cls-1" d="M430.67,793.75v0c-2.17-.68-4.29-1.51-6.35-2.23a39.82,39.82,0,0,0-6.17-1.7C422.74,788.42,429,789.63,430.67,793.75Z"/><path class="cls-1" d="M407.71,793.14a9.89,9.89,0,0,1,5.55-2.21,15,15,0,0,0-4.95,10.58,20.56,20.56,0,0,0-2.58-3C405,796.55,406,794.59,407.71,793.14Z"/><path class="cls-1" d="M456.28,884.86c.51.43,1,.85,1.55,1.27a79.83,79.83,0,0,0-44.27-3.43,6.64,6.64,0,0,0,2.24-4.06l10,.16,23.71.39,3.3,0C452.86,881.51,454.41,883.27,456.28,884.86Z"/><path class="cls-1" d="M455,869.09a14.93,14.93,0,0,1-1.83,4.09.56.56,0,0,0,0,.62l-4.57-.38-11.08-.91a42,42,0,0,0,4.58-1.24,43.26,43.26,0,0,1,10.41-2C453.29,869.25,454.15,869.19,455,869.09Z"/><path class="cls-1" d="M456.52,856.79l-.18,4.24a20.3,20.3,0,0,0-3.17.71,90.66,90.66,0,0,1-14.49,3.64.86.86,0,0,0-.81-.31c-1.52.18-3,.4-4.5.67-.88,0-1.76,0-2.66-.1-1.52-.12-3-.29-4.55-.49l.41-.06h0A1.07,1.07,0,0,0,427,865a100.59,100.59,0,0,0,14.7-3.28c4.92-1.46,9.95-3,14.64-4.89Z"/><path class="cls-1" d="M415.66,841.9c1.09.29,2.21.64,3.35,1a53,53,0,0,0-7.84,1.29,23.42,23.42,0,0,0-.06-3.35C412.63,841.16,414.17,841.51,415.66,841.9Z"/><path class="cls-1" d="M457.17,840.86a24,24,0,0,1-.78,7.18.64.64,0,0,0,.44.76q-6.19-2.09-12.55-3.81C448.61,843.69,452.93,842.33,457.17,840.86Z"/><path class="cls-1" d="M457.77,833.09a.52.52,0,0,0,.1.35c-1.32,0-2.66.07-3.91,0a30.53,30.53,0,0,1-6.28-1c1-.36,2.08-.72,3.12-1.1,2.24-.81,4.86-1.61,7.15-2.71Z"/><path class="cls-1" d="M442.85,838.31l-12,2.74c-2.19.5-4.59,1.3-6.88,1.28-2.5,0-5.07-1-7.43-1.6l-5.62-1.48c3.71-.45,7.42-.85,11.15-1.17l.12,0a87.75,87.75,0,0,0,11.75-1.71A67,67,0,0,0,442.85,838.31Z"/><path class="cls-1" d="M419.29,830.08l-7.94,1.58s0-.06,0-.1a18.8,18.8,0,0,0-.21-5.65,30.75,30.75,0,0,1,4.63,2.52A18.4,18.4,0,0,0,419.29,830.08Z"/><path class="cls-1" d="M438.81,824.19a21,21,0,0,0,4.31,1.09c-2.22.52-4.47,1-6.72,1.4l-3.58.71a34.09,34.09,0,0,1-8.66-3.89c2.33-.77,4.73-1.38,7.07-2.12a.7.7,0,0,0,.4.3C434,822.52,436.41,823.37,438.81,824.19Z"/><path class="cls-1" d="M417.36,813a24.06,24.06,0,0,0,6.28,3.11,92.28,92.28,0,0,1-12.87,2.45h-.65a2,2,0,0,1,0-.24.66.66,0,0,0-.38-.72.57.57,0,0,0,.13-.37c0-2.18-.05-4.35-.08-6.53A15.21,15.21,0,0,1,417.36,813Z"/><path class="cls-1" d="M457.87,812.54l1.46,1c-.19,2.39-.43,4.79-.71,7.18-.79.11-1.57.27-2.33.45-2.83-.11-5.65-.22-8.47-.37-3.2-.17-6.26-1.29-9.43-1.4l-.95-.57c.92-.48,1.83-1,2.74-1.51,5-2.92,10.86-6.45,17.34-4.79A1.06,1.06,0,0,0,457.87,812.54Z"/><path class="cls-2" d="M491.6,892.33a.62.62,0,0,1-.33.91c-6.91,2.87-10.76-6.07-12.14-10a14.57,14.57,0,0,1-.62-8.13c.77-3.41,2.34-6.54,1.67-10.07-.55-2.85-2-5.52-2.65-8.34a19.31,19.31,0,0,1,.22-8.62c.65-3.23,1.52-6.55.61-9.81-.86-3.07-3.05-5.76-4.71-8.56a42.27,42.27,0,0,1-3.77-8.15c-.68-2-1.1-4.16-1.95-6.14a180.57,180.57,0,0,0,.26,22.18,286,286,0,0,0,5.37,35.88c1.19,5.76,2.49,11.51,3.86,17.25,1.22,5.16,2.89,10.51,2.19,15.8-1.15,8.68-9.49,13.48-19.05,15.57a114.62,114.62,0,0,1-15.39,2c-7.23.57-14.46,1.12-21.72,1.26a135.33,135.33,0,0,1-21-1c-4.88-.68-9.88-1.84-14-4.21A14.22,14.22,0,0,1,381,909.38a94.59,94.59,0,0,1-.73-16.3,43.25,43.25,0,0,1,3.52-16.33c2.32-5.18,5.55-10,8.2-15.08a70.28,70.28,0,0,0,8.16-33.09,97.11,97.11,0,0,0-1.43-13.64A23.05,23.05,0,0,0,392,829.1c-.38,4.72,2.29,9.78.43,14.38-1.51,3.72-5.75,5.79-9.21,8.17-10.2,7-8.26,18.44-2.42,27.09a.62.62,0,0,1-.33.9c-7.32,3.3-10-7.29-10.63-11A23.13,23.13,0,0,1,373,851.92a22.51,22.51,0,0,1,5.88-6.14c2.91-2.08,5.95-3.59,7.26-6.76,2.37-5.7-.14-11.89,1.8-17.68A21.8,21.8,0,0,1,398,809.71a42.56,42.56,0,0,1,.4-15c.1-.45.79-.56,1.2-.37a22.73,22.73,0,0,1,4.28,2.58c.16-2.59,2.37-5,5.21-6.31a13.38,13.38,0,0,1,6.26-1.07,13.07,13.07,0,0,1,2-.86c5.51-1.83,12.88-.19,14.86,4.77a.53.53,0,0,1-.34.71c3.64,1,7.38,1.48,11.14.14,4.3-1.54,8.07-4.79,13.11-4.2,2.89.34,5.92,1.88,6.19,4.36l5.77-1.35a.79.79,0,0,1,1,.67,64.27,64.27,0,0,1-.27,8.66c-.22,2.34-.4,4.68-.56,7,4.16,4.11,5.49,9.55,8.42,14.27,1.65,2.66,3.77,5.11,5.24,7.86a22.69,22.69,0,0,1,2.57,8.14c.7,6.23-2.05,12.26-.45,18.48.73,2.86,2.78,5.46,3.26,8.34s-1.12,5.22-1.7,7.83C484.22,880.72,488.13,886.9,491.6,892.33Zm-9-5.17c1.22,2.24,3.53,6,7.11,5.15a51.71,51.71,0,0,1-4.63-8.52,9.8,9.8,0,0,0-3.92.47C481.64,885.24,482.13,886.22,482.65,887.16Zm1.25-12.34c.49-2.93,2.51-5.76,1.67-8.76-.77-2.8-2.58-5.27-3.23-8.13-1.34-6,1.15-11.71.61-17.66a21.65,21.65,0,0,0-3.21-9.41c-1.62-2.62-3.68-5-5.17-7.7-2.16-3.87-3.49-8.15-6.43-11.65,0,.31,0,.63-.05,1,1.77,2.54,2.29,5.42,3.18,8.23a41.18,41.18,0,0,0,4.28,9.19c1.47,2.38,3.18,4.68,4.11,7.25a15.18,15.18,0,0,1,.3,8c-.51,2.84-1.37,5.69-1.24,8.59s1.37,5.54,2.28,8.27a14.17,14.17,0,0,1,.75,7.5c-.6,2.93-2,5.72-2,8.73a15.41,15.41,0,0,0,.94,4.72,11.75,11.75,0,0,1,3.92-.57A15.85,15.85,0,0,1,483.9,874.82Zm-6.71,34.83a15.43,15.43,0,0,0,1-5.78,44.77,44.77,0,0,0-1.64-10c-2.68-11.16-5.2-22.34-7.09-33.61a233.3,233.3,0,0,1-3.4-33.09c-.12-4.89,0-9.78.27-14.67a.45.45,0,0,1,0-.38c.05-.59.09-1.18.13-1.77,0-.19,0-.39.05-.59-.18-.17-.37-.34-.57-.5-.58-.49.05-1.16.71-1.11a114.34,114.34,0,0,0,.87-13.57L461.7,796l-.11,0a.64.64,0,0,1,0,.2,196.42,196.42,0,0,1-1.27,23.5c3.44.65,3.3,4.33,1.53,6.26a11,11,0,0,1-2.56,2,.56.56,0,0,1,.26.5l-.19,4.68a.57.57,0,0,1-.19.4A7,7,0,0,1,461,834a3.52,3.52,0,0,1,2.44,3c-.05,1.48-1.53,2.2-3,2.73l-1.66.59a24.44,24.44,0,0,1-.76,7.84,3.46,3.46,0,0,1,4.69,1.77c.85,2.64-1.86,4.75-4.52,6.11l-.2,4.87c2.46-.07,4.71.58,4.91,3,.26,3.18-2.88,4.4-6.14,4.94a16.67,16.67,0,0,1-2.16,5v0l.32,0a12.22,12.22,0,0,1,4.28.79c1.63.79,2.62,2.89,1,4.1-1,.73-2.63.49-3.84.47l-1.92,0c.13,2.81,3.19,4.78,5.46,6.59s4.45,3.57,6.57,5.44a51.87,51.87,0,0,1,10.65,12.24.55.55,0,0,1,.09.34.72.72,0,0,1-.61.62c-10.76,2.93-22.09,3.73-33.35,3.9-10,.15-20.1.25-30.06-.45-9.29-.65-19.31-2.13-27.26-6.41a25.08,25.08,0,0,1-3.94-2.43c.09,2.3.23,4.61.38,6.9.18,2.78.42,5.62,1.89,8.16,2.28,4,7.2,6.25,12.05,7.55A81,81,0,0,0,414.42,924c6.85.24,13.71,0,20.54-.45,10.62-.68,22.71-.81,32.42-4.88C471.91,916.71,475.62,913.72,477.19,909.65Zm-2-6.19c-3-4.84-7.28-9-11.88-12.89l-1.51-1.24-.05,0a77.2,77.2,0,0,0-51.55-4.43l-.94.4c-4.34,1.68-9.13,2.42-13.51,4.07A64.78,64.78,0,0,0,384.19,895c-1.22.76-2.44,1.43-1.36,2.76a11.62,11.62,0,0,0,2.83,2,32.49,32.49,0,0,0,5.56,2.6c8.76,3.23,18.48,4.2,28,4.52s19.07.34,28.56,0A125.84,125.84,0,0,0,475.21,903.46Zm-14.53-37.74c1.29-1.69.17-3.46-2.2-3.58-.21,0-.42,0-.63,0a1,1,0,0,1-1.36.12,47.24,47.24,0,0,0-7.1,2.1,54.76,54.76,0,0,1-15.64,2.7,64.56,64.56,0,0,0-7.73,1.89c-2.16.67-4.25,1.45-6.43,2,1.43,0,2.87-.06,4.3,0,3.68.07,7.42.79,11.1.64s7-1.84,10.58-2.64a81.77,81.77,0,0,1,9.77-1.08c.16-.72,1.39-.77,1.59-.21A5.88,5.88,0,0,0,460.68,865.72Zm.44-14.27a1.84,1.84,0,0,0-.21-1.67c-1-.95-1.85-.92-2.55.06a.87.87,0,0,1-1.09.4,147.85,147.85,0,0,1-16.16,4.19c-5.65,1.13-11.41,1.65-16.79,3.53-4,1.38-6.63.07-10.08-1.59a11.3,11.3,0,0,0-2.08-.73,30.08,30.08,0,0,1,0,4.35.58.58,0,0,1,.11.35l-.1,2.24c3.5.72,7,1.45,10.56,2a.68.68,0,0,1,.74-1l3.11.08a113.35,113.35,0,0,0,19.87-4.9c3.15-1,6.4-2,9.42-3.27l.76-.34a.82.82,0,0,1,1-.49,11.06,11.06,0,0,0,2.15-1.44A4.35,4.35,0,0,0,461.12,851.45Zm-.67-13.21c1.66-.85,1.45-2,.47-2.67l-.08,0L441.34,840,432,842.17a45.12,45.12,0,0,1-7.19,1.46.76.76,0,0,1-.68.32,52.65,52.65,0,0,0-13.05,1.61v0a.73.73,0,0,1-.7.6c-.1.35-.19.69-.29,1,2.84.66,5.4,2.44,8.42,2.64a26.17,26.17,0,0,0,8.62-1.35l4.17-1.16a.69.69,0,0,1,.8-.55,6.39,6.39,0,0,1,.78.1l1.6-.46q7.57-2.21,15.09-4.59c2.66-.85,5.31-1.71,7.94-2.6A21.49,21.49,0,0,0,460.45,838.24Zm-.15-12.79c1-.91,1.66-2.66.89-3.71a.85.85,0,0,1-.5.15l-.6,0a.8.8,0,0,1-.77.51.79.79,0,0,1-.58.18l-2.34-.1c-2.84.74-5.53,2-8.32,2.88A118.64,118.64,0,0,1,436,828.13l-1.75.35a.87.87,0,0,1-1,.4l-.51-.11-23.71,4.71a.69.69,0,0,1-.36,1.17,3,3,0,0,0-2.22,2.46c0,.86.61,1.19,1.41,1.4a.73.73,0,0,1,.53-.3q6-.78,12.13-1.33a.94.94,0,0,1,.31-.07,84.81,84.81,0,0,0,11.21-1.43c-.13-.49.54-1.08,1.23-.75.25.12.52.23.78.33a103,103,0,0,0,10.17-2.76.73.73,0,0,1,1-.42l.16.06c3.62-1.21,7.24-2.49,10.72-4A13.6,13.6,0,0,0,460.3,825.45ZM458,878c1.75-.47,1.53-1.4.58-2a5.94,5.94,0,0,0-2.35-.58c-6.94-.77-14-1.16-20.94-1.73a.73.73,0,0,1-.74-.82h-.72c-3.46-.07-6.89-.6-10.36-.66a81.14,81.14,0,0,0-11,.59,15.11,15.11,0,0,0-4.78,1c-.89.45-1.58,1-1.47,1.94s1.3,1.38,2.48,1.49c1.91.17,3.87.19,5.82.18a1.07,1.07,0,0,1,1,0c1,0,2.05,0,3.07,0l21.7.35,10.86.18,5.63.09A6,6,0,0,0,458,878Zm-.14,8.14c-.52-.42-1-.84-1.55-1.27-1.87-1.59-3.42-3.35-3.51-5.62l-3.3,0-23.71-.39-10-.16a6.64,6.64,0,0,1-2.24,4.06A79.83,79.83,0,0,1,457.83,886.13Zm2.87-90.82c.34-2.12-1.84-3.37-4.11-3.8-2.78-.53-5.22.42-7.59,1.54a40.05,40.05,0,0,1-6.84,2.94,18.71,18.71,0,0,1-8.09.09c-6.28-1.17-11.74-4.74-18.26-5.18-4.95,2.94-6.25,8.71-5.88,13.47a17.83,17.83,0,0,1,8.92,1.59,25,25,0,0,1,4.77,2.92c.67.52,4.58,4.53,5.41,4.11s1.65.73.77,1.18l-.28.12c-1.21.44-2.26-.28-3.11-1a57.14,57.14,0,0,0-4.48-3.83c-3.43-2.5-7.84-4.27-12.39-3.64a20.61,20.61,0,0,1,.27,3.61,15.53,15.53,0,0,1,6.38,1.4c2.84,1.31,5.06,3.41,8.27,4.16a.59.59,0,0,1,.51.81c1.54-.43,3.07-.9,4.58-1.41,2.13-.72,4.24-1.51,6.31-2.37,7.28-3,14.88-6.52,23.31-5.69a.77.77,0,0,1,.61.32q.25-5.22.23-10.46c0-.4.34-.6.72-.61A.45.45,0,0,1,460.7,795.31Zm-1.24,16.58c.11-1.48.21-3,.28-4.46a.71.71,0,0,1-.62.19c-8.87-.87-16.68,3.22-24.33,6.29a90.47,90.47,0,0,1-19.39,5.37,34.55,34.55,0,0,1,7.28,3.37.71.71,0,0,1,.31-.19c3.25-1.11,6.68-1.87,9.89-3.08a55.47,55.47,0,0,0,8.22-4.25c4.91-2.83,10.69-5.45,16.83-3.91a.8.8,0,0,1,.63.07Zm-.13,1.63-1.46-1a1.06,1.06,0,0,1-.35,0c-6.48-1.66-12.32,1.87-17.34,4.79-.91.52-1.82,1-2.74,1.51l.95.57c3.17.11,6.23,1.23,9.43,1.4,2.82.15,5.64.26,8.47.37.76-.18,1.54-.34,2.33-.45C458.9,818.31,459.14,815.91,459.33,813.52Zm-15.4,24.54,14.31-3.26c-1.07-.06-2.18,0-3.23,0a32.16,32.16,0,0,1-3.67-.25,32.86,32.86,0,0,1-5.95-1.31c-2.89.93-5.82,1.77-8.78,2.48,2.28.57,4.74.88,6.92,1.33A.59.59,0,0,1,443.93,838.06Zm13.94-4.62a.52.52,0,0,1-.1-.35l.18-4.4c-2.29,1.1-4.91,1.9-7.15,2.71-1,.38-2.08.74-3.12,1.1a30.53,30.53,0,0,0,6.28,1C455.21,833.51,456.55,833.41,457.87,833.44ZM456.39,848a24,24,0,0,0,.78-7.18c-4.24,1.47-8.56,2.83-12.89,4.13q6.35,1.72,12.55,3.81A.64.64,0,0,1,456.39,848Zm-.05,13,.18-4.24-.2.08c-4.69,1.91-9.72,3.43-14.64,4.89A100.59,100.59,0,0,1,427,865a1.07,1.07,0,0,1-.37.05h0l-.41.06c1.52.2,3,.37,4.55.49.9.07,1.78.1,2.66.1,1.48-.27,3-.49,4.5-.67a.86.86,0,0,1,.81.31,90.66,90.66,0,0,0,14.49-3.64A20.3,20.3,0,0,1,456.34,861Zm-3.13,12.15a14.93,14.93,0,0,0,1.83-4.09c-.89.1-1.75.16-2.5.21a43.26,43.26,0,0,0-10.41,2,42,42,0,0,1-4.58,1.24l11.08.91,4.57.38A.56.56,0,0,1,453.21,873.18ZM450,823.28l2.55-.94c-1.6-.07-3.19-.14-4.79-.23a30.08,30.08,0,0,1-4.66-.53,33.45,33.45,0,0,0-4.62-.84.78.78,0,0,1-.6,0h-.39c-.54,0-.78-.33-.75-.68l-.81-.48c-.91.43-1.86.84-2.83,1.19l5.53,1.93a16.59,16.59,0,0,0,6.81,1.33.61.61,0,0,1,.74.49C447.47,824.14,448.75,823.74,450,823.28Zm-4.58,28.84q4.77-1.11,9.41-2.54-6.37-2.1-12.91-3.83a.29.29,0,0,1-.1,0c-2.2.65-4.41,1.29-6.61,1.92.81.35,1.59.77,2.42,1.15a49.47,49.47,0,0,0,7.26,2.66A.65.65,0,0,1,445.42,852.12Zm-3.94.86c.74-.15,1.47-.3,2.21-.47a50.74,50.74,0,0,1-4.95-1.73c-1.83-.75-3.75-2-5.78-2.49l-.33.09c-4.46,1.27-9.37,3.14-14.19,2.83a17.05,17.05,0,0,1-5.64-1.55c-2-.85-4.45-1.94-6.74-1-3.73,1.55.12,4.14,2.46,4.67a30.85,30.85,0,0,1,5.76,1.5c2,.9,4.11,2.45,6.55,2.48,2.11,0,4.19-1.15,6.17-1.68C431.69,854.39,436.69,854,441.48,853Zm-10.65-11.93,12-2.74a67,67,0,0,1-8.93-2,87.75,87.75,0,0,1-11.75,1.71l-.12,0c-3.73.32-7.44.72-11.15,1.17l5.62,1.48c2.36.61,4.93,1.57,7.43,1.6C426.24,842.35,428.64,841.55,430.83,841.05Zm12.29-15.77a21,21,0,0,1-4.31-1.09c-2.4-.82-4.78-1.67-7.18-2.51a.7.7,0,0,1-.4-.3c-2.34.74-4.74,1.35-7.07,2.12a34.09,34.09,0,0,0,8.66,3.89l3.58-.71C438.65,826.24,440.9,825.8,443.12,825.28Zm-14.48,41.5-.26,0c-7.46-.88-14.83-2.6-22.18-4a.61.61,0,0,1-.54-.44,1.74,1.74,0,0,0-1.56,2.36c.18.54,1,1.07,1.47,1.45a18.34,18.34,0,0,0,3.37,2c.52.24,1.06.46,1.61.65a2,2,0,0,0,1.15.76,2.8,2.8,0,0,0,1.32,0h0l-.15,0,.22,0h.77a1.73,1.73,0,0,0,.45,0c.06.12.12.23.17.35.65.11,1.29.2,1.95.25,3.57-.24,6.8-1.7,10.14-2.68C427.27,867.14,428,867,428.64,866.78Zm-6.51-37.27,7.94-1.57c-6.45-2.49-11.86-7.91-19-8.05L410,820a17.46,17.46,0,0,0,.38,4.17c4.31,1.27,7.23,4.18,11.66,5.29Zm8.55-35.73v0c-1.65-4.12-7.93-5.33-12.51-3.9a39.82,39.82,0,0,1,6.17,1.7C426.39,792.27,428.51,793.1,430.68,793.78Zm-7,22.35a24.06,24.06,0,0,1-6.28-3.11,15.21,15.21,0,0,0-7.53-2.3c0,2.18.05,4.35.08,6.53a.57.57,0,0,1-.13.37.66.66,0,0,1,.38.72,2,2,0,0,0,0,.24h.65A92.28,92.28,0,0,0,423.64,816.13Zm-12.29,15.53,7.94-1.58a18.4,18.4,0,0,1-3.5-1.65,30.75,30.75,0,0,0-4.63-2.52,18.8,18.8,0,0,1,.21,5.65S411.35,831.63,411.35,831.66ZM419,842.85c-1.14-.31-2.26-.66-3.35-1-1.49-.39-3-.74-4.55-1.11a23.42,23.42,0,0,1,.06,3.35A53,53,0,0,1,419,842.85Zm-4.83,35.77h-.08c-2.5,0-6.32.45-8.47-1-1.64-1.07-1.45-3-.17-4.2,1.81-1.72,5.21-1.86,7.74-2.14h.15l0-.08c0-.11-.06-.23-.09-.34a20.44,20.44,0,0,1-9.52-4.4c-1.25-1.13-2-2.64-.95-4a4.17,4.17,0,0,1,4.05-1.39c.41.06.57.3.56.56l3.16.63,0-.85a.59.59,0,0,1-.15-.44,30.27,30.27,0,0,0,.11-5.71c-2.91-.64-6-1.19-7.25-3.49s1-4.28,3.63-4.69a7.7,7.7,0,0,1,1.58-.07l.46-1.66a.63.63,0,0,1,.14-.52l0-.11a.6.6,0,0,1,.43-.43,25.4,25.4,0,0,0-.08-3.9c-1.12-.29-2.22-.6-3.29-1-1.44-.49-1.49-2-1.12-3.14a4.67,4.67,0,0,1,3.3-2.92h0a.63.63,0,0,1,.32-1.16q.6-.13,1.2-.24a.53.53,0,0,1-.14-.43,18.8,18.8,0,0,0,.13-2,.41.41,0,0,1-.08-.19c-.58-3.1-1.6-6.38-1.43-9.56a.59.59,0,0,1,.1-1c0-.27.09-.53.14-.79a1,1,0,0,1,.07-.18.61.61,0,0,1-.39-.56c0-2.15-.05-4.3-.08-6.44a5.51,5.51,0,0,0-.57.06c-1,.12-1.41-1.18-.38-1.3.31,0,.62-.07.94-.09a23.28,23.28,0,0,0-.24-3.35l-.12,0a.68.68,0,1,1-.38-1.3l.18,0a7,7,0,0,0-.38-1,.48.48,0,0,1,.23-.66,17.07,17.07,0,0,0-2.19-2.93.72.72,0,0,1-.67-.34,5.93,5.93,0,0,1-.34-.66,20.89,20.89,0,0,0-4.52-3.17,33.74,33.74,0,0,0-.61,7.77c.18,5.71,1.44,11.35,2.12,17a69.09,69.09,0,0,1,.14,15.48,75.74,75.74,0,0,1-9.95,29.6c-2.8,4.92-5.84,9.8-7.58,15.07a45,45,0,0,0-2,13.79,41.53,41.53,0,0,1,3.89-2.25c1.79-1,3.65-1.94,5.56-2.78a76.68,76.68,0,0,1,12.54-4.22,40.64,40.64,0,0,0,4.05-1.19.85.85,0,0,1,.44-.29l.92-.25C411.79,882.63,413.86,881.05,414.18,878.62Zm-.92-87.69a9.89,9.89,0,0,0-5.55,2.21c-1.69,1.45-2.7,3.41-2,5.33a20.56,20.56,0,0,1,2.58,3A15,15,0,0,1,413.26,790.93Zm-14.79,22.2c-.09-.63-.17-1.27-.26-1.9-5.12,3.17-8.63,8-9.37,13.29-.71,5,.93,10.26-1.24,15.14-2.06,4.61-7.79,6.47-11.17,10.27a21.25,21.25,0,0,0-5.34,14.93,31.76,31.76,0,0,0,.58,4.55h.09l3.06.09a18.49,18.49,0,0,1-.44-6.42,16.83,16.83,0,0,1,6.7-11.63c4.26-3.21,10-5.45,10.37-10.81.17-2.8-.82-5.57-1-8.35a21.52,21.52,0,0,1,.61-6.87A25.37,25.37,0,0,1,398.47,813.13ZM372,870.74c1,4.35,3.13,9.11,7,8a31.89,31.89,0,0,1-3.8-7.9Z"/><path class="cls-3" d="M489.76,892.31c-3.58.89-5.89-2.91-7.11-5.15-.52-.94-1-1.92-1.44-2.9a9.8,9.8,0,0,1,3.92-.47A51.71,51.71,0,0,0,489.76,892.31Z"/><path class="cls-3" d="M485.57,866.06c.84,3-1.18,5.83-1.67,8.76a15.85,15.85,0,0,0,.74,7.6,11.75,11.75,0,0,0-3.92.57,15.41,15.41,0,0,1-.94-4.72c-.07-3,1.37-5.8,2-8.73A14.17,14.17,0,0,0,481,862c-.91-2.73-2.16-5.41-2.28-8.27s.73-5.75,1.24-8.59a15.18,15.18,0,0,0-.3-8c-.93-2.57-2.64-4.87-4.11-7.25a41.18,41.18,0,0,1-4.28-9.19c-.89-2.81-1.41-5.69-3.18-8.23,0-.32,0-.64.05-1,2.94,3.5,4.27,7.78,6.43,11.65,1.49,2.67,3.55,5.08,5.17,7.7a21.65,21.65,0,0,1,3.21,9.41c.54,6-1.95,11.7-.61,17.66C483,860.79,484.8,863.26,485.57,866.06Z"/><path class="cls-2" d="M478.17,903.87a15.43,15.43,0,0,1-1,5.78c-1.57,4.07-5.28,7.06-9.81,9-9.71,4.07-21.8,4.2-32.42,4.88-6.83.43-13.69.69-20.54.45a81,81,0,0,1-18.16-2.23c-4.85-1.3-9.77-3.59-12.05-7.55-1.47-2.54-1.71-5.38-1.89-8.16-.15-2.29-.29-4.6-.38-6.9a25.08,25.08,0,0,0,3.94,2.43c7.95,4.28,18,5.76,27.26,6.41,10,.7,20.08.6,30.06.45,11.26-.17,22.59-1,33.35-3.9a.72.72,0,0,0,.61-.62Z"/><path class="cls-2" d="M478.17,903.87h-1a.55.55,0,0,0-.09-.34,51.87,51.87,0,0,0-10.65-12.24c-2.12-1.87-4.34-3.66-6.57-5.44s-5.33-3.78-5.46-6.59l1.92,0c1.21,0,2.83.26,3.84-.47,1.64-1.21.65-3.31-1-4.1a12.22,12.22,0,0,0-4.28-.79l-.32,0v0a16.67,16.67,0,0,0,2.16-5c3.26-.54,6.4-1.76,6.14-4.94-.2-2.46-2.45-3.11-4.91-3l.2-4.87c2.66-1.36,5.37-3.47,4.52-6.11a3.46,3.46,0,0,0-4.69-1.77,24.44,24.44,0,0,0,.76-7.84l1.66-.59c1.46-.53,2.94-1.25,3-2.73a3.52,3.52,0,0,0-2.44-3,7,7,0,0,0-1.77-.45.57.57,0,0,0,.19-.4l.19-4.68a.56.56,0,0,0-.26-.5,11,11,0,0,0,2.56-2c1.77-1.93,1.91-5.61-1.53-6.26a196.42,196.42,0,0,0,1.27-23.5.64.64,0,0,0,0-.2l.11,0,5.82-1.35a114.34,114.34,0,0,1-.87,13.57c-.66-.05-1.29.62-.71,1.11.2.16.39.33.57.5,0,.2,0,.4-.05.59,0,.59-.08,1.18-.13,1.77a.45.45,0,0,0,0,.38c-.31,4.89-.39,9.78-.27,14.67a233.3,233.3,0,0,0,3.4,33.09c1.89,11.27,4.41,22.45,7.09,33.61A44.77,44.77,0,0,1,478.17,903.87Z"/><path class="cls-1" d="M463.33,890.57c4.6,3.88,8.85,8,11.88,12.89a125.84,125.84,0,0,1-27.45,3.5c-9.49.3-19.07.28-28.56,0s-19.22-1.29-28-4.52a32.49,32.49,0,0,1-5.56-2.6,11.62,11.62,0,0,1-2.83-2c-1.08-1.33.14-2,1.36-2.76a64.78,64.78,0,0,1,11.58-5.67c4.38-1.65,9.17-2.39,13.51-4.07l.94-.4a77.2,77.2,0,0,1,51.55,4.43l.05,0Z"/><path class="cls-3" d="M458.48,862.14c2.37.12,3.49,1.89,2.2,3.58a5.88,5.88,0,0,1-3.75,1.85c-.2-.56-1.43-.51-1.59.21a81.77,81.77,0,0,0-9.77,1.08c-3.55.8-6.85,2.49-10.58,2.64s-7.42-.57-11.1-.64c-1.43,0-2.87,0-4.3,0,2.18-.51,4.27-1.29,6.43-2a64.56,64.56,0,0,1,7.73-1.89,54.76,54.76,0,0,0,15.64-2.7,47.24,47.24,0,0,1,7.1-2.1,1,1,0,0,0,1.36-.12C458.06,862.12,458.27,862.12,458.48,862.14Z"/><path class="cls-3" d="M460.91,849.78a1.84,1.84,0,0,1,.21,1.67,4.35,4.35,0,0,1-1.38,1.86,11.06,11.06,0,0,1-2.15,1.44.82.82,0,0,0-1,.49l-.76.34c-3,1.27-6.27,2.25-9.42,3.27a113.35,113.35,0,0,1-19.87,4.9l-3.11-.08a.68.68,0,0,0-.74,1c-3.54-.59-7.06-1.32-10.56-2l.1-2.24a.58.58,0,0,0-.11-.35,30.08,30.08,0,0,0,0-4.35,11.3,11.3,0,0,1,2.08.73c3.45,1.66,6.11,3,10.08,1.59,5.38-1.88,11.14-2.4,16.79-3.53a147.85,147.85,0,0,0,16.16-4.19.87.87,0,0,0,1.09-.4C459.06,848.86,459.91,848.83,460.91,849.78Z"/><path class="cls-3" d="M460.92,835.57c1,.71,1.19,1.82-.47,2.67a21.49,21.49,0,0,1-3,1c-2.63.89-5.28,1.75-7.94,2.6q-7.5,2.39-15.09,4.59l-1.6.46a6.39,6.39,0,0,0-.78-.1.69.69,0,0,0-.8.55l-4.17,1.16a26.17,26.17,0,0,1-8.62,1.35c-3-.2-5.58-2-8.42-2.64.1-.34.19-.68.29-1a.73.73,0,0,0,.7-.6v0A52.65,52.65,0,0,1,424.11,844a.76.76,0,0,0,.68-.32,45.12,45.12,0,0,0,7.19-1.46l9.36-2.13,19.5-4.45Z"/><path class="cls-3" d="M461.19,821.74c.77,1,.08,2.8-.89,3.71a13.6,13.6,0,0,1-4.17,2.44c-3.48,1.46-7.1,2.74-10.72,4l-.16-.06a.73.73,0,0,0-1,.42A103,103,0,0,1,434.1,835c-.26-.1-.53-.21-.78-.33-.69-.33-1.36.26-1.23.75a84.81,84.81,0,0,1-11.21,1.43.94.94,0,0,0-.31.07q-6.09.55-12.13,1.33a.73.73,0,0,0-.53.3c-.8-.21-1.43-.54-1.41-1.4a3,3,0,0,1,2.22-2.46.69.69,0,0,0,.36-1.17l23.71-4.71.51.11a.87.87,0,0,0,1-.4l1.75-.35a118.64,118.64,0,0,0,12.07-2.75c2.79-.87,5.48-2.14,8.32-2.88l2.34.1a.79.79,0,0,0,.58-.18.8.8,0,0,0,.77-.51l.6,0A.85.85,0,0,0,461.19,821.74Z"/><path class="cls-3" d="M458.55,876c.95.62,1.17,1.55-.58,2a6,6,0,0,1-1.2,0l-5.63-.09-10.86-.18-21.7-.35c-1,0-2.05,0-3.07,0a1.07,1.07,0,0,0-1,0c-2,0-3.91,0-5.82-.18-1.18-.11-2.34-.45-2.48-1.49s.58-1.49,1.47-1.94a15.11,15.11,0,0,1,4.78-1,81.14,81.14,0,0,1,11-.59c3.47.06,6.9.59,10.36.66h.72a.73.73,0,0,0,.74.82c7,.57,14,1,20.94,1.73A5.94,5.94,0,0,1,458.55,876Z"/><path class="cls-2" d="M456.59,791.51c2.27.43,4.45,1.68,4.11,3.8a.45.45,0,0,0,0,.23c-.38,0-.72.21-.72.61q0,5.24-.23,10.46a.77.77,0,0,0-.61-.32c-8.43-.83-16,2.68-23.31,5.69-2.07.86-4.18,1.65-6.31,2.37l0-.06.28-.12c.88-.45.12-1.63-.77-1.18s-4.74-3.59-5.41-4.11a25,25,0,0,0-4.77-2.92,17.83,17.83,0,0,0-8.92-1.59c-.37-4.76.93-10.53,5.88-13.47,6.52.44,12,4,18.26,5.18a18.71,18.71,0,0,0,8.09-.09,40.05,40.05,0,0,0,6.84-2.94C451.37,791.93,453.81,791,456.59,791.51Z"/><path class="cls-3" d="M459.74,807.43c-.07,1.49-.17,3-.28,4.46l-.9-.6a.8.8,0,0,0-.63-.07c-6.14-1.54-11.92,1.08-16.83,3.91a55.47,55.47,0,0,1-8.22,4.25c-3.21,1.21-6.64,2-9.89,3.08a.71.71,0,0,0-.31.19,34.55,34.55,0,0,0-7.28-3.37,90.47,90.47,0,0,0,19.39-5.37c7.65-3.07,15.46-7.16,24.33-6.29A.71.71,0,0,0,459.74,807.43Z"/><path class="cls-3" d="M458.24,834.8l-14.31,3.26a.59.59,0,0,0-.4-1c-2.18-.45-4.64-.76-6.92-1.33,3-.71,5.89-1.55,8.78-2.48a32.86,32.86,0,0,0,5.95,1.31,32.16,32.16,0,0,0,3.67.25C456.06,834.84,457.17,834.74,458.24,834.8Z"/><path class="cls-3" d="M452.55,822.34l-2.55.94c-1.25.46-2.53.86-3.82,1.22a.61.61,0,0,0-.74-.49,16.59,16.59,0,0,1-6.81-1.33l-5.53-1.93c1-.35,1.92-.76,2.83-1.19l.81.48c0,.35.21.69.75.68h.39a.78.78,0,0,0,.6,0,33.45,33.45,0,0,1,4.62.84,30.08,30.08,0,0,0,4.66.53C449.36,822.2,451,822.27,452.55,822.34Z"/><path class="cls-3" d="M454.83,849.58q-4.63,1.42-9.41,2.54a.65.65,0,0,0-.53-.67,49.47,49.47,0,0,1-7.26-2.66c-.83-.38-1.61-.8-2.42-1.15,2.2-.63,4.41-1.27,6.61-1.92a.29.29,0,0,0,.1,0Q448.46,847.47,454.83,849.58Z"/><path class="cls-3" d="M443.69,852.51c-.74.17-1.47.32-2.21.47-4.79,1-9.79,1.41-14.48,2.67-2,.53-4.06,1.71-6.17,1.68-2.44,0-4.51-1.58-6.55-2.48a30.85,30.85,0,0,0-5.76-1.5c-2.34-.53-6.19-3.12-2.46-4.67,2.29-1,4.71.13,6.74,1a17.05,17.05,0,0,0,5.64,1.55c4.82.31,9.73-1.56,14.19-2.83l.33-.09c2,.44,4,1.74,5.78,2.49A50.74,50.74,0,0,0,443.69,852.51Z"/><path class="cls-3" d="M428.38,866.75l.26,0c-.69.17-1.37.36-2.05.56-3.34,1-6.57,2.44-10.14,2.68-.66,0-1.3-.14-1.95-.25-.05-.12-.11-.23-.17-.35a1.73,1.73,0,0,1-.45,0h-.77l-.22,0,.15,0h0a2.8,2.8,0,0,1-1.32,0,2,2,0,0,1-1.15-.76c-.55-.19-1.09-.41-1.61-.65a18.34,18.34,0,0,1-3.37-2c-.51-.38-1.29-.91-1.47-1.45a1.74,1.74,0,0,1,1.56-2.36.61.61,0,0,0,.54.44C413.55,864.15,420.92,865.87,428.38,866.75Z"/><path class="cls-3" d="M430.07,827.94l-7.94,1.57-.14,0c-4.43-1.11-7.35-4-11.66-5.29A17.46,17.46,0,0,1,410,820l1.08-.12C418.21,820,423.62,825.45,430.07,827.94Z"/><path class="cls-3" d="M429.52,814.29l0,.06c-1.51.51-3,1-4.58,1.41a.59.59,0,0,0-.51-.81c-3.21-.75-5.43-2.85-8.27-4.16a15.53,15.53,0,0,0-6.38-1.4,20.61,20.61,0,0,0-.27-3.61c4.55-.63,9,1.14,12.39,3.64a57.14,57.14,0,0,1,4.48,3.83C427.26,814,428.31,814.73,429.52,814.29Z"/><path class="cls-2" d="M414.1,878.62h.08c-.32,2.43-2.39,4-4.91,5.11l-.92.25a.85.85,0,0,0-.44.29,40.64,40.64,0,0,1-4.05,1.19,76.68,76.68,0,0,0-12.54,4.22c-1.91.84-3.77,1.77-5.56,2.78a41.53,41.53,0,0,0-3.89,2.25,45,45,0,0,1,2-13.79c1.74-5.27,4.78-10.15,7.58-15.07a75.74,75.74,0,0,0,9.95-29.6,69.09,69.09,0,0,0-.14-15.48c-.68-5.68-1.94-11.32-2.12-17a33.74,33.74,0,0,1,.61-7.77,20.89,20.89,0,0,1,4.52,3.17,5.93,5.93,0,0,0,.34.66.72.72,0,0,0,.67.34,17.07,17.07,0,0,1,2.19,2.93.48.48,0,0,0-.23.66,7,7,0,0,1,.38,1l-.18,0a.68.68,0,1,0,.38,1.3l.12,0a23.28,23.28,0,0,1,.24,3.35c-.32,0-.63,0-.94.09-1,.12-.65,1.42.38,1.3a5.51,5.51,0,0,1,.57-.06c0,2.14.05,4.29.08,6.44a.61.61,0,0,0,.39.56,1,1,0,0,0-.07.18c-.05.26-.1.52-.14.79a.59.59,0,0,0-.1,1c-.17,3.18.85,6.46,1.43,9.56a.41.41,0,0,0,.08.19,18.8,18.8,0,0,1-.13,2,.53.53,0,0,0,.14.43q-.6.1-1.2.24a.63.63,0,0,0-.32,1.16h0a4.67,4.67,0,0,0-3.3,2.92c-.37,1.14-.32,2.65,1.12,3.14,1.07.36,2.17.67,3.29,1a25.4,25.4,0,0,1,.08,3.9.6.6,0,0,0-.43.43l0,.11a.63.63,0,0,0-.14.52l-.46,1.66a7.7,7.7,0,0,0-1.58.07c-2.68.41-4.86,2.39-3.63,4.69s4.34,2.85,7.25,3.49a30.27,30.27,0,0,1-.11,5.71.59.59,0,0,0,.15.44l0,.85-3.16-.63c0-.26-.15-.5-.56-.56a4.17,4.17,0,0,0-4.05,1.39c-1,1.41-.3,2.92.95,4a20.44,20.44,0,0,0,9.52,4.4c0,.11.07.23.09.34l0,.08h-.15c-2.53.28-5.93.42-7.74,2.14-1.28,1.22-1.47,3.13.17,4.2C407.78,879.07,411.6,878.57,414.1,878.62Z"/><path class="cls-3" d="M398.21,811.23c.09.63.17,1.27.26,1.9A25.37,25.37,0,0,0,391,825.41a21.52,21.52,0,0,0-.61,6.87c.22,2.78,1.21,5.55,1,8.35-.35,5.36-6.11,7.6-10.37,10.81a16.83,16.83,0,0,0-6.7,11.63,18.49,18.49,0,0,0,.44,6.42l-3.06-.09h-.09a31.76,31.76,0,0,1-.58-4.55,21.25,21.25,0,0,1,5.34-14.93c3.38-3.8,9.11-5.66,11.17-10.27,2.17-4.88.53-10.11,1.24-15.14C389.58,819.24,393.09,814.4,398.21,811.23Z"/><path class="cls-3" d="M379,878.74c-3.9,1.11-6-3.65-7-8l3.23.1A31.89,31.89,0,0,0,379,878.74Z"/></g><g id="_Group_2" data-name="&lt;Group&gt;"><path class="cls-1" d="M544.06,793.25l0,0c2.16-.7,4.28-1.55,6.33-2.28a39.91,39.91,0,0,1,6.15-1.74C551.93,787.86,545.66,789.12,544.06,793.25Z"/><path class="cls-1" d="M567,792.49a10,10,0,0,0-5.57-2.18,15,15,0,0,1,5,10.55A19.35,19.35,0,0,1,569,797.8C569.73,795.88,568.71,793.93,567,792.49Z"/><path class="cls-1" d="M519.29,884.51c-.5.43-1,.86-1.53,1.28A79.69,79.69,0,0,1,562,882.08a6.61,6.61,0,0,1-2.27-4l-10,.22-23.71.53-3.3.08C522.68,881.14,521.15,882.91,519.29,884.51Z"/><path class="cls-1" d="M520.39,868.74a14.78,14.78,0,0,0,1.86,4.07.54.54,0,0,1,0,.62l4.57-.41,11.07-1a40.51,40.51,0,0,1-4.6-1.21,43.26,43.26,0,0,0-10.42-1.9C522.14,868.89,521.28,868.83,520.39,868.74Z"/><path class="cls-1" d="M518.79,856.44l.22,4.24a20.84,20.84,0,0,1,3.18.69,90.68,90.68,0,0,0,14.52,3.55.86.86,0,0,1,.81-.31c1.52.17,3,.38,4.51.64.87,0,1.75,0,2.65-.12,1.52-.13,3-.3,4.55-.52l-.41-.05h0a1.06,1.06,0,0,1-.37-.06,99.74,99.74,0,0,1-14.73-3.18c-4.93-1.43-10-2.91-14.68-4.8Z"/><path class="cls-1" d="M559.51,841.3c-1.08.29-2.2.64-3.34,1A55.77,55.77,0,0,1,564,843.5a24.82,24.82,0,0,1,0-3.34C562.53,840.54,561,840.9,559.51,841.3Z"/><path class="cls-1" d="M518,840.52a23.92,23.92,0,0,0,.86,7.17.66.66,0,0,1-.44.77q6.17-2.13,12.52-3.9C526.58,843.29,522.25,842,518,840.52Z"/><path class="cls-1" d="M517.32,832.76a.54.54,0,0,1-.09.34c1.31,0,2.66.06,3.9,0a31.15,31.15,0,0,0,6.28-1c-1-.35-2.09-.71-3.13-1.08-2.25-.8-4.88-1.58-7.18-2.67Z"/><path class="cls-1" d="M532.29,837.87l12.05,2.67c2.19.48,4.6,1.28,6.89,1.23,2.5,0,5.06-1,7.41-1.64l5.61-1.51q-5.57-.66-11.16-1.11l-.12,0a87.59,87.59,0,0,1-11.76-1.63A67,67,0,0,1,532.29,837.87Z"/><path class="cls-1" d="M555.77,829.5l8,1.52a.29.29,0,0,1,0-.09,18.16,18.16,0,0,1,.16-5.65,29,29,0,0,0-4.61,2.55A19,19,0,0,1,555.77,829.5Z"/><path class="cls-1" d="M536.2,823.73a21.11,21.11,0,0,1-4.3,1.12c2.23.5,4.48.93,6.73,1.36l3.59.69a33.85,33.85,0,0,0,8.62-3.95c-2.33-.76-4.74-1.35-7.08-2.07a.83.83,0,0,1-.41.3C541,822,538.59,822.89,536.2,823.73Z"/><path class="cls-1" d="M557.55,812.42a23.89,23.89,0,0,1-6.26,3.15,93,93,0,0,0,12.89,2.37h.66c0-.08,0-.16-.05-.24a.65.65,0,0,1,.38-.72.57.57,0,0,1-.13-.37c0-2.18,0-4.36,0-6.53A15.08,15.08,0,0,0,557.55,812.42Z"/><path class="cls-1" d="M517,812.2l-1.45,1q.31,3.6.78,7.18a20,20,0,0,1,2.33.44c2.83-.14,5.65-.27,8.47-.43,3.19-.19,6.25-1.33,9.42-1.46l.94-.58c-.93-.47-1.85-1-2.75-1.49-5.06-2.88-10.92-6.38-17.39-4.68A1.06,1.06,0,0,1,517,812.2Z"/><path class="cls-2" d="M489.85,874.21c-.6-2.61-2.2-5.09-1.77-7.82s2.48-5.49,3.19-8.36c1.54-6.23-1.27-12.25-.62-18.48a22.51,22.51,0,0,1,2.49-8.16c1.44-2.75,3.54-5.21,5.17-7.89,2.88-4.74,4.16-10.18,8.28-14.32-.18-2.34-.39-4.67-.62-7a64.12,64.12,0,0,1-.36-8.65.8.8,0,0,1,1-.68l5.8,1.31c.24-2.48,3.25-4,6.14-4.4,5-.62,8.83,2.61,13.15,4.12,3.77,1.31,7.51.83,11.14-.21a.53.53,0,0,1-.35-.7c1.93-5,9.29-6.67,14.82-4.87a13.58,13.58,0,0,1,2,.84,13.57,13.57,0,0,1,6.27,1c2.84,1.28,5.08,3.69,5.26,6.28a23.21,23.21,0,0,1,4.26-2.61c.4-.19,1.09-.09,1.2.36a42.4,42.4,0,0,1,.54,15A21.82,21.82,0,0,1,587,820.56c2,5.78-.45,12,2,17.67,1.34,3.16,4.4,4.65,7.33,6.71a22.77,22.77,0,0,1,5.94,6.1,23.2,23.2,0,0,1,3.28,16.75c-.61,3.67-3.17,14.27-10.52,11a.62.62,0,0,1-.34-.9c5.75-8.68,7.59-20.12-2.68-27.07-3.48-2.36-7.74-4.4-9.28-8.12-1.9-4.58.72-9.66.3-14.38a23.15,23.15,0,0,0-6.84-14.11,95.51,95.51,0,0,0-1.3,13.65,70.31,70.31,0,0,0,8.47,33c2.69,5,6,9.86,8.33,15a43.31,43.31,0,0,1,3.68,16.31,94.5,94.5,0,0,1-.58,16.3,14.15,14.15,0,0,1-7.33,10.77c-4.08,2.39-9.06,3.59-13.94,4.29a133.92,133.92,0,0,1-21,1.17c-7.27-.1-14.51-.59-21.74-1.12a114.77,114.77,0,0,1-15.41-1.87c-9.58-2-18-6.77-19.19-15.45-.76-5.29.87-10.64,2.05-15.81,1.3-5.75,2.56-11.51,3.69-17.28a285.78,285.78,0,0,0,5-35.92,178.44,178.44,0,0,0,.05-22.18c-.82,2-1.23,4.11-1.89,6.16a42.4,42.4,0,0,1-3.68,8.18c-1.64,2.81-3.81,5.5-4.64,8.58-.88,3.26,0,6.58.71,9.81a19.28,19.28,0,0,1,.29,8.61c-.66,2.83-2,5.51-2.57,8.36-.64,3.54,1,6.66,1.77,10.06a14.68,14.68,0,0,1-.55,8.14c-1.34,3.92-5.11,12.89-12.05,10.06a.62.62,0,0,1-.34-.9C487.47,886.75,491.32,880.55,489.85,874.21Zm4.51,9.86a9.63,9.63,0,0,0-3.92-.45,52.33,52.33,0,0,1-4.55,8.55c3.58.87,5.85-2.94,7.06-5.19C493.46,886,493.94,885.06,494.36,884.07Zm-3.44-1.82a12.07,12.07,0,0,1,3.92.54,15,15,0,0,0,.89-4.72c0-3-1.42-5.79-2.05-8.72a14.16,14.16,0,0,1,.68-7.5c.89-2.74,2.11-5.42,2.21-8.29s-.78-5.74-1.33-8.58a15.27,15.27,0,0,1,.23-8.05c.91-2.58,2.59-4.89,4-7.27a40.38,40.38,0,0,0,4.19-9.22c.87-2.82,1.36-5.7,3.11-8.26l-.06-.94c-2.9,3.52-4.19,7.81-6.32,11.69-1.47,2.68-3.51,5.1-5.1,7.73a21.68,21.68,0,0,0-3.12,9.43c-.48,6,2.06,11.69.77,17.66-.62,2.86-2.4,5.35-3.15,8.14-.81,3,1.24,5.83,1.76,8.75A16,16,0,0,1,490.92,882.25Zm17.59,36.09c9.75,4,21.84,4.06,32.46,4.67,6.84.39,13.7.61,20.54.33A81.54,81.54,0,0,0,579.66,921c4.84-1.33,9.73-3.65,12-7.62,1.45-2.56,1.66-5.4,1.82-8.17.13-2.3.25-4.61.31-6.91a25.27,25.27,0,0,1-3.91,2.45c-7.91,4.33-17.92,5.88-27.21,6.59-9.94.76-20.06.72-30,.63-11.27-.09-22.61-.82-33.39-3.68a.73.73,0,0,1-.62-.62.55.55,0,0,1,.09-.34A52,52,0,0,1,509.22,891c2.1-1.88,4.3-3.69,6.51-5.48s5.3-3.81,5.4-6.62l-1.92,0c-1.21,0-2.83.28-3.84-.45-1.66-1.19-.68-3.3.94-4.1a12.19,12.19,0,0,1,4.27-.82l.32,0v0a16.62,16.62,0,0,1-2.2-5c-3.27-.52-6.42-1.72-6.19-4.89.17-2.47,2.42-3.13,4.88-3.08l-.24-4.86c-2.67-1.35-5.4-3.44-4.59-6.08a3.46,3.46,0,0,1,4.68-1.81,24.71,24.71,0,0,1-.83-7.84c-.56-.19-1.11-.37-1.66-.57-1.47-.52-3-1.24-3-2.72-.06-1.27,1.08-2.45,2.41-3a6.52,6.52,0,0,1,1.76-.46.56.56,0,0,1-.18-.4l-.24-4.67a.56.56,0,0,1,.25-.51,11.46,11.46,0,0,1-2.58-2c-1.79-1.92-2-5.6,1.47-6.27a198.6,198.6,0,0,1-1.49-23.49.59.59,0,0,1,0-.2l-.11,0c-1.95-.43-3.89-.88-5.84-1.32a112.17,112.17,0,0,0,1,13.57c.65-.06,1.3.62.72,1.11-.2.16-.38.33-.57.5l.06.59c.05.59.1,1.18.14,1.77a.45.45,0,0,1,0,.38c.36,4.88.48,9.78.41,14.67a233.37,233.37,0,0,1-3.09,33.11c-1.79,11.27-4.2,22.48-6.78,33.65a45.41,45.41,0,0,0-1.55,10,15.8,15.8,0,0,0,1,5.77C500.22,913.49,504,916.46,508.51,918.34ZM528,906.55c9.49.24,19.07.17,28.55-.22s19.21-1.4,27.95-4.69a33.11,33.11,0,0,0,5.53-2.64,11.89,11.89,0,0,0,2.81-2c1.07-1.34-.16-2-1.39-2.76a65.92,65.92,0,0,0-11.62-5.6c-4.4-1.62-9.2-2.33-13.55-4-.33-.12-.64-.26-.95-.4-17.08-4.37-36-2.66-51.5,4.77l-.05,0c-.51.41-1,.82-1.5,1.25-4.57,3.91-8.77,8.1-11.76,13A124.9,124.9,0,0,0,528,906.55Zm-9.54-39.32c.2-.56,1.43-.52,1.59.19a81.65,81.65,0,0,1,9.78,1c3.56.77,6.87,2.44,10.61,2.57s7.41-.62,11.1-.72q2.15,0,4.29,0c-2.19-.48-4.28-1.25-6.44-1.91a65.19,65.19,0,0,0-7.75-1.84A54.94,54.94,0,0,1,526,864a47.65,47.65,0,0,0-7.11-2.05,1,1,0,0,1-1.37-.11h-.63c-2.37.14-3.47,1.92-2.16,3.6A5.86,5.86,0,0,0,518.48,867.23ZM515.55,853a10.72,10.72,0,0,0,2.15,1.43.8.8,0,0,1,1,.49l.77.33c3,1.25,6.29,2.21,9.45,3.21a114.76,114.76,0,0,0,19.92,4.78l3.11-.11a.69.69,0,0,1,.75.95c3.53-.61,7-1.37,10.53-2.11l-.11-2.24a.52.52,0,0,1,.1-.35,31.59,31.59,0,0,1-.08-4.35,12,12,0,0,0-2.07.74c-3.43,1.69-6.08,3-10.06,1.66-5.41-1.85-11.17-2.33-16.83-3.42a148.82,148.82,0,0,1-16.2-4.1.86.86,0,0,1-1.1-.38c-.7-1-1.55-1-2.54,0a1.83,1.83,0,0,0-.2,1.68A4.37,4.37,0,0,0,515.55,853Zm2.11-14.06c2.64.87,5.3,1.72,8,2.55q7.53,2.34,15.14,4.49l1.6.45a6.39,6.39,0,0,1,.78-.1.68.68,0,0,1,.8.54c1.39.38,2.79.77,4.19,1.14a26.41,26.41,0,0,0,8.63,1.29c3-.22,5.55-2,8.39-2.69-.1-.34-.19-.68-.29-1a.71.71,0,0,1-.71-.6s0,0,0,0a52.27,52.27,0,0,0-13.06-1.53.81.81,0,0,1-.69-.31,46.79,46.79,0,0,1-7.2-1.42l-9.38-2.08-19.53-4.31-.08,0c-1,.72-1.18,1.83.49,2.67A20.72,20.72,0,0,0,517.66,838.92Zm1.26-11.37c3.49,1.43,7.12,2.69,10.75,3.87l.16,0a.72.72,0,0,1,1,.41c3.34,1.06,6.74,2,10.2,2.7l.78-.34c.68-.33,1.36.25,1.23.74a85.25,85.25,0,0,0,11.23,1.36,1.55,1.55,0,0,1,.31.06c4.06.35,8.1.76,12.14,1.26a.7.7,0,0,1,.53.3c.8-.22,1.43-.55,1.4-1.41a3,3,0,0,0-2.25-2.44.7.7,0,0,1-.36-1.18l-23.76-4.55-.51.11a.89.89,0,0,1-1-.39l-1.75-.34a118.39,118.39,0,0,1-12.1-2.68c-2.8-.85-5.5-2.1-8.35-2.83l-2.33.12a2.75,2.75,0,0,1-1.37-.69h-.59a1,1,0,0,1-.51-.14c-.75,1.05,0,2.8.93,3.7A13.91,13.91,0,0,0,518.92,827.55Zm-.17,50.07,5.62-.13,10.85-.24,21.7-.49c1,0,2.05,0,3.08,0a1,1,0,0,1,1,0c2,0,3.91,0,5.82-.22,1.18-.11,2.34-.46,2.46-1.51.11-.89-.59-1.48-1.48-1.93a15.44,15.44,0,0,0-4.79-.93,79.58,79.58,0,0,0-11-.51c-3.47.07-6.89.62-10.35.72h-.72a.71.71,0,0,1-.73.82c-7,.63-14,1.06-20.93,1.87a6,6,0,0,0-2.34.6c-1,.62-1.15,1.56.6,2A5.49,5.49,0,0,0,518.75,877.62ZM562,882.08a6.61,6.61,0,0,1-2.27-4l-10,.22-17.44.39-6.27.14-3.3.08c-.07,2.27-1.6,4-3.46,5.64-.5.43-1,.86-1.53,1.28A79.69,79.69,0,0,1,562,882.08Zm-48-86.86c.38,0,.73.21.73.61q0,5.24.32,10.46a.82.82,0,0,1,.61-.33c8.42-.88,16.06,2.58,23.36,5.55,2.09.84,4.2,1.62,6.34,2.32,1.51.5,3,1,4.59,1.39a.59.59,0,0,1,.5-.82c3.21-.77,5.4-2.88,8.23-4.21a15.48,15.48,0,0,1,6.37-1.44,21.8,21.8,0,0,1,.23-3.62c-4.55-.59-8.95,1.2-12.35,3.73a53.16,53.16,0,0,0-4.44,3.86c-.84.76-1.89,1.48-3.1,1a1.39,1.39,0,0,1-.28-.12c-.89-.44-.14-1.63.75-1.18s4.71-3.62,5.38-4.14a24.05,24.05,0,0,1,4.74-3,17.75,17.75,0,0,1,8.9-1.65c.33-4.76-1-10.52-6-13.43-6.51.47-11.94,4.08-18.22,5.29a18.56,18.56,0,0,1-8.09,0,39.63,39.63,0,0,1-6.86-2.89c-2.38-1.11-4.83-2-7.61-1.5-2.26.45-4.43,1.72-4.07,3.84A.42.42,0,0,1,514,795.22ZM516.33,811a.8.8,0,0,1,.63-.08c6.12-1.58,11.92,1,16.86,3.81a55.75,55.75,0,0,0,8.27,4.19c3.22,1.19,6.65,1.93,9.91,3a.82.82,0,0,1,.32.19,33.68,33.68,0,0,1,7.24-3.41,91.59,91.59,0,0,1-19.44-5.25c-7.67-3-15.53-7.06-24.38-6.14a.72.72,0,0,1-.63-.19q.14,2.24.33,4.47C515.73,811.36,516,811.16,516.33,811Zm0,9.41a20,20,0,0,1,2.33.44c2.83-.14,5.65-.27,8.47-.43,3.19-.19,6.25-1.33,9.42-1.46l.94-.58c-.93-.47-1.85-1-2.75-1.49-5.06-2.88-10.92-6.38-17.39-4.68a1.06,1.06,0,0,1-.35,0l-1.45,1Q515.9,816.79,516.36,820.37Zm15.24,16.27c2.18-.46,4.63-.79,6.91-1.37-3-.69-5.91-1.51-8.8-2.42a34.7,34.7,0,0,1-6,1.34,32,32,0,0,1-3.66.28c-1.06,0-2.16-.07-3.24,0l14.34,3.17A.59.59,0,0,1,531.6,836.64Zm-10.47-3.55a31.15,31.15,0,0,0,6.28-1c-1-.35-2.09-.71-3.13-1.08-2.25-.8-4.88-1.58-7.18-2.67l.22,4.41a.54.54,0,0,1-.09.34C518.54,833.06,519.89,833.16,521.13,833.09Zm-2.72,15.37q6.17-2.13,12.52-3.9c-4.35-1.27-8.68-2.6-12.94-4a23.92,23.92,0,0,0,.86,7.17A.66.66,0,0,1,518.41,848.46Zm3.78,12.91a90.68,90.68,0,0,0,14.52,3.55.86.86,0,0,1,.81-.31c1.52.17,3,.38,4.51.64.87,0,1.75,0,2.65-.12,1.52-.13,3-.3,4.55-.52l-.41-.05h0a1.06,1.06,0,0,1-.37-.06,99.74,99.74,0,0,1-14.73-3.18c-4.93-1.43-10-2.91-14.68-4.8l-.21-.08.22,4.24A20.84,20.84,0,0,1,522.19,861.37Zm.08,12.06,4.57-.41,11.07-1a40.51,40.51,0,0,1-4.6-1.21,43.26,43.26,0,0,0-10.42-1.9c-.75,0-1.61-.1-2.5-.19a14.78,14.78,0,0,0,1.86,4.07A.54.54,0,0,1,522.27,873.43Zm6.56-49.34a.61.61,0,0,1,.73-.5,16.42,16.42,0,0,0,6.81-1.37l5.51-2c-1-.35-1.93-.75-2.85-1.18l-.8.49c0,.34-.21.69-.74.68h-.4a.76.76,0,0,1-.59,0,33.13,33.13,0,0,0-4.61.87,30.41,30.41,0,0,1-4.66.56c-1.6.1-3.19.18-4.79.26.86.3,1.71.62,2.56.93C526.26,823.35,527.54,823.74,528.83,824.09ZM530.37,851a50.54,50.54,0,0,0,7.24-2.7c.82-.39,1.6-.81,2.41-1.17-2.21-.62-4.42-1.24-6.63-1.88l-.1,0q-6.52,1.75-12.88,3.9,4.67,1.39,9.44,2.48A.64.64,0,0,1,530.37,851Zm17.94,4.09c2,.52,4.07,1.68,6.18,1.64,2.43,0,4.49-1.61,6.53-2.52a29.79,29.79,0,0,1,5.74-1.54c2.34-.55,6.16-3.16,2.41-4.69-2.3-.94-4.7.16-6.73,1a17.22,17.22,0,0,1-5.62,1.58c-4.82.35-9.75-1.5-14.22-2.74l-.33-.09c-2,.46-3.93,1.77-5.75,2.53-1.6.67-3.25,1.25-4.93,1.77.73.16,1.47.31,2.21.45C538.59,853.49,543.6,853.89,548.31,855.12Zm2.92-13.35c2.5,0,5.06-1,7.41-1.64l5.61-1.51q-5.57-.66-11.16-1.11l-.12,0a87.59,87.59,0,0,1-11.76-1.63,67,67,0,0,1-8.92,2l12.05,2.67C546.53,841,548.94,841.82,551.23,841.77Zm-12.6-15.56,3.59.69a33.85,33.85,0,0,0,8.62-3.95c-2.33-.76-4.74-1.35-7.08-2.07a.83.83,0,0,1-.41.3c-2.38.85-4.76,1.71-7.15,2.55a21.11,21.11,0,0,1-4.3,1.12C534.13,825.35,536.38,825.78,538.63,826.21Zm10.19,40.59c3.35,1,6.6,2.41,10.17,2.62.65-.06,1.3-.15,1.94-.26a3.78,3.78,0,0,1,.17-.35,3.4,3.4,0,0,0,.45,0h.77l.22,0-.15,0h0a2.67,2.67,0,0,0,1.32,0,2,2,0,0,0,1.15-.77c.54-.2,1.08-.42,1.6-.66a18.58,18.58,0,0,0,3.35-2c.5-.39,1.28-.91,1.46-1.46a1.75,1.75,0,0,0-1.58-2.35.62.62,0,0,1-.54.44c-7.34,1.45-14.69,3.2-22.15,4.14l-.25,0C547.45,866.43,548.14,866.61,548.82,866.8Zm4.25-37.9c4.42-1.13,7.31-4.06,11.61-5.36a18,18,0,0,0,.34-4.17l-1.09-.11c-7.17.18-12.53,5.63-19,8.16l8,1.53Zm-2.7-37.9a39.91,39.91,0,0,1,6.15-1.74c-4.59-1.4-10.86-.14-12.46,4l0,0C546.2,792.58,548.32,791.73,550.37,791Zm13.81,26.94h.66c0-.08,0-.16-.05-.24a.65.65,0,0,1,.38-.72.57.57,0,0,1-.13-.37c0-2.18,0-4.36,0-6.53a15.08,15.08,0,0,0-7.5,2.34,23.89,23.89,0,0,1-6.26,3.15A93,93,0,0,0,564.18,817.94Zm-.47,13a18.16,18.16,0,0,1,.16-5.65,29,29,0,0,0-4.61,2.55,19,19,0,0,1-3.49,1.67l8,1.52A.29.29,0,0,1,563.71,830.93ZM564,843.5a24.82,24.82,0,0,1,0-3.34c-1.52.38-3,.74-4.54,1.14-1.08.29-2.2.64-3.34,1A55.77,55.77,0,0,1,564,843.5Zm2.27,39.58.92.25a.76.76,0,0,1,.44.29c1.36.47,2.77.85,4.07,1.16a76.57,76.57,0,0,1,12.58,4.14c1.92.83,3.78,1.75,5.58,2.74a40.35,40.35,0,0,1,3.91,2.23,45.05,45.05,0,0,0-2.14-13.78c-1.79-5.26-4.88-10.11-7.72-15a76,76,0,0,1-10.23-29.54,69.08,69.08,0,0,1,0-15.48c.63-5.68,1.84-11.32,2-17a33.29,33.29,0,0,0-.68-7.77,21.15,21.15,0,0,0-4.49,3.2,5.08,5.08,0,0,1-.33.66.71.71,0,0,1-.67.35,17,17,0,0,0-2.16,2.95.47.47,0,0,1,.23.65,11,11,0,0,0-.37,1l.19,0a.68.68,0,1,1-.37,1.3l-.12,0a23.23,23.23,0,0,0-.21,3.34c.32,0,.63.05.94.09,1,.12.66,1.42-.36,1.3l-.58,0c0,2.14,0,4.29,0,6.44a.62.62,0,0,1-.39.57.33.33,0,0,1,.07.17,5.24,5.24,0,0,1,.15.79.59.59,0,0,1,.11,1c.2,3.17-.78,6.47-1.33,9.56a.6.6,0,0,1-.08.2,18.45,18.45,0,0,0,.14,2,.48.48,0,0,1-.13.43l1.2.24a.64.64,0,0,1,.33,1.16h0a4.68,4.68,0,0,1,3.32,2.9c.38,1.13.35,2.65-1.09,3.14-1.06.37-2.16.69-3.28,1a25.54,25.54,0,0,0-.05,3.91.6.6,0,0,1,.44.42l0,.11a.69.69,0,0,1,.15.53l.47,1.64a7.7,7.7,0,0,1,1.58.07c2.68.39,4.88,2.36,3.67,4.66s-4.31,2.88-7.21,3.54a31.13,31.13,0,0,0,.16,5.71.52.52,0,0,1-.15.44l0,.85L568,861c0-.26.15-.5.55-.56a4.16,4.16,0,0,1,4.06,1.37c1,1.39.33,2.91-.91,4a20.4,20.4,0,0,1-9.47,4.47c0,.11-.07.23-.1.34a.24.24,0,0,1,0,.08h.14c2.54.26,5.94.38,7.76,2.09,1.3,1.21,1.5,3.12-.13,4.2-2.13,1.42-6,.94-8.46,1h-.08C561.68,880.43,563.76,882,566.29,883.08Zm.2-82.22A19.35,19.35,0,0,1,569,797.8c.69-1.92-.33-3.87-2-5.31a10,10,0,0,0-5.57-2.18A15,15,0,0,1,566.49,800.86ZM584,824.64a21.59,21.59,0,0,1,.67,6.87c-.19,2.79-1.16,5.56-1,8.36.4,5.36,6.18,7.56,10.47,10.75A16.86,16.86,0,0,1,601,862.2a18.47,18.47,0,0,1-.38,6.42l3.06-.1h.09a31.66,31.66,0,0,0,.54-4.55,21.29,21.29,0,0,0-5.48-14.89c-3.42-3.78-9.17-5.61-11.27-10.2-2.22-4.87-.62-10.11-1.38-15.13-.79-5.28-4.34-10.1-9.5-13.23-.07.63-.15,1.26-.24,1.9A25.52,25.52,0,0,1,584,824.64ZM600.26,870a31.7,31.7,0,0,1-3.74,7.93c3.91,1.08,6-3.69,7-8Z"/><path class="cls-3" d="M485.89,892.17c3.58.87,5.85-2.94,7.06-5.19.51-1,1-1.92,1.41-2.91a9.63,9.63,0,0,0-3.92-.45A52.33,52.33,0,0,1,485.89,892.17Z"/><path class="cls-3" d="M489.83,865.89c-.81,3,1.24,5.83,1.76,8.75a16,16,0,0,1-.67,7.61,12.07,12.07,0,0,1,3.92.54,15,15,0,0,0,.89-4.72c0-3-1.42-5.79-2.05-8.72a14.16,14.16,0,0,1,.68-7.5c.89-2.74,2.11-5.42,2.21-8.29s-.78-5.74-1.33-8.58a15.27,15.27,0,0,1,.23-8.05c.91-2.58,2.59-4.89,4-7.27a40.38,40.38,0,0,0,4.19-9.22c.87-2.82,1.36-5.7,3.11-8.26l-.06-.94c-2.9,3.52-4.19,7.81-6.32,11.69-1.47,2.68-3.51,5.1-5.1,7.73a21.68,21.68,0,0,0-3.12,9.43c-.48,6,2.06,11.69.77,17.66C492.36,860.61,490.58,863.1,489.83,865.89Z"/><path class="cls-2" d="M497.58,903.66a15.8,15.8,0,0,0,1,5.77c1.61,4.06,5.35,7,9.9,8.91,9.75,4,21.84,4.06,32.46,4.67,6.84.39,13.7.61,20.54.33A81.54,81.54,0,0,0,579.66,921c4.84-1.33,9.73-3.65,12-7.62,1.45-2.56,1.66-5.4,1.82-8.17.13-2.3.25-4.61.31-6.91a25.27,25.27,0,0,1-3.91,2.45c-7.91,4.33-17.92,5.88-27.21,6.59-9.94.76-20.06.72-30,.63-11.27-.09-22.61-.82-33.39-3.68a.73.73,0,0,1-.62-.62Z"/><path class="cls-2" d="M497.58,903.66h1a.55.55,0,0,1,.09-.34A52,52,0,0,1,509.22,891c2.1-1.88,4.3-3.69,6.51-5.48s5.3-3.81,5.4-6.62l-1.92,0c-1.21,0-2.83.28-3.84-.45-1.66-1.19-.68-3.3.94-4.1a12.19,12.19,0,0,1,4.27-.82l.32,0v0a16.62,16.62,0,0,1-2.2-5c-3.27-.52-6.42-1.72-6.19-4.89.17-2.47,2.42-3.13,4.88-3.08l-.24-4.86c-2.67-1.35-5.4-3.44-4.59-6.08a3.46,3.46,0,0,1,4.68-1.81,24.71,24.71,0,0,1-.83-7.84c-.56-.19-1.11-.37-1.66-.57-1.47-.52-3-1.24-3-2.72-.06-1.27,1.08-2.45,2.41-3a6.52,6.52,0,0,1,1.76-.46.56.56,0,0,1-.18-.4l-.24-4.67a.56.56,0,0,1,.25-.51,11.46,11.46,0,0,1-2.58-2c-1.79-1.92-2-5.6,1.47-6.27a198.6,198.6,0,0,1-1.49-23.49.59.59,0,0,1,0-.2l-.11,0c-1.95-.43-3.89-.88-5.84-1.32a112.17,112.17,0,0,0,1,13.57c.65-.06,1.3.62.72,1.11-.2.16-.38.33-.57.5l.06.59c.05.59.1,1.18.14,1.77a.45.45,0,0,1,0,.38c.36,4.88.48,9.78.41,14.67a233.37,233.37,0,0,1-3.09,33.11c-1.79,11.27-4.2,22.48-6.78,33.65A45.41,45.41,0,0,0,497.58,903.66Z"/><path class="cls-1" d="M512.3,890.27c-4.57,3.91-8.77,8.1-11.76,13A124.9,124.9,0,0,0,528,906.55c9.49.24,19.07.17,28.55-.22s19.21-1.4,27.95-4.69a33.11,33.11,0,0,0,5.53-2.64,11.89,11.89,0,0,0,2.81-2c1.07-1.34-.16-2-1.39-2.76a65.92,65.92,0,0,0-11.62-5.6c-4.4-1.62-9.2-2.33-13.55-4-.33-.12-.64-.26-.95-.4-17.08-4.37-36-2.66-51.5,4.77l-.05,0C513.29,889.43,512.79,889.84,512.3,890.27Z"/><path class="cls-3" d="M516.88,861.8c-2.37.14-3.47,1.92-2.16,3.6a5.86,5.86,0,0,0,3.76,1.83c.2-.56,1.43-.52,1.59.19a81.65,81.65,0,0,1,9.78,1c3.56.77,6.87,2.44,10.61,2.57s7.41-.62,11.1-.72q2.15,0,4.29,0c-2.19-.48-4.28-1.25-6.44-1.91a65.19,65.19,0,0,0-7.75-1.84A54.94,54.94,0,0,1,526,864a47.65,47.65,0,0,0-7.11-2.05,1,1,0,0,1-1.37-.11Z"/><path class="cls-3" d="M514.34,849.46a1.83,1.83,0,0,0-.2,1.68,4.37,4.37,0,0,0,1.41,1.84,10.72,10.72,0,0,0,2.15,1.43.8.8,0,0,1,1,.49l.77.33c3,1.25,6.29,2.21,9.45,3.21a114.76,114.76,0,0,0,19.92,4.78l3.11-.11a.69.69,0,0,1,.75.95c3.53-.61,7-1.37,10.53-2.11l-.11-2.24a.52.52,0,0,1,.1-.35,31.59,31.59,0,0,1-.08-4.35,12,12,0,0,0-2.07.74c-3.43,1.69-6.08,3-10.06,1.66-5.41-1.85-11.17-2.33-16.83-3.42a148.82,148.82,0,0,1-16.2-4.1.86.86,0,0,1-1.1-.38C516.18,848.53,515.33,848.51,514.34,849.46Z"/><path class="cls-3" d="M514.2,835.25c-1,.72-1.18,1.83.49,2.67a20.72,20.72,0,0,0,3,1c2.64.87,5.3,1.72,8,2.55q7.53,2.34,15.14,4.49l1.6.45a6.39,6.39,0,0,1,.78-.1.68.68,0,0,1,.8.54c1.39.38,2.79.77,4.19,1.14a26.41,26.41,0,0,0,8.63,1.29c3-.22,5.55-2,8.39-2.69-.1-.34-.19-.68-.29-1a.71.71,0,0,1-.71-.6s0,0,0,0a52.27,52.27,0,0,0-13.06-1.53.81.81,0,0,1-.69-.31,46.79,46.79,0,0,1-7.2-1.42l-9.38-2.08-19.53-4.31Z"/><path class="cls-3" d="M513.79,821.43c-.75,1.05,0,2.8.93,3.7a13.91,13.91,0,0,0,4.2,2.42c3.49,1.43,7.12,2.69,10.75,3.87l.16,0a.72.72,0,0,1,1,.41c3.34,1.06,6.74,2,10.2,2.7l.78-.34c.68-.33,1.36.25,1.23.74a85.25,85.25,0,0,0,11.23,1.36,1.55,1.55,0,0,1,.31.06c4.06.35,8.1.76,12.14,1.26a.7.7,0,0,1,.53.3c.8-.22,1.43-.55,1.4-1.41a3,3,0,0,0-2.25-2.44.7.7,0,0,1-.36-1.18l-23.76-4.55-.51.11a.89.89,0,0,1-1-.39l-1.75-.34a118.39,118.39,0,0,1-12.1-2.68c-2.8-.85-5.5-2.1-8.35-2.83l-2.33.12a2.75,2.75,0,0,1-1.37-.69h-.59A1,1,0,0,1,513.79,821.43Z"/><path class="cls-3" d="M516.94,875.64c-1,.62-1.15,1.56.6,2a5.49,5.49,0,0,0,1.21,0l5.62-.13,10.85-.24,21.7-.49c1,0,2.05,0,3.08,0a1,1,0,0,1,1,0c2,0,3.91,0,5.82-.22,1.18-.11,2.34-.46,2.46-1.51.11-.89-.59-1.48-1.48-1.93a15.44,15.44,0,0,0-4.79-.93,79.58,79.58,0,0,0-11-.51c-3.47.07-6.89.62-10.35.72h-.72a.71.71,0,0,1-.73.82c-7,.63-14,1.06-20.93,1.87A6,6,0,0,0,516.94,875.64Z"/><path class="cls-2" d="M518.11,791.16c-2.26.45-4.43,1.72-4.07,3.84a.42.42,0,0,1,0,.22c.38,0,.73.21.73.61q0,5.24.32,10.46a.82.82,0,0,1,.61-.33c8.42-.88,16.06,2.58,23.36,5.55,2.09.84,4.2,1.62,6.34,2.32l0-.06a1.39,1.39,0,0,1-.28-.12c-.89-.44-.14-1.63.75-1.18s4.71-3.62,5.38-4.14a24.05,24.05,0,0,1,4.74-3,17.75,17.75,0,0,1,8.9-1.65c.33-4.76-1-10.52-6-13.43-6.51.47-11.94,4.08-18.22,5.29a18.56,18.56,0,0,1-8.09,0,39.63,39.63,0,0,1-6.86-2.89C523.34,791.55,520.89,790.62,518.11,791.16Z"/><path class="cls-3" d="M515.11,807.1q.14,2.24.33,4.47c.29-.21.59-.41.89-.61a.8.8,0,0,1,.63-.08c6.12-1.58,11.92,1,16.86,3.81a55.75,55.75,0,0,0,8.27,4.19c3.22,1.19,6.65,1.93,9.91,3a.82.82,0,0,1,.32.19,33.68,33.68,0,0,1,7.24-3.41,91.59,91.59,0,0,1-19.44-5.25c-7.67-3-15.53-7.06-24.38-6.14A.72.72,0,0,1,515.11,807.1Z"/><path class="cls-3" d="M516.86,834.46l14.34,3.17a.59.59,0,0,1,.4-1c2.18-.46,4.63-.79,6.91-1.37-3-.69-5.91-1.51-8.8-2.42a34.7,34.7,0,0,1-6,1.34,32,32,0,0,1-3.66.28C519,834.49,517.94,834.4,516.86,834.46Z"/><path class="cls-3" d="M522.44,822c.86.3,1.71.62,2.56.93,1.26.45,2.54.84,3.83,1.19a.61.61,0,0,1,.73-.5,16.42,16.42,0,0,0,6.81-1.37l5.51-2c-1-.35-1.93-.75-2.85-1.18l-.8.49c0,.34-.21.69-.74.68h-.4a.76.76,0,0,1-.59,0,33.13,33.13,0,0,0-4.61.87,30.41,30.41,0,0,1-4.66.56C525.63,821.81,524,821.89,522.44,822Z"/><path class="cls-3" d="M520.41,849.22q4.67,1.39,9.44,2.48a.64.64,0,0,1,.52-.67,50.54,50.54,0,0,0,7.24-2.7c.82-.39,1.6-.81,2.41-1.17-2.21-.62-4.42-1.24-6.63-1.88l-.1,0Q526.77,847.08,520.41,849.22Z"/><path class="cls-3" d="M531.59,852.09c.73.16,1.47.31,2.21.45,4.79,1,9.8,1.35,14.51,2.58,2,.52,4.07,1.68,6.18,1.64,2.43,0,4.49-1.61,6.53-2.52a29.79,29.79,0,0,1,5.74-1.54c2.34-.55,6.16-3.16,2.41-4.69-2.3-.94-4.7.16-6.73,1a17.22,17.22,0,0,1-5.62,1.58c-4.82.35-9.75-1.5-14.22-2.74l-.33-.09c-2,.46-3.93,1.77-5.75,2.53C534.92,851,533.27,851.57,531.59,852.09Z"/><path class="cls-3" d="M547,866.23l-.25,0c.68.17,1.37.35,2.05.54,3.35,1,6.6,2.41,10.17,2.62.65-.06,1.3-.15,1.94-.26a3.78,3.78,0,0,1,.17-.35,3.4,3.4,0,0,0,.45,0h.77l.22,0-.15,0h0a2.67,2.67,0,0,0,1.32,0,2,2,0,0,0,1.15-.77c.54-.2,1.08-.42,1.6-.66a18.58,18.58,0,0,0,3.35-2c.5-.39,1.28-.91,1.46-1.46a1.75,1.75,0,0,0-1.58-2.35.62.62,0,0,1-.54.44C561.83,863.54,554.48,865.29,547,866.23Z"/><path class="cls-3" d="M545,827.42l8,1.53.14-.05c4.42-1.13,7.31-4.06,11.61-5.36a18,18,0,0,0,.34-4.17l-1.09-.11C556.76,819.44,551.4,824.89,545,827.42Z"/><path class="cls-3" d="M545.4,813.77l0,.06c1.51.5,3,1,4.59,1.39a.59.59,0,0,1,.5-.82c3.21-.77,5.4-2.88,8.23-4.21a15.48,15.48,0,0,1,6.37-1.44,21.8,21.8,0,0,1,.23-3.62c-4.55-.59-8.95,1.2-12.35,3.73a53.16,53.16,0,0,0-4.44,3.86C547.66,813.48,546.61,814.2,545.4,813.77Z"/><path class="cls-2" d="M561.41,878h-.08c.35,2.43,2.43,4,5,5.08l.92.25a.76.76,0,0,1,.44.29c1.36.47,2.77.85,4.07,1.16a76.57,76.57,0,0,1,12.58,4.14c1.92.83,3.78,1.75,5.58,2.74a40.35,40.35,0,0,1,3.91,2.23,45.05,45.05,0,0,0-2.14-13.78c-1.79-5.26-4.88-10.11-7.72-15a76,76,0,0,1-10.23-29.54,69.08,69.08,0,0,1,0-15.48c.63-5.68,1.84-11.32,2-17a33.29,33.29,0,0,0-.68-7.77,21.15,21.15,0,0,0-4.49,3.2,5.08,5.08,0,0,1-.33.66.71.71,0,0,1-.67.35,17,17,0,0,0-2.16,2.95.47.47,0,0,1,.23.65,11,11,0,0,0-.37,1l.19,0a.68.68,0,1,1-.37,1.3l-.12,0a23.23,23.23,0,0,0-.21,3.34c.32,0,.63.05.94.09,1,.12.66,1.42-.36,1.3l-.58,0c0,2.14,0,4.29,0,6.44a.62.62,0,0,1-.39.57.33.33,0,0,1,.07.17,5.24,5.24,0,0,1,.15.79.59.59,0,0,1,.11,1c.2,3.17-.78,6.47-1.33,9.56a.6.6,0,0,1-.08.2,18.45,18.45,0,0,0,.14,2,.48.48,0,0,1-.13.43l1.2.24a.64.64,0,0,1,.33,1.16h0a4.68,4.68,0,0,1,3.32,2.9c.38,1.13.35,2.65-1.09,3.14-1.06.37-2.16.69-3.28,1a25.54,25.54,0,0,0-.05,3.91.6.6,0,0,1,.44.42l0,.11a.69.69,0,0,1,.15.53l.47,1.64a7.7,7.7,0,0,1,1.58.07c2.68.39,4.88,2.36,3.67,4.66s-4.31,2.88-7.21,3.54a31.13,31.13,0,0,0,.16,5.71.52.52,0,0,1-.15.44l0,.85L568,861c0-.26.15-.5.55-.56a4.16,4.16,0,0,1,4.06,1.37c1,1.39.33,2.91-.91,4a20.4,20.4,0,0,1-9.47,4.47c0,.11-.07.23-.1.34a.24.24,0,0,1,0,.08h.14c2.54.26,5.94.38,7.76,2.09,1.3,1.21,1.5,3.12-.13,4.2C567.74,878.42,563.92,877.94,561.41,878Z"/><path class="cls-3" d="M576.67,810.52c-.07.63-.15,1.26-.24,1.9A25.52,25.52,0,0,1,584,824.64a21.59,21.59,0,0,1,.67,6.87c-.19,2.79-1.16,5.56-1,8.36.4,5.36,6.18,7.56,10.47,10.75A16.86,16.86,0,0,1,601,862.2a18.47,18.47,0,0,1-.38,6.42l3.06-.1h.09a31.66,31.66,0,0,0,.54-4.55,21.29,21.29,0,0,0-5.48-14.89c-3.42-3.78-9.17-5.61-11.27-10.2-2.22-4.87-.62-10.11-1.38-15.13C585.38,818.47,581.83,813.65,576.67,810.52Z"/><path class="cls-3" d="M596.52,877.9c3.91,1.08,6-3.69,7-8l-3.22.11A31.7,31.7,0,0,1,596.52,877.9Z"/></g><rect class="cls-4" width="100" height="118"/><rect class="cls-4" x="872" y="814.03" width="100" height="118"/></g></g></svg>