<svg xmlns="http://www.w3.org/2000/svg" viewBox="0 0 972 932.03"><defs><style>.cls-1{fill:#5fbb46;}.cls-2{fill:#d77f28;}.cls-3{fill:#efe919;}.cls-4{fill:#884c9e;}.cls-5{fill:#d3227a;}.cls-6{fill:#3d50a3;}.cls-7{fill:#c12728;}.cls-8{fill:none;}</style></defs><title>shoes3</title><g id="Layer_2" data-name="Layer 2"><g id="Layer_1-2" data-name="Layer 1"><path class="cls-1" d="M460.83,842.86c0,1.74,0,3.47,0,5.21a291.41,291.41,0,0,0-33.95-5.33c.16-1.86.31-3.71.48-5.56,0-.38.08-.77.11-1.16,11.45.54,22.47,4,33.3,6.82Z"/><path class="cls-2" d="M430.05,809.64l32.83,8c-.43,2.41-.76,4.83-1,7.25l-17.48-4.6c-4.91-1.3-9.94-2.94-15.1-3.64.21-2.36.44-4.71.66-7.07Z"/><path class="cls-3" d="M461.28,831.09c-.13,1.83-.22,3.67-.29,5.5-10.71-2.82-21.69-6-33-6.56l.69-7.34c4.92.71,9.84,2.41,14.5,3.64q9,2.35,18,4.74Z"/><path class="cls-3" d="M401.56,899.32c7.84-4,17.8-5.61,27.76-4.7a53.6,53.6,0,0,1,13.61,3c4.52,1.68,8.62,3.84,13.19,5.45a17.32,17.32,0,0,1-4,4.29c-6.59,5.07-17.44,4.66-26.71,3.49-8.05-1-17.65-3.18-22.32-8.47a10.63,10.63,0,0,1-1.86-2.94A2.53,2.53,0,0,0,401.56,899.32Z"/><path class="cls-2" d="M409.18,884.81c16.32-5.48,35.5-3,49.49,6.1a6.19,6.19,0,0,0,1.19.58,39.08,39.08,0,0,1-1.2,5.92c-5.22-1.86-9.91-4.47-15.29-6.15a66.83,66.83,0,0,0-16.06-2.82,65.1,65.1,0,0,0-26.23,3.8,20.88,20.88,0,0,1,2.48-5.07A38.34,38.34,0,0,0,409.18,884.81Z"/><path class="cls-4" d="M424.06,859.48a337.35,337.35,0,0,1,35.66,5,6.46,6.46,0,0,0,1.28.13c0,.24,0,.47,0,.71,0,1.69,0,3.39,0,5.08-5.95-2.42-13.88-3.35-19.73-4.15a74.83,74.83,0,0,0-20-.23,26,26,0,0,0,1.43-2.84Q423.46,861.39,424.06,859.48Z"/><path class="cls-5" d="M439.13,872.09c4,.48,8,1.23,11.89,2.07,3.48.75,7.13,1.35,9.34,3.59a4.26,4.26,0,0,0,.53.44q-.11,3.09-.32,6.16c-14-7.92-32.33-10.43-48.53-6.94,1.22-1.27,2.42-2.53,3.58-3.82a5.6,5.6,0,0,0,1.51-.25C424,871.25,431.54,871.18,439.13,872.09Z"/><path class="cls-6" d="M460.92,858.64c-11.69-2.26-23.49-4-35.41-5.06.3-1.61.54-3.23.75-4.85a273.72,273.72,0,0,1,34.6,5.56C460.87,855.74,460.9,857.19,460.92,858.64Z"/><path class="cls-7" d="M393.56,905c-13.13-16,11.43-28.81,18.13-41.84,4.28-8.32,4.35-17.64,5.17-26.51q1.33-14.25,2.66-28.48c.18-1.92-.06-5.08,2.08-4.91l12.11,1.68,33.44,8.17c1.7.42,3.15,1.94,2.9,3.17-3.95,19.61-2,39.65-2.35,59.53,0,.11,0,.22,0,.32,0,.64,0,1.27,0,1.91-.39,13.38.06,33.51-21.36,38.6-9.13,2.17-19.75,1.28-29.22-.49C407.85,914.43,398.56,911.09,393.56,905Zm62.56-1.91c-4.57-1.61-8.67-3.77-13.19-5.45a53.6,53.6,0,0,0-13.61-3c-10-.91-19.92.7-27.76,4.7a2.53,2.53,0,0,1-.29.14,10.63,10.63,0,0,0,1.86,2.94c4.67,5.29,14.27,7.46,22.32,8.47,9.27,1.17,20.12,1.58,26.71-3.49A17.32,17.32,0,0,0,456.12,903.09Zm-17-31c-7.59-.91-15.09-.84-22,1.25a5.6,5.6,0,0,1-1.51.25c-1.16,1.29-2.36,2.55-3.58,3.82,16.2-3.49,34.53-1,48.53,6.94q.21-3.08.32-6.16a4.26,4.26,0,0,1-.53-.44c-2.21-2.24-5.86-2.84-9.34-3.59C447.09,873.32,443.14,872.57,439.13,872.09Zm-15.07-12.61q-.6,1.9-1.38,3.75a26,26,0,0,1-1.43,2.84,74.83,74.83,0,0,1,20,.23c5.85.8,13.78,1.73,19.73,4.15,0-1.69,0-3.39,0-5.08,0-.24,0-.47,0-.71a6.46,6.46,0,0,1-1.28-.13A337.35,337.35,0,0,0,424.06,859.48Zm36.8-5.19a273.72,273.72,0,0,0-34.6-5.56c-.21,1.62-.45,3.24-.75,4.85,11.92,1.09,23.72,2.8,35.41,5.06C460.9,857.19,460.87,855.74,460.86,854.29Zm-2.19,36.62c-14-9.11-33.17-11.58-49.49-6.1a38.34,38.34,0,0,1-5.62,2.36,20.88,20.88,0,0,0-2.48,5.07,65.1,65.1,0,0,1,26.23-3.8,66.83,66.83,0,0,1,16.06,2.82c5.38,1.68,10.07,4.29,15.29,6.15a39.08,39.08,0,0,0,1.2-5.92A6.19,6.19,0,0,1,458.67,890.91Zm2.14-42.84c0-1.74,0-3.47,0-5.21l-.08,0c-10.83-2.78-21.85-6.28-33.3-6.82,0,.39-.07.78-.11,1.16-.17,1.85-.32,3.7-.48,5.56A291.41,291.41,0,0,1,460.81,848.07Zm2.07-30.41-32.83-8-.13,0c-.22,2.36-.45,4.71-.66,7.07,5.16.7,10.19,2.34,15.1,3.64l17.48,4.6C462.12,822.49,462.45,820.07,462.88,817.66ZM461,836.59c.07-1.83.16-3.67.29-5.5l-.11,0q-9-2.39-18-4.74c-4.66-1.23-9.58-2.93-14.5-3.64L428,830C439.3,830.55,450.28,833.77,461,836.59Z"/><path class="cls-7" d="M522.93,850.17c-.09-1.73-.18-3.47-.29-5.2l.09,0c10.66-3.35,21.48-7.42,32.89-8.55l.16,1.15c.27,1.83.51,3.67.77,5.52A289.59,289.59,0,0,0,522.93,850.17Zm11.75,58.77a17.16,17.16,0,0,1-4.19-4.08c4.48-1.83,8.46-4.21,12.9-6.12A53.94,53.94,0,0,1,556.8,895c9.91-1.43,19.94-.34,28,3.25l.31.12a10.64,10.64,0,0,1-1.7,3c-4.4,5.52-13.86,8.19-21.85,9.63C552.33,912.69,541.52,913.66,534.68,908.94ZM540,918c9.23,1.68,19.77.23,29.15-2,9.12-2.2,18.22-6,22.88-12.36,12.28-16.69-12.91-28.16-20.29-40.84-4.71-8.08-5.27-17.38-6.55-26.2q-2.09-14.15-4.15-28.3c-.28-1.91-.2-5.08-2.32-4.79l-12,2.31-33,9.91c-1.69.51-3.06,2.1-2.74,3.32,5,19.37,4,39.49,5.46,59.32a3.16,3.16,0,0,0,0,.32c0,.64.09,1.27.13,1.91C517.77,893.94,518.38,914.06,540,918Zm5.81-45c7.52-1.3,15-1.62,22,.11a6.19,6.19,0,0,0,1.52.16c1.21,1.23,2.49,2.43,3.77,3.63-16.36-2.63-34.54.83-48.1,9.47-.25-2-.46-4.09-.64-6.13a4.52,4.52,0,0,0,.5-.48c2.09-2.35,5.71-3.14,9.15-4.07C538,874.67,541.86,873.72,545.85,873Zm-22.21-5.57c0-.23,0-.46,0-.7a7.47,7.47,0,0,0,1.26-.2,339,339,0,0,1,35.35-6.91c.47,1.24,1,2.47,1.58,3.68a26.07,26.07,0,0,0,1.57,2.76,74.48,74.48,0,0,0-20,1.28c-5.8,1.1-13.67,2.44-19.48,5.17C523.8,870.84,523.72,869.14,523.64,867.45Zm19,24.94c-5.28,2-9.83,4.81-15,6.94a38.82,38.82,0,0,1-1.51-5.86,5.46,5.46,0,0,0,1.15-.63c13.51-9.83,32.53-13.3,49.11-8.68a39.62,39.62,0,0,0,5.73,2.06,19.87,19.87,0,0,1,2.74,4.93,65.21,65.21,0,0,0-26.38-2.42A66.79,66.79,0,0,0,542.61,892.39Zm15.86-38.57a357.45,357.45,0,0,0-35.1,6.91l-.16-4.35A273.25,273.25,0,0,1,557.48,849C557.76,850.63,558.08,852.23,558.47,853.82Zm-39.2-33.91,32.36-9.73.14,0q.51,3.51,1,7c-5.12,1-10.07,2.88-14.89,4.43l-17.22,5.51Q520.09,823.5,519.27,819.91Zm2.89,18.81q-.25-2.75-.58-5.48l.1,0q8.85-2.82,17.7-5.67c4.59-1.47,9.41-3.42,14.29-4.39q.52,3.65,1.07,7.3C543.49,831.55,532.71,835.33,522.16,838.72Z"/><path class="cls-1" d="M522.93,850.17a289.59,289.59,0,0,1,33.62-7.1c-.26-1.85-.5-3.69-.77-5.52l-.16-1.15c-11.41,1.13-22.23,5.2-32.89,8.55l-.09,0C522.75,846.7,522.84,848.44,522.93,850.17Z"/><path class="cls-2" d="M551.63,810.18l-32.36,9.73q.83,3.58,1.42,7.19l17.22-5.51c4.82-1.55,9.77-3.46,14.89-4.43q-.52-3.51-1-7Z"/><path class="cls-3" d="M521.58,833.24q.33,2.73.58,5.48c10.55-3.39,21.33-7.17,32.58-8.28q-.54-3.66-1.07-7.3c-4.88,1-9.7,2.92-14.29,4.39q-8.85,2.84-17.7,5.67Z"/><path class="cls-6" d="M557.48,849a273.25,273.25,0,0,0-34.27,7.36l.16,4.35a357.45,357.45,0,0,1,35.1-6.91C558.08,852.23,557.76,850.63,557.48,849Z"/><path class="cls-4" d="M543.37,867.36a74.48,74.48,0,0,1,20-1.28,26.07,26.07,0,0,1-1.57-2.76c-.6-1.21-1.11-2.44-1.58-3.68a339,339,0,0,0-35.35,6.91,7.47,7.47,0,0,1-1.26.2c0,.24,0,.47,0,.7.08,1.69.16,3.39.25,5.08C529.7,869.8,537.57,868.46,543.37,867.36Z"/><path class="cls-2" d="M576.41,884.16c-16.58-4.62-35.6-1.15-49.11,8.68a5.46,5.46,0,0,1-1.15.63,38.82,38.82,0,0,0,1.51,5.86c5.12-2.13,9.67-5,15-6.94a66.79,66.79,0,0,1,15.89-3.66,65.21,65.21,0,0,1,26.38,2.42,19.87,19.87,0,0,0-2.74-4.93A39.62,39.62,0,0,1,576.41,884.16Z"/><path class="cls-5" d="M524.43,880.26c.18,2,.39,4.09.64,6.13,13.56-8.64,31.74-12.1,48.1-9.47-1.28-1.2-2.56-2.4-3.77-3.63a6.19,6.19,0,0,1-1.52-.16c-7-1.73-14.51-1.41-22-.11-4,.7-7.9,1.65-11.77,2.69-3.44.93-7.06,1.72-9.15,4.07A4.52,4.52,0,0,1,524.43,880.26Z"/><path class="cls-3" d="M530.49,904.86a17.16,17.16,0,0,0,4.19,4.08c6.84,4.72,17.65,3.75,26.85,2.1,8-1.44,17.45-4.11,21.85-9.63a10.64,10.64,0,0,0,1.7-3l-.31-.12c-8-3.59-18.06-4.68-28-3.25a53.94,53.94,0,0,0-13.41,3.73C539,900.65,535,903,530.49,904.86Z"/><rect class="cls-8" width="100" height="118"/><rect class="cls-8" x="872" y="814.03" width="100" height="118"/></g></g></svg>