<svg xmlns="http://www.w3.org/2000/svg" viewBox="0 0 214.15 189.27"><defs><style>.cls-1{fill:#c12728;}.cls-2{fill:#efa320;}</style></defs><title>socks</title><g id="Layer_2" data-name="Layer 2"><g id="Layer_1-2" data-name="Layer 1"><path class="cls-1" d="M88.36,117.26c.9,22.2,3.45,55.42-20.74,66.94-10.31,4.91-22.64,5-33.74,3.42-10.81-1.52-21.86-5.68-28.24-15-16.75-24.6,10.28-49.29,16.69-71.83,4.1-14.37,3.23-29.8,3.29-44.59q.11-23.74.19-47.49c0-3.2-.58-8.4,1.9-8.42l14.14,1L81.23,10a5,5,0,0,1,3.67,4.82c-2.58,33,1.75,65.87,3.29,98.8a4.89,4.89,0,0,1,0,.54C88.27,115.16,88.32,116.21,88.36,117.26Zm-7.53,11.47q-.06-5.11-.25-10.22a5.94,5.94,0,0,1-.65-.67c-2.78-3.38-7.05-3.84-11.14-4.58a108.63,108.63,0,0,0-13.92-1.7c-8.84-.4-17.48.8-25.24,5.26a5.38,5.38,0,0,1-1.72.63c-1.2,2.29-2.46,4.56-3.73,6.82A59.61,59.61,0,0,1,80.83,128.73ZM80,150.61a94.19,94.19,0,0,0,.79-10,4.78,4.78,0,0,1-1.42-.78c-17.07-13-39.43-14.35-57.7-2.91a43.37,43.37,0,0,1-6.24,4.7A44.93,44.93,0,0,0,13,150.39a57.53,57.53,0,0,1,29.86-10.08,54.43,54.43,0,0,1,18.81,2.35C68.07,144.65,73.74,148.28,80,150.61Zm0-44.93c-.16-2.8-.34-5.61-.53-8.41,0-.39,0-.78-.08-1.16a5.77,5.77,0,0,1-1.49,0,272.34,272.34,0,0,0-41.63-3.19c-.33,2.14-.73,4.28-1.21,6.39-.38,1.68-.84,3.31-1.36,4.91a61.28,61.28,0,0,1,23.13-2.52C63.61,102.15,72.86,102.53,80,105.68ZM78.64,86.16q-.26-3.6-.5-7.2a223.51,223.51,0,0,0-40.47-4.17q-.11,4.06-.37,8.11A290.38,290.38,0,0,1,78.64,86.16ZM77.45,68.68q-.27-4.29-.5-8.6l-.1,0C64.08,57,51,52.83,37.77,53.6c0,.64,0,1.28,0,1.92,0,3.08,0,6.17,0,9.27A237.84,237.84,0,0,1,77.45,68.68ZM76.77,18.1,38.1,9.58l-.15,0c0,3.93,0,7.86-.05,11.78,6,.41,12,2.41,17.78,3.83l20.62,5.1C76.38,26.2,76.52,22.15,76.77,18.1ZM76.5,49.69c-.1-3-.19-6.1-.22-9.16l-.12,0L55,35.27c-5.5-1.35-11.33-3.45-17.09-3.92q0,6.12,0,12.25C50.88,42.83,63.86,46.56,76.5,49.69ZM73.46,168a29.32,29.32,0,0,0,4.13-7.67c-5.43-2-10.37-5-15.76-7.09a44.63,44.63,0,0,0-16-3A46.8,46.8,0,0,0,14.3,162l-.33.27a18.7,18.7,0,0,0,2.45,4.59C22.34,175,33.62,177.16,43,177.68,53.82,178.27,66.37,177.37,73.46,168Z" transform="translate(-0.25 -0.25)"/><path class="cls-2" d="M80.58,118.51q.19,5.1.25,10.22a59.61,59.61,0,0,0-56.65-4.46c1.27-2.26,2.53-4.53,3.73-6.82a5.38,5.38,0,0,0,1.72-.63c7.76-4.46,16.4-5.66,25.24-5.26a108.63,108.63,0,0,1,13.92,1.7c4.09.74,8.36,1.2,11.14,4.58A5.94,5.94,0,0,0,80.58,118.51Z" transform="translate(-0.25 -0.25)"/><path class="cls-2" d="M80.74,140.63a94.19,94.19,0,0,1-.79,10c-6.21-2.33-11.88-6-18.25-8a54.43,54.43,0,0,0-18.81-2.35A57.53,57.53,0,0,0,13,150.39a44.93,44.93,0,0,1,2.35-8.75,43.37,43.37,0,0,0,6.24-4.7c18.27-11.44,40.63-10.12,57.7,2.91A4.78,4.78,0,0,0,80.74,140.63Z" transform="translate(-0.25 -0.25)"/><path class="cls-2" d="M79.42,97.27c.19,2.8.37,5.61.53,8.41-7.09-3.15-16.34-3.53-23.17-4a61.28,61.28,0,0,0-23.13,2.52c.52-1.6,1-3.23,1.36-4.91.48-2.11.88-4.25,1.21-6.39a272.34,272.34,0,0,1,41.63,3.19,5.77,5.77,0,0,0,1.49,0C79.37,96.49,79.39,96.88,79.42,97.27Z" transform="translate(-0.25 -0.25)"/><path class="cls-2" d="M78.14,79q.24,3.6.5,7.2A290.38,290.38,0,0,0,37.3,82.9q.27-4.05.37-8.11A223.51,223.51,0,0,1,78.14,79Z" transform="translate(-0.25 -0.25)"/><path class="cls-2" d="M77,60.08q.22,4.31.5,8.6a237.84,237.84,0,0,0-39.68-3.89c0-3.1,0-6.19,0-9.27,0-.64,0-1.28,0-1.92C51,52.83,64.08,57,76.85,60.06Z" transform="translate(-0.25 -0.25)"/><path class="cls-2" d="M38.1,9.58,76.77,18.1c-.25,4-.39,8.1-.47,12.15l-20.62-5.1c-5.79-1.42-11.76-3.42-17.78-3.83,0-3.92,0-7.85.05-11.78Z" transform="translate(-0.25 -0.25)"/><path class="cls-2" d="M76.28,40.53c0,3.06.12,6.11.22,9.16-12.64-3.13-25.62-6.86-38.69-6.09q0-6.14,0-12.25c5.76.47,11.59,2.57,17.09,3.92l21.21,5.24Z" transform="translate(-0.25 -0.25)"/><path class="cls-2" d="M77.59,160.36A29.32,29.32,0,0,1,73.46,168c-7.09,9.34-19.64,10.24-30.45,9.65-9.39-.52-20.67-2.71-26.59-10.78A18.7,18.7,0,0,1,14,162.31l.33-.27a46.8,46.8,0,0,1,31.54-11.79,44.63,44.63,0,0,1,16,3C67.22,155.38,72.16,158.38,77.59,160.36Z" transform="translate(-0.25 -0.25)"/><path class="cls-1" d="M136.51,80A223.51,223.51,0,0,1,177,75.79q.11,4.06.37,8.11A290.38,290.38,0,0,0,136,87.16Q136.27,83.56,136.51,80Zm-1.28,18.31c0-.39.05-.78.08-1.16a5.77,5.77,0,0,0,1.49,0,272.34,272.34,0,0,1,41.63-3.19c.33,2.14.73,4.28,1.21,6.39.38,1.68.84,3.31,1.36,4.91a61.28,61.28,0,0,0-23.13-2.52c-6.83.48-16.08.86-23.17,4C134.86,103.88,135,101.07,135.23,98.27ZM176.7,10.54c0,3.93,0,7.86.05,11.78-6,.41-12,2.41-17.78,3.83l-20.62,5.1c-.08-4.05-.22-8.1-.47-12.15l38.67-8.52Zm-38.21,31,21.21-5.24c5.5-1.35,11.33-3.45,17.09-3.92q0,6.12.05,12.25c-13.07-.77-26.05,3-38.69,6.09.1-3,.19-6.1.22-9.16Zm-3.16,99.34c17.07-13,39.43-14.35,57.7-2.91a43.37,43.37,0,0,0,6.24,4.7,44.93,44.93,0,0,1,2.35,8.75,57.53,57.53,0,0,0-29.86-10.08A54.43,54.43,0,0,0,153,143.66c-6.37,2-12,5.62-18.25,8a94.19,94.19,0,0,1-.79-10A4.78,4.78,0,0,0,135.33,140.85Zm51.41-22.4c1.2,2.29,2.46,4.56,3.73,6.82a59.61,59.61,0,0,0-56.65,4.46q.06-5.11.25-10.22a5.94,5.94,0,0,0,.65-.67c2.78-3.38,7.05-3.84,11.14-4.58a108.63,108.63,0,0,1,13.92-1.7c8.84-.4,17.48.8,25.24,5.26A5.38,5.38,0,0,0,186.74,118.45ZM137.8,61.06c12.77-3,25.83-7.23,39.08-6.46,0,.64,0,1.28,0,1.92,0,3.08,0,6.17,0,9.27a237.84,237.84,0,0,0-39.68,3.89q.27-4.29.5-8.6Zm31,90.19A46.8,46.8,0,0,1,200.35,163l.33.27a18.7,18.7,0,0,1-2.45,4.59c-5.92,8.07-17.2,10.26-26.59,10.78-10.81.59-23.36-.31-30.45-9.65a29.32,29.32,0,0,1-4.13-7.67c5.43-2,10.37-5,15.76-7.09A44.63,44.63,0,0,1,168.81,151.25Zm12,37.37c10.81-1.52,21.86-5.68,28.24-15,16.75-24.6-10.28-49.29-16.69-71.83-4.1-14.37-3.23-29.8-3.29-44.59q-.1-23.74-.19-47.49c0-3.2.58-8.4-1.9-8.42l-14.14,1L133.42,11a5,5,0,0,0-3.67,4.82c2.58,33-1.75,65.87-3.29,98.8a4.89,4.89,0,0,0,0,.54c-.05,1-.1,2.1-.14,3.15-.9,22.2-3.45,55.42,20.74,66.94C157.34,190.11,169.67,190.17,180.77,188.62Z" transform="translate(-0.25 -0.25)"/><path class="cls-2" d="M136,87.16a290.38,290.38,0,0,1,41.34-3.26q-.27-4.05-.37-8.11A223.51,223.51,0,0,0,136.51,80Q136.27,83.56,136,87.16Z" transform="translate(-0.25 -0.25)"/><path class="cls-2" d="M176.84,44.6q0-6.14-.05-12.25c-5.76.47-11.59,2.57-17.09,3.92l-21.21,5.24-.12,0c0,3.06-.12,6.11-.22,9.16C150.79,47.56,163.77,43.83,176.84,44.6Z" transform="translate(-0.25 -0.25)"/><path class="cls-2" d="M176.75,22.32c0-3.92,0-7.85-.05-11.78l-.15,0L137.88,19.1c.25,4,.39,8.1.47,12.15L159,26.15C164.76,24.73,170.73,22.73,176.75,22.32Z" transform="translate(-0.25 -0.25)"/><path class="cls-2" d="M137.2,69.68a237.84,237.84,0,0,1,39.68-3.89c0-3.1,0-6.19,0-9.27,0-.64,0-1.28,0-1.92-13.25-.77-26.31,3.42-39.08,6.46l-.1,0Q137.48,65.39,137.2,69.68Z" transform="translate(-0.25 -0.25)"/><path class="cls-2" d="M134.7,106.68c7.09-3.15,16.34-3.53,23.17-4A61.28,61.28,0,0,1,181,105.19c-.52-1.6-1-3.23-1.36-4.91-.48-2.11-.88-4.25-1.21-6.39a272.34,272.34,0,0,0-41.63,3.19,5.77,5.77,0,0,1-1.49,0c0,.38-.05.77-.08,1.16C135,101.07,134.86,103.88,134.7,106.68Z" transform="translate(-0.25 -0.25)"/><path class="cls-2" d="M190.47,125.27c-1.27-2.26-2.53-4.53-3.73-6.82a5.38,5.38,0,0,1-1.72-.63c-7.76-4.46-16.4-5.66-25.24-5.26a108.63,108.63,0,0,0-13.92,1.7c-4.09.74-8.36,1.2-11.14,4.58a5.94,5.94,0,0,1-.65.67q-.19,5.1-.25,10.22A59.61,59.61,0,0,1,190.47,125.27Z" transform="translate(-0.25 -0.25)"/><path class="cls-2" d="M171.76,141.31a57.53,57.53,0,0,1,29.86,10.08,44.93,44.93,0,0,0-2.35-8.75,43.37,43.37,0,0,1-6.24-4.7c-18.27-11.44-40.63-10.12-57.7,2.91a4.78,4.78,0,0,1-1.42.78,94.19,94.19,0,0,0,.79,10c6.21-2.33,11.88-6,18.25-8A54.43,54.43,0,0,1,171.76,141.31Z" transform="translate(-0.25 -0.25)"/><path class="cls-2" d="M200.68,163.31l-.33-.27a46.8,46.8,0,0,0-31.54-11.79,44.63,44.63,0,0,0-16,3c-5.39,2.11-10.33,5.11-15.76,7.09a29.32,29.32,0,0,0,4.13,7.67c7.09,9.34,19.64,10.24,30.45,9.65,9.39-.52,20.67-2.71,26.59-10.78A18.7,18.7,0,0,0,200.68,163.31Z" transform="translate(-0.25 -0.25)"/></g></g></svg>