<?xml version="1.0" encoding="utf-8"?>
<!-- Generator: Adobe Illustrator 22.1.0, SVG Export Plug-In . SVG Version: 6.00 Build 0)  -->
<svg version="1.1" id="Layer_1" xmlns="http://www.w3.org/2000/svg" xmlns:xlink="http://www.w3.org/1999/xlink" x="0px" y="0px"
	 viewBox="0 0 714.2 726.5" style="enable-background:new 0 0 714.2 726.5;" xml:space="preserve">
<style type="text/css">
	.st0{fill:#68C5AB;}
	.st1{fill:#1C8C8C;}
	.st2{fill:#D6D625;}
</style>
<title>swirlBody_1</title>
<g id="Layer_2_1_">
	<g id="Layer_1-2">
		<path class="st0" d="M226.3,268.4c-6-11.9-19.4-19.7-32.3-21.2c-12.7-1.5-26.6,4.2-32.7,15.9c-3.4,6.4-4.1,14.3-3.9,21.5
			c0.2,7.5,5.2,11.4,11.9,13.6c14.4,4.8,30.3-5.9,27.4-21.7c-1.3-6.9-11.9-4-10.6,2.9c0.9,4.7-3.5,8.5-7.8,9
			c-2.7,0.3-5.5-0.3-7.9-1.6c-2.7-1.5-2-3.5-1.9-6.3c0.2-5.6,1-11.2,4.9-15.6c3.4-3.8,8-6.2,13.1-6.9c10.6-1.5,22.7,4.2,28.7,12.9
			c7.3,10.6,1.1,22.6-4.7,32.2c-3.6,6.1,5.9,11.6,9.5,5.5C227.1,296.5,233.3,282.1,226.3,268.4z"/>
		<path class="st0" d="M295.8,174.6c-4.7-24.2-24-49.5-50.3-51.7c-13.2-1.1-24.2,7.7-33.2,16.3c-9.4,9-16.6,19.9-17.3,33.2
			c-1.3,24.8,23.7,46.6,47.8,35.8c11.1-4.9,19.9-17,18-29.5c-2.5-16.6-22-15.4-33.4-9c-6.1,3.4-0.6,12.9,5.5,9.5
			c3.9-2.2,9.1-3.9,13.7-2.9c4.6,1.1,4,6.7,2.7,10.2c-2.8,7.4-9.4,12.6-17.2,13.5c-21,2.3-31.5-22.4-23.2-39.2
			c4.2-8.3,11.7-15.4,19.1-20.9c3.5-2.7,7.5-5.1,11.9-5.9c5.6-1,11.4,0.8,16.4,3.3c17.5,8.8,27.5,26.2,29.7,45.3
			c2.8,24.2-5.5,47.9-13.2,70.4c-2.3,6.7,8.3,9.5,10.6,2.9C292.5,229.9,301.3,202.5,295.8,174.6z"/>
		<path class="st0" d="M372.1,81.4c-2.4-15.1-9.8-28.5-18.2-41c-7.8-11.7-17.3-22.8-30.7-28.2C296.4,1.3,269.6,23,265.5,49.7
			c-1.8,11.9,0.8,25,9.8,33.5c7.9,7.4,18.9,10.8,29.6,9c12.7-2.2,23-13.7,21.4-27c-1.6-14-18.2-21.6-29.3-12.3
			c-5.4,4.6,2.4,12.2,7.7,7.7c2.6-2.2,7.2-0.7,9.1,1.7c2.9,3.6,1.6,9.3-0.8,12.8c-4.2,6.1-12.2,7.6-19.1,6
			c-19.3-4.6-21.9-26.7-13.7-42c4.7-8.7,12.8-16.7,22.7-18.7c10.4-2.1,20.9,3,28.4,9.9c8.3,7.6,14.5,17.4,20.1,27.1
			c6,10.5,9.9,21.5,10.6,33.7c1.4,26.8-8,54.1-17.6,78.8c-2.6,6.6,8,9.4,10.6,2.9C366.2,144.4,377,112.1,372.1,81.4z"/>
		<path class="st0" d="M492.2,39.8c-20.5-10.6-45.6-6.7-62,9.6c-9.1,9.1-14.8,21.1-15.9,33.9c-0.7,7.9-0.2,15.9,0,23.8l0.6,26.6
			c0.2,7,11.1,7.1,10.9,0l-0.8-33.8c-0.2-9.5-0.6-19.2,3-28.2c5.9-14.6,20.6-26.2,36.4-27.2c15.7-1,31.7,7.2,40,20.6
			c4.9,7.9,6.2,16.2,0.5,24.1c-5.4,7.5-15,13.1-24.2,13.6c-8.6,0.5-17.1-4.1-22-11.1c-1.4-2.1-5.6-8.9-3.3-11c1.4-1.2,5.6-1.8,7.4-2
			c2.3-0.2,4.9,0,5.6,2.6c1.7,6.8,12.3,3.9,10.6-2.9c-3.3-13-20.1-12.3-29.6-6.8c-10.9,6.4-3.4,22.2,2.7,29.4
			c16.8,19.8,46.8,14.6,61.5-5C529.1,75.4,512,49.9,492.2,39.8z"/>
		<path class="st0" d="M665.5,104.4c-26.8-25.2-67.4-21.9-96.9-3.6c-17.4,10.8-31.6,26-43.4,42.6c-12,16.7-24.4,37-25,58.1
			c-0.2,7,10.7,7,10.9,0c0.4-15.1,8.6-29.3,16.4-41.8c7.7-12.6,16.9-24.1,27.5-34.4c20.6-19.7,49.9-33.8,78.8-26.3
			c23.1,6,43.2,28.1,38.2,53.1c-2.2,11.4-8.9,22-19.7,27.1c-11.9,5.6-27.3,3.7-37.1-5.2c-5.1-4.7-8.8-10.7-10.5-17.4
			c-0.9-3.4-1.3-7-1-10.5c0.3-3.7,3.5-5,6.7-6.4c6-2.5,15.1-3.9,19.9,1.7c3.3,3.9,4.1,9.9-0.1,13.3c-5.5,4.5,2.3,12.2,7.7,7.7
			c12.1-10,4.8-29.2-8.2-34.2c-7.9-3-16.7-1.6-24.2,1.7c-3.4,1.5-6.9,3.3-9.4,6.1c-3,3.5-3.5,8.2-3.4,12.7
			c0.2,16,9.4,31.8,23.7,39.3c14.8,7.8,34,6.9,47.6-3.2c12.2-9,19.1-23.7,19.6-38.8C684.1,130.2,676.8,115.1,665.5,104.4z"/>
		<path class="st0" d="M648.6,224.2c-14.4-11.4-33.6-14.7-50.9-8.7c-10,3.6-19.2,9.5-27.7,15.9c-7.6,5.7-14.8,12.6-16.6,22.3
			c-1.3,6.9,9.2,9.8,10.6,2.9c1.4-7.3,7-12.3,12.7-16.6c6.3-4.7,13-9.2,20.1-12.4c14.3-6.4,31.3-5.4,44,4.3
			c10.9,8.3,16.8,25.1,3.1,34.1c-5.3,3.5-12.2,3.3-17.7,0.3c-3-1.6-5.9-4.3-7.1-7.5c-0.5-1.4-1.2-3.7-0.2-5.1c0.2-0.3,1.8-1.4,2-1.2
			c5.5,4.3,13.3-3.4,7.7-7.7c-5.5-4.5-13.6-3.6-18,1.8c-0.5,0.6-0.9,1.2-1.2,1.8c-4.6,7.9-0.1,17.9,6,23.5
			c11.6,10.6,29.7,9.8,40.3-1.8c0.7-0.7,1.3-1.5,1.9-2.2C668.2,253.3,661.7,234.8,648.6,224.2z"/>
		<path class="st1" d="M364.9,702c0.3-1.7,0.5-3.5,0.6-5.3c0.7-12-1.2-24-1.3-36c-0.1-12.3,0.4-24.6-0.2-36.9
			c-0.2-3.7-3.3-5.5-6.1-5.3c0.1-3.1,0.2-6.2,0.3-9.2c0.3-7-10.6-7-10.9,0c-0.3,5.7-0.4,11.4-0.4,17c-0.3-0.9-0.6-1.8-1-2.7
			c-2.4-6.6-13-3.7-10.6,2.9c9,24.8,13.3,51.1,12.6,77.5c0,0.5,0,1,0.1,1.5l-0.4,0.1c-2.4,0.6-8.8,1.7-10.6-0.2
			c-1.2-1.3-1.3-5.5-1.4-7.1c-0.1-1.2,0.3-2.7-0.1-3.9v-0.1c4.9,0.4,8.3-7.1,3.1-10.3c-5.8-3.6-11.7,1.1-13.5,6.8
			c-1.7,5.7-0.6,15.2,2.5,20.5c3.6,6,10.8,6.1,17,5.6c7-0.6,15.8-4,18.8-10.8C364.2,704.8,364.6,703.4,364.9,702z"/>
		<path class="st1" d="M460.1,688.4l-0.1-0.3c-1.1-3.3-3.5-6.4-6.8-7.4c-3.3-1-7.5,0.5-8.7,3.7c-1.2,3.1,1.1,6.9,4.4,7.2
			c0.3,0,0.5,0.1,0.7,0.2c0.2,0.2,0.2,0.5,0.2,0.8c0,3.1-0.6,6.2-1.6,9.1c-0.2,0.8-0.6,1.5-1.3,2c-0.5,0.3-1.1,0.4-1.7,0.4
			c-3.3,0.2-7.1-0.3-9.7-2.5c-3.5-3-2.4-7.5-1.8-11.6c0-6.5,1.8-13.6,2.6-20.1c0.9-6.7,1.3-13.5,1.6-20.3c0.8-14.3,0.8-28.7,0.2-43
			c-0.3-7-11.3-7-10.9,0c0.3,6.3,0.4,12.6,0.5,18.9c-2.5-2.1-6.5-2.1-8.2,0.9c-3.1-2-8.5-0.5-8.9,4.4c-1.3,16.9,0,33.2,1,50
			c0.4,6.5,1.2,13.2,3.9,19.2c5.1,11.3,15.4,14.4,27,14.8c4.5,0.1,9.2-0.8,12.7-3.6C461.3,706.5,462.3,695.5,460.1,688.4z"/>
		<path class="st2" d="M655.6,536.5c-0.7-5.1-1.6-9.9-2.3-14.2c-4-24.7-6-64.5-38.2-66.4c-28.7-1.7-57.7,3.4-86.3,0.1
			c-5.5-0.6-11-1.6-15.7-4.6c-15.5-9.5-4.9-26.2,3.6-36.2c5.5-6.4,11.4-12.5,17.2-18.7c12.1-13,24.1-26,36.1-39
			c25.2-27.2,42-57.5,25.2-94.6c-14-31-41.1-35.6-67.2-51.8c-17-10.5-21.6-35.8-36.8-50c-14.6-13.7-35.6-25.4-56.1-26.3
			c-21.2-0.9-36.4,14.6-56.6,17.4c-9.5,1.3-19.1-1.2-28.7-1.7c-17.3-0.8-29.7,10.4-36.2,25.8c-12.8,30-17,53.2-46.8,72.2
			c-42.5,27.1-76.1,44.1-74.5,99.9c0.9,30.6,2.2,61,0.6,91.6c-0.8,15.5-1.6,31.3-6.7,46.3c-4.6,13.4-13.6,24.9-22.3,36.5
			c-8.3,11.1-16.5,22.7-19.5,35.9c-3.4,15-0.5,30.4,5,44.8c4.9,12.8,10.8,27,25.9,33.1c13.1,5.3,28,4.6,41.8,2.1
			c17-3.1,33.4-8.7,49.9-13.2c17.8-4.9,36.1-7.8,54.5-8.8c37.3-1.8,74.3,3.4,111,8.5c63.4,8.8,133.8,17.5,192.9-10.5
			c6.5-3.1,13.2-6.5,18.5-11.2C660.8,588.8,658.9,559.4,655.6,536.5z"/>
		<path class="st1" d="M198,649.3c-8.8,0.2-17.6-1.4-25.9-4.6c-19.2-7.8-26.1-26-30.7-38c-7-18.5-8.7-34.8-5.3-49.8
			c3.4-15,12.3-27.5,21-39.2l1.5-2c8-10.7,15.6-20.7,19.5-32.1c4.7-13.8,5.5-29,6.3-43.8v-0.1c1.4-26.9,0.5-54.3-0.3-80.8
			c-0.1-3.4-0.2-6.7-0.3-10.1c-1.7-57,31.5-77.9,70-102.1l8.5-5.3c22.1-14.1,28.4-30.2,37.2-52.5c2-5,4-10.2,6.4-15.7
			c8.7-20.3,25.3-31.8,44.6-31c3.8,0.2,7.4,0.6,10.9,1c5.8,0.7,11.2,1.4,16.2,0.7c7.5-1.1,14.6-4.3,22-7.8
			c10.3-4.8,22-10.3,36.1-9.7c20.4,0.9,43.4,11.6,61.6,28.6c7.8,7.3,12.9,16.6,17.8,25.6c5.3,9.6,10.2,18.7,17.6,23.3
			c6.7,4.1,13.6,7.6,20.3,10.9c19,9.4,38.7,19.2,50.2,44.7c8.7,19.2,9.8,38.5,3.5,57.4c-5.1,15.1-14.7,29.9-30.2,46.7l-36.1,39
			c-1.8,1.9-3.6,3.8-5.4,5.7c-3.9,4.1-7.9,8.4-11.6,12.7c-6.5,7.7-10,14.7-9.4,18.7c0.1,0.7,0.4,2.5,3.6,4.5c3.3,2,7.8,2.7,12.1,3.3
			c15.2,1.8,30.4,1.1,46.5,0.3c12.8-0.6,26.1-1.2,39.3-0.4c16,0.9,27.9,9.5,35.3,25.5c5.7,12.4,7.8,27,9.7,39.9
			c0.4,2.9,0.8,5.7,1.2,8.2l0.4,2.4c0.6,3.6,1.3,7.6,1.9,11.9l0,0c3.7,25.7,5.5,57.3-14.4,74.7c-6.3,5.5-13.9,9.3-20.5,12.5
			c-63.1,29.9-137.8,19.5-197.8,11.2l-1.6-0.2c-35.4-4.9-71.9-9.9-107.8-8.2c-17.8,0.9-35.5,3.8-52.7,8.5
			c-5.1,1.4-10.3,2.9-15.3,4.4c-11.4,3.4-23.2,6.8-35.3,9C211.9,648.5,204.9,649.2,198,649.3z M348.4,159.3
			c-15.5,0-23.3,12.8-26.6,20.5c-2.2,5.3-4.2,10.3-6.1,15.2c-9.2,23.5-17.1,43.7-44,60.8l-8.5,5.4c-38.1,24-63.3,39.9-61.9,86.9
			c0.1,3.4,0.2,6.7,0.3,10c0.8,26.9,1.7,54.6,0.3,82.2v0.1c-0.8,15.9-1.7,32.4-7.2,48.5c-4.8,14-13.6,25.6-22.1,36.9l-1.5,2
			c-7.7,10.2-15.3,21.1-18,32.6c-2.6,11.5-1.1,24.6,4.6,39.8c4.8,12.7,9.7,23.6,21,28.1c9.5,3.9,21.6,4.4,37,1.6
			c11.2-2,22.6-5.4,33.5-8.6c5.1-1.5,10.4-3.1,15.7-4.5c18.4-5.1,37.3-8.1,56.3-9.1c37.5-1.8,74.9,3.3,111.1,8.3l1.6,0.2
			c57.8,8,129.7,18,188.1-9.7c5.6-2.6,11.9-5.8,16.5-9.8c13.7-12,11.5-39.6,8.7-59.2l0,0c-0.6-4.1-1.2-8-1.8-11.5l-0.4-2.5
			c-0.4-2.7-0.9-5.5-1.3-8.5c-4.1-28-8.8-49.4-28.8-50.6c-12.3-0.7-25.1-0.1-37.5,0.5c-16.1,0.8-32.7,1.5-49.3-0.4
			c-6-0.7-13-1.9-19.2-5.7c-8.3-5.1-10.9-11.9-11.7-16.5c-1.5-9.5,3-20.5,13.3-32.7c3.9-4.6,8.1-9,12.2-13.3
			c1.8-1.9,3.5-3.7,5.3-5.6l36.1-39c29.3-31.6,36.3-57.1,23.6-85.2c-8.9-19.8-24.3-27.5-42.1-36.3c-7.1-3.5-14.4-7.1-21.7-11.7
			c-11.3-7-17.6-18.6-23.7-29.8c-4.5-8.1-8.6-15.8-14.4-21.2c-11.8-11-31.2-23.1-50.5-23.9c-9.8-0.4-18.6,3.6-28,8
			c-8.3,3.9-16.9,7.9-26.9,9.3c-7.3,1-14.1,0.2-20.7-0.6c-3.3-0.4-6.5-0.8-9.6-0.9L348.4,159.3z"/>
		<path class="st1" d="M683.4,443c-11.7-1.3-25.4,6.6-23,19.8c1.3,6.9,11.9,4,10.6-2.9c-0.6-3.5,5.4-5.7,7.9-6
			c3.5-0.5,8.8,0.5,11,3.6c5.5,7.5-8.5,16-14,18c-8.4,2.9-17.6,3.3-26.4,2.7c-4.8-0.3-7.6-1.8-8.2-6.9c-0.5-4.4,0.6-9,1.9-13.2
			c5.7-17.8,20.7-31.3,31.7-46c4.8-6.4,12.3-15.2,10-23.8c-2.6-9.5-13.8-12.8-21.7-16.4c-24.1-11-47.2-24-69-38.9
			c-5.8-4-11.3,5.5-5.5,9.5l2.2,1.5c-0.8,1.2-1.1,2.6-0.8,4.1c-2.1-0.4-4.1-0.8-6.2-1.1c-2.8-0.4-6.1,1.4-6.9,4
			c-0.5-0.6-1-1.1-1.5-1.7c-4.6-5.4-12.3,2.4-7.7,7.7c16,19.1,37.6,32.7,61.7,38.9c4.6,1.2,9.4,2,13.7,3.9v0
			c-1.5,2.6-2.9,5.2-4.2,7.8c-0.3,0.6-0.6,1.3-0.9,1.9c-3.7,4.8-7,10-9.9,15.3c-5.9,10.7-10.5,23-9.4,35.5
			c1.8,18.9,20.5,36,39.5,28.9c5.7-0.1,11.3-0.8,16.9-2.2c10.3-2.7,20.7-8.9,25.1-19C705.7,455.4,696.1,444.4,683.4,443z
			 M673.6,394.4c0-0.5,0-1.1,0-1.7c0.3-0.5,0.6-1.1,0.7-1.7c0,0.1,0,0.1,0,0.2C674.4,392.3,674.2,393.4,673.6,394.4L673.6,394.4z
			 M631.1,461.5c-0.2,0.9-0.3,1.8-0.4,2.8c-1.1-3.9-1.4-7.9-0.9-11.9c0.1-0.7,0.2-1.4,0.3-2.1c0.4,0.3,0.7,0.6,1.2,0.8
			c0,0.3-0.1,0.6-0.1,0.8c-0.2,1.4,0.3,2.8,1.3,3.8C631.9,457.7,631.4,459.6,631.1,461.5L631.1,461.5z"/>
		<path class="st1" d="M78.8,429.2c3,6.9,5.8,14.6,10.2,20.6c5,6.8,12.1,7.7,19.7,5.2c8.2-2.7,16.2-5.4,24.6-7.1
			c17.2-3.5,34.9-4.4,52.4-2.5c7,0.7,7-10.2,0-10.9h-0.3c7-4.2,12.6-12.3,8.6-18.4c0.1-0.2,1.1-8.6,1.2-8.8c0.3-0.9-1.8-2.7-2.1-3.6
			c-0.4-1.5,1-1-1-2c-3.1-1.5-10.4,0.9-13.5,1.6c-8.9,1.8-17.1,5.8-25.8,8.5l-17,5.3l-23.5,7.4c-2.4,0.7-5.5,1.2-7.7,2.4l-0.5,0.2
			c-0.4-0.9-0.8-2-0.9-2.2c-2.2-5.4-4.5-10.7-6.8-16.1c-4.5-10.3-9-20.6-13.7-30.9c-2.3-5.1-4.7-10.2-7.1-15.3
			c-2.2-4.6-4-9.9-7.1-14c-6-7.9-19.2-6.8-27.9-5.6c-9,1.2-17.6,4.9-23.2,12.4c-5.1,6.8-6.5,15.7-2.5,23.4
			c4.3,8.2,14,13.5,23.2,11.1c10.2-2.6,14.6-14,7.9-22.4c-4.4-5.5-12.1,2.3-7.7,7.7c1.8,2.3-2.7,4.1-4.1,4.2
			c-3.3,0.1-6.5-1.5-8.5-4.1c-4.1-5.4-1.6-12.1,3-16.2c5.9-5.2,14.2-5.9,21.7-5.8h0.5c4.9,16.6,10.6,33,16.9,49.1
			c2.4,6.1,4.9,12.2,7.5,18.2"/>
	</g>
</g>
</svg>
