<svg xmlns="http://www.w3.org/2000/svg" viewBox="0 0 755.66 776.05"><defs><style>.cls-1{fill:#68c5ab;}.cls-2{fill:#1c8c8c;}.cls-3{fill:#d6d625;}</style></defs><title>swirlBody_1</title><g id="Layer_2" data-name="Layer 2"><g id="Layer_1-2" data-name="Layer 1"><path class="cls-1" d="M234.43,284c-6.57-13-21.25-21.6-35.39-23.26-13.94-1.64-29.14,4.65-35.84,17.48-3.68,7.07-4.54,15.65-4.28,23.53.27,8.17,5.71,12.46,13.06,14.89,15.77,5.23,33.19-6.42,30-23.77-1.41-7.58-13-4.37-11.57,3.19,1,5.15-3.83,9.37-8.58,9.89a15.16,15.16,0,0,1-8.71-1.76c-2.92-1.6-2.21-3.81-2.08-6.89.25-6.18,1.1-12.29,5.32-17.09a23.81,23.81,0,0,1,14.34-7.55c11.6-1.67,24.9,4.57,31.51,14.18,8,11.6,1.16,24.73-5.13,35.35-4,6.66,6.42,12.7,10.36,6.06C235.34,314.88,242.07,299.09,234.43,284Z"/><path class="cls-1" d="M310.65,181.16c-5.17-26.51-26.35-54.23-55.13-56.63-14.44-1.2-26.55,8.45-36.4,17.83-10.34,9.85-18.25,21.81-19,36.43-1.44,27.21,26,51.11,52.44,39.29,12.13-5.42,21.86-18.68,19.78-32.39-2.76-18.19-24.16-16.83-36.64-9.82-6.73,3.78-.69,14.15,6.06,10.36,4.31-2.42,10-4.33,15-3.14s4.37,7.38,3,11.22a23.06,23.06,0,0,1-18.86,14.79c-23.06,2.47-34.57-24.54-25.39-42.93,4.56-9.12,12.85-16.89,20.92-22.93,3.88-2.91,8.27-5.59,13.09-6.5,6.18-1.15,12.46.9,17.93,3.66,19.2,9.68,30.14,28.73,32.58,49.71,3.08,26.56-6,52.48-14.51,77.21-2.52,7.32,9.07,10.46,11.57,3.19C306.94,241.81,316.63,211.79,310.65,181.16Z"/><path class="cls-1" d="M394.26,79c-2.61-16.5-10.74-31.19-19.9-44.92-8.6-12.87-19-25-33.68-30.94C311.32-8.79,281.92,15,277.43,44.26c-2,13,.85,27.38,10.71,36.71a38.55,38.55,0,0,0,32.47,9.91c13.89-2.36,25.19-15.07,23.5-29.56C342.31,46,324.2,37.6,312,47.81c-5.92,5,2.61,13.42,8.49,8.48,2.9-2.43,7.87-.79,10,1.9,3.16,4,1.77,10.2-.85,14-4.6,6.69-13.38,8.35-20.9,6.58-21.15-5-24-29.25-15-46.09,5.12-9.56,14-18.28,24.92-20.5,11.41-2.31,22.94,3.32,31.18,10.86,9.08,8.31,15.88,19.1,22,29.71,6.56,11.47,10.86,23.62,11.58,36.9C385,119,374.67,149,364.18,176c-2.8,7.2,8.8,10.32,11.57,3.19C387.83,148.11,399.59,112.68,394.26,79Z"/><path class="cls-1" d="M525.92,33.47A58.26,58.26,0,0,0,458,44a59.79,59.79,0,0,0-17.45,37.2c-.82,8.66-.24,17.46,0,26.14l.66,29.18c.18,7.71,12.18,7.74,12,0l-.84-37c-.23-10.42-.69-21,3.26-30.92,6.42-16,22.53-28.7,39.94-29.84,17.24-1.12,34.8,7.84,43.83,22.62,5.32,8.7,6.78,17.75.52,26.38C534,96,523.45,102.14,513.36,102.7c-9.42.52-18.75-4.5-24.09-12.18-1.56-2.25-6.17-9.78-3.63-12.08,1.52-1.36,6.19-2,8.12-2.17,2.47-.21,5.4,0,6.1,2.82,1.89,7.48,13.47,4.31,11.57-3.19-3.58-14.2-22.07-13.53-32.4-7.5-12,7-3.72,24.34,2.93,32.19,18.4,21.7,51.34,16,67.41-5.49C566.33,72.45,547.57,44.49,525.92,33.47Z"/><path class="cls-1" d="M715.85,104.2c-29.36-27.58-73.85-24-106.27-3.94-19.07,11.83-34.65,28.54-47.63,46.68-13.11,18.32-26.78,40.54-27.45,63.68-.22,7.72,11.78,7.72,12,0,.48-16.56,9.41-32.08,17.94-45.82a192.18,192.18,0,0,1,30.19-37.7C617.21,105.5,649.31,90,681,98.26c25.29,6.6,47.31,30.8,41.9,58.2-2.46,12.5-9.8,24.16-21.59,29.69-13.07,6.13-29.88,4.07-40.63-5.72a39.12,39.12,0,0,1-11.52-19.1,34.39,34.39,0,0,1-1.12-11.51c.36-4.07,3.84-5.5,7.34-7,6.55-2.74,16.6-4.23,21.83,1.87,3.66,4.26,4.48,10.82-.1,14.58-6,4.9,2.56,13.35,8.48,8.49,13.29-10.92,5.24-32.06-9-37.46-8.63-3.28-18.31-1.74-26.57,1.87-3.68,1.6-7.59,3.6-10.27,6.68-3.32,3.83-3.83,9-3.76,13.88.25,17.54,10.35,34.91,26,43.1,16.26,8.52,37.27,7.55,52.15-3.47,13.37-9.91,20.94-26,21.52-42.55C736.29,132.54,728.34,115.93,715.85,104.2Z"/><path class="cls-1" d="M697.35,235.61a58.68,58.68,0,0,0-55.79-9.49c-11,3.91-21,10.37-30.32,17.4-8.3,6.27-16.19,13.8-18.25,24.43-1.46,7.55,10.1,10.78,11.57,3.19,1.56-8,7.63-13.45,13.94-18.16,6.88-5.13,14.2-10.09,22.06-13.61,15.73-7.06,34.3-5.91,48.24,4.69,12,9.08,18.42,27.56,3.36,37.4-5.84,3.82-13.4,3.6-19.43.3-3.28-1.8-6.43-4.67-7.8-8.25-.57-1.5-1.3-4.09-.22-5.57.26-.35,1.95-1.48,2.18-1.3,6,4.68,14.58-3.75,8.48-8.48a14.06,14.06,0,0,0-21.13,4c-5,8.65-.15,19.64,6.63,25.77a31.25,31.25,0,0,0,46.18-4.45C718.84,267.48,711.77,247.16,697.35,235.61Z"/><path class="cls-2" d="M386.34,759.35a43.3,43.3,0,0,0,.69-5.8c.8-13.2-1.34-26.32-1.42-39.51-.08-13.49.43-27-.21-40.45-.19-4.05-3.59-6-6.73-5.77.08-3.38.19-6.76.35-10.14.35-7.72-11.65-7.7-12,0q-.43,9.35-.49,18.69c-.35-1-.69-2-1.06-3-2.61-7.21-14.21-4.1-11.57,3.19a230,230,0,0,1,13.78,85,6.57,6.57,0,0,0,.16,1.64l-.42.13c-2.64.69-9.68,1.89-11.59-.19-1.3-1.39-1.42-6-1.53-7.74-.09-1.29.28-3-.06-4.27l0-.09c5.35.42,9.06-7.76,3.4-11.27-6.33-3.92-12.86,1.17-14.76,7.45s-.66,16.66,2.77,22.46c3.91,6.61,11.83,6.74,18.65,6.17,7.69-.64,17.3-4.34,20.61-11.86A21.92,21.92,0,0,0,386.34,759.35Z"/><path class="cls-2" d="M490.73,744.51l-.09-.3c-1.18-3.63-3.84-7-7.49-8.09s-8.19.52-9.57,4.09c-1.3,3.35,1.18,7.58,4.81,7.86a1.37,1.37,0,0,1,.8.23,1.16,1.16,0,0,1,.23.84,29.91,29.91,0,0,1-1.78,10,4,4,0,0,1-1.39,2.14,3.88,3.88,0,0,1-1.87.48c-3.58.25-7.77-.3-10.59-2.72-3.88-3.34-2.61-8.23-2-12.76,0-7.18,1.93-14.87,2.86-22,1-7.36,1.39-14.8,1.8-22.23a465.58,465.58,0,0,0,.2-47.11c-.36-7.7-12.36-7.72-12,0q.48,10.35.5,20.71c-2.69-2.27-7.14-2.28-9,1-3.36-2.15-9.36-.53-9.77,4.84-1.39,18.56,0,36.35,1.15,54.8.46,7.16,1.3,14.44,4.24,21,5.54,12.34,16.88,15.84,29.58,16.23,4.91.15,10.06-.84,13.89-3.91C492,764.29,493.1,752.31,490.73,744.51Z"/><path class="cls-3" d="M705,578c-.82-5.61-1.72-10.87-2.48-15.52-4.43-27.07-6.6-70.73-41.85-72.78-31.51-1.84-63.26,3.77-94.6.08-6-.7-12.07-1.8-17.18-5-16.94-10.43-5.36-28.71,4-39.7,6-7,12.54-13.67,18.82-20.47q19.83-21.37,39.62-42.74c27.6-29.79,46-63,27.61-103.75-15.34-34-45.07-39-73.64-56.76-18.6-11.56-23.72-39.27-40.32-54.78-16-15-39.08-27.82-61.47-28.8-23.22-1-39.95,16-62,19.07-10.43,1.46-20.94-1.36-31.47-1.82-18.93-.83-32.52,11.45-39.69,28.24-14,32.88-18.63,58.27-51.36,79.1-46.63,29.68-83.47,48.34-81.63,109.52,1,33.53,2.39,66.85.63,100.37-.89,17-1.78,34.3-7.38,50.72-5,14.74-14.87,27.29-24.44,40-9.14,12.14-18.09,24.93-21.39,39.35-3.77,16.44-.54,33.36,5.43,49.09,5.34,14.08,11.83,29.6,28.35,36.27,14.31,5.78,30.69,5,45.79,2.31,18.66-3.36,36.58-9.59,54.75-14.49a282.24,282.24,0,0,1,59.75-9.67c40.85-2,81.5,3.72,121.71,9.27,69.55,9.62,146.71,19.16,211.49-11.52,7.16-3.4,14.5-7.16,20.28-12.23C710.73,635.28,708.64,603.06,705,578Z"/><path class="cls-2" d="M203.36,701.57A74.48,74.48,0,0,1,175,696.52C154,688,146.38,668,141.36,654.81c-7.68-20.27-9.58-38.12-5.8-54.58s13.44-30.15,23.05-42.94l1.68-2.22c8.8-11.68,17.12-22.72,21.37-35.16,5.16-15.11,6-31.83,6.88-48v-.15c1.54-29.45.6-59.5-.31-88.55-.11-3.68-.23-7.36-.34-11.05-1.88-62.47,34.56-85.4,76.75-111.95l9.28-5.86c24.26-15.44,31.18-33.12,40.76-57.59,2.16-5.51,4.39-11.21,7-17.23,9.49-22.21,27.76-34.91,48.85-34,4.12.18,8.12.67,12,1.15,6.31.78,12.27,1.52,17.75.75,8.22-1.16,16-4.76,24.15-8.57,11.33-5.28,24.17-11.25,39.55-10.58,22.35,1,47.6,12.7,67.54,31.35,8.56,8,14.12,18.2,19.51,28.06,5.76,10.56,11.2,20.53,19.33,25.59,7.31,4.54,14.9,8.3,22.24,11.94,20.86,10.35,42.44,21.05,55.05,49,9.49,21,10.77,42.2,3.8,62.94-5.57,16.55-16.08,32.81-33.1,51.18l-39.62,42.74q-2.91,3.14-5.89,6.28c-4.27,4.53-8.69,9.21-12.67,13.89-7.15,8.4-11,16.07-10.3,20.52.12.74.43,2.7,4,4.93s8.52,3,13.31,3.61c16.63,2,33.29,1.18,50.93.35,14.06-.65,28.6-1.33,43.11-.49,17.55,1,30.56,10.43,38.66,28,6.27,13.58,8.6,29.62,10.66,43.77.46,3.19.9,6.2,1.36,9l.44,2.68c.65,3.92,1.38,8.37,2.06,13h0c4.08,28.13,6,62.87-15.77,81.94-6.87,6-15.2,10.22-22.46,13.67C607,705,525.09,693.64,459.3,684.54l-1.72-.23c-38.76-5.36-78.84-10.9-118.23-9a271.25,271.25,0,0,0-57.74,9.36c-5.57,1.5-11.27,3.17-16.79,4.79-12.49,3.68-25.41,7.47-38.75,9.87A128.09,128.09,0,0,1,203.36,701.57ZM368.29,164.49c-17,0-25.53,14-29.16,22.51-2.46,5.76-4.64,11.32-6.74,16.69-10.07,25.72-18.77,47.93-48.26,66.7l-9.36,5.91C233,302.61,205.34,320,206.89,371.6c.11,3.68.23,7.35.34,11,.92,29.44,1.87,59.89.29,90.13v.16c-.91,17.46-1.86,35.51-7.86,53.12-5.24,15.33-14.87,28.11-24.19,40.47l-1.66,2.2c-8.39,11.15-16.82,23.1-19.72,35.76s-1.26,27,5,43.6c5.28,13.91,10.65,25.84,23,30.83,10.45,4.23,23.71,4.8,40.54,1.77,12.33-2.22,24.75-5.87,36.77-9.4,5.61-1.65,11.42-3.35,17.2-4.91a289.38,289.38,0,0,1,61.75-10c41.16-2,82.14,3.63,121.76,9.11l1.72.23C525.19,674.48,604,685.36,668,655c6.09-2.89,13-6.35,18.07-10.78,15-13.2,12.63-43.37,9.49-64.92h0c-.65-4.47-1.36-8.82-2-12.65l-.44-2.7c-.49-3-.94-6.07-1.41-9.35-4.46-30.66-9.62-54.21-31.62-55.49-13.52-.79-27.55-.13-41.12.5-17.63.83-35.86,1.68-54-.47-6.62-.77-14.29-2.13-21.05-6.29-9.15-5.63-12-13-12.86-18.14-1.65-10.44,3.26-22.49,14.6-35.81,4.29-5.05,8.88-9.91,13.32-14.61,1.93-2.05,3.87-4.09,5.77-6.15l39.62-42.74c32.09-34.64,39.84-62.57,25.92-93.39-9.81-21.74-26.66-30.1-46.18-39.78-7.74-3.84-15.74-7.81-23.82-12.83-12.38-7.69-19.3-20.36-26-32.62-4.88-8.93-9.48-17.37-15.81-23.28-12.91-12.08-34.25-25.32-55.39-26.25-10.74-.48-20.44,4-30.7,8.82-9.1,4.24-18.5,8.61-29.53,10.16-8,1.12-15.46.2-22.72-.7-3.66-.46-7.11-.88-10.48-1Z"/><path class="cls-2" d="M735.55,475.47c-12.78-1.45-27.88,7.26-25.24,21.66,1.39,7.59,13,4.38,11.57-3.19-.71-3.84,5.9-6.27,8.68-6.63,3.89-.5,9.6.56,12.09,3.93,6.07,8.21-9.34,17.59-15.39,19.7-9.21,3.21-19.24,3.6-28.89,3-5.3-.33-8.34-2-9-7.52-.59-4.83.65-9.84,2.11-14.42,6.27-19.53,22.72-34.36,34.72-50.4,5.22-7,13.49-16.66,10.94-26.07-2.82-10.41-15.11-14.07-23.75-18a519.93,519.93,0,0,1-75.69-42.67c-6.41-4.34-12.42,6.05-6.06,10.36l2.46,1.65a5.75,5.75,0,0,0-.93,4.45c-2.25-.43-4.51-.83-6.78-1.17-3.07-.47-6.64,1.56-7.58,4.4-.54-.62-1.09-1.25-1.62-1.88-5-5.92-13.43,2.61-8.49,8.48a131.53,131.53,0,0,0,67.67,42.68c5,1.28,10.31,2.19,15,4.25l0,.05c-1.61,2.82-3.16,5.69-4.61,8.6-.34.69-.66,1.38-1,2.07a130.26,130.26,0,0,0-10.83,16.77c-6.45,11.76-11.55,25.23-10.27,38.87,1.94,20.72,22.46,39.52,43.27,31.68a82.18,82.18,0,0,0,18.48-2.38c11.28-2.92,22.67-9.73,27.49-20.8C760,489,749.4,477,735.55,475.47Zm-10.78-53.32a12.16,12.16,0,0,0,0-1.81,7.09,7.09,0,0,0,.78-1.82,1.33,1.33,0,0,1,0,.19A5.59,5.59,0,0,1,724.77,422.15Zm-46.63,73.59c-.19,1-.34,2-.46,3.08a32.8,32.8,0,0,1-1-13c.09-.78.2-1.55.33-2.32a6.21,6.21,0,0,0,1.27.87c0,.31-.06.62-.08.93a5.18,5.18,0,0,0,1.46,4.2A54.08,54.08,0,0,0,678.14,495.74Z"/><path class="cls-2" d="M72.7,460.37c3.26,7.61,6.36,16,11.2,22.6,5.44,7.42,13.25,8.41,21.61,5.65,9-3,17.78-5.87,27-7.82a186.52,186.52,0,0,1,57.4-2.76c7.68.79,7.62-11.22,0-12l-.34,0c7.69-4.6,13.86-13.48,9.38-20.12.09-.24,1.24-9.43,1.33-9.67.37-1-2-3-2.33-4-.49-1.59,1.08-1.07-1.15-2.15-3.38-1.63-11.37,1-14.85,1.75-9.8,2-18.78,6.37-28.28,9.35L135,447.05l-25.76,8.11c-2.61.82-6.07,1.35-8.49,2.67l-.56.17c-.43-1-.89-2.15-1-2.37q-3.69-8.82-7.45-17.6-7.32-17-15-33.88-3.84-8.41-7.77-16.81c-2.37-5.06-4.39-10.82-7.77-15.3-6.54-8.67-21-7.4-30.6-6.15-9.92,1.3-19.27,5.4-25.38,13.57-5.56,7.42-7.09,17.23-2.72,25.62,4.67,8.95,15.32,14.8,25.38,12.21,11.22-2.89,16-15.37,8.69-24.52-4.83-6-13.27,2.52-8.48,8.49,2,2.55-2.92,4.49-4.53,4.62a11.15,11.15,0,0,1-9.3-4.54c-4.53-5.89-1.8-13.22,3.29-17.71,6.44-5.67,15.53-6.44,23.74-6.31h.58Q50,404.62,60.44,431.15q4,10.08,8.26,20"/></g></g></svg>