<svg xmlns="http://www.w3.org/2000/svg" viewBox="0 0 236.42 167.15"><defs><style>.cls-1{fill:#2b3a7a;}.cls-2{fill:#4e5aa8;}.cls-3{fill:#353c98;}</style></defs><title>tennisShoes</title><g id="Layer_2" data-name="Layer 2"><g id="Layer_1-2" data-name="Layer 1"><g id="_Group_" data-name="&lt;Group&gt;"><path class="cls-1" d="M61.19,7.72s0,0,0,0C59,6.93,56.91,5.92,54.85,5.05A34.64,34.64,0,0,0,48.68,3C53.26,1.26,59.54,2.73,61.19,7.72Z"/><path class="cls-1" d="M38.23,7A9,9,0,0,1,43.78,4.3c-3.22,3.25-4.68,8.15-5,12.82a23.17,23.17,0,0,0-2.57-3.69A6.6,6.6,0,0,1,38.23,7Z"/><path class="cls-1" d="M86.8,118.07c.51.52,1,1,1.55,1.54a66.74,66.74,0,0,0-44.27-4.16,8.57,8.57,0,0,0,2.24-4.91l10,.19L80,111.2l3.3.06C83.38,114,84.93,116.15,86.8,118.07Z"/><path class="cls-1" d="M85.56,99a20.06,20.06,0,0,1-1.83,5,.8.8,0,0,0,0,.75l-4.57-.45-11.08-1.11a33.14,33.14,0,0,0,4.58-1.51,36.87,36.87,0,0,1,10.41-2.37C83.81,99.17,84.67,99.09,85.56,99Z"/><path class="cls-1" d="M87,84.07l-.18,5.14a16.82,16.82,0,0,0-3.17.86c-4.83,1.8-9.55,3.59-14.49,4.4a.8.8,0,0,0-.81-.37q-2.28.33-4.5.81c-.88,0-1.76,0-2.66-.11-1.52-.15-3-.35-4.55-.6l.41-.07h0a.87.87,0,0,0,.37-.07,85.39,85.39,0,0,0,14.7-4,139.56,139.56,0,0,0,14.64-5.92Z"/><path class="cls-1" d="M46.18,66c1.09.34,2.21.77,3.35,1.15a45.7,45.7,0,0,0-7.84,1.55,34,34,0,0,0-.06-4C43.15,65.14,44.69,65.57,46.18,66Z"/><path class="cls-1" d="M87.69,64.77a34.45,34.45,0,0,1-.79,8.7.83.83,0,0,0,.45.93q-6.19-2.54-12.55-4.62C79.13,68.2,83.45,66.55,87.69,64.77Z"/><path class="cls-1" d="M88.29,55.37a.73.73,0,0,0,.1.42c-1.32,0-2.66.09-3.91,0a26.08,26.08,0,0,1-6.28-1.16c1-.43,2.08-.87,3.12-1.33A70.53,70.53,0,0,0,88.47,50Z"/><path class="cls-1" d="M73.37,61.68,61.35,65c-2.19.61-4.59,1.59-6.88,1.55-2.5,0-5.07-1.19-7.43-1.94l-5.62-1.78Q47,62,52.57,61.4l.12,0a73.52,73.52,0,0,0,11.75-2.07C67.23,60.51,70.46,61,73.37,61.68Z"/><path class="cls-1" d="M49.81,51.72l-7.94,1.91s0-.07,0-.11a27.54,27.54,0,0,0-.21-6.85,28.49,28.49,0,0,1,4.63,3.06A17.55,17.55,0,0,0,49.81,51.72Z"/><path class="cls-1" d="M69.33,44.58a17.88,17.88,0,0,0,4.31,1.33c-2.22.62-4.47,1.15-6.72,1.69l-3.58.86a31.53,31.53,0,0,1-8.66-4.71c2.33-.93,4.73-1.67,7.07-2.57a.77.77,0,0,0,.4.37C64.55,42.56,66.93,43.59,69.33,44.58Z"/><path class="cls-1" d="M47.88,31.05c2,1.46,3.89,3,6.28,3.77a78.59,78.59,0,0,1-12.87,3h-.66c0-.09,0-.19,0-.28a.85.85,0,0,0-.38-.88.8.8,0,0,0,.13-.45c0-2.64,0-5.27-.08-7.91A13.38,13.38,0,0,1,47.88,31.05Z"/><path class="cls-1" d="M88.39,30.47l1.46,1.19q-.28,4.35-.71,8.7a18,18,0,0,0-2.33.55c-2.83-.14-5.65-.28-8.47-.46-3.2-.2-6.26-1.56-9.43-1.69l-1-.69c.93-.58,1.84-1.2,2.75-1.83,5-3.53,10.86-7.81,17.34-5.8A.71.71,0,0,0,88.39,30.47Z"/><path class="cls-2" d="M122.12,127.12a.82.82,0,0,1-.33,1.1c-6.91,3.48-10.76-7.35-12.14-12.09a21.38,21.38,0,0,1-.63-9.86c.78-4.13,2.35-7.92,1.68-12.2-.55-3.45-2-6.69-2.65-10.1a28.2,28.2,0,0,1,.22-10.44c.65-3.91,1.52-7.94.61-11.88-.86-3.72-3-7-4.72-10.36a58,58,0,0,1-3.76-9.87c-.68-2.48-1.1-5-2-7.45a264.65,264.65,0,0,0,.26,26.86,418.07,418.07,0,0,0,5.36,43.47q1.8,10.47,3.86,20.9c1.23,6.25,2.9,12.72,2.2,19.13-1.15,10.52-9.49,16.32-19,18.86a95.26,95.26,0,0,1-15.39,2.38c-7.23.7-14.47,1.36-21.72,1.53a112,112,0,0,1-21-1.25c-4.88-.82-9.88-2.23-14-5.1a17.56,17.56,0,0,1-7.43-13A138.28,138.28,0,0,1,10.81,128a61.77,61.77,0,0,1,3.52-19.79C16.65,102,19.88,96.1,22.53,90A99.83,99.83,0,0,0,30.69,49.9a141.84,141.84,0,0,0-1.43-16.52,30.8,30.8,0,0,0-6.71,17.15c-.37,5.72,2.3,11.85.44,17.41-1.51,4.51-5.75,7-9.21,9.91-10.2,8.5-8.26,22.33-2.42,32.8a.83.83,0,0,1-.33,1.1c-7.32,4-10-8.83-10.63-13.27A33,33,0,0,1,3.53,78.17a25.71,25.71,0,0,1,5.88-7.44c2.91-2.51,5.95-4.35,7.26-8.18,2.37-6.91-.14-14.4,1.8-21.42A25.63,25.63,0,0,1,28.54,27.05a62.33,62.33,0,0,1,.4-18.19.81.81,0,0,1,1.2-.44,22.59,22.59,0,0,1,4.28,3.12,9.81,9.81,0,0,1,5.21-7.65A11.43,11.43,0,0,1,45.89,2.6a11.91,11.91,0,0,1,2-1c5.51-2.21,12.88-.23,14.86,5.78a.68.68,0,0,1-.34.86c3.64,1.23,7.38,1.79,11.14.16,4.3-1.86,8.07-5.79,13.11-5.08,2.89.41,5.92,2.28,6.19,5.28l5.77-1.63a.82.82,0,0,1,1,.81,91.64,91.64,0,0,1-.28,10.48c-.21,2.85-.39,5.68-.55,8.51,4.16,5,5.49,11.57,8.42,17.28,1.65,3.23,3.77,6.2,5.24,9.52A31.83,31.83,0,0,1,115,63.4c.7,7.54-2,14.85-.45,22.38.73,3.47,2.78,6.61,3.26,10.1.46,3.3-1.12,6.32-1.7,9.49C114.74,113.05,118.65,120.54,122.12,127.12Zm-9-6.26c1.23,2.71,3.54,7.32,7.11,6.23a68.45,68.45,0,0,1-4.62-10.32,8.21,8.21,0,0,0-3.92.57C112.15,118.54,112.65,119.71,113.16,120.86Zm1.26-15c.49-3.54,2.51-7,1.67-10.61-.77-3.38-2.58-6.37-3.23-9.83-1.34-7.23,1.15-14.19.61-21.4a30.12,30.12,0,0,0-3.21-11.4c-1.62-3.17-3.68-6.08-5.17-9.32-2.16-4.68-3.49-9.87-6.43-14.12,0,.39,0,.77,0,1.15,1.77,3.08,2.29,6.57,3.18,10a54.81,54.81,0,0,0,4.28,11.13c1.47,2.88,3.18,5.66,4.11,8.78a22.12,22.12,0,0,1,.3,9.75c-.51,3.44-1.37,6.89-1.24,10.4s1.37,6.71,2.28,10a20.56,20.56,0,0,1,.75,9.08c-.6,3.55-2,6.93-2,10.58a22,22,0,0,0,.94,5.71,9.9,9.9,0,0,1,3.91-.68A23.28,23.28,0,0,1,114.42,105.9Zm-6.71,42.19a22.48,22.48,0,0,0,1-7A65.8,65.8,0,0,0,107.05,129c-2.68-13.51-5.2-27.06-7.09-40.7a340.67,340.67,0,0,1-3.4-40.08q-.18-8.9.27-17.77a.68.68,0,0,1,0-.47c0-.71.09-1.42.13-2.13,0-.24,0-.48,0-.72-.18-.2-.37-.41-.57-.61a.81.81,0,0,1,.71-1.34c.42-5.47,1-10.95.87-16.44l-5.82,1.64-.11,0a.88.88,0,0,1,0,.24q.08,14.27-1.27,28.47c3.44.78,3.3,5.24,1.53,7.58a11.57,11.57,0,0,1-2.56,2.42.73.73,0,0,1,.26.61l-.19,5.66a.75.75,0,0,1-.19.49,6.05,6.05,0,0,1,1.77.54,4.2,4.2,0,0,1,2.44,3.62c-.05,1.79-1.53,2.68-3,3.32l-1.66.7a35.59,35.59,0,0,1-.76,9.5,3.26,3.26,0,0,1,4.69,2.15c.85,3.19-1.86,5.75-4.52,7.4L88.49,89c2.46-.08,4.71.71,4.91,3.69.26,3.85-2.88,5.33-6.14,6a22.7,22.7,0,0,1-2.16,6.09v0l.32,0a10.29,10.29,0,0,1,4.28,1c1.63,1,2.62,3.5,1,5-1,.89-2.63.59-3.84.57l-1.92,0c.13,3.41,3.18,5.78,5.46,8s4.45,4.33,6.57,6.59a61.25,61.25,0,0,1,10.65,14.82.79.79,0,0,1,.09.41.82.82,0,0,1-.61.76c-10.76,3.55-22.09,4.51-33.35,4.72A292.61,292.61,0,0,1,43.66,146c-9.29-.79-19.31-2.59-27.26-7.76a25,25,0,0,1-3.94-2.95c.09,2.79.23,5.58.38,8.36.18,3.36.42,6.81,1.89,9.89,2.28,4.79,7.2,7.56,12.05,9.14,5.82,1.89,12.08,2.44,18.16,2.7a171.73,171.73,0,0,0,20.54-.55c10.62-.82,22.71-1,32.42-5.91C102.43,156.65,106.14,153,107.71,148.09Zm-2-7.49A65.88,65.88,0,0,0,93.85,125c-.5-.51-1-1-1.51-1.5l0,0a64.94,64.94,0,0,0-51.55-5.37l-.94.49c-4.34,2-9.13,2.93-13.51,4.93a62,62,0,0,0-11.58,6.86c-1.22.93-2.44,1.74-1.36,3.35a12,12,0,0,0,2.83,2.44,30.2,30.2,0,0,0,5.56,3.16c8.76,3.91,18.48,5.08,28,5.47s19.07.41,28.56.05A104.89,104.89,0,0,0,105.73,140.6ZM91.2,94.88A2.68,2.68,0,0,0,89,90.55c-.21,0-.42,0-.63,0a.84.84,0,0,1-1.36.15c-2.45.42-4.9,1.72-7.1,2.53a45.9,45.9,0,0,1-15.64,3.28,54.84,54.84,0,0,0-7.73,2.29c-2.16.81-4.25,1.76-6.43,2.36,1.43,0,2.87-.06,4.29,0,3.69.09,7.43,1,11.11.78s7-2.23,10.58-3.19c3.21-.87,6.49-.92,9.77-1.32.16-.86,1.39-.93,1.59-.25A5.57,5.57,0,0,0,91.2,94.88Zm.44-17.27a2.64,2.64,0,0,0-.21-2c-1-1.14-1.85-1.12-2.55.08a.79.79,0,0,1-1.09.47,126.74,126.74,0,0,1-16.16,5.09c-5.65,1.36-11.41,2-16.79,4.27-4,1.67-6.63.09-10.08-1.93a10.86,10.86,0,0,0-2.08-.89,44.29,44.29,0,0,1,0,5.28.79.79,0,0,1,.11.42l-.1,2.71c3.5.87,7,1.76,10.56,2.48A.81.81,0,0,1,54,92.4l3.11.11a97.91,97.91,0,0,0,19.87-5.94c3.15-1.24,6.4-2.43,9.42-4l.76-.4a.79.79,0,0,1,1-.6,11.24,11.24,0,0,0,2.14-1.74A5.29,5.29,0,0,0,91.64,77.61ZM91,61.6c1.66-1,1.45-2.37.47-3.24l-.09,0L71.86,63.78,62.5,66.36a39.16,39.16,0,0,1-7.19,1.78.74.74,0,0,1-.68.38,44,44,0,0,0-13.05,2v0a.8.8,0,0,1-.7.74c-.1.42-.2.83-.29,1.24,2.84.8,5.4,3,8.42,3.2s5.86-.72,8.62-1.63l4.17-1.41a.71.71,0,0,1,.8-.67q.4,0,.78.12L65,71.55q7.59-2.67,15.1-5.56,4-1.55,7.94-3.15A19.27,19.27,0,0,0,91,61.6Zm-.15-15.49c1-1.1,1.65-3.22.89-4.49a.82.82,0,0,1-.5.18l-.6,0a.82.82,0,0,1-.77.62.73.73,0,0,1-.58.22l-2.34-.12c-2.84.9-5.53,2.43-8.32,3.48a98.61,98.61,0,0,1-12.08,3.34l-1.74.42a.83.83,0,0,1-1,.49,4.84,4.84,0,0,1-.51-.14L39.6,55.84a.91.91,0,0,1-.36,1.42,3.46,3.46,0,0,0-2.22,3c0,1.05.61,1.45,1.41,1.7a.71.71,0,0,1,.53-.36q6-.95,12.13-1.62a.94.94,0,0,1,.31-.08,69.17,69.17,0,0,0,11.21-1.74.85.85,0,0,1,1.23-.9l.78.41a91.62,91.62,0,0,0,10.17-3.35.7.7,0,0,1,1-.51l.16.07c3.62-1.46,7.24-3,10.72-4.78A13.54,13.54,0,0,0,90.82,46.11Zm-2.33,63.64c1.75-.57,1.53-1.69.58-2.44a5.08,5.08,0,0,0-2.35-.71c-6.94-.93-14-1.4-20.94-2.1a.84.84,0,0,1-.74-1h-.72c-3.46-.09-6.89-.73-10.36-.79a66.67,66.67,0,0,0-11,.7c-1.52.23-3.45.35-4.78,1.17a2.47,2.47,0,0,0-1.47,2.35c.14,1.26,1.3,1.68,2.48,1.81A56.19,56.19,0,0,0,45,109a.9.9,0,0,1,1,0H49.1l21.7.43,10.86.21,5.62.11A4.49,4.49,0,0,0,88.49,109.75Zm-.14,9.86c-.52-.51-1-1-1.55-1.54-1.87-1.92-3.42-4-3.51-6.81L80,111.2l-23.71-.47-10-.19a8.57,8.57,0,0,1-2.24,4.91A66.74,66.74,0,0,1,88.35,119.61Zm2.87-110C91.55,7,89.38,5.52,87.11,5c-2.78-.64-5.22.51-7.59,1.87a35.81,35.81,0,0,1-6.84,3.55,15.32,15.32,0,0,1-8.09.11C58.31,9.12,52.84,4.79,46.33,4.27c-4.95,3.56-6.25,10.55-5.88,16.31a15.09,15.09,0,0,1,8.92,1.93A24.54,24.54,0,0,1,54.14,26c.67.63,4.58,5.49,5.41,5s1.65.88.77,1.42l-.28.15c-1.21.53-2.26-.33-3.11-1.25a61.33,61.33,0,0,0-4.48-4.64c-3.43-3-7.84-5.18-12.39-4.42a30.31,30.31,0,0,1,.27,4.38,13.29,13.29,0,0,1,6.38,1.69c2.84,1.59,5.06,4.13,8.27,5a.73.73,0,0,1,.51,1q2.31-.8,4.58-1.71,3.2-1.3,6.31-2.87c7.27-3.65,14.88-7.9,23.31-6.9a.77.77,0,0,1,.61.39q.26-6.33.23-12.66a.71.71,0,0,1,.72-.75A.5.5,0,0,1,91.22,9.61ZM90,29.69c.11-1.8.21-3.6.28-5.41a.66.66,0,0,1-.63.24c-8.86-1.05-16.67,3.9-24.32,7.62a78.92,78.92,0,0,1-19.39,6.5,32.24,32.24,0,0,1,7.28,4.08.68.68,0,0,1,.31-.23c3.25-1.35,6.68-2.27,9.89-3.73a52.67,52.67,0,0,0,8.22-5.15c4.91-3.43,10.69-6.6,16.83-4.74a.67.67,0,0,1,.63.1Zm-.13,2-1.46-1.19a.71.71,0,0,1-.35,0c-6.48-2-12.32,2.27-17.34,5.8-.91.63-1.82,1.25-2.75,1.83l1,.69c3.17.13,6.23,1.49,9.43,1.69,2.82.18,5.64.32,8.47.46a18,18,0,0,1,2.33-.55Q89.56,36,89.85,31.66ZM74.45,61.38l14.31-4c-1.07-.07-2.18,0-3.23,0a26.59,26.59,0,0,1-3.67-.31,28.24,28.24,0,0,1-6-1.59c-2.89,1.13-5.82,2.15-8.78,3,2.28.68,4.74,1.06,6.92,1.61A.74.74,0,0,1,74.45,61.38Zm13.94-5.59a.73.73,0,0,1-.1-.42L88.47,50a70.53,70.53,0,0,1-7.15,3.29c-1,.46-2.08.9-3.12,1.33a26.08,26.08,0,0,0,6.28,1.16C85.73,55.88,87.07,55.75,88.39,55.79ZM86.9,73.47a34.45,34.45,0,0,0,.79-8.7c-4.24,1.78-8.56,3.43-12.89,5q6.35,2.09,12.55,4.62A.83.83,0,0,1,86.9,73.47Zm0,15.74L87,84.07l-.2.1A139.56,139.56,0,0,1,72.2,90.09a85.39,85.39,0,0,1-14.7,4,.87.87,0,0,1-.37.07h0l-.41.07c1.52.25,3,.45,4.55.6.9.08,1.78.11,2.66.11q2.22-.48,4.5-.81a.8.8,0,0,1,.81.37c4.94-.81,9.66-2.6,14.49-4.4A16.82,16.82,0,0,1,86.86,89.21Zm-3.13,14.71a20.06,20.06,0,0,0,1.83-5c-.89.12-1.75.2-2.5.26a36.87,36.87,0,0,0-10.41,2.37,33.14,33.14,0,0,1-4.58,1.51l11.08,1.11,4.57.45A.8.8,0,0,1,83.73,103.92ZM80.52,43.49l2.55-1.15c-1.6-.08-3.19-.17-4.79-.27a25.14,25.14,0,0,1-4.66-.65,29,29,0,0,0-4.62-1,.64.64,0,0,1-.6,0c-.13,0-.26,0-.39,0a.71.71,0,0,1-.75-.82L66.45,39a29,29,0,0,1-2.83,1.45l5.53,2.34c2.21.93,4.36,1.83,6.81,1.61a.63.63,0,0,1,.74.59C78,44.52,79.27,44,80.52,43.49ZM75.94,78.41q4.77-1.35,9.41-3.07Q79,72.79,72.44,70.7l-.1,0c-2.2.79-4.41,1.56-6.61,2.33.81.42,1.59.93,2.42,1.4a45.7,45.7,0,0,0,7.26,3.22A.76.76,0,0,1,75.94,78.41Zm-3.94,1c.74-.18,1.47-.37,2.21-.57a47,47,0,0,1-5-2.1c-1.82-.9-3.74-2.48-5.77-3l-.33.12c-4.46,1.53-9.37,3.8-14.2,3.42a14.87,14.87,0,0,1-5.63-1.87c-2-1-4.45-2.35-6.74-1.19-3.73,1.88.12,5,2.46,5.65a27,27,0,0,1,5.76,1.82c2,1.1,4.11,3,6.55,3,2.11,0,4.19-1.4,6.17-2C62.21,81.16,67.21,80.65,72,79.46ZM61.35,65l12-3.32c-2.91-.7-6.14-1.17-8.93-2.37a73.52,73.52,0,0,1-11.75,2.07l-.12,0Q47,62,41.42,62.83L47,64.61c2.36.75,4.93,1.91,7.43,1.94C56.76,66.59,59.16,65.61,61.35,65ZM73.64,45.91a17.88,17.88,0,0,1-4.31-1.33c-2.4-1-4.78-2-7.18-3a.77.77,0,0,1-.4-.37c-2.34.9-4.74,1.64-7.07,2.57a31.53,31.53,0,0,0,8.66,4.71l3.58-.86C69.17,47.06,71.42,46.53,73.64,45.91ZM59.16,96.17l-.26,0C51.44,95.07,44.07,93,36.72,91.3a.65.65,0,0,1-.54-.53,2.12,2.12,0,0,0-1.56,2.86,4.64,4.64,0,0,0,1.47,1.75,17.68,17.68,0,0,0,3.37,2.38c.52.29,1.06.55,1.61.79a2.05,2.05,0,0,0,1.15.92,2.28,2.28,0,0,0,1.32-.06h0l-.15.06a1.8,1.8,0,0,1,.22-.06h.76a1.83,1.83,0,0,0,.46,0c.06.14.12.28.17.43q1,.2,1.95.3c3.57-.29,6.8-2.06,10.14-3.25C57.79,96.61,58.47,96.38,59.16,96.17ZM52.65,51l7.94-1.91c-6.45-3-11.86-9.58-19-9.74l-1.08.14a25.45,25.45,0,0,0,.38,5c4.31,1.54,7.23,5.07,11.66,6.41ZM61.2,7.76s0,0,0,0c-1.65-5-7.93-6.46-12.51-4.73a34.64,34.64,0,0,1,6.17,2.06C56.91,5.92,59,6.93,61.2,7.76Zm-7,27.06c-2.39-.76-4.28-2.31-6.28-3.77a13.38,13.38,0,0,0-7.53-2.78c0,2.64,0,5.27.08,7.91a.8.8,0,0,1-.13.45.85.85,0,0,1,.38.88c0,.09,0,.19,0,.28h.66A78.59,78.59,0,0,0,54.16,34.82ZM41.87,53.63l7.94-1.91a17.55,17.55,0,0,1-3.5-2,28.49,28.49,0,0,0-4.63-3.06,27.54,27.54,0,0,1,.21,6.85S41.87,53.59,41.87,53.63Zm7.66,13.56c-1.14-.38-2.26-.81-3.35-1.15-1.49-.47-3-.9-4.55-1.34a34,34,0,0,1,.06,4A45.7,45.7,0,0,1,49.53,67.19ZM44.7,110.51h-.08c-2.5-.05-6.33.55-8.47-1.15a3.5,3.5,0,0,1-.17-5.09c1.81-2.08,5.21-2.25,7.74-2.59h.15l0-.09c0-.14-.06-.28-.09-.42a19.13,19.13,0,0,1-9.52-5.33c-1.25-1.36-2-3.2-.95-4.9a3.77,3.77,0,0,1,4-1.68.62.62,0,0,1,.56.67c1,.24,2.1.5,3.16.76l0-1a.75.75,0,0,1-.15-.53A44.42,44.42,0,0,0,41,82.2c-2.91-.77-6-1.44-7.25-4.22s1-5.19,3.63-5.68A6.54,6.54,0,0,1,39,72.21l.46-2a.91.91,0,0,1,.14-.64l0-.13a.67.67,0,0,1,.43-.52A37.37,37.37,0,0,0,40,64.19c-1.12-.35-2.23-.72-3.29-1.16-1.44-.59-1.49-2.42-1.12-3.8a5.1,5.1,0,0,1,3.3-3.54h0a.82.82,0,0,1,.32-1.41l1.2-.29a.72.72,0,0,1-.14-.52c.08-.8.12-1.6.13-2.39a.62.62,0,0,1-.08-.24c-.59-3.75-1.6-7.73-1.43-11.58A.78.78,0,0,1,39,38c0-.32.08-.64.14-1a1.72,1.72,0,0,1,.07-.21.75.75,0,0,1-.39-.68c0-2.6-.05-5.2-.08-7.8l-.57.07c-1,.15-1.41-1.42-.38-1.58l.94-.11a34.13,34.13,0,0,0-.24-4.05l-.13,0c-1,.33-1.35-1.25-.37-1.57l.18-.06a9.72,9.72,0,0,0-.38-1.27A.63.63,0,0,1,38,19a20.78,20.78,0,0,0-2.19-3.55.71.71,0,0,1-.67-.42,6.85,6.85,0,0,1-.34-.8,21.68,21.68,0,0,0-4.52-3.84,49.45,49.45,0,0,0-.61,9.42c.18,6.92,1.44,13.75,2.12,20.62a100.39,100.39,0,0,1,.13,18.75A105.31,105.31,0,0,1,22,95.05c-2.8,6-5.84,11.87-7.59,18.25a65.71,65.71,0,0,0-2,16.7,39.7,39.7,0,0,1,3.89-2.72,62.85,62.85,0,0,1,5.56-3.38,68.27,68.27,0,0,1,12.54-5.1,36.6,36.6,0,0,0,4-1.44.79.79,0,0,1,.44-.35l.92-.31C42.31,115.36,44.38,113.45,44.7,110.51ZM43.78,4.3A9,9,0,0,0,38.23,7a6.6,6.6,0,0,0-2,6.45,23.17,23.17,0,0,1,2.57,3.69C39.1,12.45,40.56,7.55,43.78,4.3ZM29,31.19c-.09-.76-.18-1.53-.26-2.3A23.75,23.75,0,0,0,19.36,45c-.71,6.09.93,12.43-1.24,18.33C16.06,68.91,10.33,71.16,7,75.77A29.17,29.17,0,0,0,1.61,93.84a46,46,0,0,0,.58,5.51h.09l3.06.1a26.61,26.61,0,0,1-.44-7.77A21.61,21.61,0,0,1,11.6,77.6C15.86,73.7,21.62,71,22,64.5c.17-3.4-.82-6.75-1-10.12a31.42,31.42,0,0,1,.61-8.32A32.46,32.46,0,0,1,29,31.19ZM2.48,101c1,5.26,3.13,11,7,9.68a42.76,42.76,0,0,1-3.81-9.57Z"/><path class="cls-3" d="M120.27,127.09c-3.57,1.09-5.88-3.52-7.11-6.23-.51-1.15-1-2.32-1.43-3.52a8.21,8.21,0,0,1,3.92-.57A68.45,68.45,0,0,0,120.27,127.09Z"/><path class="cls-3" d="M116.09,95.29c.84,3.64-1.18,7.07-1.67,10.61a23.28,23.28,0,0,0,.73,9.22,9.9,9.9,0,0,0-3.91.68,22,22,0,0,1-.94-5.71c-.07-3.65,1.37-7,2-10.58a20.56,20.56,0,0,0-.75-9.08c-.91-3.31-2.16-6.55-2.28-10s.73-7,1.24-10.4a22.12,22.12,0,0,0-.3-9.75c-.93-3.12-2.64-5.9-4.11-8.78a54.81,54.81,0,0,1-4.28-11.13c-.89-3.41-1.41-6.9-3.18-10,0-.38,0-.76,0-1.15,2.94,4.25,4.27,9.44,6.43,14.12,1.49,3.24,3.55,6.15,5.17,9.32a30.12,30.12,0,0,1,3.21,11.4c.54,7.21-2,14.17-.61,21.4C113.51,88.92,115.32,91.91,116.09,95.29Z"/><path class="cls-2" d="M108.69,141.09a22.48,22.48,0,0,1-1,7c-1.57,4.94-5.28,8.56-9.81,10.87-9.71,4.94-21.8,5.09-32.42,5.91a171.73,171.73,0,0,1-20.54.55c-6.08-.26-12.34-.81-18.16-2.7-4.85-1.58-9.77-4.35-12-9.14-1.47-3.08-1.71-6.53-1.89-9.89-.15-2.78-.29-5.57-.38-8.36a25,25,0,0,0,3.94,2.95c8,5.17,18,7,27.26,7.76a292.61,292.61,0,0,0,30.06.54c11.26-.21,22.59-1.17,33.35-4.72a.82.82,0,0,0,.61-.76Z"/><path class="cls-2" d="M108.69,141.09h-1a.79.79,0,0,0-.09-.41,61.25,61.25,0,0,0-10.65-14.82c-2.12-2.26-4.34-4.44-6.57-6.59s-5.33-4.57-5.46-8l1.92,0c1.21,0,2.83.32,3.84-.57,1.64-1.46.65-4-1-5a10.29,10.29,0,0,0-4.28-1l-.32,0v0a22.7,22.7,0,0,0,2.16-6.09c3.26-.65,6.4-2.13,6.14-6C93.2,89.74,91,89,88.49,89l.2-5.89c2.66-1.65,5.37-4.21,4.52-7.4a3.26,3.26,0,0,0-4.69-2.15,35.59,35.59,0,0,0,.76-9.5l1.66-.7c1.46-.64,2.94-1.53,3-3.32a4.2,4.2,0,0,0-2.44-3.62,6.05,6.05,0,0,0-1.77-.54.75.75,0,0,0,.19-.49l.19-5.66a.73.73,0,0,0-.26-.61,11.57,11.57,0,0,0,2.56-2.42c1.77-2.34,1.91-6.8-1.53-7.58q1.34-14.2,1.27-28.47a.88.88,0,0,0,0-.24l.11,0L98,8.78c.12,5.49-.45,11-.87,16.44a.81.81,0,0,0-.71,1.34c.2.2.39.41.57.61,0,.24,0,.48,0,.72,0,.71-.09,1.42-.13,2.13a.68.68,0,0,0,0,.47q-.47,8.86-.27,17.77A340.67,340.67,0,0,0,100,88.34c1.89,13.64,4.41,27.19,7.09,40.7A65.8,65.8,0,0,1,108.69,141.09Z"/><path class="cls-1" d="M93.85,125a65.88,65.88,0,0,1,11.88,15.61,104.89,104.89,0,0,1-27.45,4.24c-9.49.36-19.07.34-28.56-.05s-19.22-1.56-28-5.47a30.2,30.2,0,0,1-5.56-3.16,12,12,0,0,1-2.83-2.44c-1.08-1.61.14-2.42,1.36-3.35a62,62,0,0,1,11.58-6.86c4.38-2,9.17-2.9,13.51-4.93l.94-.49a64.94,64.94,0,0,1,51.55,5.37l0,0C92.85,124,93.35,124.48,93.85,125Z"/><path class="cls-3" d="M89,90.55a2.68,2.68,0,0,1,2.2,4.33,5.57,5.57,0,0,1-3.75,2.25c-.2-.68-1.43-.61-1.59.25-3.28.4-6.56.45-9.77,1.32-3.55,1-6.85,3-10.58,3.19s-7.42-.69-11.11-.78c-1.42,0-2.86,0-4.29,0,2.18-.6,4.27-1.55,6.43-2.36a54.84,54.84,0,0,1,7.73-2.29,45.9,45.9,0,0,0,15.64-3.28c2.2-.81,4.65-2.11,7.1-2.53a.84.84,0,0,0,1.36-.15C88.58,90.53,88.79,90.53,89,90.55Z"/><path class="cls-3" d="M91.43,75.58a2.64,2.64,0,0,1,.21,2,5.29,5.29,0,0,1-1.39,2.25,11.24,11.24,0,0,1-2.14,1.74.79.79,0,0,0-1,.6l-.76.4c-3,1.54-6.27,2.73-9.42,4a97.91,97.91,0,0,1-19.87,5.94L54,92.4a.81.81,0,0,0-.74,1.16c-3.54-.72-7.06-1.61-10.56-2.48l.1-2.71a.79.79,0,0,0-.11-.42,44.29,44.29,0,0,0,0-5.28,10.86,10.86,0,0,1,2.08.89c3.45,2,6.11,3.6,10.08,1.93,5.38-2.28,11.14-2.91,16.79-4.27a126.74,126.74,0,0,0,16.16-5.09.79.79,0,0,0,1.09-.47C89.58,74.46,90.43,74.44,91.43,75.58Z"/><path class="cls-3" d="M91.44,58.36c1,.87,1.19,2.21-.47,3.24a19.27,19.27,0,0,1-3,1.24q-3.95,1.6-7.94,3.15-7.5,2.9-15.1,5.56l-1.59.55Q63,72,62.6,72a.71.71,0,0,0-.8.67l-4.17,1.41C54.87,75,52,75.93,49,75.69s-5.58-2.4-8.42-3.2c.09-.41.19-.82.29-1.24a.8.8,0,0,0,.7-.74v0a44,44,0,0,1,13.05-2,.74.74,0,0,0,.68-.38,39.16,39.16,0,0,0,7.19-1.78l9.36-2.58L91.35,58.4Z"/><path class="cls-3" d="M91.71,41.62c.76,1.27.08,3.39-.89,4.49a13.54,13.54,0,0,1-4.17,3c-3.48,1.77-7.1,3.32-10.72,4.78l-.16-.07a.7.7,0,0,0-1,.51,91.62,91.62,0,0,1-10.17,3.35l-.78-.41a.85.85,0,0,0-1.23.9A69.17,69.17,0,0,1,51.4,59.87a.94.94,0,0,0-.31.08Q45,60.63,39,61.57a.71.71,0,0,0-.53.36c-.8-.25-1.43-.65-1.41-1.7a3.46,3.46,0,0,1,2.22-3,.91.91,0,0,0,.36-1.42l23.71-5.71a4.84,4.84,0,0,0,.51.14.83.83,0,0,0,1-.49l1.74-.42A98.61,98.61,0,0,0,78.6,46c2.79-1.05,5.48-2.58,8.32-3.48l2.34.12a.73.73,0,0,0,.58-.22.82.82,0,0,0,.77-.62l.6,0A.82.82,0,0,0,91.71,41.62Z"/><path class="cls-3" d="M89.07,107.31c1,.75,1.17,1.87-.58,2.44a4.49,4.49,0,0,1-1.21,0l-5.62-.11L70.8,109.4,49.1,109H46a.9.9,0,0,0-1,0,56.19,56.19,0,0,1-5.82-.22c-1.18-.13-2.34-.55-2.48-1.81a2.47,2.47,0,0,1,1.47-2.35c1.33-.82,3.26-.94,4.78-1.17a66.67,66.67,0,0,1,11-.7c3.47.06,6.9.7,10.36.79H65a.84.84,0,0,0,.74,1c7,.7,14,1.17,20.94,2.1A5.08,5.08,0,0,1,89.07,107.31Z"/><path class="cls-2" d="M87.11,5c2.27.52,4.44,2,4.11,4.61a.5.5,0,0,0,0,.27.71.71,0,0,0-.72.75q0,6.33-.23,12.66a.77.77,0,0,0-.61-.39c-8.43-1-16,3.25-23.31,6.9q-3.12,1.56-6.31,2.87l0-.08.28-.15c.88-.54.12-2-.77-1.42s-4.74-4.35-5.41-5a24.54,24.54,0,0,0-4.77-3.53,15.09,15.09,0,0,0-8.92-1.93c-.37-5.76.93-12.75,5.88-16.31,6.51.52,12,4.85,18.26,6.26a15.32,15.32,0,0,0,8.09-.11,35.81,35.81,0,0,0,6.84-3.55C81.89,5.51,84.33,4.36,87.11,5Z"/><path class="cls-3" d="M90.26,24.28c-.07,1.81-.17,3.61-.28,5.41l-.9-.72a.67.67,0,0,0-.63-.1C82.31,27,76.53,30.18,71.62,33.61a52.67,52.67,0,0,1-8.22,5.15c-3.21,1.46-6.64,2.38-9.89,3.73a.68.68,0,0,0-.31.23,32.24,32.24,0,0,0-7.28-4.08,78.92,78.92,0,0,0,19.39-6.5c7.65-3.72,15.46-8.67,24.32-7.62A.66.66,0,0,0,90.26,24.28Z"/><path class="cls-3" d="M88.76,57.43l-14.31,4a.74.74,0,0,0-.4-1.19c-2.18-.55-4.64-.93-6.92-1.61,3-.86,5.89-1.88,8.78-3a28.24,28.24,0,0,0,6,1.59,26.59,26.59,0,0,0,3.67.31C86.58,57.48,87.69,57.36,88.76,57.43Z"/><path class="cls-3" d="M83.07,42.34l-2.55,1.15C79.27,44,78,44.52,76.7,45a.63.63,0,0,0-.74-.59c-2.45.22-4.6-.68-6.81-1.61l-5.53-2.34A29,29,0,0,0,66.45,39l.81.59a.71.71,0,0,0,.75.82c.13,0,.26,0,.39,0a.64.64,0,0,0,.6,0,29,29,0,0,1,4.62,1,25.14,25.14,0,0,0,4.66.65C79.88,42.17,81.47,42.26,83.07,42.34Z"/><path class="cls-3" d="M85.35,75.34q-4.63,1.72-9.41,3.07a.76.76,0,0,0-.53-.8,45.7,45.7,0,0,1-7.26-3.22c-.83-.47-1.61-1-2.42-1.4,2.2-.77,4.41-1.54,6.61-2.33l.1,0Q79,72.79,85.35,75.34Z"/><path class="cls-3" d="M74.21,78.89c-.74.2-1.47.39-2.21.57-4.79,1.19-9.79,1.7-14.48,3.23-2,.64-4.06,2.08-6.17,2-2.44,0-4.51-1.91-6.55-3A27,27,0,0,0,39,79.9c-2.34-.64-6.19-3.77-2.46-5.65,2.29-1.16,4.71.15,6.74,1.19A14.87,14.87,0,0,0,49,77.31c4.83.38,9.74-1.89,14.2-3.42l.33-.12c2,.54,4,2.12,5.77,3A47,47,0,0,0,74.21,78.89Z"/><path class="cls-3" d="M58.9,96.14l.26,0c-.69.21-1.37.44-2,.68-3.34,1.19-6.57,3-10.14,3.25q-1-.1-1.95-.3c-.05-.15-.11-.29-.17-.43a1.83,1.83,0,0,1-.46,0h-.76a1.8,1.8,0,0,0-.22.06l.15-.06h0a2.28,2.28,0,0,1-1.32.06,2.05,2.05,0,0,1-1.15-.92c-.55-.24-1.09-.5-1.61-.79a17.68,17.68,0,0,1-3.37-2.38,4.64,4.64,0,0,1-1.47-1.75,2.12,2.12,0,0,1,1.56-2.86.65.65,0,0,0,.54.53C44.07,93,51.44,95.07,58.9,96.14Z"/><path class="cls-3" d="M60.59,49.12,52.65,51,52.51,51c-4.43-1.34-7.35-4.87-11.66-6.41a25.45,25.45,0,0,1-.38-5l1.08-.14C48.73,39.54,54.14,46.11,60.59,49.12Z"/><path class="cls-3" d="M60,32.59l0,.08q-2.26.91-4.58,1.71a.73.73,0,0,0-.51-1c-3.21-.91-5.43-3.45-8.27-5a13.29,13.29,0,0,0-6.38-1.69,30.31,30.31,0,0,0-.27-4.38c4.55-.76,9,1.38,12.39,4.42a61.33,61.33,0,0,1,4.48,4.64C57.78,32.26,58.83,33.12,60,32.59Z"/><path class="cls-2" d="M44.62,110.51h.08c-.32,2.94-2.39,4.85-4.91,6.19l-.92.31a.79.79,0,0,0-.44.35,36.6,36.6,0,0,1-4,1.44,68.27,68.27,0,0,0-12.54,5.1,62.85,62.85,0,0,0-5.56,3.38A39.7,39.7,0,0,0,12.39,130a65.71,65.71,0,0,1,2-16.7C16.15,106.92,19.19,101,22,95.05a105.31,105.31,0,0,0,9.94-35.86,100.39,100.39,0,0,0-.13-18.75c-.68-6.87-1.94-13.7-2.12-20.62a49.45,49.45,0,0,1,.61-9.42,21.68,21.68,0,0,1,4.52,3.84,6.85,6.85,0,0,0,.34.8.71.71,0,0,0,.67.42A20.78,20.78,0,0,1,38,19a.63.63,0,0,0-.23.79,9.72,9.72,0,0,1,.38,1.27l-.18.06c-1,.32-.62,1.9.37,1.57l.13,0a34.13,34.13,0,0,1,.24,4.05l-.94.11c-1,.16-.65,1.73.38,1.58l.57-.07c0,2.6.05,5.2.08,7.8a.75.75,0,0,0,.39.68,1.72,1.72,0,0,0-.07.21c-.06.32-.1.64-.14,1a.78.78,0,0,0-.1,1.27c-.17,3.85.84,7.83,1.43,11.58a.62.62,0,0,0,.08.24c0,.79,0,1.59-.13,2.39a.72.72,0,0,0,.14.52l-1.2.29a.82.82,0,0,0-.32,1.41h0a5.1,5.1,0,0,0-3.3,3.54c-.37,1.38-.32,3.21,1.12,3.8,1.06.44,2.17.81,3.29,1.16a37.37,37.37,0,0,1,.08,4.73.67.67,0,0,0-.43.52l0,.13a.91.91,0,0,0-.14.64l-.46,2a6.54,6.54,0,0,0-1.58.09c-2.68.49-4.86,2.9-3.63,5.68S38.13,81.43,41,82.2a44.42,44.42,0,0,1-.11,6.92.75.75,0,0,0,.15.53l0,1c-1.06-.26-2.11-.52-3.16-.76a.62.62,0,0,0-.56-.67,3.77,3.77,0,0,0-4,1.68c-1,1.7-.3,3.54.95,4.9a19.13,19.13,0,0,0,9.52,5.33c0,.14.07.28.09.42l0,.09h-.15c-2.53.34-5.93.51-7.74,2.59a3.5,3.5,0,0,0,.17,5.09C38.29,111.06,42.12,110.46,44.62,110.51Z"/><path class="cls-3" d="M28.73,28.89c.08.77.17,1.54.26,2.3a32.46,32.46,0,0,0-7.45,14.87,31.42,31.42,0,0,0-.61,8.32c.22,3.37,1.21,6.72,1,10.12C21.62,71,15.86,73.7,11.6,77.6A21.61,21.61,0,0,0,4.9,91.68a26.61,26.61,0,0,0,.44,7.77l-3.06-.1H2.19a46,46,0,0,1-.58-5.51A29.17,29.17,0,0,1,7,75.77c3.38-4.61,9.11-6.86,11.17-12.45,2.17-5.9.53-12.24,1.24-18.33A23.75,23.75,0,0,1,28.73,28.89Z"/><path class="cls-3" d="M9.51,110.65c-3.9,1.35-6-4.42-7-9.68l3.22.11A42.76,42.76,0,0,0,9.51,110.65Z"/></g><g id="_Group_2" data-name="&lt;Group&gt;"><path class="cls-1" d="M174.58,7.1l0,0c2.16-.84,4.28-1.87,6.33-2.76A34.78,34.78,0,0,1,187,2.28C182.45.58,176.18,2.1,174.58,7.1Z"/><path class="cls-1" d="M197.53,6.18A9.09,9.09,0,0,0,192,3.55c3.24,3.22,4.74,8.11,5,12.78a22.51,22.51,0,0,1,2.55-3.7A6.67,6.67,0,0,0,197.53,6.18Z"/><path class="cls-1" d="M149.81,117.65c-.5.52-1,1-1.53,1.55a66.74,66.74,0,0,1,44.23-4.5,8.63,8.63,0,0,1-2.28-4.89l-9.95.27-23.71.64-3.3.09C153.2,113.57,151.67,115.71,149.81,117.65Z"/><path class="cls-1" d="M150.91,98.54a20.08,20.08,0,0,0,1.86,4.94.77.77,0,0,1,0,.75l4.57-.5,11.07-1.19a35,35,0,0,1-4.6-1.47,36.48,36.48,0,0,0-10.42-2.29C152.65,98.72,151.8,98.65,150.91,98.54Z"/><path class="cls-1" d="M149.31,83.65l.22,5.14a17.24,17.24,0,0,1,3.18.83c4.84,1.77,9.57,3.53,14.52,4.3a.81.81,0,0,1,.81-.38c1.52.21,3,.46,4.51.78.87,0,1.75,0,2.65-.14,1.52-.16,3-.38,4.55-.63l-.41-.07h0a.74.74,0,0,1-.37-.07,84.49,84.49,0,0,1-14.73-3.86,139.44,139.44,0,0,1-14.68-5.8Z"/><path class="cls-1" d="M190,65.3c-1.08.36-2.2.79-3.34,1.18a44.76,44.76,0,0,1,7.85,1.5,36.48,36.48,0,0,1,0-4.05C193.05,64.38,191.52,64.82,190,65.3Z"/><path class="cls-1" d="M148.51,64.36a34.85,34.85,0,0,0,.86,8.69.83.83,0,0,1-.44.93q6.16-2.58,12.52-4.72C157.1,67.72,152.77,66.11,148.51,64.36Z"/><path class="cls-1" d="M147.84,55a.79.79,0,0,1-.09.42c1.31-.05,2.66.07,3.9,0a26.14,26.14,0,0,0,6.28-1.21c-1.05-.42-2.09-.86-3.13-1.31a67,67,0,0,1-7.18-3.22Z"/><path class="cls-1" d="M162.81,61.16l12.05,3.23c2.19.58,4.6,1.54,6.89,1.49,2.5,0,5.06-1.23,7.41-2l5.61-1.83q-5.57-.8-11.16-1.34l-.12,0a73.61,73.61,0,0,1-11.77-2C168.94,59.94,165.72,60.43,162.81,61.16Z"/><path class="cls-1" d="M186.29,51l8,1.85a.36.36,0,0,1,0-.11,26.62,26.62,0,0,1,.16-6.85A29,29,0,0,0,189.78,49,17.4,17.4,0,0,1,186.29,51Z"/><path class="cls-1" d="M166.72,44a18.5,18.5,0,0,1-4.3,1.36c2.23.6,4.48,1.12,6.73,1.64l3.59.83a31.64,31.64,0,0,0,8.62-4.77c-2.33-.92-4.74-1.64-7.08-2.52a.88.88,0,0,1-.41.37C171.49,42,169.11,43,166.72,44Z"/><path class="cls-1" d="M188.07,30.33c-2,1.48-3.88,3-6.26,3.82A76.79,76.79,0,0,0,194.7,37h.66c0-.1,0-.19-.05-.29a.85.85,0,0,1,.38-.88.7.7,0,0,1-.13-.44c0-2.64,0-5.28,0-7.92A13.31,13.31,0,0,0,188.07,30.33Z"/><path class="cls-1" d="M147.55,30.07l-1.45,1.19q.32,4.35.78,8.7a18.29,18.29,0,0,1,2.33.53c2.83-.16,5.65-.32,8.47-.53,3.19-.22,6.25-1.6,9.42-1.75l.94-.7c-.93-.58-1.85-1.19-2.76-1.82C160.23,32.2,154.37,28,147.9,30A.86.86,0,0,1,147.55,30.07Z"/><path class="cls-2" d="M120.37,105.17c-.6-3.16-2.2-6.17-1.77-9.47.45-3.49,2.48-6.65,3.19-10.13,1.54-7.54-1.27-14.83-.62-22.38a31.56,31.56,0,0,1,2.49-9.88c1.44-3.34,3.54-6.32,5.17-9.56,2.88-5.74,4.16-12.33,8.28-17.34-.18-2.84-.39-5.67-.62-8.51a94,94,0,0,1-.36-10.48.82.82,0,0,1,1-.82l5.79,1.59c.25-3,3.26-4.89,6.15-5.33,5-.75,8.83,3.15,13.15,5,3.77,1.6,7.51,1,11.14-.25a.67.67,0,0,1-.35-.85c1.93-6,9.29-8.07,14.82-5.89a11.15,11.15,0,0,1,2,1,11.34,11.34,0,0,1,6.27,1.24,9.79,9.79,0,0,1,5.27,7.61,23.34,23.34,0,0,1,4.25-3.16.81.81,0,0,1,1.21.44,61.93,61.93,0,0,1,.54,18.18,25.56,25.56,0,0,1,10.18,14c2,7-.45,14.51,2,21.4,1.34,3.82,4.4,5.63,7.33,8.13a25.77,25.77,0,0,1,5.94,7.39,33.07,33.07,0,0,1,3.28,20.28c-.62,4.45-3.17,17.29-10.52,13.36a.83.83,0,0,1-.34-1.1c5.75-10.51,7.59-24.37-2.68-32.79C219,74,214.78,71.53,213.24,67c-1.91-5.55.72-11.7.3-17.42a30.71,30.71,0,0,0-6.84-17.09,141.57,141.57,0,0,0-1.31,16.53,100,100,0,0,0,8.48,40c2.69,6.1,6,11.94,8.33,18.19A61.94,61.94,0,0,1,225.88,127a138.41,138.41,0,0,1-.58,19.74A17.58,17.58,0,0,1,218,159.81c-4.08,2.9-9.06,4.35-13.94,5.2a112,112,0,0,1-21,1.42c-7.26-.12-14.5-.73-21.73-1.37a95.29,95.29,0,0,1-15.41-2.26c-9.58-2.47-18-8.2-19.19-18.71-.76-6.41.87-12.89,2-19.15,1.31-7,2.57-13.94,3.7-20.93a415.5,415.5,0,0,0,5-43.5,264.68,264.68,0,0,0,0-26.87c-.82,2.41-1.23,5-1.89,7.46a56.86,56.86,0,0,1-3.68,9.9c-1.64,3.4-3.81,6.67-4.64,10.4-.88,3.95,0,8,.71,11.88a28.16,28.16,0,0,1,.29,10.43c-.66,3.42-2.05,6.67-2.57,10.13-.64,4.28,1,8.06,1.77,12.18a21.37,21.37,0,0,1-.55,9.86c-1.34,4.75-5.11,15.62-12,12.19a.82.82,0,0,1-.34-1.1C118,120.36,121.84,112.85,120.37,105.17Zm4.5,11.94a8.17,8.17,0,0,0-3.91-.54,69.05,69.05,0,0,1-4.55,10.36c3.58,1,5.85-3.57,7.06-6.29C124,119.49,124.46,118.31,124.87,117.11Zm-3.43-2.2a10,10,0,0,1,3.92.66,21.67,21.67,0,0,0,.89-5.72c0-3.65-1.42-7-2-10.57a20.54,20.54,0,0,1,.68-9.08c.89-3.31,2.11-6.57,2.21-10s-.79-7-1.33-10.39A22.27,22.27,0,0,1,126,60c.91-3.12,2.59-5.92,4-8.81A54.5,54.5,0,0,0,134.22,40c.87-3.41,1.36-6.91,3.11-10l-.06-1.14c-2.9,4.26-4.19,9.46-6.32,14.16-1.47,3.25-3.51,6.18-5.1,9.36a30.2,30.2,0,0,0-3.12,11.43c-.49,7.21,2.06,14.15.77,21.38-.62,3.47-2.41,6.48-3.16,9.87-.8,3.64,1.25,7.05,1.76,10.59A23.09,23.09,0,0,1,121.44,114.91ZM139,158.62c9.75,4.86,21.84,4.92,32.46,5.66a169.64,169.64,0,0,0,20.54.39c6.08-.3,12.34-.9,18.15-2.83,4.84-1.62,9.73-4.43,12-9.24,1.45-3.09,1.66-6.54,1.82-9.9.13-2.78.25-5.58.31-8.36a25.24,25.24,0,0,1-3.91,3c-7.91,5.24-17.92,7.12-27.21,8a295.09,295.09,0,0,1-30,.77c-11.27-.12-22.61-1-33.39-4.46a.83.83,0,0,1-.62-.76.79.79,0,0,1,.09-.41,61,61,0,0,1,10.54-14.9c2.1-2.28,4.3-4.47,6.51-6.65s5.3-4.61,5.4-8l-1.92,0c-1.21,0-2.83.34-3.84-.54-1.66-1.45-.68-4,.94-5a10.28,10.28,0,0,1,4.27-1l.32,0v0a22.21,22.21,0,0,1-2.2-6.07c-3.27-.63-6.42-2.08-6.19-5.93.17-3,2.42-3.79,4.88-3.72l-.24-5.9c-2.67-1.62-5.4-4.16-4.59-7.36a3.26,3.26,0,0,1,4.68-2.18,36.08,36.08,0,0,1-.83-9.5L145.25,63c-1.46-.63-2.95-1.5-3-3.29a4.18,4.18,0,0,1,2.4-3.64,5.89,5.89,0,0,1,1.77-.56.74.74,0,0,1-.18-.48L146,49.37a.75.75,0,0,1,.25-.62,11.58,11.58,0,0,1-2.58-2.4c-1.79-2.33-2-6.78,1.47-7.59q-1.44-14.19-1.49-28.45a.93.93,0,0,1,0-.25.2.2,0,0,1-.11,0l-5.84-1.59a164.25,164.25,0,0,0,1,16.43.81.81,0,0,1,.72,1.34c-.2.2-.38.4-.57.61l.06.71c.05.72.1,1.43.14,2.14a.68.68,0,0,1,0,.47c.36,5.91.48,11.84.41,17.76A340.74,340.74,0,0,1,136.43,88c-1.79,13.65-4.2,27.23-6.78,40.75a65.91,65.91,0,0,0-1.55,12.07,22.47,22.47,0,0,0,1,7C130.74,152.75,134.48,156.35,139,158.62Zm19.51-14.27c9.49.29,19.07.19,28.55-.27s19.21-1.71,27.95-5.68a30.77,30.77,0,0,0,5.53-3.21,11.74,11.74,0,0,0,2.81-2.45c1.07-1.62-.16-2.43-1.39-3.34a61.68,61.68,0,0,0-11.62-6.78c-4.4-2-9.2-2.83-13.55-4.83-.33-.15-.64-.31-.95-.48a64.91,64.91,0,0,0-51.5,5.77l-.05,0c-.51.49-1,1-1.5,1.51a66,66,0,0,0-11.76,15.7A105,105,0,0,0,158.54,144.35ZM149,96.72c.2-.69,1.43-.63,1.59.23,3.28.37,6.56.4,9.78,1.24,3.56.94,6.87,3,10.61,3.12s7.41-.75,11.1-.87q2.14-.07,4.29,0c-2.19-.59-4.28-1.52-6.44-2.32a55.22,55.22,0,0,0-7.75-2.22,46.46,46.46,0,0,1-15.67-3.16c-2.2-.8-4.67-2.08-7.11-2.48a.85.85,0,0,1-1.37-.14l-.63,0a2.69,2.69,0,0,0-2.17,4.35A5.63,5.63,0,0,0,149,96.72Zm-2.94-17.26a11.63,11.63,0,0,0,2.16,1.73.77.77,0,0,1,1,.59l.77.4c3,1.52,6.29,2.67,9.45,3.89a98.15,98.15,0,0,0,19.92,5.79l3.11-.13a.81.81,0,0,1,.75,1.15c3.53-.74,7-1.66,10.53-2.56l-.11-2.71a.69.69,0,0,1,.1-.42,46.52,46.52,0,0,1-.08-5.28,11.44,11.44,0,0,0-2.07.9c-3.44,2-6.08,3.65-10.06,2-5.41-2.24-11.17-2.82-16.83-4.14a127.23,127.23,0,0,1-16.2-5,.8.8,0,0,1-1.1-.47q-1.05-1.78-2.54-.06a2.61,2.61,0,0,0-.2,2A5.36,5.36,0,0,0,146.06,79.46Zm2.12-17c2.64,1,5.3,2.08,8,3.08q7.53,2.85,15.14,5.45c.53.18,1.07.35,1.6.54a4.88,4.88,0,0,1,.78-.12.7.7,0,0,1,.8.65c1.39.47,2.79.93,4.19,1.38,2.76.89,5.68,1.84,8.63,1.57s5.55-2.44,8.39-3.26c-.1-.42-.2-.83-.29-1.25a.77.77,0,0,1-.71-.72.11.11,0,0,1,0,0,44.3,44.3,0,0,0-13.06-1.85.77.77,0,0,1-.69-.38,39.49,39.49,0,0,1-7.2-1.71l-9.38-2.52L144.8,58l-.08,0c-1,.87-1.18,2.22.49,3.23A18.35,18.35,0,0,0,148.18,62.43Zm1.26-13.78c3.49,1.74,7.12,3.26,10.75,4.69l.16-.06a.7.7,0,0,1,1,.5A92.13,92.13,0,0,0,171.52,57c.27-.12.53-.26.79-.4a.84.84,0,0,1,1.23.89,70.39,70.39,0,0,0,11.23,1.65,1.09,1.09,0,0,1,.31.08q6.09.62,12.14,1.52a.67.67,0,0,1,.53.36c.8-.26,1.43-.67,1.4-1.71a3.48,3.48,0,0,0-2.25-3,.9.9,0,0,1-.37-1.41l-23.75-5.53a4.84,4.84,0,0,1-.51.14.82.82,0,0,1-1-.48l-1.75-.4a102.26,102.26,0,0,1-12.1-3.25c-2.8-1-5.5-2.54-8.35-3.42l-2.33.14a.76.76,0,0,1-.59-.22.83.83,0,0,1-.78-.61l-.59,0a.82.82,0,0,1-.51-.17c-.75,1.28-.05,3.39.93,4.48A13.41,13.41,0,0,0,149.44,48.65Zm-.18,60.65,5.63-.15,10.85-.3,21.7-.59c1,0,2.05,0,3.08,0a.89.89,0,0,1,1,0,51.1,51.1,0,0,0,5.82-.26c1.18-.14,2.34-.56,2.46-1.83a2.44,2.44,0,0,0-1.48-2.33c-1.34-.82-3.27-.92-4.79-1.14a67.77,67.77,0,0,0-11-.62c-3.47.09-6.89.76-10.35.88-.24,0-.48,0-.72,0a.84.84,0,0,1-.73,1c-7,.75-14,1.27-20.93,2.26a5.09,5.09,0,0,0-2.34.72c-1,.76-1.15,1.89.6,2.44A4.86,4.86,0,0,0,149.26,109.3Zm43.25,5.4a8.63,8.63,0,0,1-2.28-4.89l-9.95.27-23.71.64-3.3.09c-.07,2.76-1.6,4.9-3.46,6.84-.5.52-1,1-1.53,1.55A66.74,66.74,0,0,1,192.51,114.7Zm-48-105.21a.72.72,0,0,1,.73.75q0,6.33.32,12.66a.82.82,0,0,1,.61-.4c8.42-1.06,16.06,3.13,23.36,6.72q3.13,1.55,6.34,2.82,2.27.91,4.59,1.68a.74.74,0,0,1,.5-1c3.21-.93,5.4-3.48,8.23-5.1a13.39,13.39,0,0,1,6.37-1.74,31.81,31.81,0,0,1,.23-4.38c-4.55-.72-8.95,1.45-12.35,4.51A61.27,61.27,0,0,0,179,30.69c-.84.93-1.89,1.8-3.1,1.28a1.51,1.51,0,0,1-.28-.15c-.89-.53-.14-2,.75-1.43s4.71-4.39,5.38-5a24.24,24.24,0,0,1,4.74-3.57,15,15,0,0,1,8.9-2c.33-5.77-1-12.75-6-16.28-6.51.58-11.94,5-18.22,6.41a15.42,15.42,0,0,1-8.09,0,36.64,36.64,0,0,1-6.86-3.5c-2.38-1.35-4.83-2.48-7.61-1.82-2.26.54-4.43,2.08-4.07,4.65A.57.57,0,0,1,144.53,9.49Zm2.32,19.07a.7.7,0,0,1,.63-.1c6.12-1.91,11.92,1.22,16.86,4.62a52.72,52.72,0,0,0,8.27,5.08c3.22,1.44,6.65,2.33,9.91,3.65a.88.88,0,0,1,.32.23,32,32,0,0,1,7.24-4.13,79.07,79.07,0,0,1-19.44-6.36C163,27.89,155.11,23,146.26,24.12a.64.64,0,0,1-.63-.23c.09,1.8.2,3.61.33,5.41Zm0,11.4a18.29,18.29,0,0,1,2.33.53c2.83-.16,5.65-.32,8.47-.53,3.19-.22,6.25-1.6,9.42-1.75l.94-.7c-.93-.58-1.85-1.19-2.76-1.82C160.23,32.2,154.37,28,147.9,30a.86.86,0,0,1-.35,0l-1.45,1.19Q146.42,35.61,146.88,40Zm15.24,19.71c2.17-.56,4.63-1,6.91-1.66-3-.84-5.91-1.83-8.81-2.94a28.25,28.25,0,0,1-5.94,1.63,26.49,26.49,0,0,1-3.66.34c-1.06,0-2.16-.09-3.24,0l14.34,3.84A.75.75,0,0,1,162.12,59.67Zm-10.47-4.3a26.14,26.14,0,0,0,6.28-1.21c-1.05-.42-2.09-.86-3.13-1.31a67,67,0,0,1-7.18-3.22l.22,5.33a.79.79,0,0,1-.09.42C149.06,55.33,150.41,55.45,151.65,55.37ZM148.93,74q6.16-2.58,12.52-4.72c-4.35-1.54-8.68-3.15-12.94-4.9a34.85,34.85,0,0,0,.86,8.69A.83.83,0,0,1,148.93,74Zm3.78,15.64c4.84,1.77,9.57,3.53,14.52,4.3a.81.81,0,0,1,.81-.38c1.52.21,3,.46,4.51.78.87,0,1.75,0,2.65-.14,1.52-.16,3-.38,4.55-.63l-.41-.07h0a.74.74,0,0,1-.37-.07,84.49,84.49,0,0,1-14.73-3.86,139.44,139.44,0,0,1-14.68-5.8l-.21-.1.22,5.14A17.24,17.24,0,0,1,152.71,89.62Zm.08,14.61,4.57-.5,11.07-1.19a35,35,0,0,1-4.6-1.47,36.48,36.48,0,0,0-10.42-2.29c-.76-.06-1.61-.13-2.5-.24a20.08,20.08,0,0,0,1.86,4.94A.77.77,0,0,1,152.79,104.23Zm6.56-59.77a.64.64,0,0,1,.73-.6c2.46.2,4.6-.7,6.81-1.66l5.51-2.38a29.09,29.09,0,0,1-2.85-1.42l-.8.59a.7.7,0,0,1-.74.82h-.4a.65.65,0,0,1-.59,0,27.66,27.66,0,0,0-4.61,1,25.41,25.41,0,0,1-4.67.68c-1.59.12-3.18.22-4.78.31L155.52,43C156.78,43.57,158.06,44,159.35,44.46Zm1.54,32.64a44.89,44.89,0,0,0,7.24-3.28c.82-.47,1.6-1,2.41-1.41q-3.31-1.12-6.63-2.28l-.1,0c-4.35,1.42-8.64,3-12.88,4.74q4.66,1.68,9.43,3A.78.78,0,0,1,160.89,77.1ZM178.82,82c2,.63,4.08,2,6.19,2,2.43-.06,4.49-2,6.53-3.06a26.22,26.22,0,0,1,5.74-1.87c2.34-.66,6.16-3.82,2.41-5.67-2.3-1.14-4.7.19-6.73,1.24a14.85,14.85,0,0,1-5.62,1.92c-4.82.42-9.75-1.81-14.22-3.32l-.33-.11c-2,.55-3.93,2.15-5.75,3.07a46.68,46.68,0,0,1-4.93,2.13c.73.2,1.47.38,2.21.56C169.11,80.07,174.12,80.55,178.82,82Zm2.93-16.16c2.5,0,5.06-1.23,7.41-2l5.61-1.83q-5.57-.8-11.16-1.34l-.12,0a73.61,73.61,0,0,1-11.77-2c-2.78,1.22-6,1.71-8.91,2.44l12.05,3.23C177.05,65,179.46,65.93,181.75,65.88ZM169.15,47l3.59.83a31.64,31.64,0,0,0,8.62-4.77c-2.33-.92-4.74-1.64-7.08-2.52a.88.88,0,0,1-.41.37c-2.38,1-4.76,2.08-7.15,3.09a18.5,18.5,0,0,1-4.3,1.36C164.65,46,166.9,46.51,169.15,47ZM179.34,96.2c3.35,1.16,6.59,2.91,10.17,3.17a18.24,18.24,0,0,0,1.94-.32c.05-.14.11-.28.17-.42a2.27,2.27,0,0,0,.45,0h.77l.22.06-.15,0h0a2.28,2.28,0,0,0,1.32,0,2,2,0,0,0,1.15-.93A17,17,0,0,0,197,97a18.43,18.43,0,0,0,3.35-2.4,4.68,4.68,0,0,0,1.46-1.77A2.12,2.12,0,0,0,200.23,90a.69.69,0,0,1-.54.54c-7.34,1.74-14.69,3.87-22.15,5l-.25,0C178,95.74,178.66,96,179.34,96.2Zm4.25-45.91c4.42-1.37,7.31-4.92,11.61-6.49a26.31,26.31,0,0,0,.34-5.06l-1.09-.13c-7.17.22-12.53,6.83-19,9.89l8,1.85Zm-2.7-45.91A34.78,34.78,0,0,1,187,2.28c-4.59-1.7-10.86-.18-12.46,4.82l0,0C176.72,6.3,178.84,5.27,180.89,4.38ZM194.7,37h.66c0-.1,0-.19-.05-.29a.85.85,0,0,1,.38-.88.7.7,0,0,1-.13-.44c0-2.64,0-5.28,0-7.92a13.31,13.31,0,0,0-7.5,2.84c-2,1.48-3.88,3-6.26,3.82A76.79,76.79,0,0,0,194.7,37Zm-.47,15.74a26.62,26.62,0,0,1,.16-6.85A29,29,0,0,0,189.78,49a17.4,17.4,0,0,1-3.49,2l8,1.85A.36.36,0,0,1,194.23,52.75ZM194.54,68a36.48,36.48,0,0,1,0-4.05c-1.52.45-3,.89-4.54,1.37-1.08.36-2.2.79-3.34,1.18A44.76,44.76,0,0,1,194.54,68Zm2.27,47.94c.31.1.62.19.92.3a.78.78,0,0,1,.44.34,36.54,36.54,0,0,0,4.07,1.41,68.88,68.88,0,0,1,12.58,5,61.75,61.75,0,0,1,5.58,3.33,39.67,39.67,0,0,1,3.91,2.7,65.19,65.19,0,0,0-2.14-16.69c-1.79-6.37-4.88-12.25-7.72-18.19a105.65,105.65,0,0,1-10.23-35.78,101.24,101.24,0,0,1,0-18.75c.63-6.88,1.84-13.72,2-20.64a48.54,48.54,0,0,0-.68-9.41A21.65,21.65,0,0,0,201,13.42a6.76,6.76,0,0,1-.33.8.72.72,0,0,1-.67.43,20.72,20.72,0,0,0-2.16,3.56.63.63,0,0,1,.23.79c-.15.43-.26.85-.37,1.28l.19,0c1,.32.63,1.9-.37,1.58l-.12,0a32.13,32.13,0,0,0-.21,4.05c.32,0,.63.06.94.11,1,.14.66,1.72-.37,1.58l-.57-.07c0,2.6,0,5.2,0,7.8a.76.76,0,0,1-.39.69.48.48,0,0,1,.07.21,7.52,7.52,0,0,1,.15.95.79.79,0,0,1,.11,1.28c.2,3.84-.78,7.83-1.33,11.58a.85.85,0,0,1-.08.24c0,.8.06,1.59.14,2.39a.71.71,0,0,1-.13.52l1.2.28a.82.82,0,0,1,.33,1.41h0a5.1,5.1,0,0,1,3.32,3.52c.38,1.37.35,3.2-1.09,3.8-1.06.45-2.17.83-3.28,1.19a37.35,37.35,0,0,0-.05,4.73.64.64,0,0,1,.43.51l0,.14a.9.9,0,0,1,.16.63l.47,2a6.06,6.06,0,0,1,1.58.08c2.68.47,4.88,2.86,3.67,5.65s-4.31,3.49-7.21,4.28a45.7,45.7,0,0,0,.15,6.92.71.71,0,0,1-.14.53l0,1c1.06-.27,2.11-.54,3.16-.79a.62.62,0,0,1,.55-.68,3.8,3.8,0,0,1,4.06,1.66c1,1.69.33,3.53-.91,4.9a19.13,19.13,0,0,1-9.48,5.41l-.09.42s0,.06,0,.09h.14c2.54.32,5.94.46,7.76,2.53a3.5,3.5,0,0,1-.13,5.09c-2.13,1.71-5.95,1.14-8.46,1.21h-.08C192.2,112.71,194.28,114.6,196.81,115.92Zm.2-99.59a22.51,22.51,0,0,1,2.55-3.7,6.67,6.67,0,0,0-2-6.45A9.09,9.09,0,0,0,192,3.55C195.2,6.77,196.7,11.66,197,16.33Zm17.51,28.81a31.42,31.42,0,0,1,.67,8.32c-.19,3.37-1.16,6.73-1,10.12.4,6.49,6.18,9.16,10.47,13a21.59,21.59,0,0,1,6.81,14,27,27,0,0,1-.38,7.78l3.06-.13h.09a43.55,43.55,0,0,0,.53-5.51,29.15,29.15,0,0,0-5.47-18c-3.42-4.58-9.17-6.79-11.27-12.36-2.22-5.89-.62-12.24-1.38-18.32a23.69,23.69,0,0,0-9.5-16c-.07.76-.16,1.53-.24,2.3A32.56,32.56,0,0,1,214.52,45.14ZM230.78,100a42.5,42.5,0,0,1-3.74,9.6c3.91,1.31,6-4.47,7-9.74Z"/><path class="cls-3" d="M116.41,126.93c3.58,1,5.85-3.57,7.06-6.29.51-1.15,1-2.33,1.4-3.53a8.17,8.17,0,0,0-3.91-.54A69.05,69.05,0,0,1,116.41,126.93Z"/><path class="cls-3" d="M120.34,95.1c-.8,3.64,1.25,7.05,1.76,10.59a23.09,23.09,0,0,1-.66,9.22,10,10,0,0,1,3.92.66,21.67,21.67,0,0,0,.89-5.72c0-3.65-1.42-7-2-10.57a20.54,20.54,0,0,1,.68-9.08c.89-3.31,2.11-6.57,2.21-10s-.79-7-1.33-10.39A22.27,22.27,0,0,1,126,60c.91-3.12,2.59-5.92,4-8.81A54.5,54.5,0,0,0,134.22,40c.87-3.41,1.36-6.91,3.11-10l-.06-1.14c-2.9,4.26-4.19,9.46-6.32,14.16-1.47,3.25-3.51,6.18-5.1,9.36a30.2,30.2,0,0,0-3.12,11.43c-.49,7.21,2.06,14.15.77,21.38C122.88,88.7,121.09,91.71,120.34,95.1Z"/><path class="cls-2" d="M128.1,140.84a22.47,22.47,0,0,0,1,7c1.61,4.92,5.35,8.52,9.9,10.79,9.75,4.86,21.84,4.92,32.46,5.66a169.64,169.64,0,0,0,20.54.39c6.08-.3,12.34-.9,18.15-2.83,4.84-1.62,9.73-4.43,12-9.24,1.45-3.09,1.66-6.54,1.82-9.9.13-2.78.25-5.58.31-8.36a25.24,25.24,0,0,1-3.91,3c-7.91,5.24-17.92,7.12-27.21,8a295.09,295.09,0,0,1-30,.77c-11.27-.12-22.61-1-33.39-4.46a.83.83,0,0,1-.62-.76Z"/><path class="cls-2" d="M128.1,140.84h1a.79.79,0,0,1,.09-.41,61,61,0,0,1,10.54-14.9c2.1-2.28,4.3-4.47,6.51-6.65s5.3-4.61,5.4-8l-1.92,0c-1.21,0-2.83.34-3.84-.54-1.66-1.45-.68-4,.94-5a10.28,10.28,0,0,1,4.27-1l.32,0v0a22.21,22.21,0,0,1-2.2-6.07c-3.27-.63-6.42-2.08-6.19-5.93.17-3,2.42-3.79,4.88-3.72l-.24-5.9c-2.67-1.62-5.4-4.16-4.59-7.36a3.26,3.26,0,0,1,4.68-2.18,36.08,36.08,0,0,1-.83-9.5L145.25,63c-1.46-.63-2.95-1.5-3-3.29a4.18,4.18,0,0,1,2.4-3.64,5.89,5.89,0,0,1,1.77-.56.74.74,0,0,1-.18-.48L146,49.37a.75.75,0,0,1,.25-.62,11.58,11.58,0,0,1-2.58-2.4c-1.79-2.33-2-6.78,1.47-7.59q-1.44-14.19-1.49-28.45a.93.93,0,0,1,0-.25.2.2,0,0,1-.11,0l-5.84-1.59a164.25,164.25,0,0,0,1,16.43.81.81,0,0,1,.72,1.34c-.2.2-.38.4-.57.61l.06.71c.05.72.1,1.43.14,2.14a.68.68,0,0,1,0,.47c.36,5.91.48,11.84.41,17.76A340.74,340.74,0,0,1,136.43,88c-1.79,13.65-4.2,27.23-6.78,40.75A65.91,65.91,0,0,0,128.1,140.84Z"/><path class="cls-1" d="M142.82,124.62a66,66,0,0,0-11.76,15.7,105,105,0,0,0,27.48,4c9.49.29,19.07.19,28.55-.27s19.21-1.71,27.95-5.68a30.77,30.77,0,0,0,5.53-3.21,11.74,11.74,0,0,0,2.81-2.45c1.07-1.62-.16-2.43-1.39-3.34a61.68,61.68,0,0,0-11.62-6.78c-4.4-2-9.2-2.83-13.55-4.83-.33-.15-.64-.31-.95-.48a64.91,64.91,0,0,0-51.5,5.77l-.05,0C143.81,123.6,143.31,124.11,142.82,124.62Z"/><path class="cls-3" d="M147.4,90.14a2.69,2.69,0,0,0-2.17,4.35A5.63,5.63,0,0,0,149,96.72c.2-.69,1.43-.63,1.59.23,3.28.37,6.56.4,9.78,1.24,3.56.94,6.87,3,10.61,3.12s7.41-.75,11.1-.87q2.14-.07,4.29,0c-2.19-.59-4.28-1.52-6.44-2.32a55.22,55.22,0,0,0-7.75-2.22,46.46,46.46,0,0,1-15.67-3.16c-2.2-.8-4.67-2.08-7.11-2.48a.85.85,0,0,1-1.37-.14Z"/><path class="cls-3" d="M144.86,75.19a2.61,2.61,0,0,0-.2,2,5.36,5.36,0,0,0,1.4,2.24,11.63,11.63,0,0,0,2.16,1.73.77.77,0,0,1,1,.59l.77.4c3,1.52,6.29,2.67,9.45,3.89a98.15,98.15,0,0,0,19.92,5.79l3.11-.13a.81.81,0,0,1,.75,1.15c3.53-.74,7-1.66,10.53-2.56l-.11-2.71a.69.69,0,0,1,.1-.42,46.52,46.52,0,0,1-.08-5.28,11.44,11.44,0,0,0-2.07.9c-3.44,2-6.08,3.65-10.06,2-5.41-2.24-11.17-2.82-16.83-4.14a127.23,127.23,0,0,1-16.2-5,.8.8,0,0,1-1.1-.47Q146.35,73.47,144.86,75.19Z"/><path class="cls-3" d="M144.72,58c-1,.87-1.18,2.22.49,3.23a18.35,18.35,0,0,0,3,1.22c2.64,1,5.3,2.08,8,3.08q7.53,2.85,15.14,5.45c.53.18,1.07.35,1.6.54a4.88,4.88,0,0,1,.78-.12.7.7,0,0,1,.8.65c1.39.47,2.79.93,4.19,1.38,2.76.89,5.68,1.84,8.63,1.57s5.55-2.44,8.39-3.26c-.1-.42-.2-.83-.29-1.25a.77.77,0,0,1-.71-.72.11.11,0,0,1,0,0,44.3,44.3,0,0,0-13.06-1.85.77.77,0,0,1-.69-.38,39.49,39.49,0,0,1-7.2-1.71l-9.38-2.52L144.8,58Z"/><path class="cls-3" d="M144.31,41.24c-.75,1.28-.05,3.39.93,4.48a13.41,13.41,0,0,0,4.2,2.93c3.49,1.74,7.12,3.26,10.75,4.69l.16-.06a.7.7,0,0,1,1,.5A92.13,92.13,0,0,0,171.52,57c.27-.12.53-.26.79-.4a.84.84,0,0,1,1.23.89,70.39,70.39,0,0,0,11.23,1.65,1.09,1.09,0,0,1,.31.08q6.09.62,12.14,1.52a.67.67,0,0,1,.53.36c.8-.26,1.43-.67,1.4-1.71a3.48,3.48,0,0,0-2.25-3,.9.9,0,0,1-.37-1.41l-23.75-5.53a4.84,4.84,0,0,1-.51.14.82.82,0,0,1-1-.48l-1.75-.4a102.26,102.26,0,0,1-12.1-3.25c-2.8-1-5.5-2.54-8.35-3.42l-2.33.14a.76.76,0,0,1-.59-.22.83.83,0,0,1-.78-.61l-.59,0A.82.82,0,0,1,144.31,41.24Z"/><path class="cls-3" d="M147.46,106.9c-1,.76-1.15,1.89.6,2.44a4.86,4.86,0,0,0,1.2,0l5.63-.15,10.85-.3,21.7-.59c1,0,2.05,0,3.08,0a.89.89,0,0,1,1,0,51.1,51.1,0,0,0,5.82-.26c1.18-.14,2.34-.56,2.46-1.83a2.44,2.44,0,0,0-1.48-2.33c-1.34-.82-3.27-.92-4.79-1.14a67.77,67.77,0,0,0-11-.62c-3.47.09-6.89.76-10.35.88-.24,0-.48,0-.72,0a.84.84,0,0,1-.73,1c-7,.75-14,1.27-20.93,2.26A5.09,5.09,0,0,0,147.46,106.9Z"/><path class="cls-2" d="M148.63,4.58c-2.26.54-4.43,2.08-4.07,4.65a.57.57,0,0,1,0,.26.72.72,0,0,1,.73.75q0,6.33.32,12.66a.82.82,0,0,1,.61-.4c8.42-1.06,16.06,3.13,23.36,6.72q3.13,1.55,6.34,2.82l0-.07a1.51,1.51,0,0,1-.28-.15c-.89-.53-.14-2,.75-1.43s4.71-4.39,5.38-5a24.24,24.24,0,0,1,4.74-3.57,15,15,0,0,1,8.9-2c.33-5.77-1-12.75-6-16.28-6.51.58-11.94,5-18.22,6.41a15.42,15.42,0,0,1-8.09,0,36.64,36.64,0,0,1-6.86-3.5C153.86,5.05,151.41,3.92,148.63,4.58Z"/><path class="cls-3" d="M145.63,23.89c.09,1.8.2,3.61.33,5.41l.89-.74a.7.7,0,0,1,.63-.1c6.12-1.91,11.92,1.22,16.86,4.62a52.72,52.72,0,0,0,8.27,5.08c3.22,1.44,6.65,2.33,9.91,3.65a.88.88,0,0,1,.32.23,32,32,0,0,1,7.24-4.13,79.07,79.07,0,0,1-19.44-6.36C163,27.89,155.11,23,146.26,24.12A.64.64,0,0,1,145.63,23.89Z"/><path class="cls-3" d="M147.38,57l14.34,3.84a.75.75,0,0,1,.4-1.2c2.17-.56,4.63-1,6.91-1.66-3-.84-5.91-1.83-8.81-2.94a28.25,28.25,0,0,1-5.94,1.63,26.49,26.49,0,0,1-3.66.34C149.56,57.06,148.46,57,147.38,57Z"/><path class="cls-3" d="M153,41.89,155.52,43c1.26.55,2.54,1,3.83,1.44a.64.64,0,0,1,.73-.6c2.46.2,4.6-.7,6.81-1.66l5.51-2.38a29.09,29.09,0,0,1-2.85-1.42l-.8.59a.7.7,0,0,1-.74.82h-.4a.65.65,0,0,1-.59,0,27.66,27.66,0,0,0-4.61,1,25.41,25.41,0,0,1-4.67.68C156.15,41.7,154.56,41.8,153,41.89Z"/><path class="cls-3" d="M150.93,74.91q4.66,1.68,9.43,3a.78.78,0,0,1,.53-.81,44.89,44.89,0,0,0,7.24-3.28c.82-.47,1.6-1,2.41-1.41q-3.31-1.12-6.63-2.28l-.1,0C159.46,71.59,155.17,73.18,150.93,74.91Z"/><path class="cls-3" d="M162.11,78.37c.73.2,1.47.38,2.21.56,4.79,1.14,9.8,1.62,14.5,3.11,2,.63,4.08,2,6.19,2,2.43-.06,4.49-2,6.53-3.06a26.22,26.22,0,0,1,5.74-1.87c2.34-.66,6.16-3.82,2.41-5.67-2.3-1.14-4.7.19-6.73,1.24a14.85,14.85,0,0,1-5.62,1.92c-4.82.42-9.75-1.81-14.22-3.32l-.33-.11c-2,.55-3.93,2.15-5.75,3.07A46.68,46.68,0,0,1,162.11,78.37Z"/><path class="cls-3" d="M177.54,95.5l-.25,0c.68.2,1.37.42,2.05.66,3.35,1.16,6.59,2.91,10.17,3.17a18.24,18.24,0,0,0,1.94-.32c.05-.14.11-.28.17-.42a2.27,2.27,0,0,0,.45,0h.77l.22.06-.15,0h0a2.28,2.28,0,0,0,1.32,0,2,2,0,0,0,1.15-.93A17,17,0,0,0,197,97a18.43,18.43,0,0,0,3.35-2.4,4.68,4.68,0,0,0,1.46-1.77A2.12,2.12,0,0,0,200.23,90a.69.69,0,0,1-.54.54C192.35,92.24,185,94.37,177.54,95.5Z"/><path class="cls-3" d="M175.49,48.5l8,1.85.14-.06c4.42-1.37,7.31-4.92,11.61-6.49a26.31,26.31,0,0,0,.34-5.06l-1.09-.13C187.28,38.83,181.92,45.44,175.49,48.5Z"/><path class="cls-3" d="M175.92,32l0,.07q2.27.91,4.59,1.68a.74.74,0,0,1,.5-1c3.21-.93,5.4-3.48,8.23-5.1a13.39,13.39,0,0,1,6.37-1.74,31.81,31.81,0,0,1,.23-4.38c-4.55-.72-8.95,1.45-12.35,4.51A61.27,61.27,0,0,0,179,30.69C178.18,31.62,177.13,32.49,175.92,32Z"/><path class="cls-2" d="M191.93,109.76h-.08c.35,2.95,2.43,4.84,5,6.16.31.1.62.19.92.3a.78.78,0,0,1,.44.34,36.54,36.54,0,0,0,4.07,1.41,68.88,68.88,0,0,1,12.58,5,61.75,61.75,0,0,1,5.58,3.33,39.67,39.67,0,0,1,3.91,2.7,65.19,65.19,0,0,0-2.14-16.69c-1.79-6.37-4.88-12.25-7.72-18.19a105.65,105.65,0,0,1-10.23-35.78,101.24,101.24,0,0,1,0-18.75c.63-6.88,1.84-13.72,2-20.64a48.54,48.54,0,0,0-.68-9.41A21.65,21.65,0,0,0,201,13.42a6.76,6.76,0,0,1-.33.8.72.72,0,0,1-.67.43,20.72,20.72,0,0,0-2.16,3.56.63.63,0,0,1,.23.79c-.15.43-.26.85-.37,1.28l.19,0c1,.32.63,1.9-.37,1.58l-.12,0a32.13,32.13,0,0,0-.21,4.05c.32,0,.63.06.94.11,1,.14.66,1.72-.37,1.58l-.57-.07c0,2.6,0,5.2,0,7.8a.76.76,0,0,1-.39.69.48.48,0,0,1,.07.21,7.52,7.52,0,0,1,.15.95.79.79,0,0,1,.11,1.28c.2,3.84-.78,7.83-1.33,11.58a.85.85,0,0,1-.08.24c0,.8.06,1.59.14,2.39a.71.71,0,0,1-.13.52l1.2.28a.82.82,0,0,1,.33,1.41h0a5.1,5.1,0,0,1,3.32,3.52c.38,1.37.35,3.2-1.09,3.8-1.06.45-2.17.83-3.28,1.19a37.35,37.35,0,0,0-.05,4.73.64.64,0,0,1,.43.51l0,.14a.9.9,0,0,1,.16.63l.47,2a6.06,6.06,0,0,1,1.58.08c2.68.47,4.88,2.86,3.67,5.65s-4.31,3.49-7.21,4.28a45.7,45.7,0,0,0,.15,6.92.71.71,0,0,1-.14.53l0,1c1.06-.27,2.11-.54,3.16-.79a.62.62,0,0,1,.55-.68,3.8,3.8,0,0,1,4.06,1.66c1,1.69.33,3.53-.91,4.9a19.13,19.13,0,0,1-9.48,5.41l-.09.42s0,.06,0,.09h.14c2.54.32,5.94.46,7.76,2.53a3.5,3.5,0,0,1-.13,5.09C198.26,110.26,194.44,109.69,191.93,109.76Z"/><path class="cls-3" d="M207.19,28c-.07.76-.16,1.53-.24,2.3a32.56,32.56,0,0,1,7.57,14.81,31.42,31.42,0,0,1,.67,8.32c-.19,3.37-1.16,6.73-1,10.12.4,6.49,6.18,9.16,10.47,13a21.59,21.59,0,0,1,6.81,14,27,27,0,0,1-.38,7.78l3.06-.13h.09a43.55,43.55,0,0,0,.53-5.51,29.15,29.15,0,0,0-5.47-18c-3.42-4.58-9.17-6.79-11.27-12.36-2.22-5.89-.62-12.24-1.38-18.32A23.69,23.69,0,0,0,207.19,28Z"/><path class="cls-3" d="M227,109.64c3.91,1.31,6-4.47,7-9.74l-3.22.14A42.5,42.5,0,0,1,227,109.64Z"/></g></g></g></svg>