<svg xmlns="http://www.w3.org/2000/svg" viewBox="0 0 254.32 142.17"><defs><style>.cls-1{fill:#f4d72d;}.cls-2{fill:#f9e47e;}.cls-3{fill:#fff;}</style></defs><title>yellowShoes</title><g id="Layer_2" data-name="Layer 2"><g id="Layer_1-2" data-name="Layer 1"><path class="cls-1" d="M101.35,9.48c9,5,9,15.89,7.74,24.92a301.94,301.94,0,0,0-3.38,40.07c-.09,10.74,0,21-5.49,30.67-4.88,8.61-12.5,15.51-20.54,21.1-16.23,11.3-39.15,18.78-59,15.34s-24-28-17.5-44C9.59,81.69,25.9,72,42.5,74.15c.11-9.84.46-19.68,1.11-29.5.71-10.75.82-22.41,3.28-32.93,2.1-9,10.19-9.18,17.92-9.22,8.71,0,18.34-.13,26.8,2.2a21.19,21.19,0,0,1,8,4.18A5.11,5.11,0,0,1,101.35,9.48ZM98.82,35.86c.26-1.74.7-4,1-6.33a20.87,20.87,0,0,1-8,3.15c-9.26,1.76-28.07,2.59-36.79-5.3-.08.81-.16,1.62-.23,2.43Q52.43,55,52.45,80.36a5,5,0,0,1-6.33,4.82c-17.46-5.54-34.6,7.42-35.95,25.33-.49,6.58,1,14.56,6.47,18.86,6,4.69,17,3,24,1.91,15.93-2.52,31.44-9.79,43-21.15,5.68-5.59,10.22-12.26,11.5-20.25,1.4-8.79.44-18,.9-26.92C96.53,53.88,97.48,44.84,98.82,35.86ZM89.16,23c2.88-.54,7.17-1.21,5.3-5.07-1.35-2.78-4.92-3.6-7.68-4.13l-.23,0-.07,0c-7,2-13.29-.82-20.25-.16-1.89.18-5.47.88-5.82,3.18-.39,2.63,4,4.49,5.87,5.18C73.24,24.55,82,24.38,89.16,23Z" transform="translate(-0.25 -0.25)"/><path class="cls-2" d="M99.77,29.53c-.25,2.33-.69,4.59-1,6.33-1.34,9-2.29,18-2.76,27.1-.46,8.88.5,18.13-.9,26.92-1.28,8-5.82,14.66-11.5,20.25-11.55,11.36-27.06,18.63-43,21.15-7,1.11-18,2.78-24-1.91-5.51-4.3-7-12.28-6.47-18.86C11.52,92.6,28.66,79.64,46.12,85.18a5,5,0,0,0,6.33-4.82q0-25.32,2.35-50.55c.07-.81.15-1.62.23-2.43,8.72,7.89,27.53,7.06,36.79,5.3A20.87,20.87,0,0,0,99.77,29.53Z" transform="translate(-0.25 -0.25)"/><path class="cls-3" d="M94.46,18C96.33,21.83,92,22.5,89.16,23,82,24.38,73.24,24.55,66.28,22c-1.91-.69-6.26-2.55-5.87-5.18.35-2.3,3.93-3,5.82-3.18,7-.66,13.24,2.2,20.25.16l.07,0,.23,0C89.54,14.37,93.11,15.19,94.46,18Z" transform="translate(-0.25 -0.25)"/><path class="cls-1" d="M251.68,95.31c6.54,16.09,2.51,40.58-17.5,44s-42.81-4-59-15.34c-8.05-5.59-15.67-12.49-20.54-21.1-5.45-9.63-5.4-19.93-5.5-30.67a302.07,302.07,0,0,0-3.37-40.07c-1.29-9-1.3-19.9,7.73-24.91a5.3,5.3,0,0,1,1.7-.61,21.19,21.19,0,0,1,8-4.18C171.67.14,181.3.22,190,.27c7.73,0,15.83.25,17.92,9.22,2.46,10.52,2.58,22.18,3.29,32.93q1,14.73,1.1,29.5C228.92,69.77,245.23,79.46,251.68,95.31Zm-13.5,31.83c5.52-4.29,7-12.28,6.47-18.86-1.35-17.91-18.49-30.87-36-25.33a5,5,0,0,1-6.33-4.82c0-16.88-.76-33.75-2.34-50.55-.08-.81-.15-1.62-.23-2.43-8.73,7.89-27.54,7.06-36.8,5.3a20.82,20.82,0,0,1-7.94-3.15c.25,2.33.69,4.59.95,6.33,1.34,9,2.28,18,2.76,27.1.46,8.88-.5,18.13.9,26.92,1.28,8,5.81,14.66,11.49,20.25,11.55,11.36,27.06,18.63,43,21.15C221.2,130.16,232.16,131.83,238.18,127.14ZM188.55,19.8c1.91-.69,6.25-2.55,5.86-5.18-.34-2.3-3.93-3-5.82-3.18-7-.66-13.23,2.2-20.25.16l-.07,0-.23,0c-2.76.53-6.33,1.35-7.67,4.13-1.87,3.86,2.42,4.53,5.29,5.07C172.85,22.16,181.58,22.32,188.55,19.8Z" transform="translate(-0.25 -0.25)"/><path class="cls-2" d="M244.65,108.28c.5,6.58-1,14.57-6.47,18.86-6,4.69-17,3-24,1.91-15.94-2.52-31.45-9.79-43-21.15-5.68-5.59-10.21-12.25-11.49-20.25-1.4-8.79-.44-18-.9-26.92-.48-9.08-1.42-18.12-2.76-27.1-.26-1.74-.7-4-.95-6.33A20.82,20.82,0,0,0,163,30.45c9.26,1.76,28.07,2.59,36.8-5.3.08.81.15,1.62.23,2.43,1.58,16.8,2.33,33.67,2.34,50.55A5,5,0,0,0,208.7,83C226.16,77.41,243.3,90.37,244.65,108.28Z" transform="translate(-0.25 -0.25)"/><path class="cls-3" d="M160.37,15.74c1.34-2.78,4.91-3.6,7.67-4.13l.23,0,.07,0c7,2,13.29-.82,20.25-.16,1.89.18,5.48.88,5.82,3.18.39,2.63-3.95,4.49-5.86,5.18-7,2.52-15.7,2.36-22.89,1C162.79,20.27,158.5,19.6,160.37,15.74Z" transform="translate(-0.25 -0.25)"/></g></g></svg>